<svg version="1" id="图层_1" xmlns="http://www.w3.org/2000/svg" viewBox="0 0 300 33"><path class="st0" d="M94 33h-6l-2-2 2-1h11l1 1-1 2h-5zm-17-1a504 504 0 0 1-12-3l1-1 11 1 1 2-1 1zm33 0l-2-2 1-1 11-3 2 1-1 2-11 3zm-55-2l-11-2-1-2 2-1 10 2 2 1-2 2zm-21-4h-1a408 408 0 0 1-11-4l1-2a520 520 0 0 0 12 5l-1 1zm97 0l-2-1 1-2 10-4h2l-1 2-10 5zM12 21L1 18l-1-2 2-1 11 3 1 2-2 1zm139-4l-2-1 1-2 10-4 2 1c1 1 0 2-1 2l-10 4zm139-2h-1l-10-3a1 1 0 1 1 1-3l10 3 1 2-1 1zM171 9l-1-1 1-1c3-2 7-3 10-3a1 1 0 1 1 1 2l-10 3h-1zm98 0h-1l-11-2-1-1 2-2 11 2 1 2-1 1zm-22-3a397 397 0 0 0-12-3l1-2 11 2 1 1-1 2zm-55-2l-1-1 1-2 11-1 2 2-2 1-10 1h-1zm33-1h-11l-1-1 1-2h11c1 0 2 1 1 2 1 1 0 1-1 1z"/><path class="st0" d="M281 21v-2l16-4-10-12V2h2l11 14v1h-1l-17 5h-1v-1z"/></svg>