<svg version="1" id="图层_1" xmlns="http://www.w3.org/2000/svg" viewBox="0 0 300 33"><path class="st0" d="M210 33l-1-2 1-1 15-1 2 1-2 2-15 1zm-10 0l-15-3a1 1 0 1 1 1-2l14 2 2 1-2 2zm35-2l-1-1c-1-1 0-2 1-2l15-2 1 1-1 2-15 2zm-59-3l-15-6v-2h1l14 5c1 0 2 1 1 2l-1 1zm84-1l-2-1 1-2a421 421 0 0 0 17-2l-1 2-15 3zm24-5l-1-1c-1-1 0-2 1-2l14-4 2 1-1 2-15 4zm-131-3h-1l-13-6c-1 0-2-1-1-2l1-1a459 459 0 0 1 15 8l-1 1zM17 13l-1-1c-1-1 0-2 1-2l14-4 2 2-1 1-15 4zm113-3h-1l-14-4a1 1 0 1 1 1-3l14 4 1 2-1 1zM41 7l-1-1 1-1 15-3 1 2-1 1-15 2zm25-3l-2-1 2-2 15-1 1 2-1 1-15 1zm40 0h-1L91 3l-2-1 2-2 15 1 1 2-1 1zM10 6L0 17l15 3z"/></svg>