<svg version="1" id="图层_1" xmlns="http://www.w3.org/2000/svg" viewBox="0 0 300 23"><path class="st0" d="M300 23c-7 0-11-5-14-11-4-5-7-10-13-10-7 0-10 5-13 10-4 6-7 11-15 11-7 0-11-5-14-11-3-5-7-10-13-10s-9 5-13 10c-3 6-7 11-14 11s-11-5-15-11c-3-5-6-10-13-10s-9 5-12 10c-4 6-7 11-15 11-7 0-11-5-14-11-4-5-7-10-13-10S99 7 96 12c-3 6-7 11-14 11-8 0-11-5-15-11-3-5-6-10-13-10-6 0-9 5-12 10-4 6-8 11-15 11s-11-5-14-11C9 7 6 2 0 2V0c7 0 11 6 15 11 3 5 6 10 12 10s10-5 13-10c4-5 7-11 15-11 7 0 11 6 14 11s7 10 13 10 9-5 13-10c3-5 7-11 14-11s11 6 15 11c3 5 6 10 12 10 7 0 10-5 13-10 4-5 7-11 15-11 7 0 11 6 14 11 4 5 7 10 13 10s9-5 13-10c3-5 7-11 14-11 8 0 11 6 15 11 3 5 6 10 13 10s9-5 12-10c4-5 8-11 15-11s11 6 14 11c4 5 7 10 13 10v2z"/></svg>