<svg version="1" id="图层_1" xmlns="http://www.w3.org/2000/svg" viewBox="0 0 300 18"><path class="st0" d="M300 18c-4 0-6-5-8-9-1-4-3-8-6-8-4 0-5 4-7 8s-4 9-8 9-5-5-7-9-4-8-7-8-5 4-7 8c-1 4-3 9-7 9s-6-5-8-9-3-8-7-8c-3 0-4 4-6 8s-4 9-8 9-6-5-7-9c-2-4-4-8-7-8s-5 4-7 8-3 9-7 9-6-5-8-9-3-8-7-8c-3 0-5 4-6 8-2 4-4 9-8 9s-6-5-8-9c-1-4-3-8-6-8s-5 4-7 8-4 9-8 9c-3 0-5-5-7-9s-4-8-7-8-5 4-7 8c-1 4-3 9-7 9s-6-5-8-9-3-8-6-8c-4 0-5 4-7 8s-4 9-8 9-6-5-7-9c-2-4-4-8-7-8s-5 4-7 8c-1 4-3 9-7 9s-6-5-8-9-3-8-7-8c-3 0-4 4-6 8s-4 9-8 9-6-5-7-9C5 5 3 1 0 1V0c4 0 6 4 8 9 1 4 3 8 6 8 4 0 5-4 7-8 2-5 4-9 8-9s5 4 7 9c2 4 4 8 7 8s5-4 7-8c1-5 3-9 7-9s6 4 8 9c2 4 3 8 6 8 4 0 5-4 7-8 2-5 4-9 8-9s6 4 7 9c2 4 4 8 7 8s5-4 7-8c2-5 3-9 7-9s6 4 8 9c2 4 3 8 7 8 3 0 4-4 6-8 2-5 4-9 8-9s6 4 7 9c2 4 4 8 7 8s5-4 7-8c2-5 4-9 7-9 4 0 6 4 8 9 2 4 3 8 7 8 3 0 5-4 6-8 2-5 4-9 8-9s6 4 8 9c1 4 3 8 6 8 4 0 5-4 7-8 2-5 4-9 8-9s5 4 7 9c2 4 4 8 7 8s5-4 7-8c1-5 3-9 7-9s6 4 8 9c2 4 3 8 7 8 3 0 4-4 6-8 2-5 4-9 8-9s6 4 7 9c2 4 4 8 7 8v1z"/></svg>