<svg version="1" id="图层_1" xmlns="http://www.w3.org/2000/svg" viewBox="0 0 300 3"><path class="st0" d="M0 0h2v3H0zM296 3h-3V0h3v3zm-6 0h-3V0h3v3zm-6 0h-3V0h3v3zm-6 0h-3V0h3v3zm-6 0h-3V0h3v3zm-6 0h-3V0h3v3zm-6 0h-3V0h3v3zm-6 0h-3V0h3v3zm-6 0h-3V0h3v3zm-6 0h-3V0h3v3zm-6 0h-3V0h3v3zm-6 0h-3V0h3v3zm-6 0h-3V0h3v3zm-6 0h-3V0h3v3zm-6 0h-3V0h3v3zm-6 0h-3V0h3v3zm-6 0h-3V0h3v3zm-6 0h-3V0h3v3zm-6 0h-3V0h3v3zm-6 0h-3V0h3v3zm-6 0h-3V0h3v3zm-6 0h-3V0h3v3zm-6 0h-3V0h3v3zm-6 0h-3V0h3v3zm-6 0h-3V0h3v3zm-6 0h-3V0h3v3zm-6 0h-3V0h3v3zm-6 0h-3V0h3v3zm-6 0h-3V0h3v3zm-6 0h-3V0h3v3zm-6 0h-3V0h3v3zm-6 0h-3V0h3v3zm-6 0h-3V0h3v3zm-6 0h-3V0h3v3zm-6 0h-3V0h3v3zm-6 0h-3V0h3v3zm-6 0h-3V0h3v3zm-6 0h-3V0h3v3zm-6 0h-3V0h3v3zm-6 0h-3V0h3v3zm-6 0h-3V0h3v3zm-6 0h-3V0h3v3zm-6 0h-3V0h3v3zm-6 0h-3V0h3v3zm-6 0h-3V0h3v3zm-6 0h-3V0h3v3zm-6 0h-3V0h3v3zm-6 0h-3V0h3v3zM8 3H5V0h3v3zM299 0h2v3h-2z"/></svg>