<svg version="1" id="图层_1" xmlns="http://www.w3.org/2000/svg" viewBox="0 0 300 4"><path class="st0" d="M5 4H2L0 2l2-2h3l2 2-2 2zM289 4h-6l-2-2 2-2h6l2 2-2 2zm-12 0h-6l-2-2 2-2h6l2 2-2 2zm-11 0h-6l-2-2 2-2h6l2 2-2 2zm-12 0h-6l-2-2 2-2h6l2 2-2 2zm-12 0h-6l-2-2 2-2h6l2 2-2 2zm-12 0h-6l-2-2 2-2h6l2 2-2 2zm-12 0h-6l-2-2 2-2h6l2 2-2 2zm-12 0h-6l-2-2 2-2h6l2 2-2 2zm-12 0h-5c-2 0-2-1-2-2l2-2h5c2 0 2 1 2 2l-2 2zm-11 0h-6l-2-2 2-2h6l2 2-2 2zm-12 0h-6l-2-2 2-2h6l2 2-2 2zm-12 0h-6l-2-2 2-2h6l2 2-2 2zm-12 0h-6l-2-2 2-2h6l2 2-2 2zm-12 0h-6l-2-2 2-2h6l2 2-2 2zm-12 0h-5c-2 0-2-1-2-2l2-2h5c2 0 2 1 2 2l-2 2zm-11 0h-6c-2 0-2-1-2-2l2-2h5c2 0 3 1 3 2l-2 2zm-12 0h-6l-2-2 2-2h6l2 2-2 2zM88 4h-6l-2-2 2-2h6l2 2-2 2zM76 4h-6l-2-2 2-2h6l2 2-2 2zM64 4h-6l-2-2 2-2h6l2 2-2 2zM52 4h-6l-2-2 2-2h6l2 2-2 2zM41 4h-6l-2-2 2-2h6l2 2-2 2zM29 4h-6l-2-2 2-2h6l2 2-2 2zM17 4h-6L9 2l2-2h6l2 2-2 2zM298 4h-3l-2-2 2-2h3l2 2-2 2z"/></svg>