<svg version="1" id="图层_1" xmlns="http://www.w3.org/2000/svg" viewBox="0 0 300 5"><path class="st0" d="M0 0h3v5H0zM291 5h-6V0h6v5zm-12 0h-6V0h6v5zm-12 0h-6V0h6v5zm-12 0h-6V0h6v5zm-12 0h-6V0h6v5zm-12 0h-6V0h6v5zm-12 0h-6V0h6v5zm-12 0h-6V0h6v5zm-12 0h-6V0h6v5zm-12 0h-6V0h6v5zm-12 0h-6V0h6v5zm-12 0h-6V0h6v5zm-12 0h-6V0h6v5zm-12 0h-6V0h6v5zm-12 0h-6V0h6v5zm-12 0h-6V0h6v5zM99 5h-6V0h6v5zM87 5h-6V0h6v5zM75 5h-6V0h6v5zM63 5h-6V0h6v5zM51 5h-6V0h6v5zM39 5h-6V0h6v5zM27 5h-6V0h6v5zM15 5H9V0h6v5zM297 0h3v5h-3z"/></svg>