<svg version="1" id="图层_1" xmlns="http://www.w3.org/2000/svg" viewBox="0 0 300 8"><path class="st0" d="M296 8h-6c-2 0-4-2-4-4s2-4 4-4h6c2 0 4 2 4 4s-2 4-4 4zm-20 0h-6c-2 0-4-2-4-4s2-4 4-4h6c2 0 4 2 4 4s-2 4-4 4zm-21 0h-6c-2 0-4-2-4-4s2-4 4-4h6c2 0 4 2 4 4s-2 4-4 4zm-20 0h-6c-2 0-4-2-4-4s2-4 4-4h6c2 0 4 2 4 4s-2 4-4 4zm-21 0h-5c-3 0-4-2-4-4s1-4 3-4h6c3 0 4 2 4 4s-2 4-4 4zm-20 0h-6c-2 0-4-2-4-4s2-4 4-4h6c2 0 4 2 4 4s-2 4-4 4zm-21 0h-5c-3 0-4-2-4-4s1-4 4-4h5c3 0 4 2 4 4s-1 4-4 4zm-20 0h-6c-2 0-4-2-4-4s2-4 4-4h6c2 0 4 2 4 4s-2 4-4 4zm-20 0h-6c-2 0-4-2-4-4s1-4 4-4h6c2 0 3 2 3 4s-1 4-3 4zm-21 0h-6c-2 0-4-2-4-4s2-4 4-4h6c2 0 4 2 4 4s-2 4-4 4zM92 8h-6c-2 0-4-2-4-4s2-4 4-4h6c2 0 3 2 3 4s-1 4-3 4zM71 8h-6c-2 0-4-2-4-4s2-4 4-4h6c2 0 4 2 4 4s-2 4-4 4zM51 8h-6c-2 0-4-2-4-4s2-4 4-4h6c2 0 4 2 4 4s-2 4-4 4zM30 8h-6c-2 0-4-2-4-4s2-4 4-4h6c2 0 4 2 4 4s-2 4-4 4zM10 8H4C2 8 0 6 0 4s2-4 4-4h6c2 0 4 2 4 4s-2 4-4 4z"/></svg>