<svg version="1" id="图层_1" xmlns="http://www.w3.org/2000/svg" viewBox="0 0 272 300"><path class="st0" d="M124 43c0 1-2 0-1 2 0-1 2-1 1-2zm13-19h-1v-2c-2 1 0 3 1 2zm-14 18c0 2 0-3 0 0zm-8-26c2 0-2 0 0 0zm17 97l9 3v1l1 1h1c-1-1 3 1 1-1h3v1-1l1-1h1v-1c-1 0-3-1-4 1 0-1 0-1 0 0h-3v-2l1 1v-1c6-2 10-2 11-6 3 1 3-8 3-12l-1-4c-1-1-1-2-2-1 1-2-2-6-3-7 0-1 0-3-1-2v-1c1-2-3-1-2-4h-1l1-1-2-2h-3c-1-1 2-1 3-2v-1c2 0-1-6 1-2 1-1-2-3 1-4h-1l-1-1v-3h-1v-2l-1 1h-1l1-1s-1-2-2-1c3-4-5-5-1-10l-1 1c-2-3 1-8-2-12v2c-4-1 2-8-2-9 0 0 2 2-1 4 1-2-1-2-1-5l1 1-3-10h2c-2-1-1-4-4-5 1 4 2 6 1 12-1-1-1-4-2-3l-1-1v-4c0-2-1-1-3-3 3-4 0-6 0-12-1 2-2-3-5-3h-1c-5-3-9 7-4 3h1c1 1-1 0-2 1 5 2 6 8 7 12l-4-3c2 2-1 4 0 6-1-2 2-2 1-4 1 2 4 1 4 4l-1-1c0 1 4 6 0 5 0 2 2 1 2 4-2 0-2-2-3-3l1 3c-1 0-1-2-2-1-2 0 2-1 1-2-4 1-2-2-4-3v-2h-2c1-2-2-1 0-3h-1c0-1 3-3 1-4 1-2 2 0 3 0 0-2-5-2-4-5l-3 1c-2-3-1-3-4-1 1 0 1 2 2 0 1 2 0 2-1 1h-1v1c1 2 3 4 0 6 2 0 3-3 5-1l-3 1 3 5-1-1c-1 0-4-2-3 0 2-1 2 1 4 1l-1 2h6c-2 2-2 0-4 1l3 1-3 3h2v1l2-1c-1 0-2 1 0-1 1 2 2 2 1 4h1c1-1-1-1 1-1l-1 2c2-2 3 0 3 1 1-1 3 1 2 1 3 2 5-2 8 0-3 1 0 3-5 5h3c1 1-1 2-1 3 1 1 2-2 3 0-1-1-2 1-2 2 2-1 1-1 2 1l-3 1-1 1-1 1-1 1c-2 2 0 4 0 6l-3 1 1 3c-4 0-3-1-4-2 0-2 1 0 2 0 1-1-2-1 0-2l-3 1c3-3 0-3 0-6 0 0 2-3-1-3l2-4s-4-3-1-2c0-3-6 0-3-4-1 2-4-2-2-2v-1c-2-1-1 1-2 1v-2c-3-2-3-1-4-5v-1c-1 0-3 0-1-1-2-2-1 2-2 1v-1c0-2 0-5-3-5l1-2c0 1 1 3 2 1-3-1-1-4-5-6-1 1 1 2-1 3 5 2 1 0 0 3-3 4 1 11 2 14 0 1 3 3 2 4 0 1 3 2 1 3l1 2h1c6 6 0 10 2 17l-1 1h1c0 5 2 7 4 11 1 1 0 0 1-1-1 4 4 5 3 6l1 1 1-1c0 1 0 1 0 0 5 6 8 10 2 18v7h1l1 2 2 1 1 1 6 6 2 1zm0-92v2-2zm-8-11l2 1-2-1zm-6-4s0-1 0 0c1 0 0 0 0 0zm12 24c1-1 0-3 2-3-2 2 0 3-1 4l-1-1zm1 2c-1 1-1-1 0 0zm-17-18l-1 1c-2 0 1-2 1-1zm-3 0c-1-1 2 1 0 0zm1-2l-1-1c1-1 3 0 1 1zm-1-2l-1 2v-2h-2 3zm-3 0c-1 1 2 1 0 2 0-1-2-1 0-2zm1 4v-1 1zm2 3v1-1zm7 12l-2-2c2-1 2 0 2 2zm19 21v0zm-5-4h-1 1zm9 8c-1 0-2 0 0 0zm-3 0h-1 1zm-2 8h2c-2 1-2 2-2 0zm-34-40c1 2-4 3 0 0zm7 12c0-2 0 4 0 0zm7 14v-1 1zm-1-2c0-2 0 2 0 0zm17 50v-1 1zm15 5l-1 1c-1-1 0-1 1-1zm-4-14zm2 2l1-1-1 1zm-2-3h-1 1zm0-2c0 1-2-1-2 2v-3 1s2-2 2 0zm-8-9c-1 0-1 3-3 3 2-2 1-3 0-4 2-1 1 1 3 1zm-1-2l-2-2 1-1 1 3zm0-8h-1c-2-1 2-2 1 0zm-10-8c4 4 11 6 5 12l1-2h-2l2-3c0-2-3-4-4 0-1-1 1-2-1-3-2 1 1-1-1-2 3 0 1 1 0-2zm3 8v-2 2zm-6-6v1-1zm3-1v3c1 2-2 2-2 1l2-4zm-1 7c0-2 1 2 0 0zm6 6v0l2-3 1-2 1 1-2 1v5l-1-1s0 1 0 0l-1-1zm-8-4c-3-1 2 0 0 0zm1 0v0zm5 7l2-2c0 3 1 4 3 3v1c-2 1-3-3-4-1l-1-1zm-1 1l-1 1 1-1zm2 4c0-3 0 2 0 0zm-3-1v1-1zm12 3c-1 3-6 2-8 2l8-2zm-14 0v0zm7 13c-4-4 2-3 2-5 1 3 0 1 3 3 0-4-3-3-4-4l1-1c-2 0-1 3-2 1h-5l-1-1h2l-1 1c2-3 4-1 5-4l3 3c0-1 2-5 4-4 3 1 2 6 1 8-1-2-1 0-3-1 3 2-2 2-1 5-1 1 0-1-1-2 0-1-2 2 0 2v-1c2 1-2 2-3-1 1 4-1 0-1 4l1-3zm4-3l-1-1 1 1zm-5 6h1c0 2 0 2-1 0zm0 1c0-2 0 2 0 0zm-11-59c2 0-3 0 0 0zm1-1v2h3c-2 0-1-2-3-2zm72-21v-2 2zm-53 71l-1 1 1-1zm-8-77l-1 1 1-1zm1 2c2 0-2 0 0 0zm46 20v0zm-2-18l-1 1 1-1zm-52 24l-1 2c0-2 2-1 1-2zm53-26l-1 1 1 1c-1-1 2-2 0-2zm-44 80c-1 1-1-3-2-2 1 1 2 4 2 2zm-14-58l1 1c4-1 1-1-1-1zm-3-2c0 1 2-1 1-2l-1 2zm15 54v-1 1zm-22-61h1c0-2-2-1-1 0zm15 12c-1-1-2 0-2 1l2-1zm-9-6c1-2-2 2 0 0zm7 5v-1s2 2 0 1zm-5-3c3 0-2 0 0 0zm4 15h-1c0-4 0 3 1 0zm-5-40h-2 2zm8 26c2 0-2 0 0 0zm2 1c1 2 0-3 0 0zm-2 18c0 2 0-2 0 0zm-3 1v-1 1zm8-16c-3 0 1 3 0 0zm120 52c-2 2 1 2 0 0zm2 6c-2-1 0-2-1-2l-1 1 1 2 1-1zm2 0l3 1c-2-2-6-2-4 2 0-1 4 0 3-1-1 1-3-1-2-2zM114 9l3-1-1-1c-1 2-1-3-1-1 0 3-2 0-1 3zm135 80l-1-2-1 1 2 1zM112 6v1c0-1 0-2-1-1-1 3 4 1 1 0zm9 27c0 1 0 0 0 0zM110 6l-1-2c-1 1 0 3 1 2zm141 81c-3 2 2 4 2 5l1-2h-3c2-1 2-1 0-3zM127 62c2-1-3-2-2-1l2 1zm3 4l1-2-1 2zm62-18c1 0 2 2 4 1h-2c-1 0 2-1 0-1h6c4-3 1-5 4-8v2c2-1 4-3 5-8v-1-1l1-1v-1c-2 0 0-2-1-2v-1-1-1-2l-1-2-1-2v-1c-3-7-5-9-9-10V7c0 2-3-1-3 2v1l-1 1 1 1c-1 3-3 2-4 4 1-1 2 2 1 3-4-2-1-11-7-9h2c1 1-3 0-1 1-3-1-2 1-5 2l2 2c-4 2-6 7-5 10v1-1c-1 0-3 0-2-2-1 1-1 3 1 6-3 1 3 5 3 8l-1 1c1 0 8 5 4 6 2 0 2 2 3 3l1-2c1 1 0 2 2 3l-1 1h1c1 0 5 1 3-1zm9-37l-1-1 1 1zm0 2c0-3 3 0 0 0zm-3-4c0-2 0 3 0 0zm5 5h-1 1zm-1 1c-1-1 2 0 1 1 0 2 0 0-1-1zm1 7c-1-2 0 2 0 0zm-3 2h1c2 1-2 3-1 0zm-6 12v1h-1c-2 0 1 0 0-2l1 1zm-3-8l-2-1h1l1 1zm-3-2l1-1-1 1zm11 5h1-1zm-7-12c0-2 0 3 0 0zm-2 2h2c-1 0-1 2-2 0zm-3 1c1 2 2 1 2 0h1c0 1 1 2 1 0v2c-3-1-1-1-5 1-1-2 0-1 1-3zm-2 4c2-3 2 3 0 1h1l-1-1zm1 3c3-2 0 0 0 0zm2 2c-3 0 4 0 0 0zm-3 0l1-1-1 1zm-1-1c0-2 1 2 0 0zm-3-1c1 0 2 1 0 1 3 3 3 2 6 3l-1 1c-3 0-8-3-5-5zm17 18v-1l2 1h-2zm-15-8l1 1-1-1zm8 9c1-3-1 1 0 0zm56 41v0zm12-23v-1c0 1 2 3 0 1zm-7 6v-1 1zm-1 12c-2-2 2 2 0 0zm0 3c1-1-1-4-2-3l2 3zm1-5c-1-3-3-1 0 0zm2 35h-2 2zm-2-22c-2 1-2-3-4-1l4 1zm-8 16v-1c-1 3 2 3-1 5h2v2c1 1 2-2 3-1 1 2-2 0-1 2 1 0 2-1 2 1 0-2 3-3 0-4h3v-7h-1c-2-1 1-3 0-1l2-6c-3 1-5-1-7 1v1c-2 2 1 3 0 4h-1c-1 2 1 3-1 4zm3 5l-1-3c1-1 2 2 1 3zm1-3h-1 1zm1 1c0-2 0 2 0 0zm-3-8c0-2 3-1 0 0zm1-1c2 0 1 1-1 2-1-2 3 0 1-2zm5 14c-2-3-2 1-2 1-2-1 0 0 1 2 0-1 2-1 1-2-3 0 1 0 0-1zm-56-60h-1v-2 2c0 2 1 2 1 0zm-61 25c-2 1 3-1 0 0zm62-27c2 2-1-1 0 0zm54 60v-1 1zM131 12h1-1zm124 102c0 3 0-2 0 0zm-11 6zm11-23c0 1 2 2 0 1v-1zm-2-1c2 0-2 0 0 0zm-2-2c2 0-1-2 0 0zm-3 6h0zm1 0v0zm1-8c-1 1 2-1 0 0zm-131 76zm36-31h-3l2 2 1-2zm7 3c0-5-2 1 0 0zm-32 33c0-2-2 0-2 0h2zm31-30v-2 2zm-1-5c-2 0 2 0 0 0zm6 3v-2 2zm-1-3c1 1 2 0 0 0-1-1-1 0 0 0zm-5-2l-1-1 1 1zm0 0v0zm5 3h-1 1zm-23 6v0zm0 4c2 0-1-3 0 0zm1-2h1v3c0-2-1-1 2-2l-3-1zm7-9c2 3 2-1 0 0zm4 2l1-1-1 1zm0 0zm-6-4v0zm2-1c-3 0 0 2 0 0zm0-1h-1-1 2zm-28 35c-3-2 2 2 0 0zm4 6zm0 2h2v-1l-2-1v2zm0-2l-3-1c2 2 2 2 3 1zm-5 2c0-1 2-2 1-3-1 0-1 2-2 1l1 2zm6-4h0zm18-29c1 2 1-2 0 0zm8 59c3 3-1-2 0 0zm-32-32c1 1-3 0 0 0zm1 0c0 2 0-2 0 0zm40-1zm-4-29l-2 2c1 2 2 1 3 1l-1-3zm-1-4c-1 2 1 3 1 4l-1-4zm2 7v0zm-1-3zm1 48v-1 1zm1-4c2 1-1-2 0 0zm12 4s-1-2 0 0zm-12-44l2-1-2 1zm-45 34c2 1-1-2 0 0zm-13-23v-2 2zm6-6c1 2 0-2 0 0zm12 34c0 2 0-2 0 0zm-13-8l1 2-1-2zm0-30l1 1-1-1zm8 34h-1 1zm1 1c2 0-2 0 0 0zm-2-1zm125-43l1-1c-1-2 0 1-1 1zm8-8h0zm-81-4c0 1 1 0 0 0-1-2-1 2 0 0zm97-59c-3-3-2 2 0 0zm-30 74zm0 0zm-122 60c0 1 1 0 0 0h1-2 1zm53-72v-3l-1 1c1-1 1 2 1 2zm1-4c-1 1-3 0-2 1l2-1zm-18 14c2 1 2-1 0-1l-1 1h1zm-7-5zm1 2l-1-1 1 1zm9 7c-2-1 1-4-1-3-1 0-1 3 1 3zm-10-9v0zm1 6h1-1zm6 5zm-6-9zm8 10c1 2-2-2 0 0zm-9-15h-2 2zm74 65c1 2 0-2 0 0zm49-127c-4-1-5 1-8 1 2 3-6 2 0 5-4 0-2 3-2 4-1-1 0 1-1 1h1c1 2-1 1-1 1 0 1 2 1 2 3h-2l2 2h-1c-3 3 1 1 1 1 2 2 1 5 2 7l1-2 1 3c1-1 0 1 2 3l-1-1s-1 2-2 1l2 3c-2-2-2 0 0 1l2 2c-3 0-9 0-7 5v-1c0 2-2 2 0 3h-1l2 6c-3-1 0 1-2 3-1-1 0-2-2-2l5 8 2 1-2 1h2l1 1c0 1 2 0-1 2v-1h-3c-1-2-2-2-4-2 0 0-4 0-2 2l-1 1c-1 0-2-1-1-2h-2-1c1-2 2-2 4-1v-1s-3-4-6 0l3-1c-4 2-3 5-5 5 2 2 4 1 3 4-3 0 1-2-2-3v2c-2-1-2 1-4-1v2c0 3 0 0 3 1l-1-1c2-2 1 1 1 2 2 1 0-1 1-2l2 2-10 9 1 1c-1 4-6 5-7 2l-2 1c0-2 0-4-2-6l1-1h5l-1-2 3 1-2-4c1 0 3-1 2-2l-4 1 1 1-8 2c-2-1-3-3-5-3l-3 2c-2-1-3-3-5 0-1-1-3-1-1-2-4 0-2 2-2 5l-1-1c1 1-1 1-1 2h1l1 1c-2 0 0 3-3 2 0 0 3 1 1 3-1-1-2-1-2-3-1 2-2 0-2 2l-3-2-2 1c3-4-7-2-9-5l1 2c-1 2 0-2-1 0-1-1 2-1 0-2-3 1-7 1-7 4-1-1 0-2-1-1-2-1 1-1 1-2-3 0-1-4-5-7l-2-1s0-3-1-2c0-1 4 1 3-1l4 4-3-9v2c-1 1 0-1-2-2h1v-1c-3 0-3 1-4 3l1 1h1c-3 3-3-2-3-4h-1l1 1c-3-1-2 3-3 4 0-1-3-2-1 0 1 1 4-1 6 1l-2 1h-1v-1l-3 1c0-1 0-1 0 0-1-2-1-1-3 0 0-1 0 0 0 0-1-1-1 0-1 1h-1v-2c0-1 2-2 1-4 2 0 0 2 1 2l1 1-1 1c-1-2 2 0 1-1 2 0 0-6 1-8 1-1 0-1 0 0l-1 2v-4l-1 3v-2c-1-1-2 2-2 0-2-1-1 2-2 1-1-2-2-1-4-2 0 1-2 3-4 2v2c-1-1-2 0-1-1-2 0-1 5 1 4 1 0 0 2-1 0l1 3c-1 0-2-2-1-3-1 0-2 2-3 0h1c2-5-3-3-5-3l-3 1h2c0 3-3 0-4 0 0 1 2 0 2 2-2-1 0 3 0 5h-2v-5c-2-2-4 0-3 0l-6-1-3 2h-1l-5 2c-1-2-3 0-6-1l-1 1-1 1h-1s0 1 0 0l-1 1-1 1c1 2 0 3-1 3h-1 1c-1 1-2 1-1 2l-1 1-1-1c0 2-1 5-5 5 1 1-2 1 0 2h-3c-2 3-4 4-5 8h1c1-1 2 1 0 2h1c1 1 0 3 2 2 1 1-1 1-2 2h1l1 1c-1 1 0 3 1 5v1c2 0 2 4 4 3h1v1c1-3 1-2 3-2-3-1 1-1-1-3h-2c2 1 1-3 1-4l1 1c1-2 0-2-1-3 1 1 3-1 2-2-1 1-1 0-2-1 2-1 0-2 1-4 1 0 1 3 2 1 1-1-2-1-1-2h1l-1-2c1-1 4 1 3-1h-3c0-2 1 0 2-1-3-1-1 0-1-3l2 2c1-2 2-1 2-1 5 2 6-2 8-2l1 3-1-2v1c-2 0-1 2-2 3v-1l-2 3-1-1c0 1-1 1 0 0h-1c1 0-2 1-1 2l-1-1c-5 5-2 10-2 13h-1c-1 3 2 4 3 7 0-1 5 3 4 5 4-2 3 2 6 5 1-1-2-2 0-3l2 3c-4 2 3 3 4 4v1c-2 1-1-1-2-1 1 2-2 1-5 1 0-2 2-1 2 0 1-1 1-3-1-3 1 2-1 1-2 1v1l-1-1-1 2c-1 2-1-2-3 1 3 0 1 1 1 2-1 1 0-1-2-1l2 2c-1 2-4 1-3 3l1-1v2c3 0 2 5 3 5 1 1 0 0 1-1l1 1v1h-1v1l-1-1c-1 1 1 4-2 2l-1-1v-1l-1 1h-1v-1h1l2-1v-4c-1 2 1 3-1 4l-2-2v3l-2-2-1 2-1 1-1-2v-1c-1-2-9 2-5 3l-2 1-1 1s1 4-1 3v1h2c2-1 0 0 0 1h-2c-2 0-1 2-2 4l1 1v2l2 2 2-5v1c0 3 5 6 2 8h4l1 1 2-1h2l-2 1v1c-2-1-5-1-4 2-1-2-2-2-4-2l-1 2c-2 0 1-3 1-2-1-1-6-5-8-2 2 1 1 2 0 3l-2-1v2l-1-1c-4 0-6 3-11 2l-1 1h-1l-1 1c-1 2-1 4-3 2l1 1-3-5c1 3-1 0-2 1v-2l1 1v-1h-1l1-1h-1l-1 1v-1l-2-1h-1l2 2c-1 2-2 1-2 0 0 2 1 2 2 3-1 1-2-2-3 0-2-1-2-3-4-3 1-2 2 0 0-3l1-1 2 1-1-1h-2c1-2-5-3-4 0l-1-3h1l-1-1c-1 1-2 0-2-1v1h-1l-2 1h-2l-1 1h-1l-1-4v-2l-1-2v-2h-1c1-1-2-3-2-2l-4-4-1 1v-1l-1-1v-1l-2-1v-1l-4-2h-5-1l-1 1h-2l-1 1h-4v1h-1l-1 1H8l-1 1v-1l-1 1-2 1-1 1c-4 6-5 10-1 14v1l1 1 1 1v1l2 2h2v1l1 1 2 1c-1 1 2 2 2 3h2l1 1h2v1c-1 1 3 1 3 1l1 1c3 3 8 7 13 6h2v1l1 1c0 4 5 5 6 6h1c3-1 4 1 8 3v1l2-1 1 1 1 1 3 2h2l1 1v-1 1h4v-1h1v1h1v-1h1l2 1 3 1v-1 1h2l1 1 2 1v2h1c1 2 2 2 3 2v-1c1 1 2-1 3-2v1l1 1-1 1v1c0-1 2 1 1 2l2-1c2 2-4 2-2 5l1 1 1 1c1-1 2 2 2 1h1c2 1 3 4 5 4l1 1v-1l1 1h1l1 1v-1l1 1h3l2 1 1 1c1-1 3-1 4 1h3v1h2l1 1c1-1 2 1 3 1l2 1h4v1h2l1 1 2 1h2l7 1 2 2h12l1-1h1c-1-1 0-1 1-1v-3l-3-3v-1c1 2 4 0 3-2l1-1v-2-1-1l1-8 1-1h-1c-2-1 2-1 0-3l2 1c1 0-1-2 1-1v1l1 1v1l-3 1c2 1 2-1 2 1h1-1v6l-1 1 1 1v1 1l-1 1v2c-1 1 0 5-2 3v1c1 1-2 3-1 5-1 2 1 5 2 6l2 1h3v1h4l1-1 2 1h3v1l1-1v1c3 1 5 0 7-2 0 0-1 0 0 0 1-1 4-3 3-4h1c1 1 1-1 1-1l-1-1 1-1 2 2-1-3v-1l1 1 1 1h-1 2v-1h1l-1 2c1 1 0-1 2-1l1-1h5l-1-1 2-1c1 0 2 0 1-1h1 1v2l2-2h-1v-1h1c0 1 0 1 0 0 0 2 0 1 2 1h-1v-1h1v-1l2-1c0 1 2 0 0 0l1-1h2c1 0 2-1 0-1h1l4-3h2l1-1c0 1 0 0 0 0h1c-1-1 1-1 2-2h2c0-2 1-2 2-3 1 0 1 0 0 0v-1-2c-2 0 0-1-1-2v-2-1c2-2 0-3 0-4l1-1 1-1h-2l-1-1h0l1-2-1-1v-1c1-1 1-1 0 0l1-2-1-1 3-3-1 1c-3 3-2 2-1 0 1-4 0-4-1 0v-1-1c-2 2-1 0-1-1 1 0 2 0 1-1v-1h1l1-1v-1l-1-1 2-2h1c0 1 1-2-1-2v-1h1c1 1 1 0 0 0v-2c1 1 1 0 1-1l-1-1 1-2v-2l-1-3v-2-5l-1-1 1-2 1-2c0-1-2-2 0-2v-1l1-1h1v-1l1-1v-1l1-2 1-1v-1-1-1h-1l1-1c1 1 1 0 0 0l2-2v-1s2-1 1-2l1-1v-1l-1-1c-1 0-2-2-1-3 0 0 2 2 1 0h1l-1-1v-2-1h1l-1-1v-2c1 1-2-2 0-1-2-2 0-1 1-3v1l1-1v-1l1-2s2 0 1-2v-1c2-1 0-3 1-4l1-1 2-4h1l-1-4h1l-1-5-1-1v-2l-1-1v-2l-1-1v-1l1-1c-1-1-3-2-2-3l2-2v-1-1l1-1 1 1 1 3-1 1-1 1c2-1 1 1 3 1v1h-1l1 1v1l1 1c1 1 1 0 1-1h3l-1-3v-1l1-1c2 0 0-2 0-3l1-1c2 1 2-1 1-1l1-1v-2-2h1l2-1v-1-2l1-3v-1l1 1 1-2v-2-1c1-1 2-1 1-3h1v-1l1-1-1-3 1-1-1-2v-1h-1l-1-1 1-1c1 1 2 0 2-1v-1c-2 0 0-2-1-2v-1c0-3 2-5 1-7l1-1v-1h-1l1-3v-1-2l1-1c-1 0-1 0 0 0-2-4 0-9-2-11l-1-1-1-1v-1l-1 1-1-1-1-1-1-2 1 2zm-25 66v-1 1zm-70-7l-1 1c-2-1 2-2 1-1zm-2 1c0 3-1-1 0 0zm4 6c0 1-1 0 0 0zm-8-6c0-2 1 3 0 0zm-2-2c2 0 2 0 0 1v-1zm1 2c0-2 1 2 0 0zm-9-3c-1-2 3 1 0 0zm6 4l-1 1 1-1zm-23-1c-2-1 1-1 0 0zm-33 20h-1 1zm-2-3v-1 1zm10-1c2 2-1 2 0 0zm2 0h2-2zm-11 74h-1 1zm-7-6c0-2 0 2 0 0zm1 0h0zm-70-10zm-14 15c-2 3-3-3 0 0zm32 27zM8 213l1-1c3 1-1 1-1 1zm43 34zm1-1l-1-3 1 3zm-26-26zm-11-10l-1-1 1-1h1l-1 2s1-2 0 0zm25 22h2-2zm-23-22c0-3 0 2 0 0zm5 0l-1 1 1-1zm11 8l1 3v-1c2 0 0 2-1 2v-4zm8 10c0-2 1 2 0 0zm6 4v1c-1 1-2-3 0-1zm-1-3h-1l1 1h-2l1-1v-1l1 1zm-14-10l1-1c1-2 0 2-1 1zm15 9l1-1v2l-1-1zm3 0h-1 1zm43 38c-2 0 2 0 0 0zm-2-3c-2 0 2 0 0 0zm-44-38l-1-2h1v2zm1-2l-1-1v-1l1 2zm44 9c1 2-1 2 0 0zm0 12v1c-2-1 1-3 0 0v-1zm36 33v-1 1zm-42-38l-1-1v-2c1 2 2 1 4 2-2 1-1 2-3 1zm-7-5c2 1 2 1 3-1 0 1 2 1 1 3 0-2-3-1-3 0 0-1-2-1-1-2zm8 11v-1h1c2 1-2 2-1 1zm-18-12l-2-2c0-2-3-1-2-3 2 2 4 1 4 4l1 1c1-1 0-3 1-2s1 2 3 2v-2s0 1 0 0l1 1c1 1 6 2 2 4h-1c0-1-3-1-3 1v1h-1-1c-1 0 1-1-1-2l-1-1v-2zm26 23l-1-2v3c-4-1-1-11 1-1zm27 21c0-2 0 3 0 0zm-26-18c0-2 1 2 0 0zm3 3v0zm-13-16s0-1 0 0c1 0 0 1 0 0zm-33-26h1c0 2-3 2-1 0zm2 1c2 1 0 2 0 3-1 1 1-2-1-2l1-1zm-5-4c1 1 0 1-1 1l1-1zm-4 0h2v2l-2-2zm4 3l1-2c1 1 0 5-1 2zm3 4l1-1c0 1 0 2-1 1zm28 24c0-2 0 2 0 0zm15 14c0-3 1 3 0 0zm-45-38h1l-1 1v-1zm47 39l2 3c2-1-1 1 0 0h-2v-3zm7 8c-1-2-1-6-3-3-3-3 2-3 4-1-2 1 0 2-1 4zm4 1c-1 0-2 0-1-1l1 1zm-3-4c3 2-2 3 0 0zm3 2l1 1-1-1zm4 4c-2-1-4-3-1-4l1 4zm5 2c-1-2 2 1 0 0zm2 2v-2 2zm3 1v-1 1c2 0 1-1 3-2l1 1-4 1zm3 2c-1-2 2 0 0 0zm6 0v1c2 0-1 0 0 1l-2-2c2-1 3 0 5 1-2 1-1-1-3-1zm-5-6c2-1 2 3 0 0zm-33-31l-1-1 1 1zm-1-2c0-2 0 2 0 0zm-8-7l-2-1c1-2 1 0 2-1v2zm21 16v-1 1zm38 32c0-2 1 2 0 0zm-49-46c-2-3-3 1-5 1l-1-2c1-1 1 0 2 1 0-1 3-3 1-4h2v-1c-2-4 1-3 1-5v10zm63 46l1-1-1 1zm-24-25l1 1-1-1zm5 6c1-2 1 0 2-1 1 0-1 2-2 1zm-6-8l1-1-1 1zm-10-22v-1c0-1 2 2 0 1zm41 52c0 2-1 1-1-1l1 1zm22 1v-1 1zm-9-12v1c2 2-4-1-1-2v1h1zm-67-71v0zm-10-3l-1 1 1-1zm-2 2h1v1c0-1-2 0-1-1zm6 6h-1l-1-1 2 1zm3 1l1 1-2-1h1zm-7 0zm4 2v1-1s-1 0 0 0zm-4-3zm-2-1h-1l2-1-1 1zm0-3c-2 2-1-1 0 0zm78 67l-1-1h1v1zm-53-47l-2 1-1-1 1-1 2-1v-1l1 1v1l-1 1zm7 5h-1 1zm40 35l-1-2v-1l1 3zm-7-7v-1-1c3 0-1 4 0 2zm-63-56c1-1 0-3 1-1l-1 1zm4 0h-2c-1-2 2 1 2-1v1l1 1-1-1zm-3-2h0zm14 11c1 0-1 1 0 0zm10 9h-1 1zm-25-22c3 1-2 1 0 0zm13 11v-2 2zm14 10h-1 1zm-8-14h-2 2zm-5-2h-1 1zm0 1v1h-1l1-1zm-4-2v0zm-4-2v-1l1 1c-1 0 0 0 0 0 1 2-1 0-1 0zm9 8h-1v-1h1v1zm72 61l-3-4 3 4zm-68-63c0 1-2 0-1 1l-1 2v-1l-2-2v-2l1 1c-2 1 1 1 0 0h1c1 0-1 2 1 1-1-1 2 1 1-1v1zm-1-3c1 2 0 1-2 0l2-1v1zm-3-3l1-1c0 1 0 2-1 1zm2-1v-1c2 0 0 1-1 2l1-1zm6 3c0 1-2 0-1 2-1-1-2 0-1-1l1-1h1zm-10-9c-1 4 0 1-1 0h1zm69-50c-2 0 2 0 0 0zm-28-11h2-2zm-13-7v0zm-8 5l1 1-1-1zm-2 2c2 0 1-1 1-2 1-1 0 2 1 1l-1 1h-1zm5 3c-1 1 2-3 0 0zm-2-3l1 1c-1 1-1 0-1-1zm1 6l-3-4c3 0 2 2 3 4zm-5-6c2 2 0 0 0 0zm-5 3c-1-2 1-2 0 0zm-5 4c-1-2 3 0 0 0zm5 0c-2-2-3 0-3 0v-1c2-1 4 1 5-3 1 0 2 3 2 1v-2l1 2-1-4 3 2c0 2-1 0-2 1l5 4c1-3 2 0 2-3 2 1 2 1 2 4v-1l-1 3-1 1c0 2-5-1-6 1h-1c-3-3-14 0-5-5zm25 19c-1-2 2 0 0 0zm1 0c0-3 2 2 0 0zm4 3c-2 0-3 3-5-1 2-1 3 0 5 1zm2 4v1c-1 1-2-3-3-2h1v-2c0 3 1 3 2 3zm1 1v0zm-5-2c-3 0 3 0 0 0zm8 13c2-2 2 2 0 0zm-43-34c1-2 2-1 1-3 3-1 0 2 1 3h-2zm-2-1c0-2 0 2 0 0zm2 1l-1 1c-1-1 0-1 1-1zm37 37l-1-1 1 1zm-24-21c1 1 1 3 3 3-2 0-2-2-3-3zm22 20v1-1zm-26-21c-1-2 1 1 0 0zm18 17l1 1c-3 0-2 3-5 3-1-2 1-1-1-3 2-1 1 2 3 1 0 0 0-2-1-1-1-1 1-2 2-1h-1c1 2 1 0 2 0zm8 7h-1c0 2-1 2-3 2 0-2 2-2 4-2zm-5 2l-1-1h2l-1 1zm2-4l1 1-1-1zm-9 12c-3-2-3 0-2 3l-2-2h1l-1-1c0-2 2-3 3-4-3-2-4-2-5-5l4 2 1 1 1-1v1l3 1v0h1c2-1-1-2 1-3 1 3 0 4-1 6 0-2-8-4-4 2zm2-2c-2 0 2 0 0 0zm-3-1v1c2 2 0 0 0-1zm3 4v0zm0 2l-1-1 1 1zm-3-2c-1-2 2 0 0 0zm0 3c-2 0 2-1 0 0zm-15-16c1-1 1 1 3 1 1 0-3 0-2 1l-1-2zm9 2c1 1-3 2-1 3l-1-2-1 2c1 1 3 0 5 2-3 1-3 0-7-2 2 0 0-2 2-2-1-1-3-1-2-2 1 2 3 1 5 1zm4 5c1 0 0 1 0 0-1 0 0 0 0 0zm-1 1l1 1-1-1zm-2 1l-1 1 1-1zm-8-6l1-1s1 3-1 1zm-3-2c-2 0 2 0 0 0zm12-1c-1 2-1 1-1 0h1zm-6-3c0-2 3 1 0 0zm5-1s2 3 0 3v-3zm-1 0v-1 1zm11 9c0-2 0 2 0 0zm2 0c0-2 0 2 0 0zm-8-7l2 1c-2 1-4 0-1-2l-1 1zm-7-8c-1-1 3 4 0 0zm7 7v-1 1zm-9-8c-2 0 2-1 0 0zm-1-5c0-2 0 2 0 0zm-1-2c-2 0 2 0 0 0zm-3-2l1-1-1 1zm-13 14h3c1-1-1-1-1-1l5 1-3-1c0-1 2-2 0-2-1-1 1 0 1-1-3 0 0 0-2-2 1-1 2 0 2 1l1-1c-4-2 0-2-1-4 1-1 0 1 1 1 1 1-1-3 1-2-1 1 1 4-1 3l1 2v-2h1s-2-2 0-3c2 1 0 2 1 2v-3c0-2 2-1 5 1v-2c1-1 1 1 1 2h-1 1c1 2-3 0-3 2 3-1 2 0 5 2l1-1c1 2-2 1-1 2-2-1-4-3-5 0 1-1 3-1 4 1 1 0 1 0 0 0h-3l1 2v-2c3 1 0 1 2 3v-2c2 1 2 3 4 2-2 1 0 1 0 3-1 0-1-2-3-1 3 1-1 1 1 5-3-1-3-2-7 1l-1-2c2 1 2-2 1-3v3-2c-2 2-5 0-7-1l-4-1zm10 7l-1-1c1-1 2 0 1 1zm-1 0c-3-1 0-3 0 0zm3 2l2 1h-2v-1zm-3-1c-2 0 2 0 0 0zm13 11l-4-4v-2l-4-1h2l-1-2c5 4 8 8 11 14-2-1-1-3-4-5l-2 2c1-1 0-3 2-2zm20 17c1 2-2 0 0 0zm3 3c-3-1 2 0 0 0zm-10-7c-1 1-2 0-3-1 2 0 2 3 3-1v2zm77 67h-1 1zm-76-65c1-2 1 2 0 0zm-14-11c4 0-2 0 0 0zm0-3c2 2-1 3 0 0zm5 3l2 3c-2 0-3-1-2-3zm-10-4c1-3 4-2 0 0zm-5-5c0-1 0-1 0 0s-2 0 0 0zm9 10l-3-2c2 0 3 0 3 2zm19 15c-2 2-1 2 0 3-2 1-2-2-2-4l2 1zm36 31v0zm-44-34v-1 1zm-2-4v1h1l-1-1zm-12-11c0-2 0 2 0 0zm-5-4v1 1c-2-1 0-3 0-2zm1 2c-1-1 2 4 0 0zm4 4c-3 1 2-1 0 0zm16 14c-1 2-2 0 0 0zm7 6v0zm1 4v-3c2-1 2 3 2 2 1 2-2 0-1 2l-1-1zm66 55h-1 1zm-102-85c-2 0 2 0 0 0zm98 90l-1 1 1-2v1zm-104-91h0zm39 32zm-31-30l-1 1 1-1zm26 24l1-2-1 2zm76 61c-1 1-1-1-2 1h-1-1v-1h4zm-37-33v-1 1zm3 2v-1 1zm34 28c1-1 0 1 0 0zm-73-62c-2-2 1-1-2-2 2-2 3 1 5 0 0 2-2 0-3 2zm7 2v1-1zm72 60c-2 2-2-1-2 2l-1-2v-1c-1-1 1 0 1-1l1-2 1 1v1 2zm-72-65l1 2c2 0-3 0-1-2zm74 63h-1c-1 1 0 2-1 0l1-1h1v1zm-71-63c0-1 1 0 0 0zm64 54v-1 1zm-67-56c1-2-2-3 1-3l-2-1v3h-1l-2-1h2l-4-5-6 3c1-3 3-3 5-5l1 2c2 3 1 0 4 2 1-1-5-2-2-2h1s1 2 2 1v1h1l2 1c-3 2 2 5-2 4zm68 47v-1 1zm3 1h-1l1-1v1zm-2-2l-1-1h1v1zm-1-1l1-1-1 1zm3 1h-1l1-1v1zm-2-3c1 0 0 1 0 0zm2 1h-1l1-2c3-1 0 2 0 2zm-1-3v1-1zm-11-9c0-2 0 2 0 0zm12 9v-1 1zm-9-9v-1 1zm-6-7h0zm-10-10h0zm-24-23c3 4-1 2-2 0 1-1 2 2 2 1v-1zm34 22c-1-1 1 0 0 0zm20 17l-1-1c1 0 2 0 1 1zm0-5l-1 1v-1h1zm-49-41c0-2 3 1 0 0zm-2-2zm-11-2c3 1 4-1 6 2h-2c2 0 3 3 0 2l-5-4c-2 1 0 3 1 5v1l5 5-5 1-1-1c-1 3 2 7-1 11l-1-1 1-1v-3-1c1-4-8-8-8-5-1 0-3-3-4-1h-1l-2-3v-2l-4 3c2-4 1-6-3-8l1-2c3 4 7-3 11-3l1 1c2-1 2 0 4-3 2-2-2-7-1-11-2 0-1-3-3-1-1-1-1-3 1-2-2 0 0 2 1 1l1 2v-2c3 2 6 3 7 7l-6-2 1 2 1 2c-2 3 3 6 3 10 1-3 1-1 2-1 3 0 6-4 8-2l-8 4zm1-9v0zm14 12c2-3 2 2 0 0zm22 17c1 0 1 2 3 2-2 0-2-2-3-2zm-22-20l-1-1 1 1zm-2-1c-1 1-1-3-2 0-2-2 1-1 2-2v2zm-1-2zm0-1c0-1 0 0 0 0zm-31-28h-3c1-1 2-2 3 0zm43 37c2 2-1-2 0 0zm-15-14h-1 1zm18 15c-2-1 0 0 0 0zm-15-13v-1 1zm18 15v-1c-4-1 0-1 0 1zm-4-5h1l1 1-2-1zm0-1c-1-2 2 1 0 0zm5 4c-2 0 2 0 0 0zm6 4v-1 1zm-7-7c2-1-2 1 0 0zm4 2h-1 1zm-52-45c-1-2-3-1-4 0l1 2c-2 0-1-3-3-2 4 5 0 1 2 5-1 1 0-1-1-1v2h-1l-1-3c1 0 2 1 2-1l-2-1v5c-2-1-1-3-4-2v-1c2-1-1-3-1 0v-1l-1-1h-1v-3-1h1v1c0 2 2 2 3 1-1-2-2 1-2-1v-1h2-1l1-1v-1l-1-1v-1c1 1 1 0 1-1h-1c-1-1 0-2 1-2-3-1 0-2-4-4l2-2c-2-2-2-3 0-4-1 1 1 2 1 3 2-1-2-2-1-3l3 1h3l2 2 1 1c1 2 2 0 3 2v2l1-1 1 1h2v0l1-1c0 1 1 0 0 0h1s-1 3 1 2c1-1-2-1-1-2l1-1h1v1h1v-1h2l1 1c0 2 0 2 1 0l1 1v-1l1 1c0-1 1-2-1-2l1-1c0 1 0 1 0 0h1l1 1 1 1v2l-2 2v2h-1v1h-1l-2-2v3h-1l-3 3-1-1 1 1c-1-1-5 0-4-2-1 0 0 2-2 2v-3c1-1 0 1 1 1 0-3-1-2-3-5l1 3c-3-1-1-1-3 1 1 0 4 0 4 2-2 1-1-3-3-1l1 4zm24 0l1-1c2 3 1 0-1 1zm3 2c3 0 0 3 0 0zm-1 11v-1c1-1 0 1 1 1h-1zm-15-13h1-1zm29 24h-1 1zm-4-1c1-1 1 0 2 1h-1l-1-1zm18 15c2-1 3 2 0 0zm-16-16h1c0-3 1 0 1 1-1 1-4-1-2-1zm-1-1h-1l-1-1 1-1 1 2zm1-1c1 0 0 1 0 0zm-4-3l-1-1c-1-2 2 0 1 1zm6 3l1 1h-1v-1zm-11-8s-1 0 0 0l-1 2 1-5 1 2-1 1zm5 2v-1c-1-1 2-1 0 1zm9 8h-1 1zm16 14l1 1-1-1zm3 1h-2 2zm-19-16v-1h-1 2v1h-1zm-17-15l1-1c1 1 0 0-1 1zm-6-2h6c-2-1 0 0-1-3 4 3-1 5-5 3zm-8-8v-2l1 1-1 1zm11 6v-1 1zm12 23l1-1c1 0 1 1-1 1zm17 14zm-18-16h0zm20 21c0 2-1 1-1 0h1zm-54-45c2-1 5-3 6 0h-6zm69 52c-2 1-1-2-2-2l-2-1c-1 0 0 2-2 1 1 2-1-1 1-1-2 0-3-1-3-2v-1l6 2c2 1 0 3 2 4zm-1-4l1 1h-1c2 1 1 2 2 1l-1 1-1-3zm4 3c1 1-3 1-1-1l1 1zm-13-11c1 1 3 1 2 3l-1-1-5-1 5-2-1 1zm22 16v-1 1zm-8-11c2 2 0 0 0 0zm-2-1h-3-2c-1 0-4-2-4-4v1h8c-1 1 1 3 1 3zm-24-21h-1 1zm-1-1h-1 1zm3 0h-1l-1-1v-1h1v1c-1 1 2 0 1 1zm32 27l-1-1s-2 0-1 1l-1-1c1-1 4-1 3 1zm-12-11h-1 1zm-2-2c-1-1 3 0 0 0zm-19-17h0zm26 21l1-1-1 1zm-9-8c1-2 2-1 0-2 2-1 2 2 0 2zm3-1v1-1zm-17-15c-1 0 2 1-1 1-3-1-1 2-3 2 0 1 0 1 0 0l-1-1v3h-1v-1c1-1 0-3-1 0-1-2 0-2-1 0 0 0 0-2-1-1l-1-1c0-2 1 1 2-1l3 1c2 0 0-2-2-2 1 0 4 0 2-1h1l1-1h3v2zm-8 1v-1c2 0 0 2 0 1zm0-7l1 1-1 1v-2zm-2-1h-1 1zm29 22v-1 1zm-29-23h-1-1v2c1 1 3 0 3 2-4-1-5 0-8 1 1-3 2-4 4-4-4 0 0-2 0 1 1-1-1-4 2-4l-1 1 1 1h1c-1-2 1-2 4-1l-4 1zm29 22h0zm17 13v1l-1-1v-1l1 1zm-33-30v1h-2v-1h2zm-12-7v-1h3l-3 1zm38 29v-1 1zm-1-3v1h-1l1-1zm-5-12v-1 1zm-10-11c2-1 1-1 0 0zm-10-14l1 1-1-1zm0-2v-1 1zm0-2l-1 1v-1h1zm10 8l-2-1c1-1 3 0 2 1zm5 3c0-2 0 2 0 0zm3 1c2-1 2 2 0 0zm-3-2c2-2 2 1 0 0zm6 3v-1 1zm10 8l-1-1 1 1zm19-15v1c-2 1 0-2-1-2v-1l1 2zm-11-10c-2-2 2-2 0 0zm-1-5c0-2 0 2 0 0zm3 3c-1 1-1-1 0 0zm-2-1v-2 2zm13-16h-1c-1-2 0 0 1 0zm5 2l-1-1 1 1zm1-1c-1 2-1-2 0 0zm1-1h-1 1zm-3-4l1 1-1-1zm3 2l1 1c-3 2-1-3-2-3h-1c2-2 3 2 2 2zm-1-4c2 1 1 2 0 0zm1 0l1-1c2 1-2 2-1 1zm2-5h-3l-1-1h3l1 1zm-67 60c3-2-1-2 0 0zm-37 114c0-2 0 4 0 0zm0-7l-1-2c-1 1 1 3 1 2zM61 226v-3c-3 0-2 2 0 3zm88-82l2 1-2-1zm-4-5v-1h-1v2l1-2v1zm72 56v0zm-94-33c1 3-2-2-1 0l1 2v-2zm79-18h0zm-4-14c2-1-2 1 0 0zm-38-10c4-1 0-2 0 0zm-3 2c-1-2-1 1 0 0zM48 72v1c2 0 1-2 0-1zm138 59v-1 1zm11 0c-2 0-2 0 0 0-1 2 1 0 0 0zm-3 1c2 2-2-2 0 0zm7-2c-2 1 0 3 0 0zM49 61h0zm62 126c2 3-2-1 0 0zm-30-47c2-1-2-1 0 0zm22 43c2 0-2 0 0 0zm-18-41l1 1 7-2 3-5 4-6v-6h-1c-1-1-1-4-4-5 2 0 0-3-2-1v-1c-2-4-5-6-10-4l-1 1v1c-1 2-3 0-4 3 1-1 3-2 4 0-3 1 0 1-1 3h-1l-2 1c0 2 1 3-2 3v-1c1-1 2-2 0-3 0 0 1 1-1 2-1-1 2-2-1-2v1c-1 1 2 2 1 3l-1-1v1c1 0 1 2 2 1v1c1 8 6 12 9 15zm0-7h-1l-1-2-2-1h3v1c-1 1 1 1 1 2zm0-2c0 2 0 1 2 1-1 1-3 1-2-1zm6 0v2-1-1l-1-1 1 1zm-3 0l1-1c1 1 0 2-1 1zm1-1l-1-1h1v1zm4-4c0 1 0 2-1 1l-1-1v-2l2 2zm-4-4l1 4 1 2 1-1v1l1 1v1l-1 1v-1s-1-2-2-1c0-3-4-8-2-8l1 1zm2-2l-1 1h1v1h-1v-2h1zm-2-2l1 1v1c-1 0-3 0-2-1v-2l1 1zm-12 7v-1c2-1 3 2 1 2l-1-1zm2 1c1-1 0-2-1-3h2l2 3c1-2-1-6-3-3-1-1 0-4 1-2l1-1c2 0 1 3 3 4v-4c-2 0-2-3-2-3 1-2 0 2 1 0v-4-1l2 1-1 2 1 1-2 3 1 1 2-2h-2l2-2h1v1c-1-1-1 2 0 0h1l-1 1h-1c1 1 1 2-1 2 3 1 1 5 3 7-2 0-3-2-3-4 1 0 1 0 0 0v0c-2 1 1 2 0 3l2 2v1c0 1 4 6 1 5l-1-2c0-1-1-3-2-2v-1c0-2-1-1-1 0l-1-1c2 0 0-3 0-2v1c-1 2-1-1-2-2v3c-2 0-1-1-1-2h-1v1-1zm-8-24v-1c1 0 2-1 1-2 1 0 2 1 3-1h2c2-3-1-8-3-9v-1l-1-1v-1c-1-1 1 2-1 1l-1-2c-2-1-1-3-2-1l-1 1c-1-1-1 0-1 1l-2-1v1l-1 1h1l2 5c0 1 1 4 2 3l1 1v3l-1-1-1-1h-1l1-1-1-1h-1l-1-3v-1h-1l1-1h-1l-1 2h1c2 1 1 2 1 3l-2-2v4l3 3 1 2h4zm-3-16h1c1 2-3-1-1 0zm3 4l-2-5h1l1 3v1l1 1h-1zm-2 3v-2c-2 0-2-1-2-3h1l1 3h1v1l1 1v1l1 1h-1l-2-1v-1zm2 4h2l-1 1-1-1zm-2 4c-1 1-2-2 0 0zM55 77h1l-1 1c1 0 3 0 2-1v-1l1 1h1l1-1 1 1h1v-1c2 0 1-2 2-2h1v-2c1-2 0-3-1-4v-3l-1-2v-3l-1-1v-2l-2-1h1l-1-2-1-2-1 1 1-1h-4-1l-1-1v-1l-2-2c-2 0 0-2-2-1h-1v1c-1 1 1 0 2 2-1 1-4-2-2 0l-1 1h-2v1h-1c-1 1-1-2-2 0v1l1 1c-1 2-4 0-2 2v3l2 4h-2c1 3 3 2 5 5v-1c1-1 1 4 4 4l1-1c1 3 3 1 3 3 1 1-2-1-2 1h-1c-4-2-1 4 4 3zm3-3l-1-1h-1c1 0 1-1 0 0l-1-1h2l1 1v1zm2 0h-1 1zm0-1c1 1-1 2 0 0zm-2-2h0zm-5-6h0zm-1-2l1 1-1-1v-1 1zm2 0h-1 1zm7 8l-1-1v-1l2 1-1 1zm-3-6h1c1 1-1 2-1 0zm4 3c0 1 0 1 0 0s2 0 0 0zm0-2v-1 1zm1-3h-1 1zm-9-6v-2c0 1 2 1 0 2zm-4-8c2-1 3 1 0 0zm11 11h1v2l-1-1v-1zm-10-8h1c0 2-1 1-1 0zm1 3c1 3 0-2 0 0zm5 4l-1 1-2-1h3zm-10-5h-1c1-2 1-2 1 0zm1 0h1l-1 1v-1zm-1 1c0-2 0 2 0 0zm-1 0l-1-1 1 1zm-3-2c2 0 0 2 0 0zm0 2s1 0 0 0c0 1-1 0 0 0zm3 8h-2c-1-2 1-1-1-3v-1c1-1 2-1 1-2h2c-1 2 1 1 0 0l-1-1h-1 2l1 1c1 3 0-3 2-2h0c-1 1 1 5 1 3l1-3c0 1-1 2 1 3v-1l1 1c2 2-4-2-3-1-1 1 3 2 1 3h-1c1 0 2 1 1 2l-3 1c2 1 3-2 3 1v1h-1v-1h-1v1c-3 3-1-2-3-2zm10 11h1-1zm2 1v1h-1l1-1zm18 43h-1l2 1-1 1c1-1 2 0 2 2 0-3 0-6-2-4zm4 3v-1 1zm43 44v0zm13-137h0zm0 0zm0-3c-1-1 2 4 0 0zm63 66v2l-1 2c-1 1-2-2-1-3-2-1 0 2-1 3l-1 1 1 1h-1c-2 0 0 1-2 3 3 0-1 2 3 5 3 1 5 2 8-2l-1-1c1-3 0-5-1-7l-2-1h1c-1-1 0-2-2-3zm42 33s0-1 0 0zm5-1h1c2 2-1-3-1 0zm-2 0l-3 1c3 1 4-2 3-4 0 2-2 1 0 3zm-10 15c-1-1-2-2-3-1 2 0 2 2 3 1zm7-17h1l2-1c0-2-2-3-3 1zm-131 69zm84-95v0zm47 31c1 1-2 1-1 2 2 1 3-3 1-2zm-96-68c1 2 0-2 0 0zm-8-22l1 1c2 0-1-2-1-1zm98 104c0-1 2 0 1-2l-1 2zm-5-4l-1-2 1 2zm7 1l-2-4c-3 1 2 2 1 4-1-2-3 1-2-2-3 1 3 4 3 2zm-5-2c0-2 0 4 0 0zm-28 0c0 1-4-4-1 0h-2 2c-2 3-3-3-5-3l1 1-4-1-1 1c1 1 0 0 0 0l-2-1c-1 1 1 1 1 3h-2c-1-1 0-1 1-1l-1-1v1c-2 1-1-1 0-2-4 1-1 0-4-2l1 1c-2 1 0 3-1 4-2 1 0-1-1-2 0 3-3 1 0 3-2 1-4 0-3-1-2 2 3 1 5 3v-1l2 1c0 2 6 2 9 5 1-4 1 0 4-4v1c0-2 2-3 1-5zm-5 5h-1 1zm-1-5c-3 1 2-1 0 0zm3 3c-1 0 4 0 0 0zM93 254v-1 1zm44-114c1 2 0 0 0 0zm0 1c-2-3-2 0 0 0zm-5-4l-1-1c-1 1 0 2 1 1zm-24 14zm-2-5v0zm-34 88l-1-1 1 1zm57-95c2-1-2 0 0 0zm56 2v-1 1zm56-17zm-115 39v-1 1zm-8 11h-1l-1 1c1-1 3 1 2-1zm9-38c-2 2 4 3 0 0zm13 50h1l-1-1v1zm-35-36c0 2 2 0 3 1v-1h-3zm23-10c-1-4-4 1 0 0zm24 19c-1 2 2 2 0 0zm-24-19l-1 1 1-1zm106 100c-1-1-1 1 0 0zm-126-44v1c1 1 2-3 0-1zm-7-3v-1l-1 1h1zm2-3h-1 1zm-5 7c2 1-1-1 0 0zm6-8c-1-1-1 1 0 0zm-2-1l-1 1 1-1zm7 2zm146-43v1l1-1h-1zM95 217v1h-2l4 1-2-2zm8-32h-2 2zm128 59c0-1 0 4 0 0zm1 5l1-1-1 1zm-33 41c-3 2 2 2 1 1l-1-1zm31-34h2-2zm-121-66h0zm95 99c2 0-1-1 0 0zm7-3h0zm20-25v-1 1z"/></svg>