<svg version="1" id="图层_1" xmlns="http://www.w3.org/2000/svg" viewBox="0 0 273 300"><path class="st0" d="M17 172h-1v1l2-1h-1zm5 2h-1 1zm-1-16c3-1 3-3 4-4l3-5c1-2 1-5-1-7h1c1-2 1 0 2-1h-1c-1 0-2-2 0-2-1 1 0 1 1 1h1v-1l1-1h1l1-1 1-1v-2l-1-2v-3c-4-2-7-5-4-9v-1l1-1c1-3-1-4-1-6v-1c-1 0-2-9-5-5l4-8 1-3-1-2 2-2v1c2-1 1-3 2-5v-1l1-4v-1-1l1-1h-1-1l-1-2c-1-2-2-2-3-1 1-1-1-2-2-2v-1l-2-1h-1l1-1v-1l2-1-2-1h-1v-1c-1 0-1-2-2-1l-1-1h-1l-1 1h-2l-3 1-1 1-4 2-3 4-1 1c-1 1 0 3-2 4v2H2v4l-1 1v1c0 2 2 5 1 7v1c0 4 0 11 5 9v1l-4 5v6l1 5v1l1 3c1 4 4 5 7 5h1v2l1 1c-4 2-3 6-3 7v1c1-1 0 1 1 3v1c1 0 2-1 1 1v1l2 7v5l2 1h1l1-1h2v-1zM4 88c-2-1 2 1 0 0zm16 16l2-1-2 1zm2-1h1c2 0 0 3-1 0zM5 118l-1 1 1-1zm8 4c-1 2 0-2 0 0zm-9-1l1 1-1-1zm3 0H6h1zm0-1l1 2-1-2zm0 4c-1-1 2 1 1-2l2 1H9c-1 2 0 2 1 3-2 0-3-1-3-2zm2 3c-1-1 2 1 0 0zm0 2l1-1c2 0 0-3 2-4-1 2 2 3-1 3 1 1 4 1 2-1l2 1c-2 2-5 2-6 2zm12-7l1 1-1-1zm-1 4c-1 1-1 2-3 1 0-2 2 0 3-1zm2-2l1 1-1-1zm-5 4c-1-2 2 2 0 0zm12 1h1c-3-1-3-2-5-5l1 1c-3 1-2-2-3-2 2 0 3 0 4-3 3 1 0 9 5 9v1c-2 1-3 0-3-1zm-16 6v1-1zm-1 1l1 1c1 2 2 2 1 3l-2-4zm2 4c2 2-2 2 0 0zm2 9l-2-1 2-1c-1-1-2 2-2-2l1-1 1-1 1 1c-1 2-2 0-3 2h3c-2 2-1 2 0 3l-2 1 1-1zm3 1c-3-2 3-1 0-1v1zm-3 4c-1-1 0-3-1-2 1-2 4 1 1 2zm0 0l1 1-1-1zm1 2c1-4 0 3 0 0zm11-29v0zm23 11c1 2 2 0 0 0zm3-17c0 1 1 1 0 0zm4-4h-1 1zm15-29h1-1zm19 39v0zm8-17c1 0 1-1 0 0 0-1-1 0 0 0zm3 0l3 2c-2 1 1 0 1 1l-1 1h1l1-1h1c-1 1 0 1 0 0l1-1v0c2-1 0-1-1-1l1-1h-1l1-1v1c1 2 4-1 1-1v-1c1 0 3 3 4 1v-1c1 2 3-1 1 0l2-1-1-1 3-1c-1 1 0 3-2 3 2 3 2-1 4 1l-2-1c-1-1 2 0 2-1l-2-1c1 0 4-3 1-3l-1 1-2-1v-1h1s2 0 3-2c0 1 0 0 0 0l-1-1 1 1 1-1c0 2 2 0 0 0h2c2 1-1-1 0-1 2-2 2 1 3 0-2-1 2-5-2-4l2-1h-1c0-2 0-2-1-1l-1 1 1-2c-2 0-1 1-1 2h-1l-1-1c-1-1 2-1 2-2l1 1h1v-1h-1c2-1-1-1-1-1l1-1h-2c0-1 3-2 1-2 2-2 1-5 1-7v-1c-3 0 0-2-3-3-3 2-1-4-3-1l-3 1h-5v-2c-2-1-5 3-6 0l-1 2c-2 0 0-2-2-2h-1c0 2 3 3 0 3 1 1 0 1-1 1h-1c2 3 0 2 1 5l1-2c2 0 1 2 2 2v1c-1 0-1 0 0 0v1h-4 2c0 3-2 2-4 2 2 0 0 2 1 3h1c-3 1 1 2 0 0h1l-3 2 2 1c-3 4-2 5 0 3v-1h1l1 1-5 3c2-1 2-1 2 1-2 0-1 1-3 2v1c2-2 4 0 1 1 0-2-1-1 0 0l-1 1h3l2 1s2 0 1 1l-2-1c-5-1-1 3 3 3 0 2 3 0 0-1h-1l1-1v1h2v1c-1 1 1 1 1 2h-2l-1-1h-2l1 1h1zm6 0v1h-1v-1h1c-1 0 0 0 0 0zm6-2h-1 1zm6-1h-1 1zm-11-33l1 1-1-1zm-7 4v0zm3-1zm5-1h3c-1 2-2 0-3 0zm3 1c-1 1 1-2 0 0zm6 8c0-2 2 0 2-1 1 1-1 1-2 1zm-6 5l-2 1 2-1zm-2 1h0zm-11 7h1-1zm26-2h-1 1zm-2-3l1 1 1 1-3 2v1l-1 1c-1 0 0 0 0 0l-2-2 3 1c-2-2 2-2 0-3-1 1-3 3-4 1 3 2 1-3 3-1h2c2-1-1-1-1-1l1-1zm-20 10c1 0 1 1 0 0zm10-9v1c-2 1 0-2 0-1zm6 0c0-2 2-1 3-1l-1 1h-2zm-19 7h1-2 1zm-1 4l-1-1 1-1h-2 4c-1 0-3-1-2-2l3 2h-1v1l-2-1c-1 1 1 1 2 1v1c1 0 0 0 0 0h-2zm17-5c2-1 3-1 3 1-2 1-1 0-3-1zm-14 7h-1v-1h1v1zm17-3h0zM83 36l1 1-1-1zm33 77c1-1 0-1 0 0zm3 0h-2 2zm-15-41v-1 1zm18 39c-1-2-3-1-3 0h3zm-18-50l-1-1v2h1v-1zm61 166c2-2-2 0 0 0zm-39-126l1-1-1 1zm43 122c-1-1-1 1 0 0zm-11-37v-1c3 0-3-1 0 1zM103 10l1-1-1 1zm66 185h2c0 1 2 0 0-1l-1 1h-1zm-1-5c0-1-1 1 0 0zm-23-67s0 1 0 0c0 0 0-1 0 0zm19 55c0 3 2-2 0-1v1zm-17-50c1 2 2-1 0 0zm-1-6v0zm1 1v0zm6-20c2-1 3 0 2-2-1 1-2 0-2 2zm3-13l-1 1 1-1zm3-10v0zm-1-10c1 1 3-3 1-3l-1 3zm6 1l-1-1 1 1zm0-4v-1c3 0-2-1 0 1zm100 121l-1-1c-2 1 0 2 1 1zm-161-54h0zm-86 36l-1 2 1-1h1l-1-1zm8-1c2-1 0-2 0 0zm28-41v1h3l4 3c-1 2 1 0 2 1l-1 1h-1l-2 1h2l3-1c2-1 1-2 2-1 0-2-2-2-3-1h-1l-1-1h1l1-1v-2h1v-1l-2-1h-1v1h-1c-4 0-3 2-6 1zm10 5v1c-1-2 2-2 0-1zM31 95v-1c-1-2-2 1 0 1zm20 44c2 1-2-1 0 0zm14-14l1-2h1c1-1-2 0-2-1 0 0-2-1-1 1l-2 1 3 1zm-3-1zm-9-4l1-1-1 1zm-2-14c1 1 2-2 1-2 1 1-1 1-1 2zm61 26v-2c-1 1-2 3 0 2zM75 84c-1-1-4 3-1 2-1-2 1-1 1-2zM63 12h-2l-1 1c0 1-2 1-1 2l-2 1-1 5v1c3-1-2 1 0 3h-1c0-2 0-1-2 0 3 0 0 4 0 7l-1 1-2 1 1 1c-1 2 2 3 0 4v1h1l-1 1 1 4v1l1 1c-2 1 0 2 1 3v1c1 0 3 3 4 1l-1-1c-1-1 2 1 1-1 2 0-2 5 2 3h2c1-1 2-2 1 0l2 1v1l1 2-6-1-7 2c2 2 0 1-1 3h1c0 2 0 1-2 2h1c-2 2-1 4-2 5v1c-1 7 4 15 7 20v1c0 1 0 0 0 0v-1l-1 1v3c3-1 1 0 3 3-3 1-6-1-5 3l-2-1c2 1 0 4 3 3l-2 1c-1 2 1 0 1 2-2-1 1 5-2 4l2 1h-2v1c0 2 1 2 2 1-3 1 0 5 0 6h1l-1-1c2 0 1 0 2 2 0-1 3-1 1-3l2 2c-2 2-4 0-5 2 1-1 3 3 1 2 0 2 2 1 2 2h-1c-1-2-3 0-1 0 1 1 1 1-1 1l1 1h2l1 1c0-1 0-1 0 0l4-2v-1-1l-2 1h-1l1-1c-1-1-2 1-2 1h-1c0-2 3-1 4-2l6-1 1-2v2h1v-1l1 1 1-1 2-1-1 4c3-2 6-4 6-8h-1c2-3 2-5 2-10l-1-2v-2l-1-1v-2c-3-2-2-2-3-4-2 0 0 1-1 1-2 1 1-4 1-3h1l-3-1h1l-2-2c1-3 0-1-2-3l1 1-2 1v-2c2-2 2-1 3 1v-3h4c2-1 1-1-2-3 4 1 3-1 3-3 1 0 2 0 1 1l2-1h-2c4-4-2-6 2-8-3-2 0-1-1-3v-1c1-1-3-3-1-3v-2c-2 2-1-1-1-2h-1l-8-2c2 0 4-2 2-2l-2 2h-1v-1h1l-1-1c2-1-1 0-1-1 3 0 5 0 7 2l2-1c1 0 3 0 2-1h1c4-4 3-7 5-10l1-5-1-11-2-1h3c-5-4-3-9-8-12h-1c2 2-2 1-2-1l-2-1h-1c0-2-2 0-3-1 0 2 0 2-2 0l-1 1zm4 107h-2 2zm2-1l-1-1 1 1zm-10 2c0 2-2 0-3-1v0h1l2 1zm-1-2l1 1-1-1zm1-3l-1-1 1 1zm-3 0c-1 1 1-2 0 0zm-2 1l-1-2 1 1v-2c2 1 0 2 0 3zm2-3c0-3-1 3 0 0zm-2-3c1 0 0 1 0 0zm2-1c-3-2 2 1 0 0zm0-2l-1-1 1 1zm15-11c-2 2-2 1 0 0zm-1-1c-1 1 1-2 0 0zm-2 0c2 0 0 3 0 0zm0 2c-1 0-2-1-2 1v-1c-3 0 0 0 0-2l2 2zm-10-3c2-2 1 3 0 0zm6-3h0zm10-9v0zm-16 7l-1-1h2l-1 1zm9-4c-1 2 0-2 0 0zm-4 1c-2 2-5 0-7 1 0-3 5 1 6-2l1 1zm12-7v1h-1l1-1zm3-5v1l-2-1h2zm-5-3h-1 1zm-21-7c-2-1 2 1 0 0zm20-7h-2 2zm-2-5v0zm3 1c-3 2-1-1 0 0zm2-1c-2 0 6-5 0 0zm-20-5c-1-3 2-3 0 0zm4-3h-1 1zm-5 0c-2-3 2-2 0 0zm7-5v0zm17-18c2 1-2 3-1 1l1-1zm-8-5l2 2h1l2 1c0 1 0 1 0 0l2 1v1h-1v3c-2 1 1 0 1 2-2 0-5 1-3-1-5 0-3-6-8-7v1-2l4-1zm-9-1l1 1c0 1-3 0 0-1h-1zm3-1c1-1 0 0-1-1s3-1 1 1zm48 109v-1s-1 1-1-1l-1 1 2 1zm-13-12l-1-1v1h1zm12 20l-1-2-1 1c1-1 1 1 2 1zM98 90h1s-1-2-1 0zm23 61l-1 2 1-2zm-2-1v1c1 1 2-3 0-1zm3 2l-1 2c1 1 1-1 1-1v-1zm-6-42v-1l-1 2-1-1c-5 1 0 3 0 2h5c0-2-2-1-3-2zm5-8c-2 0-1 2 0 1h3c0-3-1 0-2-1 1 0 1-1 0 0h-1zm-6 32c-2 0 3 1 0 0zm7 17s2-2 0 0zM111 0c-3 2-8 6-6 9l-1 1c-1 2 1 3-1 4 2 5 0 5 3 9h-1l1 1-1 1 1 1h1v1 1c0 2 1 5 5 5v1s-1 0 0 0v1l-1 1h-1 1l1 3c-2 0-1 1 0 0h1c0 2 2 1 2 2-1 0-2-1-2 1h-1l-1-1c-1-1-2-1 0 1h-1c0-1-2 2-2 0l-1 1c-2 2-2 1 0 2l-1 1v2l-1 1v1l-1-1v1h1v1h-1c-1 2 2 1 3 3h-2c-1-1-1 1 0 0 2 1 1 4 0 2v1h1v6h-4l3 1h-2c3 1 2 4 0 5 2-1 0 3 3 1h1l1 2c1 0-2 0-1-1l1-1 3 1h2s2-2 0-1l-1-2h1v-2c1 0 2 0 2 2-1 1 2-1 2 1 1-1 0-2 2-1h-1c-1 1 0 2 1 1v2-1h2c0 1-2 0-1 1l3 2h1c0-2 2-1 1 0l3-1c-3-1 2-3 2-4h-2s3-1 0-2c4-3-2-3 4-3v-1h-2c-2 0 4-3 0-2l2-1 1-1c-1 0-3 0-1-1h1-2c2-1 1-3 2-4v-1c3-4 0-10-4-11l4-3 3-3v-1l1-1v-2-1-2h1v-7c-1-7-3-9-7-16l-5-2-7-1-2-1h-1l-1-1c-1 1 2 1 1 2-2 0-2-2-3-2 0 2-2-1-2 2V0zm-5 44c0-2 3-1 0 0zm2 24c1 0 2 0 1 1l1-1h1c1 1 0 2-1 2h-3l-1-2h2zm17 2c0-1 1-1 0 0zm-18-2c-3 0 4-2 1-1l-1 1zm3-2l1 1c-3 0 0-3-1-1zm-3 0l-1 1v-1h1zm1-1h-1 1zm-2 0l-1 1c-1-1 1-3 1-1zm7-3c-1 0 1-2 0 0zm18-6c-1 1 1-2 0 0zm-14 4c-1 0-2-1 0 0zm-7-5c0 1 0 1 0 0zm0 0v-1 1zm-5-3c2 2-1 1 0 0zm23-13l1 1h-1v-1zm-3 1h2v1c0 2-3 0-3 1l-1 1h-3l1 1c4 0-4 1-3-1l3-1h1v-1l-1 1h-4c0-3 6-3 8-2zm-6-6zm4-26c-1 2-3-2 0 0-1 0-1-1 0 0zm-1-5v1l-1 1h2c-1 3-3-3-5 0 0 2 2 2 2 1h-2 2c0 2-3 1-3-1l1-1 1-1h3zm-5 1c1-1 1 0 0 0zm-11 3V6v1zm-3 59c-3 3 2 2 0 0zm62 159h-4c-2 0-5 2-4 3l1-1c0 3 2-2 3-1h1l-1 2 2-2-1-1h3zm-5 0l2-2c-1 0-3 0-2 2zM104 46h-1v1c2 0 2 0 1-1zm19 59h1c3-2 0-1-1 0zm4-4h-1l-2 2h1l1-1 1 1c-2 3 3-2 0-2zm-23-66c0 2 4 5 5 3l-2-1v-1c-1-3-1-6-3-7v-4c-1-6-3-6-2-1 2 0-1 1 1 1l-1 1c-1 1 1 1 1 2v2 3l-1 1h1v1h1zm2 1c2 1 0 2 0 0zm69 187l-1 1c1 1 2-2 1-1zm-28-96h1c0-1 0-2-1 0 0-1 0-1 0 0zm16-61l-3 1c2 4-5 5-2 8l1-2c-1-1 4-4 4-7zm-7 1c1-1 2 3 2 1-2-3-1-4-2-1zm3 26c1-2-1 0 0 0zm-7 12c-2 0 3 1 0 0zm3-5c1-2-1 2 0 0zm2-7c1 2-3-2 0 0zm1 0c1-2-1 2 0 0zm2-27c-3-1 1 2 0 0zm1-1c2 1-1-1 0 0zm4-18v1c1 2 0 3-2 4h-1l1 2 1 1-1-1v3c1-2 0-1 1 0 1 0 0 0 0 0-3 3 2 3 1 7 1 0-1-2 1-2 1 2 1 5 4 4-2 1-3 3-5 1-1 1 1 1 1 2-1 0-3 0-2 2h-2c0 3 1 7-2 7h1c1 1-4 5-1 8-5 0 0 2-1 5v1c2-2 4-2 6 0h-4l3 1-1 1 1 1c-3-5-10 2-4 1 1 1-1 3-1 2 0 2 1 0 2 3h1c-2 2-4-3-6-1 1 1 3 0 3 2-3-1-2 0-5 1 1 2 3 0 3 2l-3-1v2c-1 2-5-1-2 2h-2c1 1 2 0 1 2h-1c-2-3 1-3-1-6l2-1c-2-3 3-4 4-7 1-2-2-7 1-7v-8l1 2c1 0 0-3 1-1 1-1-1-1-1-3 3 0 0-5-1-6l-3 4v7h-1v2h1v2l-1 1v4c1 1-1 4-2 5l-1 1-1 5h-1v4l-1 2c0 3-2 6-1 8 0 0-2 1 0 2l1 1c0-1 0 0 0 0l1 1 1 2 1 2v1c2 2 1 6 4 6v-2c-2 0 1 1-1 2v-4c3 3 4 2 5 6l-2-1v1l-1-1c0 2 2 2 2 3l3 2v-2c-2 1-3-1-3-1h4c-2 2 1 4 2 5l-4-2c2 2 1 4 4 3 0 2-4 1-4 3l1-3c-3 2-1-1-3-1-1 2-2 2-2 1v-1-2l1 1c-2 0-2 2-3 2v1l-2-1v-1l-2-3-2-3v-1l-1-1v-1h-1v-1l-2-1h-1l-2-1h-7c1 1-1 2-1 0l-2 2 2 1v1l-2 2c1 0 1 0 0 0v3l1-1-3 4 1-2 2 2c-4 1 1 8-1 10-1 1-3 2-6 1v2l2-1v1l-4 3c-1-2 1-2-1-3h-1l1-1-1-1 1-6-2 1 1-3h-1v0c0-1 0-2 0 0h-1l1-3v2l1-2-1-1c-2 1-1 1-2 3 1-2 0-5-1 0h-1l1-2-1-1-1 1 2-5h-3l1-1-2 1h1c0 2-1 0-1 0l1-1c-2-2-3 2-4 0l2-1h-2c3-1-1-2 0 0l-2 1c1-1 0-3-3-3l2 1h-1l-1 2v-1l-1 1c0 2-1 0-1-1l-1 1c-2-1 2-2 2-3-1-2-4 1-6-1-1 0 3 3 1 2h-2v-2l-1 1c2-1 1 1 1 1-2-1-4-5-7-2-1-2-1 1-2-2-1 2-3 2-5 1l1-1h-1l-1 3c1 0-3-4-3 1l-2-1v-1l1-1c-1-1-3-1-4 1v1l-1-1v4c-1 1-2-1-3-1 0 2-3 3-4 0-4 3-5 6-9 2-1 2 1 2-2 2l3 1c0 2-2 0-3 0l2 3c-1 0-2-1-2-3-3 2-2 1-3 4-3-1-5 2-7 3l1 1c-2-1-3 0-2 2v1l-1-1c-1 2 1 2 1 3l-3-1c-1 1 1 2-1 2l1 1c1 0-2 0-1 2v1s-3 3-1 2v-1l1 1-1 1s-1 0 0 0c0 1-3 3-1 2v1l-2 1h2l-3 3c-1-1-3 1-3-1v1h-1c0-2-2 1 0 1h-2c1-3-1-6-3-4h2c-1 1 0 3-2 2l2 1c0 1-2 2 0 3-1 0-1 0 0 0v1s-1 0 0 0l-1 1c0-1 1-2-1-1l1-1c-1-1-2 0-3 1v-2l-1 1h-1l-1 2 1-1c2 1-2 2-1 3l-1 1v3c0 1-1 1 0 0-2 0 0 3 1 2v1l-1 3 1 1 1-1h1l-2 2 1 2 1 2h2v2l3 1 1 1v1h1v1l2 2h-2c-2 2 1 4 2 5l1 1v4h-1l-1 3 1 2v8l1 2 1 4v1 2l1 2v3l1 4v1l1 1-1 1 1 2v2l3 4v2s0 2 1 1v4l1 2v6c1-1 1 1 2 2v1l1 1 1 3 1 3v1l1 3h1l3 5v1c2 0 2 1 3 2l3 3c1 1 1 3 3 2l1 1h1l1 1 2-1c-1 2 0 1 2 1v-1 1h3c1 2 3 2 5 2l3 1h1c0 1 0 1 0 0h4l2 1h1l1 1h4l2-1 3 1h6l1 1 3-1h1l4-1 3-2s1 0 0 0c0-3-1-5-3-5l-1-3 2-1 1 1 1 2c1-1 1 1 1 2l1 1 1 1h1c2 1 5 0 8-1h1c1-1 0-2 2-2l4-1h3l6-2 2-1h1l2-1 1-1 4-1h1v-1c1 1 3 0 4-1l2-1 3-1c3 0 2-2 3-3l3-1h-1l3-1h2l1-1 2-1h1v-1h1l1-1 2-1 1-1 2-1 3-2h1v-1l1-1 3-6 1-1 2-1 2-1h1v-1l1-1h1v-1h1l3-3v-1l3-1h1l1-1h1v-1h1l2-1 2-1 2-1 2-1h1l1-1h1l1-1 1-1h1l2-2c1 0 1 0 0 0l1-1 2-2 2-1h-1 1l2-2h2l1-1 1-2 1-1h2c1 0 2 2 1 0h1c1 2 2 1 1 0h2l-1 1 2-1v-1l1 1 5-4v-1-1h2c1 1 1 0 1-1h1l2-1-1 1c1 1 3-1 1-1l1-1c1 3 4 0 5-2h1v-1l1-1 1 1v-1l2-1h1v-1c1 1 0-1 1-1h1l1-2 2-3-1-1 1-1v-2l-1-1-1-4c-1-1-1-3-2-2v-1l-2-2-1-1v1h-1s0-3-1-2h-1l1 1h-1l-1-2h-1v-1-1h-1l-4-3-2 1c-1-2-2 1-2 2h-1c1 1-1 1-1 2l-1-1v1h-4-1-1c-1 2-2 0-4 1h-1l-1 1v-1l-1 1-1 1-1 1v1h-1v1l1 1v1 3h-1l-1 1c-1-1-1-3-2-2h-1l1-1h-1l-1 2v1h1l-1 1c-1-2-2 2-1 1h1v1c-2 1-2-1-4-1l3 2v1l1 1-2 1-1-1-1-1v-1h-1c-1-1 0 3-1 1v-1l-1-2-1 1h0l-1-1-1 1-1 1-2 2v1h-1c0 2-1 4-3 5h-1l-1 1-1 1-1 1v-1 1h-1-1l-2 1c0 2-3-2-2 1h-2v1l-1 1h0l-1 1h1c-1 3-6-2-6 2h-1v1h1l1 1-1 1-2 1-1 1-1 1c-2 0-1 2-2 3l-1 1-1 1-1 3-2-1c-1 1-2-1-2 1l-2 3h-2v-3h-2v-1h1l2-2v-2-2h-1v-1l1-1v-1l-1-1h-3l-1 1-1 1h-2s-2-1-2 1l-3 1h-1c-2-2-4 0-7 0 0-2 1-1-1-2l4-4 1-1 3-3h2c-3 0 0-5 1-2-1 0 0 0 0 0l1 1-1 1c-1-1-2 1-1 2h-1c0 2 2 2 3 2h1c-3-2-1-4 1-5v-2h2v-1c2-1-1-1-1-1 0-1 2 1 2-1h1l1-2 1-1h1l1-1 1-1v-1c1-1 0 0-1-2h1l-1-3-2-2h-3v-2l1-1v-1h-4c1 0 0 0 0 0v1-2c-1-1 0-1 1-2h-1v-1l-1 1c1-3-2-4-4-1h-1c0-2 3-1 1-3 2 0 4-1 4-3v-1l1-1 1-1-1-1-1-1 1-1h-1c-1-2-2 0-2 0-2-1 0-1 0-1-1-2-2 2-2 2-1 0-4-1-2 2-1-1-3 0-1 1-1 0-1 1 0 0 1 1-2 2 1 2 0 1-3 2-1 2v1c-2 0-1 1-1 1l1 1c-3 2-1-3-1-4-3 1-4-1-4 2 0-2-2-2-2 0l-1-3-2 1c1-2-3 0-5-1-2-2-1 0-3-1v-1l3-2h1c3-2 8-4 11-8 1 2 3 0 4 1v-1c-1 0 0-2 0 0 2 0 1-2 3-1l1-1 1-1h2c-1-1 1-1 1-2l1-1 1-1 1-2v-2h1l-1-1v-2c2 0 0-1 1-2v-2h1l-1-2v-1l-1-1v-1-2h1l-1-1c1-1 0-3-1-1h-2l-1-1v-1c-2-4-2-4-5-6 2 0 4 2 6 0l1-1h1c0-1 0 0 0 0v2h2c1 1 1 0 1-1v-1-1-1h1l-1-1h-1l1-1 1 1-1-1h1v-1h-1v-1-3l3-3v-1c0-1 1-1-1-1v-1c0-1 2-1 2-3v-1l2-2v-1l2-2v-1c0-2 2-2 2-3v-1l-1-3c-1-3 0-5 1-8h1l1-2 1-3 1-1-1-1 1-1v-3l1-1v-2-1l1-2v-2l-1-1v-2l-1-1v-1c0-1 0-3-1-2l-1-1-2-2h6c-3-1-1-1 0-1 2-1 6-8 7-11v-5c0-2 1-5-1-6h1c0-1-2-1-1-2-2 0-1 1-1 2-1-3 1-2-1-6l-1 1v-1c1-1-2-3-2-2-2-2 1-2-2-4-2 1 0 1 0 2s-2-3-3-2c1-4-1-2-5-2h-4c-7 1-15 9-13 15zm-29 86l1 1-1-1zm4 2c-3-1 1-2 0 0zm4 0v-2 2zm12 7v1l-1 1 1-2zm-50-8h-1 1zm-32-1c-1 2 1-2 0 0zm4 0l1-2-1 2zm-19 6h-1c2 0 0 3 1 0zm-20 14h0zm60-20c2-2-1 1 0 0zm-12 2l1 1c-2 0 0-5-1-1zm-31 8h0zm2 0zm18-7c-2 2 1-3 0 0zm-31 10v0zm4-2v0zm19-4c1-1 1 0 0 0zm-18 7v-1 1c1 0 0 0 0 0zm17-3v-1 1zm19-7v-2l2 2v1c-1 1-2 0-2-1zm12-4l1 1c-1 1-1 0-1-1zm-9 5v0zm24 0l-1-1 1 1zm-4 2h-1v-1h1c2-2 1 0 0 1zm-2-4v1l-1 1-1-1 2-1zm-18 4l-1 1v-1h1zm-2 1v2l1 1c-3 0-3-3-1-3zm-42 16zm38-14h1v1s-1 0 0 0l-1-1zm-40 15v0zm42-11v-1c-1-1 2-5 1-1l1 3-2-1zm29 2v1-1zm-93 28v0zm9-6l1-1-1 1zm39-13zm-44 15c-1 1-1 0 0 0zm5-1h1l1 1h-1l-1-1zm81-27zm-78 23h-1 1zm-2 0c0-1 0 0 0 0 1 0 2 1 1 2l-1-2zm-6 4c-1 1-2 0 0 0zm-6 7v-1-2-1c0-2 2-2 4-1-4 1-2 5-4 5zm12-5l1 1h1-1c-1 1-1 0-1-1zm-8 5c-1 0-2 0 0 0zm-3 1h1c1 1-1 1 2 2h-1c0-1-2 1-2-2zm-1 3c-1 0 1-2 0 0zm3 3c-2-1 2-2 0 0zm97-31l1-1v2l-1-1zm35 105zm21-6l2-2-2 2zm-21 6v-1 1zm104-42l1-1-1 1zM71 278h-1 1zm117-40c-1 1-1 0-1-1 0 1 0 2 1 1zm-3 1l1-1-1 1zm52-47s-1 0 0 0zm-15 13v1-1c-1 0 0-1 0 0zm-2 0l1-1v2l-1-1zm-1 3v-2 2zm2 0l-1-1v-1l1 2s0 1 0 0zm-3 6l-1 1v-1h1zm-2 1h-1 1zm14-14v-2l1 1v1h-1zm-1 1v1-1zm-1 3h-1l1-1v1zm22-8l3-1-1-1 1-1c-1 1 1 2 1 1h1l-2 2h-3zm4-1c2-1 1-2 3-1v1 3l-1 1v-1c1-2-2-1 0-2l-2-1zm-36 16h1-1zm0 1l-1-1 1 1zm33-14v-1h1l-1 1zm2-1v-1 3-2zm-39 15v-1l2-1v-1h1v1l-1 1 1 1v1c-2 0 0-2-1-1h-1c1 0-1-2-1 0zm1 1c1-1 1 1 0 0zm-15 4h1v1l-1-1zm0 2h-1l1-1v1zm11-3v-1c0 2 1-2 1 0v1h-1zm2-1c-1-1-1-1 1-2l1 1c-1 2 0 1-2 1zm23-6l-1 1 1-1zm-23 7l-1 1v-1h1zm-18 5v2c-1 0-2-2 0-2zm2 1l-2 1c0-2 1-1 2-1zm11-5l1 2-1-2zm-23 17zM70 272s1 1 0 0zm0 3h-1l1-1v1zm102-36l-1-1 1 1zM71 270v1c-1 1-2-1-1-1h1zm96-35h1-1zm-97 34l-1-1h1v1zm101-35h-2 2zm-67 11zm-1 1zm11-2c1-2 3 0 1 1l-1-1zm-44 21v-1c1 0 1-2 2 0h-1l-1 1zm101-35h1v1c-1 1-1 1-1-1zm-3 1l-1 1 1 1-2-1c1-1 0 0-1-1h3zm-47 13c-2 0-1 1-2 2h-1v-1l1-1v-2-1-1-1h1l2 1v1 2c1 1 0 1-1 1zm24-13c0 1 0 1 0 0zm1 0h0zm10-1l-1 1c0-2 1-1 1-1zm-2-3l-1-1 1 1zm-3 1c0 2 2-1 2 0l1 1v2-2l-4 1h-1c0 1 2 1 0 2 0-2-2-1-2-2v-1h-1v-1h5zm-8 1h-1 1zm-73 24c-1 2 1-2 0 0zm0-2v1l-1-1h1zm-1-16l1-2 1 1-2 2v-1zm3-1v-1l1 1-1 1v-1zm-2 4l1-1v-1 1s0 2-1 1zm2 0c-1 0 1-3 0 0zm0 1h-1s0 3-1 1l1-1 1-1v1zm-3 1v1l-1 1 1-2zm38-9l-1-2 1 1v1l-1 1 1 2c-1 0-2-4 0-3zm28-7h-1v-1l1 1zm-65 20c0-1 1-1 0 0zm27-8v-1 1zm-25 8h-1 1zm-2 1h1l-1 1v-1zm1 2v-2c2-1 1 2 0 2zm34-11c-1 1-1 0-1-1h1v1zm-34 12v1-1zm57-17h-1-1v-1l2 1zm34-13l1-1c2 0-1 2-1 1zm4-1v-2c2-2 0 1 0 2zm0-2h-1s0 1 0 0c0 2-2 0-2-1l3 1zm0-1l1-1-1 1zm5-4v1l-1 1-2-1 3-1zm-4 1c1 0-1 2 1 1v1c-2-1-4 2-3-1h-2l1-1h3zm7-4v1h-5v-1h5zm2-2v-1 1zm-10 3v-1 1zm-58 18v2l-1-1 1-2c1-1-1-3 1-3 0-1 0 0 0 0v2l-1 2zm59-26l2 1h1l2 1c-1 0 0 0 0 0l2 1v1h-1-1-1l-1-1c-1-1-2 0-2 1l-2-1h-1c0-2 2-2 1-3h1zm-2 3l-1-2 1 2zm-1-20zm-1 2l-1 1 1-1zm-65 30l1-1-1 1zm1 1l1-2v2h-1zm2 0c0-3 2-3 1-1l-1 1zm61-18c-2-1 2 0 0 0zm-60 21h-1v-1h1v1zm65-27c-1 1-1 0 0 0zm-4 1c0 1-1 4 1 2v3l-3-3v-2h2zm-61 20l-1-2h1v2zm60-23l-1 2 1-2zm-39 14v-2 2zm34-12c-1-1 1-2 1-3 1 0 1 4-1 3zm-35 8v1l-1-1h1zm-2 1v-1 1zm31-13c-1 2 1-2 0 0zm-16 6c-1-1 2-2 0 0zm24-19c-2 0 3-1 0 0zm-35 10v0zm-14 7c1 0 0 0 0 0l-1 1h-1l-1-2c1-1 2 2 3 1zm-14 5l-1-1 1 1zm-36 12h-1c-2 2-1 0 1 0zm35-13zm2 3l4-2-4 2zm-34 10h1-1zm-4 2c-1 1-1 0 0 0zm5-1l1-1c2 0-3 2-1 1zm37-13l1 1-1-1zm-47 17l2-1-2 1zm-1 1h-1l1-1h1l-1 1zm4-1l1-1-1 1zm9-3c-2 1 0-1 0 0zm-4 1c0 2-2 1 0 0zm41-13h1c-1-2-2-1-2-3l3-1v-1l1 1 1 2v2c-1 1 0 2-2 1l-1 1-1-1v-1zm-41 15h0zm-1 0l-1 1 1-1zm-3 2c1-1 2 0 0 0zm62-19c-2 0-2-2-3-2l1-1h-2l-1-2c3-2 6 0 7-3 0 3 2-1 3 2-2 1-7 2-5 6zm17-12h1v1h-1c0 2-1 0-2 1l-1-1 3-1zm-4 2c0 2-2 2-4 2 1-3 1-2 4-2zm19-9c3-1-2 0 0 0zm-2 1c1 1-1 0-1 1-1 0 0-3 1-1zm6-5c-1 2-1 3-4 3 0-2 3 0 2-2l2-1zm-5 3v-1 1zm-26 8h-1c-3 1 1-2 1 0zm-74 23h-1 1zm2-1l-1 1 1-1zm3-1h1-1zm69-22l-1-1 1 1zm-30 9c-1 2 1-2 0 0zm-29 9h1-1zm-4 1h1v1h-1-1l1-1zm-5-2c2-1 2 0 0 0zm8-1c2-2 4-1 1 0h-1zm29-8l-2-2 1 1c1-1 0-1 1 1zm-39 12l-2 1v-1h2zm-4 1v1c-2 1-2 0 0-1zm12-3c-1 1-1 0 0 0s1 0 0 0zm98-34l-2 2 2-2zm2 0c-3-1 1-2 0 0zM57 202h-1 1zm107-37h-1 1zm-3 2v-3c-1 1 2 2 0 3zM52 200v-1 1zm31-12c0-2 1 1 1-1 2 0-1 3-1 1zm78-26l-1-1 1 1zm-97 31h-1 1zm-12-4v0zm-4 2h0zm56-16l1-1c1-1 0 2-1 1zm23-6v1-1zm36-11c-1 1 1-2 0 0zm-1 0l-1-1 1 1zm-9 0l-1-1 1 1zm-47 17c2-2 5-4 5-6 0 2-3 4-5 6zm57-25v1c-1 1 0-1-1-1h1zm-3-1c0 1-2 2 0 2l-1 1c0 1-1-3 1-3zm-2 0c-1 2 1-2 0 0zm-2-2c-2-1 1 1 0 0zm11-3v1l-2-1h2zm-9 2l2 1c-1 3 0-1-3 1 1-2-1-2 1-2 2-1 4-1 0 0zm8-3l-2-1 2 1zm-2 1c-2 0-1-1-2-2l2 2zm3-4l-1-1 1 1zm-5-1c1-2 2 1 0 0zm-1-2c-2-1 3 2 0 0zm3-1c2-1-2 1 0 0zm-1 0c0-3-1 3 0 0zm-5-1v-1 1zm-6-7h-1 1zm3 2l-1-1 1 1zm6-5c1-2 2-1 4-2-2 1-3 0-4 2zm-9 2v-1 1zm29-22h-2c0-2 2-1 2 0zm-34 9v0zm5-4l1 1-1-1zm3-2v1l1-1c1 0-1 2-1 0zm3-2c-1 3 0-2 0 0zm2 0c-2-1 2 0 0 0zm22-8c-3-1 2 1 0 0zm-20 2c-1 0 1-2 0 0zm16-1v-1 1zm-16 5v-2 2zm-4-1c1-2 3 0 0 0zm16-6h0zm-2-1l-2 1 2-1c-1-1-1 0 0 0zm-1-1c-3 0 1-3 0 0zm3-5l-1-1 1 1zm-13-1c2 2-2-1 0 0zm3-2l-1 1 1-1zm9-14l1-3-1 3zm-11 9v2c-1 0-1-2-2-1-1-2 1 0 2-1zm-1 0c-1-1 0-3 0 0zm3-2c-1 2 1-2 0 0zm20-8c2 1 0 1 0 0zm-4 1l-2 1c-2 0 1-2 2-1zm1-3c3 2-1-1 0 0zm-3 2l-1-1c-1 2 0 0-2 0 1-1 3-1 3 1zm1-3c-4 2-2-6 0 0zm2-4c-1 0-2 6-2 2 0-1 0-2 2-2zm-3-15v0zm-6-4l-2 2 2-2zm21-3c2 0-3-1 0 0zm-2-3c1 0 1 1 0 0zm-1 0h-1 1zm-2-4c-1-1 2 1 0 0zm-22 8v-1 1zm61 162c2 1-2-1 0 0zM195 64l-1 2-1 1-1 2h-1l1 1h1l-1-1h2s4-4 3-7l-2 2zm1 1h-1 1zm-10 5c1 4 3-1 0 0zM18 173h-2 2zm7-4h-1 1zm75-41l3 1c0-2-3-2-3-1zm6 1c2-1-3 1 0 0zm-5-20l-2-1c-1 0-3-1-2 1h1v-1h1l2 1zm-4-15h0zm1-1h0zm69 132h0zm-7-47c1 2 4-2 1-1l-1 1zm23 56h0zm-5-29c2-2-1-2 0 0zm-71-76c-2 1 2-1 0 0zm10 10c-4 0-1 3 0 0zm10-40c-1 1 3-1 0 0zm40 79c-2 0 0 2 0 0z"/></svg>