<svg version="1" id="图层_1" xmlns="http://www.w3.org/2000/svg" viewBox="0 0 300 149"><path class="st0" d="M299 52h-2 2l-2-1h-1-1-7l-2 1h-1-4l1-1h-1l-4-1c0 1 0 1 0 0h8-1 1l-4-1h-1-2-1 1-1-1 0l-1-1 1 1v-1h-3l-3-1h-3-1 1l1-1h-3l-6-1h-2c1 0 1 0 0 0l1 1 1 1c-3 2-1-2-3-2h1-2 1v1l-1 1h-1-1l-1-1 1 1v2h-1v1l-1-1h-1 1-1 0v-1 1h-2v-1h-2 0v2h2v1h4-4v1h-1l-1 1h1v1l-1-1v1h-1 1v1h1v1c-2 0-1-1-1-1h-1v1h1-1 1-1v1l-1-1h-1v1-1h-1l-1 1v-1-1 1h-1-1l1-1h1v-1h-1v1h1-1v1l-1-1v0h-1v-1h3v-1-1h1l-1-1v-1-1h-1v1h-1 1v1h1-2 1c-1-1-4 1-4-2v1h-1v1h-1l-1 1h-1-1s1 0 0 0h-1c1 0 0 0 0 0h-1 0v1h0v2h-1v1l-1-1v1h-1-2v-1h-1v1l-3 2h-1v1h-1v-1h1s-1 0 0 0l-3-2-3 3h-1l-1 1-3 1 1-1h-1l2-1h1l1-1 1-1h1l2-1v-1h-1v-1h1v1l2-2 1-1h1c-1 0 0 0 0 0h1-1v1l1-1v1l1 1 1 1v-1h-1v-1h1v-1l1-1c0 1 0 0 0 0v-1h1c0-1 0 0 0 0h1v-1 1h1v-1h2v-1h1c-1 0-1 0 0 0v-1l-1 1v-1h-1v1l-1-1v1h-3 0v2l-1-1v0h-1 1-1l1-1-1 1h-1 1-7-1-1-2-1-1l1-1h-1 4c0-1 0 0 0 0h2l1-1v-1c0-1 3 1 2 2h4l2-1h4v1h-1 2v-1h2v1l1-1h2v1h1v0l1 1c2 0-1 0 0-1h1l1-1h-2v-1h-1v-1h-1l2 2-2-1h-1-1 1l-1-1h-1v-1 1h-1v-1 1h-1v1h-2v1l-1-1v1h-1v-1 1h-1v-1 0h-1l-1-1v0h-1v1l-1-1h-1l1 1-2-1v-1h1v-1h-1 0v1h-1v1h-1v-1 0h-1v0h-1 1l-1-1h0l1-1h-1 1-1v1h-1v-1l-1 1 1-1h-1v1h-1-1v-1h-1l1 2h1v2h-1c1 0-2-3-3-2h1l-1 1h1c-1 0 0 0 0 0h-1l1 1h-1 2v1h2-2 0-1-1l1 1h-1 0l-1 2v1h-1v0l-1 1h-1v1h-1-3-1v-1h-1-1l1-1h-1l-1-1h1l-1-1h1l-1-1-1 1 1-1 1-2h-1s1 0 0 0h-1-1-1 3l-1-1h2v-1-1h1l1 1h1v-1h2l1 1 1-1h-1-1 1-2l1-1h-1-1s1 0 0 0v1h-1-1-1-1v-1l-1 1h1-1-1-1c1 0 0 0 0 0h-1-1-1-1l1 1c-2 1-2 0-1-1l-1 1v-1h-1v1c0-1 0-1 0 0h-1v-1 0l-1 1v-1h-1l1 1h-1-1l-1-1h-1c-1 0 0 0 0 0h-6-3 1v-1h5l-1-1h4v-1 1l-1-1 1-1 1 1h2-1c0-1 0 0 0 0l1-1h1l1-1h-1l1-1h-1v0c-1 0 0 0 0 0h-1l1-1h-1l-2-1h-1l-1 1h-5v-1 1l-1-1-1 1v-1l-3 1h-1c-1 0 0 0 0 0h-1l-1 1-3 1c-3 0-4 1-5 2h-1 1c-1 0 0 0 0 0l-2 1h1-3l-1 1v-1h-1-1l-2-1h3l-1 1 1-1h4l-3-1 1 1h-1-1v-1h-2 1s1 0 0 0h-2v-1 1l-3-1h1-2-1 1l1-1v-1l-1 1-1 1h-1l-3-1h0l-3 1 1-1-1 1h-1 1-1-1l-1-1h-1-1v2l1 1h1s0 1 0 0v1h1v-1 1l-2 2h-1 1-1v-1-1h-1-1l1-1v-1h-1v2h-2v1h-1v2l-1-1-1-1v-1l-1 1 1-1-1 1-1-1v-1 1s0-1 0 0v-1 1l1-1h-1v-1l1-1v-1l-1 1v1h-1v1h1v1h-3c2-1 0-1 0-1v-1h-3v-1-1-1-1h1v-1h-1 1l1-1 1 1v-1 1h1v-1h-1v-1h-1l1-1 1 1v-1s0 1 0 0h1-1 1v-1s-1 0 0 0h-1l1-1h-1v-1l-1 1h-1v2h-1v-1c2 0 2-4 3-5l-4 3v-1l-3-1v1-1h1-2v-1h1v-1h-1v-1h-1v-1 1l-1-1v1l-1-1v-2-1h-1v3c1 0 0 0 0 0l1 1h-2 0v1h-1-1 1v2h-1v-2h-1 1v-1l-2 1h1l-2 2h1l-1 1h-1v1l-1 1h-1v-1l-2 1h-2v0h3v1l-1 1-1 1-1-1-1 1h1l-1 1v1l-1-2h1l-1-1h1l1-2v-2h0l-1-1v-1-1h-1 0l1 1-1-2-1-1-2-1v1h-2l-1 2v-1h-1v1h-1l-2-1v-1l-1-1v-4-2-1-1h-1l-3-1-1 1c-1 0-2 1-1 2v1c2 1 4 2 5 0l1 3v3l-1-1c0 1 0 2 1 1v2h-1v1l-1-1v1h-2-1v1l-1 1h-1l1 1s-1 0 0 0v1h-1l-1 1h-1-3 1l1-2 1 1v-1h1-1v-1l1-1-1 1h-1v1l-4 3h-1v1l-1-1 1 1h-3c-1 0-1 0 0 0h-1v1h0c-1 0-1 0 0 0h-1v1h-1-1c1 0 1 0 0 0 0-1 0 0 0 0v-1h1v-1-1h-1l1-1h-1-1v-1h-1s-1 0 0 0h-1l-1 1v-1 1l-1 1h-1 0l1 1h-1v1h-1l-1 1v-1 1l-2-2v-1-1l-1-1s0-1 0 0h-1v1h-1v2h1l-1-1h1v1h-1v1s-1 0 0 0l-2 2h-1-1v-1l-1-3-1-4c-1-1 0-3-2-4-2 2 0 3 0 5v3l1 2c-1 0 0 1 0 0l-1 3v-1l-1 2v-1 1l-1-1-1-1h-1s0-1 0 0h-1-1v1s0 1 0 0l1 1c1 1 0 2-1 2l-2-2h-1-1v-1 1h-1v-1 1h2-1v1l-1 1 1-1v1h1v1l-1-1h-3v0h-1v-1-1l-1 1v2h1-2v-1l-2-1h1l1 1v-1-1l-1-1c-1-1-1 0-1 1v1l-2-1-3-2h-1-2l1 1 1 2 2 1h-1v-1h-2v-1l-3-2c0 1 0 0 0 0l-2-1-1-1-2-2-2-2H4v-1l-2-1H1v-1l2 2v1l1 1h1l1 2 4 3 1 1 3 3h1l3 2-2-1v1h2v1l-1 1-2 2h-1-1v-1 1h-1 2l1 1h-1 1-1s-1 0 0 0h-1v-1h-1-1v-1 1h-1-1-1-1 2-2 3v1H7v1h3-2v1H7l-1-1H4 3h1-3-1l1 1H0h0v1h1c1 0 1 0 0 0h2-1v1h1c0 1 0 0 0 0l-1 1v-1l-1 1c0-1 0 0 0 0H0h1v1H0h1v1H0v2h0v4h2s-1 0 0 0H0h2v1l1-1v1l1-1h1l-1 1 2-1v1H4h2-5l1 1H0v8h0v10h1v-1l1 1c1 0 0 0 0 0H0v2h0v5h0v9h2-2v3h1l-1 1h1l-1 1h2-1c1 0 0 0 0 0H0s1 0 0 0v1h2l1-1h1-1 1s0-1 0 0h1v2h1-2v-1h0-1c1 0 0 0 0 0l1 1H3 1h1l1-1v0H2 1 0h0v1h1l-1 1h1l-1 1h4-4c0 1 3 0 2 1h4v0h2l3-1v1h1v-1h-1 2-1 1-3 1l-1-1 1-1-1 1v-1H9v1H8v-1l-1 1H6 5l3-1H7s-1 0 0 0H6v-1h1-1 0l1-1-1 1v-1h1-1 1l1-1v-1h4v1h-2 2l-1 1h-1-1 4v-1l1 1h-1v1l-1-1v1l-1-1v1l-1-1v0l-2 1h2-1-1 5v2h-1-1 1v1h1l-1-1 1 1h1l-1 3 2-2v-1 1c0-1 0-1 0 0v1h1v1h1l-1 1 1-1h3v-1-1c0 1 0 1 0 0v-1h1s-1 0 0 0v-1h1v-1 0l1-1v-1-1h1v1h1v1h1v-1s-1 0 0 0h1c-1 0 0 1 0 0h-1v-1h-1 1-1-1l1-1 2 1v-1h-2 3v3h1v1h-1-1l-1-1v1h-1v1h1-1v0h-2 1l-1 1h1l1 1h2v1h3v-1l1-1 1 1h-1 2c0 1 0 1 0 0h1v1h4v0h1l1 1h0v-1l-1 1h-1v-1h-1l1 1h1v1h1v1h1v1h-1 1l-2 1c0-1 0-2-1-1h1c0 2-1 0-2 0h1v-1c1 0 0 0 0 0v-1l-1 1h-1v1h1v1h1v1h-1v1h1v1h3c2 0-1 2 0 2l1-1h1l1 1h1l1 1h-2-1-1 1v-1s1 0 0 0h-1-1l1 1v1h-1c0 1 0 1 0 0h2l-1 1v1h1-1l1-1 2-1v1h-1l-1 1h1l1-1v0h2l1-1c0 1 0 0 0 0v1h-1-1l-1 1h1v0h2-1v1h1l1-1h-1 1v1l1 1h1v-1h-1c1 0 0 0 0 0v-2 3l1 1h-1l-1 2v-1h1s0 1 0 0l1-1-1 9 1 2c1 1-3 10 2 9 2-1 0-5 1-6v-5-4l1-5v-1c-1 0-1 0 0 0v-1h-1 1v-2h2v1l1-1v-1 2h0l-1 1v-1 3h-1l1 1-1 1v1h-1 1l-1 2v-1h1v-1h1c-1 1 0 1 0 0h1v1s0-1 0 0h0v-1h1v3s0-1 0 0h1v-1-1 0l1 1h2l3-1h1v-1l1 1v-1-1-1 1h1l2-2v-1l1-1v-1l-1-2-1-2 3-1-1 2 1 1 2-1v-1h2v-1h0v-1h1-1v-1h-1s0-1 0 0c-1 0-1 0 0 0h-1v-1s1 0 0 0v-1h-1 1l-1-1h1v0h1c0 1 0 0 0 0h2v1h1v-1 0h0v-1 1h-2-1c1 0 0 0 0 0v-1h1s1 0 0 0v-1h0l-1-1h1l1 1h1v-1h0l3-1h-2l-1 1h-1-1l-1-1 1-1h-1l2-1h1v-1 1h-1l1-1v-1-1h1l2 1v-1-1h-1l1-1h1s0 1 0 0h1v-1h-2 1l-2 1-1-1v-1h3c1-1 0-1-1-1v-1 1h2v-1h-1l-1-1s1 0 0 0h2l-1 1h1l1 1h-1 2v-1 0h1v1s-1 0 0 0h0v1l-1 2v2c-1 0-1 0 0 0h3v0h1l1 1-1-1 2 1h0l-1-1h2v1h1v-1 1h1-1 3v1h1c0 1 0 0 0 0h2l1-1h2v-1l1-1h1v0l1 1 1 1h1l2 1h0l-1-3 1 1h-1 1l1 1h-1 1v1h2l-1 1-1 1c-2 0 1 0 0 1l-1-1h-1 1v-1h-1-1 0-1v-1 1h-1c1 0 0 0 0 0v-1 1h-1-1v-1h-1-1v2h1v1l-1 1v-1 1h-1c1 0 0 0 0 0h-1v0h-1-1l-1 1h-1v1l-1-1v1h0v1-1 2l-2-2h-1 1s-1 0 0 0h-1l1-1-1 1v-1 1h-1-1 1-1l-2 2s0-1 0 0v1l-1-1c0 1 0 0 0 0v-2l-1 2v2l-1 1h-1v1h-1v1h-1 1-1v-1h-1-1v-1s0 1 0 0h-1l-2-1v1c1 0 1 0 0 0l1 1h2v1h1v1h-1 1l-1 1h-1v1h-1 1l-1-1v1h1l2-1v2h1v-1-1l1 1c0 1-2 1-1 2h1v1h1-1 1s-1 0 0 0h1v0h2l1-1v-1h-1v-1h1l1-2 1-1v-1 1h1l-1 1h1v-1h2l2-1 1-2h2v1h2v-1l1 1v-1h1v-1h2l-1-1h1v-1-1h1v0h1v1h1v-1 1h1v-1 1-1h1v0h1v-1h1v-1 1-1l1 1v-1h1c0 3 3 1 4 2h0v-2h-1-1 3v1h1v2h-1v2h-1-1-1-1v1h1v1h1v-1h1v-1l1 1h-1 0v1h-1v0h1c0 1 0 0 0 0h1l-1 1h1l1-1h1v2l1-1-1-1h2l1 1h-1l1-1s0 1 0 0l1-1h-1 1s-1 1 1 2v-2l1 1v-1h-1-1l-1-1h1v-1l1 1-1-2h2v-1 0h0l1-1c0 2 3 0 3 0h-4v-1 1l-1-1h1-1v1h-1v-1-2c1 0 1 0 0 0v-1l1 1h1v1h1l1-1h1v1h-1 1s0 1 0 0h2v-1h1-1l1 1v-2l-1-1v-1l1 1c3 1 3 0 3-1h1l-1-1h1v1c2 0 0 4 3 2 2-1-1-1-2-2h0v-1h5c-1 0 0 0 0 0l1-1 2 1v-1 1h1l1 1v-1h2v-1 1h1l4-1h1v-1l-1 1h-1 1-1-2-1 2c1 0 1 0 0 0h1l-2-1h-1c0-1 0 0 0 0l-1 1v-1l-1 1 1-1h-1v1l-1-1h-1-1v-1l1 1 1-1h1l-1 1 1-1 1 1c-1 0-1 1 0 0l1-1 1 1 1-1-1 1h5v-1l1 1v-1h2l1 1v-1h-1 14v-1l2 1v-1h17l-1 1 1-1 2 1 1-1h7l2 1-1-1h2c-1 0-1 0 0 0h7c1 0 0 0 0 0h11-2l1 1h-1 3s-1 0 0 0h1l-2 1h1-2-1 1-3 0c1 0 0-1 0 0h-2 1v1h-1c1 0 1 0 0 0h4-1 3l-1 1h-2 13l1 1v-1h1v1h1v-1 1l2-1v1l1-1c0 1 0 0 0 0h-1 1-12-1l-2-1h-1 1s1 0 0 0h1c-1 0 0 0 0 0h5-1v-1 1l1-1v1l1-1v-1 1h3l1 1v-1h1l-2 1v-1h-1v1h6v-1h3-1 6v-1h-2-1-1 6-1 3v1h-1 1s-1 0 0 0h2v1h-2v-1h-1-1l1 1h4v0h-1l-1 1-1-1-1 1h-6 1-4-1 1-1 2l1 1h2v-1c1 1 0 0 0 0h1l1 1h2l-1-1 1 1v-1 1h6v-1l1 1v-1l3 1h-1 9v-1l1 1v-1h1-2l-1-1h-1l1-1h-1v1h-3-1l3-1h-1 1-1-3 0v-1 1h-1 1-2 1v-1 1h1v-1h-1l-1 1v-1h-1 0l-1 1h1-1v-1l-2 1h-1 1v-1h-2v0h-1-1 2c-1 0 0 0 0 0h6l2-1h-1 2l-1-1v1l-1-1h-1 1l-1 1 1-1h-1v1l-1-1h1-1v-1h2-1l1 1h1v-1h10l1 1h1-4-1 1l1 1v-1l2 1v-1l1 1v-1h1-1 3-1 1-3v-1h3l1 1v-1h2c1 0 0 0 0 0h1v1h-1-1-1 2l1 1h2c1 1 1 0 1-1h-1 1-1-1 3-3v-1h4v1l1 1c0-1 0 0 0 0h1l1 1v-1l-1-1v-1h2c0 1 0 0 0 0h4c-1 1 1 1 1 1h-1v-1h7l1 1h1v1l1-1h-1 1v-8-36h-3zm-41 45z"/><path class="st0" d="M123 118v1h1v-1zM130 118h-1 1zM91 103c0-1-1 0 0 0v0zM75 29h0zM37 31h-1 1zM161 112zM159 31s0-1 0 0h-1 1zM117 27h1c0-1 0 0 0 0l-1-1v1zM177 102v1-1zM103 28v-1 1zM98 31zM117 117l1 2-1-2zM80 105h-1c0-1 0-1 0 0h1-1 1v0zM84 99l1-1h-1l-1 1h1zM84 99l1 1v-1l1-1h0l-1 1h-1z"/><path class="st0" d="M84 100v0l1-1-2 1h1zM204 100h2-2zM184 43h0zM158 38h1v-1l-1 1zM160 101h-1 1zM199 41h-1l-1-1-3 1h5zM207 100c-1 0-2-1 0-1h-10-1l-1 1-1-1v1h-1 14zm-12-1h-1 1zM165 35h0zM165 35h-1 1c-1 0 0 0 0 0zM169 101v-1h1s-1 0 0 0h-2l1 1zM160 37v0zM168 100l-3 1-1-1h0l1 1c-1 0-2 1 0 1l1-1h-1 3v-1zM158 101h-1 1zM160 37h-1l2-1v0c1 0 1 0 0 0l2-1h-2s2 0 1-1l-1 1-2 1h-1v1h2zM151 107v-1 1zM151 102h0zM151 113c-1 0 0 0 0 0 1 0 0 0 0 0zM154 103c-1 0-1 0 0 0zM164 112l1 1-1-1zM151 107h-1 1zM150 109l1 1-1-1zM152 118c0-1 0 0 0 0 1 0 0 0 0 0zM151 103v-1 1zM151 106v0zM154 104c-1 0-1 0 0 0zM152 103c-1-1-1 0 0 0zM165 108h0zM165 107c0-1 0 0 0 0zM155 102zM154 106zM154 100zM152 103c1 0 0 0 0 0zM164 115zM155 100c1 0 0-1 0 0zM147 114zM149 109v-1 1zM149 103c1 0 0 0 0 0zM148 106v0zM148 109s-1 0 0 0zM150 100v-1 1zM150 107s0 1 0 0zM148 114v0zM151 115l1 1-1-1zM147 122c-1 0-1 0 0 0zM146 105h0zM147 103zM148 104c0-1-1 0 0 0zM148 106c1 0 1 0 0 0 0 0 0 1 0 0zM147 103h0zM150 113zM153 102h0zM152 100c1 0 1 0 0 0zM154 105zM154 103h-1 1zM149 108c0 1 0 0 0 0zM153 99l1 1-1-1zM154 105c-1 0-1 0 0 0zM150 111zM149 104c1 0 1 0 0 0zM151 100c1 0 0 0 0 0zM150 109c1 0-1-1 0 0zM154 104v1h1v-1h-1zM159 108h0zM161 105l1-1-1 1zM158 106l-2-2 2 2zM158 117s0-1 0 0zM159 108c-1 0-1 0 0 0 0 1 0 0 0 0zM161 107h0l-2-1 2 1zM157 110l1 1-1-1zM163 100c0-1-1 0 0 0zM161 100v-1 1zM162 110c-1 0 0 0 0 0 1 0 0-1 0 0zM161 113c1 0 1 0 0 0zM157 106h0zM158 103zM160 105v0zM159 100v0zM160 104v-1 1zM159 102h1v-1h-1v1zM158 102c0-1-1 0 0 0zM159 99h0zM157 103zM160 99v0zM159 100h0zM159 105zM157 100h1v-1l-1 1zM157 99c1 0 0-1 0 0zM153 108c-1 0 0 0 0 0zM164 107h1-1zM166 113zM158 113v0zM152 107l1 1-1-1zM165 100c1 0 0 0 0 0zM153 113c1 0 0 0 0 0zM163 102s-1 0 0 0zM153 107c1 0 0 0 0 0zM163 105h-1 1zM165 106zM162 113h0zM164 102zM163 104c2 0 1 0 0 0zM156 100c-1 0 0 0 0 0zM163 100s-2 0 0 0zM163 100v-1 1zM156 101h1-1zM156 120v0zM157 117v0zM155 109h-1 1zM154 110v0zM155 108c-1 0-1 0 0 0zM154 113zM156 100c1 0 0 0 0 0zM154 108c-1 0-1 0 0 0 0 1 0 0 0 0zM156 106c-2-2-2 1 0 0zM152 114l1 1-1-1zM135 108c0-1-1 2 1 1l-1-1zM134 103h0zM135 110zM135 105c0-1 0-1 0 0-1 0 0 0 0 0zM134 111zM134 106c1-1 0-1 0 0zM133 117h0zM135 113zM137 109h0zM147 115l-1-1 1 1zM134 112v0zM134 108c1 0 0-1 0 0zM134 107h0zM126 111c1 0 0 0 0 0zM130 115h0zM132 112c0-1-1 0 0 0zM131 112h-1 1zM132 123zM133 123h-1 1zM132 119h-1l-1 1 1 1 1 1 1-1c1-1 0-2-1-2zM133 107c-1 0-1 0 0 0zM133 108v-1c-3 0 0 1 0 1zM132 116v-1h-1l1 1zM133 109zM132 106zM131 111zM131 117zM138 106h0zM129 118l-1-1 1 1zM128 121h-1v1h1v-1zM128 113v0zM127 116c1 0 1 0 0 0zM129 114s-2 2 0 1v-1zM129 115zM129 113v0zM127 111c1 0 1 0 0 0 0-1 0 0 0 0zM126 120zM125 122h1-1zM127 116c0-1-1 0 0 0zM127 113zM127 118v-1c0 1 0 0 0 0v1zM129 110v0zM139 103c-1 0-1 1 0 0zM137 106v0zM138 105c-1 0-1 1 0 0 0 1 0 0 0 0zM134 105c-1 0-1 0 0 0zM132 106h1-1s0-1 0 0zM131 108zM131 110l2 1-1-2c-2 0-1 1-1 1zM130 116v0z"/><path class="st0" d="M134 107c1-1-1-2-2-2l2 2zM135 107h1-1zM140 120zM140 118h2l-4 1 2-1v1h1l-1-1zM139 119zM138 113c0-1 0 0 0 0zM142 123zM141 112h0zM142 104c1 1 0 0 0 0zM142 120s-1 0 0 0zM140 115c1 0 0 0 0 0zM139 103v0zM139 117zM140 112c-1 0 0 0 0 0zM139 118c-1 0-1 0 0 0zM145 105v0zM145 103c1 0 0-1 0 0zM145 107c1 0 0 0 0 0zM146 108c1 0 1 0 0 0zM147 112s-1 0 0 0zM144 103v0zM144 117c-1 0-1 0 0 0zM143 102h-1 1zM143 116v0zM144 106v0zM142 112zM143 106zM143 113l1 1-1-1zM134 113l1 1-1-1zM142 106c0-1-1 0 0 0zM139 111s-3 1-1 1l1-1zM137 111v-1 1zM142 105zM142 104l-1-1 1 1zM136 117h1-1zM135 118h0zM136 105v0zM134 115c-1 0-1 0 0 0zM136 123c-1 0 0 0 0 0zM136 110l-1-1 1 1zM136 112zM140 106c-1-1-1 0 0 0zM140 111c-1-1 0 1 0 0zM141 110l-1-1c-1-1-2 2 1 1zM141 107c1 0 1 0 0 0zM140 108zM141 108h1-1zM141 105v-1 1zM141 106c-1 0-1 0 0 0zM140 106zM136 108h0zM122 40zM122 27zM125 38l-1-1 1 1zM122 38v-1h-1 1v-2l-1 2v2c0 1 0 1 0 0 1 0 1 0 0 0h1v-1 0zM122 41v0zM122 36h0zM122 40zM126 38zM126 43zM126 38zM123 39v1l1-1h-1l1-1h-1l-1 1h1zM127 44h-1 1zM125 41zM124 31zM125 29l1-4-2 1c-1 1-2 4 1 3zM126 28h-1 1zM125 29zM125 19zM126 38zM126 18l-1 1 1-1zM122 28c-1 0 0 0 0 0 0-1 0-1 0 0zM121 23zM123 21c1-3-2 0-1-2h-1c-1-1 1 4 2 2zM123 31v-1 1zM122 24h-1 1c0-1 0-1 0 0zM123 23zM121 12zM127 36c-1 0-2 2 0 1v-1zM127 33zM127 33zM127 33h-1 1zM126 39zM127 33zM127 20s-1 0 0 0zM129 29l-1-1 1 1zM127 29h0zM128 26v0zM127 24v-1 1zM102 26zM128 13v-1l-1 1h1zM126 33zM126 33s-1 0 0 0zM126 41v-1l-1 1 1 1v-1zM128 38c0-1 0-1 0 0-1 0 0 0 0 0zM126 34zM127 42c-1 0-1 0 0 0zM126 11l-1 1 1-1zM128 34c0-2-2 1-1 0h1z"/><path class="st0" d="M125 31l-2 1v1l-1 2h1l2-2v-1h1v1h1v-1h1s-1 0 0 0v1h1l-1 1h1-1v2h1l1-1v-1h-1 1v1h1v1l1-1h-1 2l2 1h3-1 4c1 0 0-1 0 0v-1h-2l-2-4-2-1h1-1l-1-1-4 1-1 1h-2l-1-1-1 1zm2 1zM130 38c0 1 0 1 0 0v0zM129 39h-1s0 2 1 1v-1zM129 40c0 1 0 1 0 0 1 0 0 0 0 0zM127 36v-1 1zM128 41s1-1 0 0zM121 8V5v3zM107 17v-1 1zM107 26h0zM106 18c-1 0 0 0 0 0s0-1 0 0zM106 22v-1 1zM107 25h0zM108 23h-1 1zM109 14v-1 1zM109 16l1 2v-1l1-1h-1-1c1 0 0 0 0 0zM112 13c0-1-1 0 0 0zM109 15h-1 1zM108 17v0zM109 19h1v-1l-1 1zM104 14zM104 27h-1c1 0 1 0 0 0h1zM104 24h-1c-1 2 1 0 1 0zM105 21zM124 10zM105 24v0zM104 21v-1 1zM104 24v-1 1zM112 22v0zM119 23v0zM120 22s-1 0 0 0zM167 101h0zM118 25c-1 0-1 1 0 0zM119 21v1h0l1-1s0 1 0 0c0 0 0 1 0 0v-1h-1v1zM123 10s0-1 0 0c-1 1 0 1 0 0zM123 15l-2 2c0 1 2 2 2 0v-2zM125 25h-1c0-1 0 0 0 0v-1 1h1zM124 25zM123 5v0zM128 31v-1 1zM122 13v0zM118 26c-1 0 0 0 0 0zM118 22zM114 24zM115 22zM116 23h-1 1zM114 23zM115 22l-1-1 1 1zM116 10zM116 15h0zM118 18v0zM117 24v-1h-1v1h1zM116 25c-1 0 0 1 0 0zM116 24v-1 1zM120 17c1 1 1-2 1-2 1-1-4 1-1 2zM189 104c-1 0 0 0 0 0zM188 102c1 0 0 0 0 0zM192 112h0zM188 99zM197 105s-1 0 0 0zM167 34c1 0 1 0 0 0zM200 105zM201 100zM183 101c-2-1-1 1 0 0zM181 103h0zM181 108zM185 103c-1 0 0 0 0 0zM128 30v0zM186 103v0zM156 26c0 1 0 1 0 0zM148 28h1c1-2-2-1-1 0zM153 32l-2 1-1 1 2-1 1-1zM164 30l-1-1s0 2 1 1zM153 35zM149 39h-1 1zM148 36zM151 11c-1 0-1 0 0 0zM153 16zM156 36s0-1 0 0zM161 28v0zM180 109c-1 0 0 0 0 0 0 1 0 0 0 0zM155 32v0zM155 29v-1 1zM169 120v-1 1zM172 103c1 0 0-1 0 0zM171 102h2-1-1zM171 114c-1-1-2 0 0 0zM172 112c1 0 0-1 0 0zM174 102zM174 116v0zM173 99c1 0 0 0 0 0zM169 120v0zM168 110c-1 0-1 0 0 0zM148 39zM170 105zM170 103l-1-1 1 1zM179 108l1 1-1-1zM170 101c-1 0-1 0 0 0zM176 102h2-2zM177 111h0zM176 103h0zM176 105h0zM178 101h-1 1v0zM179 114h0zM174 106s0 1 0 0c1 0 0 0 0 0zM174 115zM174 107zM174 102h1-1zM175 99c1 0 0 0 0 0zM175 109s-1 0 0 0zM176 106v0zM184 105c-1 0-1 0 0 0zM130 10l1-2c2-1-4 2-1 2zM134 27c-1 0-1 0 0 0zM132 23c-1 0-1 2 0 0zM129 21c1 0 1 0 0 0zM131 15v0zM131 10zM135 36s0 1 0 0zM133 8c0-1-1 0 0 0zM135 8c1-1-5 2-3 4 1 1 3-3 3-4zM135 18v-1 1zM135 13v-1 1zM129 27l1 1h1v1l2-1 1 1-1-1-1-1-1-1h-2v1zM135 36zM130 37c0-1 0 0 0 0zM133 38l-1-1h-1v-1l-1 1v0l1 1h2zM130 29c0-1 0-1 0 0zM129 28h-1 1z"/><path class="st0" d="M128 29c-1 1 0 1 0 0 1 0 0 0 0 0zM130 41c1-1 0-1 0 0zM130 38v0zM132 37c1 0 1 0 0 0zM136 25l-1-1 1 1zM142 38s0 1 0 0zM143 35h-1 1zM144 32v-1 1zM141 26h-1 1zM145 29h-1c-2 1 0 2 1 0zM141 32v-1l-1 1h1zM147 19s0-1 0 0c-1 1 0 1 0 0zM144 26s-1 1 0 0zM146 23s0-1 0 0zM147 34zM144 12v-1 1zM146 36h-1v1l1-1zM136 5h0zM138 24zM136 31h0zM148 17c-1 0-1 1 0 0zM138 32zM139 38c0-1 0 0 0 0zM140 34c1 0 1 0 0 0zM140 31v-1 1c0-1 0 0 0 0zM139 28v-1c1 0 0 0 0 0-2 2 0 2 0 1zM163 100h0zM93 118zM92 120zM94 119c1 0 1 0 0 0 0 0 0 1 0 0zM91 119v0zM96 122zM95 118c-1 0 0 0 0 0s0-1 0 0zM90 119zM89 120v-1 1c0-1 0-1 0 0zM97 113h-1l1 1v-1zM84 123c-1 0 0 0 0 0zM82 124s0 1 0 0c1 0 1 0 0 0zM77 122zM78 106zM79 124zM81 121h-1-1 1v1h1v-1zM77 120h0zM79 105zM79 110zM79 108v-1 1zM88 121zM88 123s-1 0 0 0zM103 116c1 0 1 0 0 0zM105 119v0zM104 111zM104 113h-1 1zM104 114v-1 1zM104 127v-1 1zM104 120l-1-1 1 1zM104 111v-1 1zM100 116h-1 1zM101 114zM101 119c1 0 1-1 0 0zM108 111v-1l-1 1h1zM108 125zM108 112zM108 120h0zM108 112c1-1 0-1 0 0zM105 125v0zM108 113zM99 124zM107 117h-1 1zM107 122h-1 1zM99 120zM97 116h1v-1l-1 1zM97 114zM99 115h-1v1h1v-1zM98 114zM109 112zM114 115c0-1 0 0 0 0l-2-1h-1v1h1v-1l1 1 1 1h1-1v-1zM119 116c-1 0-1 1 0 0zM118 120v1h2v-1h0v-1h-1l-1 1zM120 116l1 1-1-1zM121 120c1 0 1 0 0 0zM121 127c0-1 0 0 0 0zM117 126v0zM116 116h-1c1 0 0 0 0 0h1zM117 126h1v-1h-1v1zM109 110zM113 125h3c1-3-3-2-3 0zM117 120zM117 116v0zM118 124h0zM125 121zM127 114c0-1-1-2-2-1-2 1 2 1 2 1zM124 125v0zM124 118h1-1c1 0 0 0 0 0zM125 110h0zM114 131h0zM127 112c-1 0-1 0 0 0zM121 127h-1 1zM120 125zM122 117v-1 1s1 0 0 0zM119 127h1c-1 0 0 0 0 0v-1l-1 1zM122 128c-1 0-1 0 0 0zM122 116zM120 118v-1 1zM115 117zM115 118v-1h-1v1h1zM112 111v0zM112 110c0 1 0 0 0 0zM110 112l-1-1 1 1zM111 108zM111 112v-1h1v-1h-2v1l1 1zM111 109zM112 110h1l1 1-2-1zM112 131v-1 1zM111 118zM114 122h1-1zM112 126v0zM111 113h-1 1zM114 121l1 1v-1-1-1c0 1 0 0 0 0l1 1 1 1 1 1c-1 0-1 1 0 0l-4-4 1 1h-1-1v0l-1 1v-1l1 1v1h1zm0 0zM111 112v0zM113 111zM113 113c-1 0-1 0 0 0zM113 114s0-1 0 0zM110 119v-1 1zM113 111h-1 1zM114 112h-1 1zM126 112c1 0 0 0 0 0zM162 119c0 1 0 0 0 0zM16 43v0zM121 35c-1 1-1 1 0 0zM2 46zM123 41zM116 114h1-1zM116 27zM115 27h0zM123 41zM123 41zM95 108h-1v1l1-1zM94 106zM95 107c-1 0-1 0 0 0zM95 104v-1 1zM94 106h-1v1h1v-1zM95 107c0 1 0 1 0 0zM94 110c1 0 0 0 0 0zM96 108zM96 104h1v-1h-1-1 0l1 1zM93 102c1 0 1 0 0 0zM95 102h-1 1zM94 102v0zM97 105v0zM101 104c1-1-1-1 0 0zM100 104h-1 1zM100 104l-1-1v1h1zM97 107l1-1h-1v1zM101 103zM101 105zM98 104c1 0 1 0 0 0zM97 104h0zM97 106h2-2zM99 105c0 1 0 0 0 0zM99 106zM99 107zM86 108zM102 104v-1 1zM86 104h-1 1zM86 103zM85 109c0 1 0 0 0 0zM85 104s-1 0 0 0c-1 0 0 0 0 0zM83 103s0 1 0 0c1 0 0 0 0 0zM85 104v0zM83 105v-1 1zM84 108h0zM83 101h0zM81 105l-1-1 1 1zM93 103zM93 107v0zM84 114v-1 1h-1-1-1 1c-1 0 0 0 0 0h2zM93 103v1h1v-1h-1zM83 114h-1v1l1-1zM82 100v-1 1zM82 102s0-1 0 0zM85 104c1-1 0-1 0 0zM104 102h0zM105 103h-1 1zM106 102v0zM106 103c-1 0-1 1 0 0zM105 103zM102 103v-1 1zM105 101zM107 103v0zM104 101c-1 0-1 0 0 0zM102 106v-1 1zM102 105zM104 103s0-1 0 0c-1 0 0 0 0 0zM104 102zM109 101zM82 96zM109 103c-1 0-1 1 0 0zM111 104s0-1 0 0c0-1 0 0 0 0zM109 104v-1 1zM109 104zM86 98zM87 101c-1 0-1 0 0 0zM127 107v-1 1zM146 99v0zM128 108zM125 107l-1-1c-1 2 1 1 1 1 1 0 0 0 0 0zM127 107zM132 44c0-1 0-1 0 0zM124 42zM134 43v-1c-2-1-2 2 0 1zM133 44v0zM125 108h1-1zM134 42zM117 110c1 0 1 0 0 0zM124 108v-1 1zM118 110v-1h-1l1 1zM117 109zM81 111l1-1h-1 1-1v1zM124 42zM125 106zM124 113s1 0 0 0zM116 110h-1 1zM116 111zM115 111c0 1 0 1 0 0h0zM84 102s-2 1 1 1c1-1-1-2-1-1zM114 26zM119 32v-1 1zM121 38v0zM119 35v0zM118 39zM118 36v0zM121 35h-1 1zM124 42zM119 39v0zM119 40c0-1 0 0 0 0zM118 39zM120 39zM120 37s0 1 0 0zM120 38c-1 0-1 0 0 0zM119 36s0 1 0 0c1 1 1 0 0 0zM119 38v-1 1zM120 40v-1 1zM88 107l-1-1 1 1zM87 107v0zM91 107v0zM86 111h-1 1zM90 103zM92 105s-1 0 0 0zM89 102zM84 101zM84 101zM84 101zM84 102zM82 101c1 0 1 0 0 0zM83 104zM83 110zM82 104c1 0 1 0 0 0zM90 103zM86 101zM85 100v1h1l-1-1zM83 100zM83 100zM83 100zM83 100zM83 100zM83 100zM83 100zM83 100zM83 100zM92 103h0zM93 106zM87 103v-1h-1l1 1zM87 101zM88 101c0 1 0 0 0 0zM68 30h-1 1zM70 18c-1 0 0 0 0 0zM64 27zM71 23l-1-2c-2-1 1 1-1 1l2 1zM71 19s-1 1 0 0zM70 26v-1c0 1 0 0 0 0v1zM71 20c-1 0 0 0 0 0zM67 28c-1 0-1 0 0 0zM69 23c0-1 0 1 0 0zM67 27h-1 1zM67 28v-1 1zM72 27v0zM73 30v0zM69 23zM68 20c1 0 1 0 0 0 0-1 0 0 0 0zM68 23v0zM72 19l1 1-1-1zM72 23v-1 1zM72 24h0zM73 25l-1 1 1-1zM66 29v-1 1zM66 26c1 0 1-1 0 0zM68 25h-1 1zM63 31h-1 1zM63 29c1 0-1-1 0 0 0 1 0 0 0 0zM65 23l-1 1h1v-1zM65 27v0zM65 24c0 1 0 0 0 0zM66 20zM68 24l-2-3c-2-1 1 3 2 3zM66 20h0zM73 26zM69 18l1 1-1-1zM62 30zM62 15h0zM63 26zM62 25v0zM64 17l-1-1 1 1zM62 28zM66 12l-1-1 1 1zM64 21v-1c0-1-2 1 0 1zM65 25c0-1-1 0 0 0zM65 18h-1 1zM64 12v0zM63 15c1 0 0 0 0 0zM64 18v0zM59 27l-1 1h1v-1h1l-1-1v1zM61 25v0zM62 26c-2-1 0 0 0 0zM62 27c-1 0 0 0 0 0zM61 17c-1 0 0 0 0 0zM62 15v0zM61 18c-1 0 0 0 0 0zM75 20h0zM74 11v0zM75 10c-1-1 0 0 0 0zM75 15v-1 1zM72 15l1 1c1-1 0-1-1-1zM75 22c0-1-2 0 0 0zM73 19c1 0 1 0 0 0zM76 12c-1 0-1 0 0 0zM74 25c1 0 0 0 0 0zM76 20v0zM74 26c1 0 1 0 0 0zM75 13zM65 13l1 1-1-1zM75 27c1 0 0 0 0 0zM75 29s-1 0 0 0zM73 8zM68 15v0zM69 13v0zM67 19h-1 1zM67 12s-1-1 0 0c0 0 0 1 0 0zM68 7zM72 11c-1 0 0 0 0 0zM72 17c-1 0-1 0 0 0zM72 9V8v1zM71 9V8v1zM70 9c1 0 1 0 0 0 0-1 0 0 0 0zM71 24v0zM91 21v0zM92 13c0-1 0-1 0 0zM92 16c0-2-1 0-1 0h1zM91 14zM85 19l-1-1s0 2 1 1zM90 19l-1-1 1 1zM89 15v-1 1zM90 11v-1 1zM94 19zM93 22l3-1v-2h-1 1-1l-2 3zM92 17h0zM93 5v0zM95 11V8c-2 1-1 4 0 3zM86 12s0-1 0 0zM86 14h-1 1zM85 21c1 0 0 0 0 0zM88 11v-1 1zM85 18s0-1 0 0zM85 11c-1 0-1 0 0 0zM86 18c0-1-1 0 0 0zM88 14c0-1 0 0 0 0zM88 9zM87 11v-1 1zM87 14l-1-1 1 1zM87 9V8v1zM87 22zM89 10v0zM100 21c0-1 0 0 0 0 1 0 1 0 0 0zM100 25c-1 1 0 1 1 1l-1-1zM100 23c-1-1-1 1 0 0zM100 18h1c1-2-2-1-1 0zM100 8v0zM101 20s0-1 0 0zM102 21c0-1-1 0 0 0zM102 8zM101 19l1 1-1-1zM102 28v0zM96 19v-1 1zM97 13zM97 24zM97 25h-1 1zM97 23l-1-1 1 1zM96 23s0 1 0 0zM96 9c-1 0 0 0 0 0zM98 24h-1 1zM97 4c0 1 0 0 0 0zM99 16v0zM98 20v-1 1zM78 10V9v1zM102 27zM66 31l-1-1c0 1-1 2 1 1zM67 31l-1-1 1 1zM67 30h-1 1zM79 23v0zM80 21c-1 0-1 0 0 0zM79 24h1c0-1-2-2-1 0zM65 29c1-1-1-2-1-1l1 1zM79 18c-1-1-1 0 0 0zM84 16c0-1 0 0 0 0zM80 24c1 0 0-1 0 0zM84 12v0zM82 19l-2-2c1 1 1 3 2 2zM80 22zM76 27zM74 27l1 1-1-1zM70 29c0 2 2 0 2 0 1-1-3-3-4-4l1 2-2-1 2 3c0-1 1-2 1 0zM78 22v-1 1zM84 21c0 1 0 1 0 0 1 0 0-1 0 0zM78 20c-1-1-1 0 0 0zM77 20c-1 0 0 0 0 0zM69 30v0zM76 25v-1c-1-1-1 1-1 2h2l-1-1 2-1h-1v1l-1-1v1zM47 29s-1 0 0 0zM48 34l-1-1 1 1zM46 33c1 0 1 0 0 0zM45 35l-1-1 1 1zM30 34h0zM53 27zM54 26zM53 24c1 0 1 0 0 0zM54 21v0zM53 22c1 0 0 0 0 0zM53 22zM53 24v0zM55 27zM54 28l-1-1 1 1zM55 32v-1 1c-1 0-1 0 0 0zM58 18v-1 1zM59 22c1 0 1 0 0 0zM59 24c-1 0-1 0 0 0zM59 25v-1 1zM58 22h-1 1zM58 25s-1 0 0 0c1 1 0-1 0 0zM57 26c0-1 0 0 0 0zM57 19l-1-1 1 1zM57 27v0zM51 30h0zM48 30v0zM51 28v-1 1zM51 25zM52 29v0zM51 21zM126 107zM13 105h-1 1zM12 102h-1 1zM11 102c-1 0-1 0 0 0H9h2zM7 100h0zM110 104h-1 1zM27 99zM12 102h0zM11 104l1-1-1 1zM10 102zM10 99h1-1-1 1zM27 99h-1 1zM14 104zM11 101h-1 1zM3 101zM5 101zM5 101zM5 101zM9 102h1l-1-1h0v1zM3 101zM9 102H8s-1 0 0 0h1zM2 101h0zM9 100H7h2zM8 101zM8 101zM4 101zM4 101zM4 101zM4 101h0zM4 101zM11 101zM10 101h1-1c1 0 0 0 0 0zM11 101zM13 101h-2 2zM83 106s0 1 0 0c1 0 0 0 0 0zM85 100c-1 0-1 0 0 0zM23 104zM3 47h0zM7 45zM7 47zM6 47h0zM5 45h0zM6 47H5c1 0 0 0 0 0h1-1 1zM5 47H4h1zM2 45H1l1 1H1h4l-1-1H3v0H2v0zM28 38h0zM27 35v0zM27 36s1 0 0 0zM28 36s1 0 0 0zM25 37h-1 1zM23 36c-1 0 0 0 0 0zM24 36c1 0 0 0 0 0-1-1 0 1 0 0zM24 34h-1 1zM25 38v-1 1zM25 38v-1 1zM26 37s0 1 0 0zM26 34zM32 35s1 0 0 0c1-1 0 0 0 0zM34 35h-1 1zM34 37l-1 1 1-1zM33 38v0zM28 38s1 0 0 0zM23 35c-1 0-1 0 0 0zM17 35s1 1 0 0zM17 43c0-1 0 0 0 0zM17 43h-1 1zM15 37c-1 0 0 0 0 0zM14 40zM15 40c-1 0 1 0 0 0zM15 43zM15 40h-1l-1-1 1 1h1zM13 36zM16 43c-1 0 0 0 0 0 0-1 0-1 0 0zM14 34s1 0 0 0zM22 37v0zM23 34l-1 1 1-1zM19 36zM13 35s0 1 0 0zM21 38c0-1-1-1 0 0zM21 36c-1-1 0 1 0 0zM46 34c-1 1 1 1 0 0zM47 34h-1 1zM38 36v0zM33 38s0 1 0 0zM36 35v-1 1zM35 38h-1 1zM40 34h-1 1zM12 41v-1 1zM9 43H8h1zM11 42c1 0 1 0 0 0zM10 42s1 0 0 0zM213 100h-1l-1-1h1l-3 1h0v1h2l1-1h-1 1l1 1 1-1 1 1-2-1zM217 101c0-1 1 0 0 0v-1 1h0zM220 100l-1-1v1h1zM219 99c1 0 0 0 0 0zM217 101h-1 1zM218 101v0h0zM216 98l1 1h2s-1 0 0 0h1l-1-1h-1s1 1 0 0h-1-1l-1 1 1-1zM215 101h-1 1zM216 100v-1l-1 1c1 0 0 0 0 0h1zM215 100v0zM229 102h1-1zM269 102c2 0 1 0 0 0zM267 102zM272 101l3 1h1l-4-1zM232 103v-1h5-6l1 1zM276 101h0zM244 102h0zM219 101h-1 1zM285 101zM296 100h-1 1zM295 101zM294 100h-1 1zm0 0zM298 101h-2 2zM294 101s0-1 0 0zM293 101c-1-1-1 0 0 0zM212 102h1-1zM275 100l1 1h1v-1h-2zM280 101v-1h-1l1 1zM280 101h2l-1-1c0 1 0 0 0 0l-1 1c1 0 1 0 0 0zM287 100h0zM287 101zM178 101h6-6zM194 100h-4v-1h-1v1l-1-1-3 1h-1-1-1-1-1l1-1-2 1h-1c-1 0 0 0 0 0h-1-1 1-5l-2 1h3l6-1h2v0h1v1l1-1v1h3l1-1v1l7-1zm-11 0zm7 0zM181 99h-1 1zM193 99s1 0 0 0zM215 99h-1 1zM213 98h-1 1zM213 98l1 1-1-1zM213 98zM211 98h0zM208 99h0zM208 101l1-1-1 1zM208 102h0zM210 102h1-1zM210 101h1-1zM208 102l1-1-1 1zM210 98h-1l-1 1h2v-1zM193 101h-1 1z"/><path class="st0" d="M209 99l-1 1 1-1s1 0 0 0zM210 99h1-1l1-1h-1v1zM198 98s1 0 0 0zM214 99h-3 3zM194 102h0zM195 98h-1 1zM196 100v0zM211 102v-1zM194 101h1c1 0 0 0 0 0h1-2zM218 98zM216 98h-2 2c-1 0 0 0 0 0zM215 100h-1-1 2zM218 98h0zM218 98h0zM207 101zM207 101v0zM242 101zM243 100zM246 100h-1 2s0 1 0 0h-1zM244 101s0-1 0 0zM248 101h-1-1 2s-1 0 0 0zM278 98v-1h-1l1 1h-1 1c-1 0 0 0 0 0zM272 100h-1 1zM257 97h-1 1c-1 0 0 0 0 0zM269 97c0 1 1 0 0 0zM266 100h-1 1zM265 97h-1l2 1v-1s1 0 0 0h-1zM265 100h-1 1zM289 98v1l1-1h-1zM231 101l-1-1-1 1h1s1 0 0 0h1zM232 101zM222 99h-1-1s1 0 0 0h2s-1 0 0 0zM276 98h0zM285 99h-1 1zM300 101h-1 1zM262 98zM275 97h1v-1l-1 1zM274 98h-1l1 1v-1zM294 99zM296 99c-1 0 0 0 0 0zM294 99c-1 0 0 0 0 0zM295 99h-1 1zM297 99zM282 97zM291 99zM289 99v1h1v-1 1h1v-1c0 1 0 0 0 0s1 0 0 0h2-1-1-1 1-2zM267 100h-1 1zM266 101zM271 100h-1c1 0 0 0 0 0h0v1h-1l-1-1h1-2-1 1s1 0 0 0l-1 1c0-1 1 0 0 0h3l1 1v-1h-1 1l1-1h0zM261 99h-2 2zM273 99h0zM264 100v-1 1zM259 98c0-1 0 0 0 0l1-1-1 1zM253 98zM247 99zM265 96h-2l1 1v-1h1v0zM281 97zM286 99h-1 2s1 0 0 0h2-1 1-2-1zM280 98v0zM289 99zM272 100zM269 102zM271 102h-1 1zM265 99zM270 100h-1 1zM272 101h1l1-1h-1s-1 0 0 0h-1v1zm1-1c1 0 0 0 0 0zM249 99h-1v1l1-1zM258 98h-1 1zM259 99zM259 99zM259 99h1-1zM264 99h-1 1zM257 99zM263 99l-1 1v-1 1h1c-1 0 0 0 0 0v-1zM257 99v-1 1zM275 97h-1 1zM263 97h-1l1 1v-1zM270 97v0zM262 98h0zM269 98h1-1 1-1zM262 99h0zM260 98l2-1-2 1zM271 98z"/><path class="st0" d="M278 99h-4s0-1 0 0h-2v-1h-2v1l-1-1h-1v1h3v1h1v-1h-2 8zm-4 0h1-1zM270 100zM266 98h2-1 1-1-1-1-1-1-1 4c1 0 1 0 0 0zm-1 0h-1 1-1 1zM270 98zM259 98zM259 98zM259 98h-1 1zM259 98h1-1zM259 98h-1 1zM268 98h1-1zM261 98h-1 1-1s-1 0 0 0h1s1 0 0 0zM266 99zM265 99zM266 99h-1 1zM267 99h-1c1 0 0 0 0 0h1l1-1-1 1zM271 98s-1 0 0 0zM267 99h0zM285 97h1-1zM294 103v0zM298 104zM297 98c1 0 1 0 0 0zM296 108c0 1 1 0 0 0 0-1-1 0 0 0zM298 103h0zM298 105l-1 1 1-1zM299 102h-1l1 1v-1zM298 108c-1 1 1 0 0 0zM297 98zM295 97h-3 3s1 0 0 0zM296 109v0zM294 98c1 0 0 0 0 0zM295 107c-1-1 0 0 0 0zM296 98v0zM299 104l-1 1c1 0 2 0 1-1zM299 109h-1 1zM284 102v-1c0 1 1 1 0 0h-1s1 0 0 0l1-1h-1v1l-1-1h1-2 1v1h-1v2h3c1 0 0 0 0 0l1-1h-1zm-2-1zM277 101zM293 101l-1 1 1-1zM293 99v-1 1zM292 103v-1 1zM291 106h-1 1zM295 106l-1-2h-1v1l1 1h-1 2zM293 103v0zM286 106h-1 1s0 1 0 0zM283 100h2v-1h-1s-1-1 0 0l-1 1zM292 96h-1 1zM287 101h-1 1zM292 100h1s-1 0 0 0h-1c-1 0 0 0 0 0h-1 1zm0 0zM292 102l-1-1h1s0-1 0 0h-1v-1h-2-1v1h1v1h3zM285 100h-1 1zM297 38zM291 33zM295 36h0zM218 48h-1 1-4 4zM223 48h-1 1zM221 48zM132 41zM166 32h-1 1zM171 35zM180 32h-1 1zM187 35h1-1zM193 36h-1 1zM193 37l1-1h-1v1zM193 35h0zM194 37l1-1-1 1zM195 37h-1 1zM196 35h-1 1zM196 37h0zM197 33v-1 1zM199 36h0s1 0 0 0zM201 37zM202 34h-1 1zM202 37s1 0 0 0zM202 36h0zM205 34h0zM207 37l-1-1 1 1zM208 33h-1 1zM208 36h-1 1zM209 37l-2-1 2 1zM207 34h0zM208 36zM209 35zM211 36h-1 1c-1 0 0 0 0 0zM212 48h0zM213 36h0zM215 48h2-2zM219 35h-1 1zM225 48h-2 2s1 0 0 0zM226 35zM234 35h-2 2zM262 41h-1 1zM294 41h-1 1zM287 35zM161 32h-1 5s-1 0 0 0h-1l-1-1v1h-1v-1h-2v1h1zM162 38h-2 2zM180 35h-1 1zM181 32l1-1-2 1h1zM189 33h1-1 8v-1h-2 1-3-1s1 0 0 0h-1v1h-1v-1h-1-1l-1 1h2zm5-1h-1c0 1 0 0 0 0h1zM190 36l1 1-1-1zM191 37h0zM197 36h-1s-1 0 0 0h1l-1 1h1v-1h1-1zM199 37v-1h-1l1 1zM201 36h-1 1zM202 46h-1 1zM203 46h-1 1zM204 37h0zM207 35h-1 1zM207 33v-1l-1 1h1zM208 36h-1 1zM209 34l-1-1v1h1zM210 36h0-1v0h1zM210 34l-1-1 1 1zM212 36h-1 1zM219 48h-1 1c-1 0 0 0 0 0zM260 41c-1 0 0 0 0 0zM267 35h-1 1zM279 40c1 0 0 0 0 0h1c-1 0 0 0 0 0h-1zM293 41l-1-1v1h1l-1-1 1 1zM295 41h-1 1zM297 41h-1 1c-1 0-1 0 0 0h0zM294 33c-2 0 0 0 0 0zM184 32h3-1-1v-1l-1 1v-1l-1 1h1zM207 35v1h1l-1-1zM231 34l1-1c0 1 0 1 0 0h1-3 1-1-1l2 1zM223 36v-1h-1l1 1zM223 38h1l-1-1v1zM222 39l-1-1 1 1zM197 42z"/><path class="st0" d="M222 38h1l1-1-2 1zM222 37h1-1zM203 38zM229 33zM203 37zM203 38v-1 1zM191 35zM236 34l-6 1v-1 1h2-1 4l2-1v0h-1 0zM237 34s1 0 0 0zM222 40v-1 1zM215 34zM223 40c-1 0-1 0 0 0zM217 39h-1v1c1 0 0 0 0 0l1-1zM213 34zM207 35zM206 34zM208 34zM220 39c-1 0 0 0 0 0h-1v1l1-1zM218 40v0l-1-1v1h1zM201 37zM201 35h-1 1zM221 40l1-1h-1-1v1h1c-1 0-1 0 0 0zM229 35zM234 33h1-1-1 1zM217 41h0zM201 34v0zM219 35zM214 39h1-1 0zM271 33h-1 1zM218 35h1-1zM215 35zM271 41zM289 38h-1 1zM210 40h1-1c1 0 0 0 0 0zM206 35h-1 1zM189 43v-1 1zM210 39h1s-1 0 0 0h-1zM202 43l1-1h-1 1l-1 1zM214 38h-1 1zM212 38zM210 35h-1 1zM209 37zM211 34v1h1c-1 0 0 0 0 0h3l-3-1h-1-1 1zM207 35zM188 43v-1 1zM201 37zM211 41v-1h-1l1 1zM202 38v-1 1l-1-1h1l-1 1h1zM219 35zM222 35zM208 40c-1 0-1 1 0 0zM195 42h-1 1-1s1 0 0 0h1zM218 38h2l-1-1v1h-1zM191 43h1-1zM209 40h-1 1zM213 37l1 1h1s-1 0 0 0h1c-1 0 0 0 0 0h0v-1h1s-1 0 0 0v-1h2-3c1 0 1 0 0 0h1-1s1 0 0 0h-1 1-2-2-1l2 1v-1h2v1l-1-1-1 1h1-1zm3 0v-1 1zm-1-1h2-1-1 0zm-1 0h0zM229 35zM207 40l1-1h-1v1zM229 33h-2 2zM223 35zM209 40h0c1 0 1 0 0 0zM210 41l-1-1v1h1zM202 38h0zM216 35zM201 38v-1 1zM213 35h0z"/><path class="st0" d="M204 38h1v1l1-1h2s0-1 0 0v-1h1l-1 1h4l-1-1v0h2v-1h-1-1v1c0-1-1-1 0 0l-1-1-1 1h1s-1 1 0 0l-1 1v-1h-2 1-2-2v1zm8-1s1 0 0 0zm-1 0l-1 1c0-1 0 0 0 0l1-1zm-6 0v1-1zm-1 0v1c1 0 0 0 0 0v-1zM221 39h-1-1 2zM219 41h-1 1zM219 40s-1 0 0 0zM218 39h0zM217 36l2 1 1-1h-2-1zM212 40h1l-1-1-1 1h1c1 0 1 0 0 0zm0 0c-1 0 0 0 0 0zM222 40h-1 1zM221 35h-1 1zM220 37h0zM220 38h0zM217 39h2c-1 0 0 0 0 0h-1-1zM219 37zM218 36zM250 37zM201 42l-1-1v1h-1v-1 0l-1 1v-1 1h3zM216 39h-1s1 0 0 0h1s-1 0 0 0zM218 37s1 0 0 0zM220 36c0 1 0 1 0 0zM206 41l-1-1 1 1v0zM228 35zM219 34l1 1-1-1zM220 35zM216 36zM216 40h-1s1 0 0 0h1zM218 34h-1s0 1 0 0h-1l1 1 1-1zM206 34h2-1-1 1-1zM213 40h0zM221 34h-1 1zM227 35zM220 34h-1 1zM205 34h-1 1zM200 37zM221 35h0zM220 35h-1c1 0 0 0 0 0h1zM224 34h-1 1zM224 33h1l-1 1 1-1v1h1c-1-1 0 0 0 0v-1l1 1v-1l1 1-2-1h1-1-1-1 1-1zM210 34h-1l1 1h1-1v-1zM208 35h-1s1 0 0 0h1zM263 34c-1 1 1 1 0 0zM263 37h-1 1zM261 32zM261 41zM262 32c-1 0 1 0 0 0zM262 36l-1-1 1 1zM263 38s0-1 0 0c-1 0 1 0 0 0zM262 39h-1 1zM262 39h-1l1 1v-1zM262 40l1 1-1-1zM263 39zM263 32s1 0 0 0zM259 33s1 0 0 0zM259 36h-1 1zM257 32s1 0 0 0zM247 34v-1 1zM259 32c-1 0 0 1 0 0zM257 40v0zM258 30zM258 36h-1 1zM259 34c1 0 1 0 0 0zM261 36l-1 1v-1h1zM261 40h-1 1zM260 34v-1 1zM261 34v0zM261 30zM260 37h-1 1zM258 34zM265 40zM266 37h0zM265 36v0zM265 39h1s1 0 0 0h-1zM265 33l1 1v-1h-1c-1 1 0 0 0 0zM266 32c-1 0-1 1 0 0zM266 36c-1-1 0 0 0 0 1 0 0 0 0 0zM268 36c-1 0-1 0 0 0v0s0-1 0 0zM267 31s-1 0 0 0zM268 31c-1 1 1 1 0 0zM268 33v0zM268 36c0 1 0-1 0 0zM264 36l1-1s1 1 0 0h-1v1zM267 34h1v-1l-1 1zM264 38zM262 36c-1 0 0 0 0 0zM262 38h-1 1zM260 39s1 0 0 0zM260 38l-1 1 1-1v-1 1zM261 38zM261 38v-1 1zM264 33z"/><path class="st0" d="M264 36c0-1 0 1 0 0 1 0 0 0 0 0zM259 38v0zM261 39c-1 1 0 1 0 0zM264 37v0zM263 40l1 1h-1v-1zM259 40h0c1 0 0 0 0 0zM263 34zM257 31zM253 35l-1-1 1 1zM252 32h-1 1zM252 39h-1 1zM252 36h-1c1 0 0 0 0 0h1zM252 36c1 0 0 0 0 0zM251 39c0 1 0 0 0 0zM253 40h-1 1zM252 35v0zM253 35v0zM252 39v0zM252 37v0c1 1 0 0 0 0zM249 33c1 0 1 0 0 0zM248 37h0zM249 36s1 0 0 0zM268 39v0zM250 39h-1 1zM249 37v-1 1zM248 33v-1 1zM250 34c-1 0 0 1 0 0zM250 39s1 0 0 0zM249 30h-1 1zM252 34v-1 1zM256 38v-1s1 0 0 0v1c0-1 0 0 0 0zM256 38h0c-1 0 0 1 0 0zM255 40c-2 0-1 1 0 0zM258 34v0zM256 33c1 0 0 0 0 0 0-1 0 0 0 0zM254 39c-1 0 1 0 0 0zM258 36h-1 1zM258 34h-1 1zM257 31c0-1 0 0 0 0s1 0 0 0zM257 33zM255 37h-1 1zM254 32c-1 0 0 0 0 0zM254 34h-1 1zM253 35h0zM241 33v0zM253 40c-1 1 1 1 0 0zM254 39c-1 0 0 1 0 0zM248 32v0zM255 35c-1 0-1 0 0 0zM254 38s0-1 0 0c0 0 1 0 0 0zM255 34c1 0 0 0 0 0zM255 40v-1 1zM256 33l-1-1 1 1zM255 35v0zM259 39h-1 1zM286 39h-1 1zM283 41zM284 37c-1-1-1 0 0 0zM284 40h-1 1zM286 32h-1v-1c-1 1 1 1 1 1zM286 39s1 0 0 0zM286 41c0 1 1 0 0 0 0-1-1 0 0 0zM287 36v-1 1zM286 36s-1 0 0 0zM283 38v0zM285 41c1 0 0 0 0 0zM285 33v-1 1zM280 40s1 0 0 0zM281 30h-1 1zM283 37s-1 0 0 0zM280 39v0zM280 36c-1 0 1 0 0 0 0 0 0-1 0 0zM280 40v-1 1zM282 33s0-1 0 0zM283 35s-1 0 0 0zM283 30s-1 0 0 0zM282 37zM281 30s1 0 0 0zM282 41c0-1 0-1 0 0h-1 1zM289 42v0zM297 37l-1 1 1-1zM296 40h0zM297 38c-1 0 0 0 0 0zM294 38c0 1 1 0 0 0zM294 39h1-1zM294 40v0zM297 33h1-1zM298 34c0 1 1 1 0 0zM288 30h-1 1zM298 31v-1 1zM298 34c0-1-1 0 0 0zM289 33v-1 1zM289 39zM281 33s-1 0 0 0zM280 35h-1 1zM288 40zM289 35h-1 1zM292 37zM292 39v-1 1zM292 32zM291 40zM289 32s1 0 0 0zM290 35v-1 1zM278 40zM272 36v0zM273 32h-1 1zM274 39l-1-1 1 1zM272 33zM271 32v-1 1zM272 34c-1 1 1 1 0 0zM272 37v0zM272 40v-1 1zM271 40h0zM272 36h0zM279 40zM272 39c0-1 0 0 0 0v-1 1zM272 38h0zM271 34v0zM272 33v0zM268 38s1 0 0 0zM267 34v0zM268 40v1l1-1v0h-1zM271 31h-1 1zM267 39s1 0 0 0zM269 33s0-1 0 0c0 0 0 1 0 0zM270 39c-1 1 1 1 0 0zM270 41v-1 1zM271 37l-1-1 1 1zM269 34h1-1zM270 38c-1 0 1 1 0 0zM269 38s0 1 0 0zM273 37zM277 35zM277 37zM278 41s-1 0 0 0zM276 36l1 1-1-1zM277 39v-1 1zM276 39h0zM278 38h1-1zM279 33v-1 1zM279 38zM268 40v0zM278 31c-1 0-1 0 0 0 0 1 0 0 0 0zM278 36v0zM274 37c0 1 1 0 0 0zM275 34c0-1 0 0 0 0zM274 36v0zM275 37c-1 1 1 1 0 0zM275 38l-1 1 1-1zM274 31v0zM274 40c-1 1 0 1 0 0zM277 32h-1 1zM276 35v0zM276 39v0zM277 30h-1 1zM275 35c1 0 0 0 0 0 0-1 0 0 0 0zM276 33h-1 1zM276 30h-1 1zM279 33h-1 1zM279 41c1 0-1-1 0 0zM261 41zM247 37s0-1 0 0zM244 39h-1 1zM244 40s0 1 0 0zM233 34s-1 0 0 0zM243 39zM245 41c1 0 1 0 0 0zM246 38v0zM245 32v0zM245 38zM297 51zM295 40c-1 1 1 1 0 0zM295 49s-1 0 0 0zM0 103zM0 100l1-1H0v1zM0 99zM63 129zM66 135s0-1 0 0zM66 130v-1 1zM65 135c0 1 1 1 0 0zM65 146zM65 144s1 0 0 0zM60 138zM63 131zM63 135zM60 136zM60 139zM63 136zM66 132c1 0 0 0 0 0zM64 133l1-1h-1v1h0zM66 131c-1 0-1 0 0 0-1 0-1 0 0 0-1 0-1 0 0 0zM62 139c1 0 0-1 0 0zM62 132zM62 136s0-1 0 0zM64 132c-1 0 0 0 0 0zM65 134l-1-1 1 1zM43 144c1 0 0 0 0 0zM65 132h1l-1-1 1 1h-1zM62 131v1h1l-1-1zM65 139zM65 129zM65 133c0 1 0 1 0 0zM65 137zM61 130v0zM61 137s0-1 0 0zM64 131l1 1-1-1zM61 133h-1 1zM38 115c0-1 0-1 0 0zM39 116zM39 121h-1 1zM39 120zM39 114zM39 119zM39 115c1 0 0 0 0 0zM39 116c1 0 1 0 0 0zM39 114zM39 114c0 1 1 0 0 0zM39 121h-1 1zM39 116l-1-1 1 1zM38 116c0 1 0 0 0 0zM39 129c-1 0 0 0 0 0zM38 115h0zM38 119c0 1 0 0 0 0zM40 119zM38 124zM39 120c0 1 0 0 0 0zM38 119zM40 124h0zM41 117h-1 1zM41 121c-1 0 0 1 0 0zM41 119v-1 1zM40 117v0zM40 116zM40 114c0 1 0 1 0 0zM40 115zM40 116v0zM41 126c0 1 0 0 0 0zM40 117zM40 120zM40 118zM41 130c0-1 0-1 0 0zM40 120zM40 117c0 1 0 0 0 0zM40 126zM38 117c1 0 0-1 0 0zM41 122zM40 120c1 0 0-1 0 0zM67 130zM38 115c0 1 0 1 0 0zM67 130zM67 135s0-1 0 0zM67 130zM67 139zM67 130v0zM49 130zM43 121zM43 122zM43 125zM66 128l1 1-1-1zM67 131h-1 1zM67 130zM67 130v-1l-1 1h1zM67 134zM67 130zM67 130zM67 130zM67 130zM67 135zM38 117zM41 141zM38 139h0c1 0 1 0 0 0zM39 133l-1 1v2h2l1-1v-2h-2zM38 118zM38 127zM43 121s0-1 0 0zM38 122zM41 121c1 1 1 0 0 0zM38 117c0 1 0 1 0 0zM42 121c1 0 0 0 0 0zM42 124s1 0 0 0zM42 120zM43 121s-1 0 0 0c0 1 0-1 0 0zM42 123zM42 125zM42 126zM42 122zM42 130zM68 129zM54 130l1-1h-1v1zM55 127v-1h-1v1h1zM59 134v1-1zM60 142h-1 1zM60 134zM59 146zM60 130h-1 1zM54 143zM59 130h-1 1zM54 148zM59 130v-1 1zM59 143c0-1 0-1 0 0zM59 129zM59 132v0zM55 130s0-1 0 0zM56 128s0-1 0 0zM48 125l-1 1 1-1zM56 128c0-1 0-1 0 0zM48 121c-1 1 0 0 0 0zM56 127s0-1 0 0zM48 124c-1 0 0 1 0 0zM48 122h-1 1zM56 147s0-1 0 0zM55 134c1 0 0-1 0 0zM54 145zM55 138h0zM55 135zM56 137v0zM56 137zM56 129v0zM50 132zM49 123v0zM50 127s0 1 0 0zM50 126zM49 121c-1 0 0 0 0 0zM50 132c0 1 0 0 0 0zM49 125h-1 1zM48 127h0zM49 124l-1-1 1 1zM49 130h1v-1l-1 1zM49 131c0 1 0 1 0 0zM50 129zM49 127s0-1 0 0zM49 129h1-1zM50 128v0zM50 125h-1 1zM48 131zM47 142l1 1-1-1zM50 131s0 1 0 0zM48 126zM50 126c0 1 1 1 0 0zM50 125zM58 136zM48 125zM48 122zM48 129v-1 1zM47 122h0zM48 125zM58 128v0zM48 121zM48 130c1 0 0-1 0 0zM47 123v-1 1zM57 129h0zM57 130s1 0 0 0zM39 114zM45 123v0zM45 132zM45 121s0 1 0 0zM58 129h-1 1zM45 124zM47 122zM58 144zM45 122s0 1 0 0zM47 122zM58 132zM58 136zM58 127zM43 124c1 0 0 0 0 0zM44 121zM44 122zM44 120zM44 136c0 1 0 0 0 0zM45 125zM47 121h-1 1zM44 121c0 1 0 1 0 0zM43 120h0zM45 121zM45 122c0 1 0 1 0 0 0 1 0 0 0 0zM45 122zM44 124c1 0 0 0 0 0zM44 123h0zM44 125c0 1 1 0 0 0zM47 129c0 1 0 0 0 0zM47 123s-1 0 0 0c-1 0 0 0 0 0zM47 126h-1 1zM47 128h0zM47 133zM60 151c-1 0 0 0 0 0zM60 131zM60 143zM56 130c1 0 1 0 0 0zM43 137zM48 129zM47 123zM47 124c0 1 0 0 0 0zM57 128zM60 129zM57 131v0zM57 133zM46 134zM57 133zM57 148s0-1 0 0zM46 128c0 1 0 1 0 0zM46 122s0 1 0 0zM46 120v0zM57 131v0zM46 124s0 1 0 0zM58 131c0 1 0 0 0 0zM58 129zM60 145zM47 122h-1 1zM46 124zM46 137zM0 113h0zM110 14h-1 1zM109 15zM106 16h-1 1zM96 15v-1 1zM93 15l-1-1v1h1v-1zM93 10h-1V9v1h1zM87 21h0zM90 11l-1-1v1h1zM90 19h1v-1h-1v1zM99 24zM102 13h-1 1zM103 24h-1 1zM103 15h2s0-2-1-1h-1v1zM100 27h-1-1l1 1 1-1zM106 13c1 0 1 0 0 0 1 0 1 0 0 0h2v-1h-2v1zM87 3h-1 1zM40 15h-1 1zM41 7l-1-1c0 1 0 0 0 0v1h1zM46 27v-1 1zM38 15v0zM32 18v-1h-1l1 1zM47 28c1 0 1 0 0 0zM36 34l1 1v-1h-1zM33 16h-1 1zM34 19s0 1 0 0zM53 5zM54 19v-1h-1v1h1zM59 22c-1 0-1 0 0 0zM47 27s1 0 0 0zM59 28v0zM51 23h-1 1zM50 5V4v1zM50 13h-1 1zM26 28l-2-2v1l2 1zM32 33v-1 1zM27 33c-1 0 0 1 0 0zM27 34zM27 38h1-1c-1 0-1 0 0 0zM23 24zM23 30h-1 1zM23 35l1-1h-1v1zM25 36zM28 29zM31 22v-1h-1l1 1zM30 36l1 1v-1h-1zM30 31v-1h-1l1 1zM21 14h-1v1l1-1zM29 25v0zM36 31v-1 1zM77 25zM75 17h-2v1h2v-1zM73 19h-1 1zM75 18zM75 22v1l1-1h-1zM72 5v0zM80 21v-1 1zM80 20zM72 7l-1-1 1 1zM64 10h-1v1h1v-1zM62 15h1-1zM62 9V8v1zM62 13h-1 1zM62 25v-1c0-1-1 0 0 0v1zM60 18zM60 27c1 0 0 0 0 0zM61 22v-1l1-1v-1l-1 1v2zM71 27v-1 1zM70 5l-1-1v1h1zM70 15l-1-1 1 1c1 0 1 0 0 0zM65 24h1-1zM67 26v-1 1zM39 117l-1 1v1h1v-1-1zM67 9h-1 1zM28 32h1l-1-1v1zM124 117h0zM127 128v-1h-1v1h1zM114 118zM134 127l1 1v-1h-1zM135 120h-1v1l1-1zM134 116v1h1v-1h-1zM138 133zM147 103zM147 106v0zM146 103v-1 1zM139 109v-1 1zM127 138zM130 114h1l1-1h-1-1v1zM131 133h-1 1zM130 132zM126 127l1 1-1-1zM135 105h0zM136 129h1-1zM106 111h-1 1zM110 18h2l2 1-1-1v-1h-1-1l-1 1zM114 110v-1c0 1 0 1 0 0 1 0 0 0 0 0v1zM113 117c0 1 0 0 0 0h-1v0l1 1-1 1h1l1-1-1-1zM112 109zM67 25zM35 109zM36 106zM34 108h3-1 1-1l-1-1v1h-1zM36 107zM36 106zM36 109s-1 0 0 0zM35 110h0zM36 109s0-1 0 0c0-1 0-1 0 0zM36 107zM34 107s0-1 0 0zM34 106c0-1 0-1 0 0zM34 108zM35 106zM23 116zM33 106v0zM33 106c0 1 0 0 0 0zM35 115s0-1 0 0c-1 1 1 1 0 0zM36 116v0zM35 112c0 1 1 0 0 0zM36 111l-1 1h1v-1zM35 112c1 0 0 0 0 0zM36 114zM36 113zM36 111c1 0 0 0 0 0zM34 111zM36 112s0-1 0 0zM34 106v0zM34 107zM35 109c0-1 0-1 0 0zM35 109v0zM35 114s1 0 0 0zM35 113c0 1 0 0 0 0zM35 119zM35 113c0-1 0 0 0 0zM24 108h1v-1h-1l-1 1h-1v1h1v-1 1h1v-1c-1 0 0 0 0 0zM26 114h1-1zM26 109zM26 110zM26 105zM27 122zM27 110c1 0 1-1 0 0 1-1 1-1 0 0v-1 1zM26 109l-2 2h1v-1h1v-1zM27 106zM25 114v-1l-1 1h1zM25 105h-1 1z"/><path class="st0" d="M24 109c0-1 0 0 0 0h-1 1zM24 110h0zM33 112v0zM25 111h-1 1zM27 109c1 0 0 0 0 0zM24 113v-1 1zM25 131h-1v1h1v-1zM28 112l-1 1h1v-1zM30 114zM29 113v0zM27 113zM29 115v0zM29 114v1l1-1h-1zM30 113v-1h1l-1-1c1 0 0 0 0 0v-1l2 2-1-2 1-1v-1l1 1-1-1h1l1 1v0h1v1h-1 1v1h-1-1 1v1h1v-1h1v-1h-1 0v-1-1h-1v-1h-2v-1h2v-1h-2 1-1l-1 1v-1 2h-2 1-2v1l1 1-1 1h1v1h-1v1l1-1h-1 1v0h1v2zm4-4zm0-1zm-2-3zm0 1zm-1 2v-1 1zm-1 2zm-2 2zm1-5zM28 110zM28 111s0-1 0 0c0-1 0-1 0 0zM27 113zM30 116s-1 0 0 0zM30 116zM29 127zM28 121zM35 106zM35 114zM35 119h0zM35 120zM35 128zM36 116zM36 115s1 0 0 0zM36 127c0 1 0 1 0 0zM36 120s0-1 0 0zM36 123zM34 119zM34 118zM35 125zM34 113zM36 113v0zM34 121s0-1 0 0zM35 123c0-1 0-1 0 0zM34 121zM34 114s0 1 0 0c1 0 1 0 0 0zM35 121v0zM37 122zM36 140h1v-1l-1 1zM37 124zM36 114s1 0 0 0zM37 126zM38 120h0zM38 114zM38 115s0-1 0 0zM37 125c1 0 0 0 0 0zM37 119zM37 115v-1 1zM37 114s1 0 0 0zM36 115zM37 118l-1-1 1 1zM37 117c1 0 0 0 0 0zM37 117zM37 118zM33 108zM32 109c1 0 0 0 0 0zM33 109zM33 111h-1 1zM33 109zM34 110s1 0 0 0zM33 113l-1-1 1 1zM33 110c0-1 0-1 0 0zM33 112s0 1 0 0zM33 109z"/><path class="st0" d="M32 110c-1 1 1 0 0 0zM32 118h-1 1zM32 112zM33 113h-1 1zM32 116zM33 113c1 0 1 0 0 0zM33 119h-1 1zM32 115v-1 1zM32 113zM31 115v-1 1zM31 129c1 0 1 0 0 0zM31 123zM32 128h0zM31 125v1h1v-1h-1zM33 121l-2-1-1 2h2l1-1zM33 119c1 0 0 0 0 0zM30 116h0zM33 112l1 1v-1l-1-1v1zM33 125s0-1 0 0zM30 122h0zM31 112c0-1 0-1 0 0zM31 114h-1l1 1v-1zM31 117c-1 0 0 0 0 0 0-1 0-1 0 0zM31 113v-1 1zM30 126c1 0 1 0 0 0zM30 126zM31 112zM20 108h0zM2 118l1-1-1-1H0v1l2 1zM68 129zM2 113l2-2 1-1-3 3zM4 100c0 1 0 0 0 0zM6 126H5l1-1c-1 1-2 1-2 3l2-2zM2 45l-2-1 1 1h1zM7 126H6h1zM4 128s1 0 0 0zM5 132v1l1-1 1-3-2 3zM4 137l-1 1-1 2v1H1l-1 2v1l4-6v-1zM7 126zM8 111s1 0 0 0zM8 116s1 0 0 0z"/><path class="st0" d="M5 126H3v1h1l1-1zM0 65zM4 129H3h1zM5 114v0zM2 119h0c1 0 0 0 0 0zM3 113v-1 1zM5 119H4h1zM9 26l2 1v1l3-3v-2l-3 1-2-1s2 1 1 2H9v1zM11 44v-1l-1-1H9v1l2 1zM9 20zM7 19s-1 0 0 0zM4 25H3h1zM4 46zM12 24h-1 1zM13 42l-8-6 8 6zM17 34l-1-1 1 1zM18 25h0v-1 1zM19 31v2c-1 1 0 2 1 2l2-1-1-1v-1l-2-2v1zM16 35v-1 1zM16 25l-1-2 1 2zM16 28zM13 23h-1 1zM11 19h1-1zM8 21v-1H7l1 1zM7 44l4 1-1-1H9h1l-3-1v1zM20 109c1 0 0-1 0 0zM19 110c0-1 0-1 0 0zM21 112l-1 1-1 1 2-2zM19 109zM18 115zM18 127h0zM24 106h-2 2zM24 105v0zM23 103h-1 1c-1 0 0 0 0 0zM15 110s0 1 0 0zM16 123v0zM16 117zM13 115l1 1 1-1h-1-1zM16 111l2-2-3 4 1-2zM17 119h0zM18 108zM18 114h-1 1v-1 1zM18 112zM24 107h-1 1zM21 120h-1 1zM20 126h0zM21 110c0 1 0 0 0 0zM20 109zM21 111zM23 109zM22 124zM21 110h-1 2v-1l-1 1zM22 108h-1 1zM23 104zM23 104h1-1zM23 109zM23 104h-1 1zM23 105zM20 28v-1 1zM21 106l1-1-1 1zM22 108zM23 102v0zM10 107zM11 109l-1 2 1-2zM14 125h1-1zM10 106v1s0-1 0 0v-1zM12 108v0zM11 118l1-1-1 1zM13 115v0zM13 107c0 1 0 0 0 0zM14 112h-1v1l1-1zM9 112c1 0 0 0 0 0v0zM9 121h1-1zM9 99zM9 126v1h1v-1H9zM10 131h1-1zM10 127zM11 126h-1 1v-1 1zM90 104zM90 103zM93 105v1l1-1h-1c1 0 1 0 0 0zM93 104zM90 106h-1l1 1v-1zM94 105zM94 105h1-1 1v2h2v-1l-1-1h-1-1zM91 104v1c-1 0 0 0 0 0v1h1v1h1l-1-1v-1h-1v-1h-1 1zm0 1zM93 109zM85 109h-1 1zM85 106c1 0 1 0 0 0zM85 110v0zM85 112h-1 1zM85 112c0 1 0 1 0 0zM85 111zM84 113h1-1zM82 111h0zM83 113zM83 111h0zM85 99s1 0 0 0zM77 113h0v-1 0c0 1 0 0 0 0v1zM79 118c0-1 0-1 0 0zM78 113zM76 121zM76 123h1v-1l-1 1zM77 115zM79 117zM82 116h0zM78 117s1 1 0 0zM78 117zM79 116zM77 118zM77 121zM77 121zM76 122zM76 121zM77 118v1l1-1h-1zM78 117h-1 1zM77 120c1 0 0 0 0 0zM78 118c0 1 0 0 0 0zM93 109h0zM91 119zM79 113c-1 0-1 0 0 0zM79 113v0s0 1 0 0zM78 113zM79 114s-1-1 0 0zM78 113zM78 113v0zM78 105h0zM85 106h2l1-1h1l1-1-2-1h-1l-1 2-1 1zm2-1h0c1 0 0 0 0 0s0-1 0 0zM77 106s0 1 0 0zM78 108v-1h-1l1 1zM78 110zM79 110zM78 107zM78 107zM77 111s1 0 0 0zM79 110zM78 111zM79 111h-1 1zM81 103c0 1 0 1 0 0zM80 107h1v1h1l3 3-1-2-1-1h0v-1 1h1l1-1h-1-1v-1h1s0-2-1-1l-1-1v0l-1 1h-1v1h-1 1v1zm3-1v1h-1l1-1zM81 115s1 0 0 0zM87 111zM86 108zM82 115c0 1 0 1 0 0zM86 107v-1 1zM77 125h0zM88 108zM89 118zM81 116c0-1 0-1 0 0zM87 107zM81 114zM78 111c-1 0 1 0 0 0 0-1 0-1 0 0zM82 113h-1 1zM82 104h-1 1zM86 112zM86 108h0zM86 109l1-1-1 1zM86 109zM86 108h0zM80 104c-1 0 0 0 0 0 0-1 0-1 0 0zM80 107zM82 110h0zM79 104h0c1 0 0 0 0 0zM82 103c1 1 2 0 0 0zM79 107c1 0 0 0 0 0zM81 111h-1 1zM82 109h0zM83 109zM82 109v-1 1zM80 114l1 1v-1h-1zM82 112h-1 1zM80 114c-1 1 0 1 0 0zM80 113v-1l1 1v-1 0h-1v1zM79 108c-1 0 0 0 0 0zM79 111c1 0 1 0 0 0zM79 110c0 1 0 1 0 0 1 1 0 0 0 0zM79 107zM84 106c1 0 0 0 0 0zM85 108zM85 109zM85 108zM83 101c-1 0 0 0 0 0zM81 112c0 1 1 0 0 0zM81 109s0-1 0 0zM82 113zM81 110h-1 1zM81 112s1 0 0 0h1l1-1-1 1v-1h-1v1h-1 1zM80 109s1 0 0 0zM81 109c-1 0-1 0 0 0zM84 106l-1 1 1-1zM84 112c-1 0 0 0 0 0s0-1 0 0zM83 104c1 0 0 0 0 0zM105 118v-1 1zM106 114v-1h-1-1l1 1h-1-1v-1c0 1 0 1 0 0v1h-1v1h2v1h2l1-1-1-1zM103 133c0 1 0 0 0 0v0l-1 2h1v1c2-1 1-2 1-2v-1l1-1-2 1zM104 123v0zM103 131l1-1v0h-1 1l-1 1zM103 125zM102 133h1v-1-1 1l1-1h-1v1h-1 1-1s1 0 0 0v1zM104 123h1v-1l-1 1zm1 0l-1-1 1 1-1-1 1 1zM104 131zM109 114h0zM110 115h-1 1zM107 115h1-1zM109 115v-1 1zM82 116c0 1 0 1 0 0zM108 126v0c1 0 0 0 0 0zM109 115v0zM100 133h-1 1zM89 131h1-1zM87 125c-1 0 1 1 0 0zM87 128zM87 125zM89 124h2l1-1v1l-1-1h1-1v-1h1l-1-1v0h-1 1v-1h-1s0-1 0 0h-1-1v2l1 1h-1 1v-1 2zm1-3h0zm0 2v-1h1s0 1 0 0v1h-1zm0-1s-1 0 0 0zm0-1zm0 2h1v1h-1v-1c0 1 0 0 0 0zm-1 0h-1v-1h1-1v-1h1v2zm0-1c1 0 0 0 0 0zM87 124c0-1 0-1 0 0zM86 127s1 0 0 0zM88 120zM87 120zM87 125s0-1 0 0zM90 129zM101 129c-1-1-1 1-2 1h-1-1-1l-1 1v1l2 2c-1 0-1 0 0 0v-1l1 1v-1-1l1-1v0l1 1h-1 1v-1h1v-1-1zm-5 3v0zm3-1zM99 133h1-1zM99 134v1s-1 0 0 0l-1 1h-1l-1 1 1 1h0l1-1v1l1-1h-1s0-1 0 0v-2c0 1 0 0 0 0l1 1v-1l1-1h-1zM103 123l1-1v-1h-1-1-1v3h1l1-1zM102 129h-1c1 0 0 0 0 0h1zM89 138zM99 138v0zM91 144h0zM104 129zM99 136h-1 1z"/><path class="st0" d="M94 129h1v-1h-1c1 0 0 0 0 0l1-1h-1-1 1v-1-1 1l-1-1v-1 1l-1-1h-1v1h1l-2-1 1 1h-1v-1h-1v2h1v1l1 1v-1 1h1l-1 1c1 0 0 0 0 0h0v1h1c-1 0 0 0 0 0l1-1-1 1v1h1l-1-1 1 1 1-2s0 1 0 0h1v-1l-1 1zm-3-2h-1 1zm1-2zm0 1zm-1 1v-1 1zm0 2v-1h1l-1 1zm1 0v-1 1c1 0 0 0 0 0zm0 1v-1 1l-1-1h1v1zm0-2c1 0 0 0 0 0zm1-1v1h-1v-1h1v0zm0 0v-1h1v1h-1zM107 116h1-1zM135 132l2 1-2-1zM138 138l1 1-1-1zM139 113zM131 134s-1 0 0 0h-1l1 1v-1zM130 127v0zM110 140v-1 1zM131 131l2 1-2-1zM135 135l-2-2 1 1 2 1h-1zM133 134v-1 1zM138 130h-1 1zM148 125c0-1 0-1 0 0l-1-1v1h1zM148 139v-1 1zM147 117h-1v1h2l-1-1zM140 102zM143 109v-1 1zM115 140zM115 122h1-1zM116 123v-1h-1l1 1zM112 135h1l-1-1v1zM116 142h1-1zM112 125v-1 1zM112 125h-1 1zM124 142v0l2-1h2c-1 0 0 0 0 0l-4 1zm1 0c-1 0 0 0 0 0zM123 121h-1v1l1-1zM121 120zM121 136v-1 1zM116 132h0zM128 129h-1c1 0 0 0 0 0l2 1-1-1zM121 119v1l1-1h-1zM118 144h-1v1h2v-1h-1zM119 142v1l1-1h-1zM120 121zM78 124s1 0 0 0zM75 120zM74 122s0 1 0 0zM74 123zM71 125zM71 118zM72 125zM71 118s0 1 0 0zM73 121zM72 118zM71 132v0zM71 130zM72 130h0zM73 121zM72 118zM72 122s0-1 0 0zM73 122zM74 131zM76 113zM78 119zM78 116c-1 0 0 0 0 0zM79 116h-1 1zM79 120v-1l-1 1h1zM75 121zM76 119h-1 1zM75 113c1 0 0 0 0 0zM75 118v0zM76 113zM76 113h-1 1zM76 114c0-1 0-1 0 0zM75 114h0zM76 113zM76 113s1 0 0 0zM79 127s1 0 0 0zM80 121h-1 1zM80 120c1 0 0 0 0 0zM80 124s0 1 0 0zM79 118zM79 136zM78 123h0zM79 120zM79 125zM79 121zM82 131h0zM83 127h-1 1zM82 127zM84 132l1 1v-1h-1zM85 127s0-1 0 0zM85 128v-1 1zM81 124c1 0 0 0 0 0zM82 134c0 1 0 1 0 0zM81 138c0-1 0-1 0 0zM80 129h0zM81 124c0-1 0-1 0 0zM80 130c1 0 0 0 0 0zM72 132c0-1 0-1 0 0zM73 126zM73 121zM73 125h0zM73 123h0zM73 122zM78 125c1 0 0 0 0 0zM72 126v-1 1h-1 1zM72 136v1h1l-1-1zM72 130s0-1 0 0zM74 135zM72 138zM72 124h-1 1zM74 143zM78 127zM74 137h0zM77 127c1 0 0 0 0 0zM78 120zM78 128v-1 1zM76 123l-1 1c0 2 2 1 2 0l-1-1zM78 125v0zM75 121zM75 122h0zM76 128zM76 127h0zM76 137c0-1 0-1 0 0zM50 122h-1 1zM55 121zM49 123zM50 123h-1 1zM50 123zM50 122s0 1 0 0zM57 120zM55 123l1 1-1-1zM55 124v0zM55 121c1 0 0 0 0 0zM55 125zM55 125s0-1 0 0zM56 123zM50 122zM40 115zM40 115zM40 116zM51 123l-1-1 1 1zM37 111zM44 116zM42 116h-1 1zM47 120c1 0 0 0 0 0zM43 118c0 1 0 1 0 0zM47 119h-1 1zM46 119s0-1 0 0zM46 119h-1 1zM36 111h0zM56 120zM56 124zM56 121v0zM56 122c-1 0 0 0 0 0zM56 125zM56 122c0 1 0 0 0 0zM44 116zM68 129zM71 129zM70 131zM70 130zM70 143zM70 128zM70 131zM50 121zM50 120c0-1 0-1 0 0zM50 120s0 1 0 0zM105 25zM69 132h0c1 0 0 0 0 0zM68 130zM68 132zM68 132v-1 1zM68 128zM68 127zM68 128zM68 129zM68 129zM68 129zM68 129zM68 128zM69 132zM69 130zM69 130zM69 131zM69 144zM69 128zM68 128zM68 128zM68 127zM68 133h0zM68 141l1 1-1-1zM68 134h0zM100 128h0zM91 118zM100 123l1-1h-1v1zM101 127h-1 1zM92 124h1l-1-1v1zM95 128zM92 118h0v-1 1zM99 118zM100 104v-1 1zM95 127l1-1-1 1zM95 127c1 0 1 0 0 0zM13 105c0-1 0-1 0 0zM27 101l1-1-1 1zM24 102h0zM28 102zM27 100h0zM27 100c1 0 0 0 0 0zM25 103zM37 106h-1v1h0v-1 1h1v-1zM39 108zM39 108zM26 101zM38 109zM38 108s1 0 0 0zM38 109c1 0 0 0 0 0 1 0 0 0 0 0zM38 107zM37 108s1 0 0 0zM37 107v1-1zM37 108c0-1 0-1 0 0zM37 107zM27 101zM38 106zM40 110h-1 1zM40 110c-1 0 0 0 0 0zM39 109zM15 41l1 1-1-1zM38 107h-1 1zM283 40h-1 1zM284 44zM286 46l-1-1-2 1h3zM286 40h-1v-1h-2-1-1-1 1l1 1h2v-1 1h2zm-4 0v-1 1zM291 51h-1l1-1-1 1h1zM291 51zM292 50zM295 50h-1-1-1 1l-1 1h2-1 4-1 4v-1h-5zm5 1zm-2-1c-1 0 0 0 0 0zm-4 1zm0-1zm0 1zm2 0h-1-1v-1c0 1 0 1 0 0h2v1zM293 51zM281 34a2290 2290 0 0 0 7 0h-1 5l3-1h-1 1-2-1-3-1c1 0 1 0 0 0l-5 1v-1l-2 1zm12-1zM270 33c1 0 0 0 0 0h1-1zM280 34h0zM292 51zM300 32l-1 1-1-1-1 1h-2 5c1 0 0 0 0 0h1v-1h-1zM280 46h3-5 2zM279 34zM277 34l1-1v0h-1v1zM286 44h-1-1 2zM12 45zM275 46l3-1-2 1h-1zM49 121zM222 54c1 0 1 0 0 0zM282 44h0zM185 37h1-1zM284 44zM284 44h-1 1zM280 44zM280 42h-2c0 1 0 0 0 0h-1v0h0-3-1-1l-2 1h-1l1-1h-1-1l-1 1h1a21 21 0 0 1 3 0h2l-2 1 1-1v1h-4-1c0 1 0 0 0 0h-1v1h4c0-1 1-1 0 0h2l4-1v0h1l-3-1h-1c0-1 1 0 0 0h1s1 0 0 0h2s1 0 0 0l3 1v-1l1 1h-1 2v-1 1l1-1h-1c0 1 0 1 0 0h1-3-1-1 3l5-1h-2-3zm-11 1zm3 0zm3 1h-1 1zm-1 0zm-1 1s1 0 0 0zm1-2s-1 0 0 0zm2 0l-1-1 1 1zm-1-1s1 0 0 0zm1 1h-1 1zm1 1v-1h-1 1v1zm2-1h1-1-1-1 2zm2-1v1l-1-1h1zM187 37h-1 1zM186 37zM186 37zM187 36h-1l1 1c0-1 0 0 0 0v-1zM185 38h0zM205 42zM281 43zM209 44h1-1 0zM187 36h0zM197 38zM235 45zM195 48zM186 37zM207 47zM235 49v0zM222 45zM216 42h-1-1c1 0 0 0 0 0h-1s1 0 0 0v1l1-1h2zm0 0zM215 42zM197 38h-1v1h-2l1-1c-1 0-3 0-2-1h-1-1l-2 1h-1v1h-1l1 1-1-1h0s0-1 0 0v-1 1c0-1 0 0 0 0h-1 1-1c0-1 0 0 0 0v-1l-1 1h-1v1h1c-1 0 0 0 0 0v1h10v-1h2c-1 0-1 0 0 0h2v-1h-1v0l-1-1zm-11 1zm2 1h-1 1zm1 0zm1-2h0zm1 1s0-1 0 0zm1-1zm0 2v-1 1zm1 0zm1 0h-1 1zm-1-1c0 1 0 0 0 0-1 0 2 0 0 0zm1 0zm5 0zm-1 0h-1 1zM202 40h-1 1zM183 39zM188 37zM186 37zM254 46v-1h-1l1 1zM277 49l-1-1 1 1z"/><path class="st0" d="M187 38v-1h-1 1-1v1h1zM270 47l-3-1v1h3zm-2-1c1 0 1 0 0 0 0 1 0 0 0 0zM265 45h-1v-1 1l-2-1v1h1-1 1c-1 0-1 0 0 0h2zM277 44zM277 48l1 1-1-1zM235 48h-1 1zM240 49zM255 45h0zM239 49h-1 1zM246 52v-1h-1-1c1 0 1 0 0 0v1s1 0 0 0h2zM188 38h-1 1zM246 53v-1h-1l1 1zM248 46zM243 45zM227 41h-2c1 0 0 0 0 0h-1 1-3-2-1l1 1h4c-1 0-1 0 0 0h2-1 2-1 2-1 4-1v1h1v-1h4l-1-1h6c-1 0 1 0 0 0h5v-1 1h-2c1 0 0 0 0 0h-14-1-1zm-6 1l-1-1h1v1zm1 0h-1 1zm1 0v-1h1l-1 1zm2 0h-1 2-1zm5 0h0zm3 0h0zm0 0h-1 1zm0 0h-2 2zm-1 0h-1 1zm-1 0zm-1 0zm0 0h-1 1zM254 45v-1h-1l1 1zM263 43h-1-1 1v1h1v-1h0zM267 44zM264 43v1h-1 1v-1zM259 44zM254 45s-1 0 0 0zM263 44h-1 1zM223 41zM245 44h-1 1zM245 44h-1 1zM260 42zM223 41zM246 44zM249 45h-1 1zM267 42h-1v1l1-1zM223 41c0-1 0 0 0 0zM230 48l-1-1 1 1zM246 48zM260 45h0c1 0 1 0 0 0zM246 51zM254 47h-1 1zM244 51zM216 48v-1h-1l1 1zM230 52zM230 47zM228 47zM215 47zM244 49c-1 0-1 0 0 0zM216 42zM267 44c1 0 1 0 0 0zM266 43h-1-1 2zM244 49zM242 52h1v-1h0l-1 1zM237 48h-1 1zM234 43s0 1 0 0zM238 48h-1 1zM237 46zM209 48zM205 43zM220 42zM208 43s1 0 0 0-1 0 0 0zM238 49h-1 1zM260 43l-1-1c0 1 0 0 0 0l-1 1h1v0h1zM207 42zM207 42zM205 43v-1h-1-1 1l1 1zM243 49v0zM253 43v0zM262 44h-2 2zM256 44h-1 1v-1l1 1v-2h-1l1 1h-3v1h2zm-1-1c1 0 0 0 0 0zM256 44zM265 44zM267 45zM246 44zM206 42zM269 42h-1 1zM243 49s1 0 0 0zM250 45h1l-1-1v1zM249 44h2-1-1zM207 42h0zM185 37zM269 44h2-3 1zM187 37h1-1zM260 43zM262 42h-1 1zM189 36zM261 42zM258 43zM197 38h-1 1zM204 44v-1h-1l-1 1h2zM260 43zM254 44h-1 1zM231 52z"/></svg>