<svg id="982315de-5e03-472d-9f42-8d994366e732" data-name="图层 1" xmlns="http://www.w3.org/2000/svg" viewBox="0 0 378.33 378.33"><defs><style>.\31 5c99d80-888a-44d4-91e1-e7a76540e1f5,.\32 d9a1766-9878-4091-9a3d-a7c91dc5c417,.\35 93301b6-277f-4ce2-8ef3-9d1224c59235,.f21d99b5-6cf4-4c62-a61f-eafd744843a0{fill:none;stroke-miterlimit:10;}.\32 d9a1766-9878-4091-9a3d-a7c91dc5c417,.f21d99b5-6cf4-4c62-a61f-eafd744843a0{stroke:#006235;}.f21d99b5-6cf4-4c62-a61f-eafd744843a0{stroke-width:5px;}.\32 d9a1766-9878-4091-9a3d-a7c91dc5c417{stroke-width:68px;}.dc72625a-7749-48ba-8c37-ce9f986dd524{fill:#211713;}.acf8ee5f-bad2-410d-b920-5e6cb932fad6{fill:#fff;}.\31 5c99d80-888a-44d4-91e1-e7a76540e1f5{stroke:#fff;}.\31 5c99d80-888a-44d4-91e1-e7a76540e1f5,.\35 93301b6-277f-4ce2-8ef3-9d1224c59235{stroke-width:6px;}.\35 93301b6-277f-4ce2-8ef3-9d1224c59235{stroke:#cfba57;}.\39 3301e03-bf8f-4944-b117-9ea5283f4359{fill:#006235;}</style></defs><title>xingbake</title><circle class="f21d99b5-6cf4-4c62-a61f-eafd744843a0" cx="189.17" cy="189.17" r="186.67"/><circle class="2d9a1766-9878-4091-9a3d-a7c91dc5c417" cx="189" cy="189.17" r="144.83"/><ellipse class="dc72625a-7749-48ba-8c37-ce9f986dd524" cx="188.17" cy="189.5" rx="101.33" ry="102.33"/><polygon class="acf8ee5f-bad2-410d-b920-5e6cb932fad6" points="43.54 218.12 48.35 205.82 53.3 217.86 66.48 218.24 56.85 227.37 59.51 240.56 48.61 232.82 37.45 239.92 39.99 228.77 29.59 218.37 43.54 218.12"/><polygon class="acf8ee5f-bad2-410d-b920-5e6cb932fad6" points="323.46 218.37 328.27 206.07 333.22 218.12 346.4 218.5 336.77 227.63 339.43 240.81 328.53 233.08 317.37 240.18 319.91 229.02 309.51 218.62 323.46 218.37"/><path class="acf8ee5f-bad2-410d-b920-5e6cb932fad6" d="M270.67,177.84s32.58-21.3,75.56-.51a47.11,47.11,0,0,1,9.25-21.17s-3.17-1.52-15.85,3.93a62.23,62.23,0,0,1,3.8-13.57s-10.65,1-21.93,10l-5.33-11.79,10.27-10.27-12.68-.13-5.83-12.3-5.58,12.42-13.19.13,10.27,10.14-4.82,11.41s-19.52-10.78-22.06-9.51c0,0,5.45,13.19,3.8,14.33,0,0-10-5.58-15.6-4.82l-.38,1A47.79,47.79,0,0,1,270.67,177.84Z" transform="translate(-119.5 -29.2)"/><path class="acf8ee5f-bad2-410d-b920-5e6cb932fad6" d="M245.82,199.9s3.68-8.62,17.12-17.75c0,0,4.56-3.17-3-3.68,0,0-8-1.65-20.54,4.44,0,0-1.77-13.19-10.52-18.26,0,0-3.8-3.17-2.54,2.79,0,0,4.56,10.9-14.45,35.63,0,0-3.3,3.42,1.4,3.42,0,0,8,1,14.45-3.93C227.69,202.56,241.13,197,245.82,199.9Z" transform="translate(-119.5 -29.2)"/><path class="acf8ee5f-bad2-410d-b920-5e6cb932fad6" d="M370.83,200s-3.69-8.62-17.13-17.73c0,0-4.57-3.16,3-3.68,0,0,8-1.65,20.54,4.42,0,0,1.76-13.19,10.51-18.27,0,0,3.8-3.17,2.54,2.79,0,0-4.55,10.91,14.49,35.61,0,0,3.3,3.42-1.39,3.43,0,0-8,1-14.46-3.92C389,202.62,375.52,197.05,370.83,200Z" transform="translate(-119.5 -29.2)"/><path class="acf8ee5f-bad2-410d-b920-5e6cb932fad6" d="M320.4,232.64a115.61,115.61,0,0,0,7.73,10.9s6.09,7.1-.51,16l-10.4,14.2s-4.44,7,.13,12.8L325,301.87s4.56,10.4-.13,16.86c0,0-21.55,6.21-32.84,0a20.29,20.29,0,0,1,.89-19S298,288.55,299,286.52c0,0,5.2-8.5-1-14.83l-10.14-14.33a11.94,11.94,0,0,1,1.9-14.71s5.2-7,6.09-9.26c0,0,.38-7.1,7.1-3.42,0,0,5.45,2,10.14-.63C313,229.34,319,226.68,320.4,232.64Z" transform="translate(-119.5 -29.2)"/><path class="15c99d80-888a-44d4-91e1-e7a76540e1f5" d="M204.83,217.2S211,222,222.69,216c0,0,8.54-6.5,16.31-4.75" transform="translate(-119.5 -29.2)"/><path class="15c99d80-888a-44d4-91e1-e7a76540e1f5" d="M205.75,234s6.36,2.5,14-2.25c0,0,7.89-4.75,14.25-4.25" transform="translate(-119.5 -29.2)"/><path class="15c99d80-888a-44d4-91e1-e7a76540e1f5" d="M209.42,249.7s7.07-.5,12-4.25c0,0,7.61-4,10.87-3.25" transform="translate(-119.5 -29.2)"/><path class="15c99d80-888a-44d4-91e1-e7a76540e1f5" d="M215.75,263.87s10.51-7.75,17.42-8.5" transform="translate(-119.5 -29.2)"/><path class="15c99d80-888a-44d4-91e1-e7a76540e1f5" d="M222.17,275.62s11.25-8.25,16.75-6.25" transform="translate(-119.5 -29.2)"/><path class="15c99d80-888a-44d4-91e1-e7a76540e1f5" d="M229.67,286.12s9-5,11-4.75" transform="translate(-119.5 -29.2)"/><line class="15c99d80-888a-44d4-91e1-e7a76540e1f5" x1="120.17" y1="266.67" x2="126.92" y2="262.92"/><path class="15c99d80-888a-44d4-91e1-e7a76540e1f5" d="M410.68,217.44s-6.2,4.69-17.81-1.44c0,0-8.51-6.6-16.26-4.93" transform="translate(-119.5 -29.2)"/><path class="15c99d80-888a-44d4-91e1-e7a76540e1f5" d="M409.42,234s-6.3,2.46-13.83-2.34c0,0-7.78-4.81-14.07-4.35" transform="translate(-119.5 -29.2)"/><path class="15c99d80-888a-44d4-91e1-e7a76540e1f5" d="M405.17,249.9s-6.8-.59-11.52-4.4c0,0-7.33-4.1-10.47-3.39" transform="translate(-119.5 -29.2)"/><path class="15c99d80-888a-44d4-91e1-e7a76540e1f5" d="M399.6,264.14s-10.53-8-17.4-8.88" transform="translate(-119.5 -29.2)"/><path class="15c99d80-888a-44d4-91e1-e7a76540e1f5" d="M393.08,275.58s-11.2-8.32-16.71-6.35" transform="translate(-119.5 -29.2)"/><path class="15c99d80-888a-44d4-91e1-e7a76540e1f5" d="M385.52,286s-9-5.05-11-4.81" transform="translate(-119.5 -29.2)"/><line class="15c99d80-888a-44d4-91e1-e7a76540e1f5" x1="256.11" y1="266.63" x2="249.24" y2="262.73"/><path class="acf8ee5f-bad2-410d-b920-5e6cb932fad6" d="M268,182.58s-12.12,11.25-7.37,27.75c0,0,4.88,14.25.63,20,0,0-10,14.38-10.62,22.88,0,0-8,9-15.5,6.88,0,0,2.13,13.75,4.88,17.5,0,0,2.13,2.75,8.13,0l11.13-8.12s2.13-1.37,0-4.12c0,0-9-11.88.13-24.63l6.13-8.87a18.11,18.11,0,0,0,.75-17.37s-7.5-21.37,3-31C269.25,183.45,270,181.83,268,182.58Z" transform="translate(-119.5 -29.2)"/><path class="acf8ee5f-bad2-410d-b920-5e6cb932fad6" d="M348.07,182.28s12.15,11.22,7.44,27.73c0,0-4.84,14.26-.58,20,0,0,10,14.35,10.68,22.85,0,0,8,9,15.51,6.84,0,0-2.09,13.76-4.84,17.51,0,0-2.12,2.75-8.12,0L357,269.14s-2.13-1.37,0-4.12c0,0,9-11.9-.18-24.62l-6.14-8.86a18.1,18.1,0,0,1-.79-17.37s7.45-21.39-3.07-31C346.83,183.16,346.07,181.54,348.07,182.28Z" transform="translate(-119.5 -29.2)"/><path class="acf8ee5f-bad2-410d-b920-5e6cb932fad6" d="M279,177.58s-17,14.13-7.25,35.13c0,0,7.5,13-1.12,22.38,0,0-16.5,15.63-4.25,29.25,0,0,15.38,15.63,7.75,25.25l-8.75,14.25s-1.25,5-1,6.5l.38.63.5.38.38.88.38.75a2.74,2.74,0,0,0,1,.38c.38,0,1.38.13,1.38.13h1.25l.25-6.5s2-6,8.63-15.75a18,18,0,0,0-3.37-21.87l-6.37-7.87s-5.5-9.25,1.75-20.13c0,0,17-16,4.63-31,0,0-8.12-14.75,4.13-31.37C279.25,179,281.38,177.45,279,177.58Z" transform="translate(-119.5 -29.2)"/><path class="acf8ee5f-bad2-410d-b920-5e6cb932fad6" d="M337.72,177.61s17,14.08,7.34,35.11c0,0-7.47,13,1.18,22.37,0,0,16.54,15.58,4.33,29.24,0,0-15.34,15.66-7.69,25.27l8.79,14.23s1.26,5,1,6.5l-.37.62-.5.38-.37.88-.37.75a2.72,2.72,0,0,1-1,.38c-.37,0-1.37.13-1.37.13h-1.25l-.27-6.5s-2-6-8.67-15.73a18,18,0,0,1,3.32-21.88l6.35-7.89s5.48-9.27-1.8-20.12c0,0-17-16-4.7-31,0,0,8.09-14.77-4.2-31.36C337.47,179,335.34,177.5,337.72,177.61Z" transform="translate(-119.5 -29.2)"/><path class="acf8ee5f-bad2-410d-b920-5e6cb932fad6" d="M288.25,175.58s-14.37,10.75-8.75,29.13c0,0,2.88,7.75,5.38,13.13,0,0,3.63,8.88-1,15.38,0,0-18.25,18.5-4.62,31,0,0,16.75,14.63,4.63,30,0,0-10.25,12.38-5.62,22.63l2.5,2.38,4.38-.12s-7-7.87,2.13-22.5c0,0,11.88-15.5,1.38-27.37l-7.37-9.62s-5.87-9.13,3.63-20.63c0,0,12.25-13.37,1.63-26.37,0,0-7.87-18-4.12-25.62a22.52,22.52,0,0,1,5.63-9.62S290,175.58,288.25,175.58Z" transform="translate(-119.5 -29.2)"/><path class="acf8ee5f-bad2-410d-b920-5e6cb932fad6" d="M328.48,175.56s14.37,10.76,8.72,29.13c0,0-2.88,7.75-5.39,13.12,0,0-3.63,8.87,1,15.37,0,0,18.23,18.52,4.59,31,0,0-16.77,14.61-4.66,30,0,0,10.24,12.39,5.6,22.63l-2.5,2.37-4.37-.13s7-7.87-2.1-22.5c0,0-11.86-15.51-1.35-27.38l7.38-9.62s5.88-9.12-3.6-20.63c0,0-12.24-13.39-1.6-26.38,0,0,7.89-18,4.15-25.62a22.51,22.51,0,0,0-5.62-9.63S326.73,175.56,328.48,175.56Z" transform="translate(-119.5 -29.2)"/><path class="acf8ee5f-bad2-410d-b920-5e6cb932fad6" d="M266.25,279s1.38,5.25-4,13c0,0-7.75,8.75-6.37,14.63l2.63,2.5s-1.62-3.62,1.88-8.87c0,0,2-3.37,4.25-6.75,0,0,6.13-7.12,4.13-12.87C268.75,280.58,267,274.08,266.25,279Z" transform="translate(-119.5 -29.2)"/><path class="acf8ee5f-bad2-410d-b920-5e6cb932fad6" d="M350.28,278.94s-1.39,5.25,4,13c0,0,7.73,8.77,6.34,14.64l-2.63,2.49s1.64-3.62-1.85-8.88c0,0-2-3.38-4.23-6.76,0,0-6.11-7.14-4.09-12.89C347.77,280.56,349.54,274.06,350.28,278.94Z" transform="translate(-119.5 -29.2)"/><path class="acf8ee5f-bad2-410d-b920-5e6cb932fad6" d="M290.38,192.83s3.13-4.25,7.88-.37c0,0,3.25-.37.25-2.5,0,0-4.87-3.87-9.12-1C289.38,189,287.13,193,290.38,192.83Z" transform="translate(-119.5 -29.2)"/><path class="acf8ee5f-bad2-410d-b920-5e6cb932fad6" d="M325.56,193.4s-2.58-4.6-7.77-1.33c0,0-3.18-.77.06-2.51,0,0,5.31-3.25,9.18.12C327,189.67,328.77,193.92,325.56,193.4Z" transform="translate(-119.5 -29.2)"/><path class="acf8ee5f-bad2-410d-b920-5e6cb932fad6" d="M290.63,184.08s13.25-2.25,13.63,5.63c0,0,.88,4.88-.12,6A2.23,2.23,0,0,1,300.5,197s-2.62-1-4.37.38c0,0-3,1.63-4.25-.62,0,0-3-2.5-4.12,2.38a30,30,0,0,0,12,24s10.38,6.88,19-2.75c0,0,9.38-8.5,8.63-21.75,0,0-1-4.37-4.12-.87,0,0-3.62.88-4.75-.5,0,0-2.37-2.12-3.87.25,0,0-3.25,4.5-4.37.75,0,0-3.87-15.62,12.75-14.12,0,0,7.13,1.88,4-2.87,0,0-3.87-9.5-18.75-9.25,0,0-12.37-1.5-18.5,9C289.75,181,287.5,184.45,290.63,184.08Z" transform="translate(-119.5 -29.2)"/><path class="acf8ee5f-bad2-410d-b920-5e6cb932fad6" d="M156.17,157.2s-14.67,13-7.33,29.83c0,0,10.83,14.67,22.83.67,0,0,5.83-14.33,10.33-8.17,0,0,3.67,7.5-9.33,17.33L181,202.7s12.67-10.33,11.67-24.5c0,0,.5-14.67-12.83-15.17,0,0-8.5-.83-13.33,9.33,0,0-7,13.17-10,5,0,0-2.17-8,7.17-14.67C163.67,162.7,158.33,157.2,156.17,157.2Z" transform="translate(-119.5 -29.2)"/><polygon class="acf8ee5f-bad2-410d-b920-5e6cb932fad6" points="39.67 119 48 124.83 54.67 114.67 81.5 131.67 89.33 120.17 63 102.33 69.33 92.17 59.83 85.67 39.67 119"/><polygon class="acf8ee5f-bad2-410d-b920-5e6cb932fad6" points="73.5 71.33 88.83 57.17 129.5 82.33 118.17 90.33 108.83 85.5 97.67 95.17 101.83 104 92 115.83 73.5 71.33"/><path class="acf8ee5f-bad2-410d-b920-5e6cb932fad6" d="M233,70.87l16.83,40.5,13.17-7-4.33-10.5,4.5-2.83L275,100.7l14-3.5L274.67,83.53s11.67-23.33-15-23.33C259.67,60.2,251.83,61.37,233,70.87Z" transform="translate(-119.5 -29.2)"/><path class="acf8ee5f-bad2-410d-b920-5e6cb932fad6" d="M289.5,54.37l1.33,42.83,28.33-.33s11-.33,11.83-12.5c0,0,0-8.83-6.83-10.17,0,0,5.33-4.33,5.17-10.83,0,0-.33-9.83-12-9.83C317.33,53.53,308.5,52.7,289.5,54.37Z" transform="translate(-119.5 -29.2)"/><path class="acf8ee5f-bad2-410d-b920-5e6cb932fad6" d="M344.33,57.53,358.67,62l-9,24.83s-2.5,7.33,3.17,8.33A6.27,6.27,0,0,0,361,92l10.67-25.67,13,6.5L373.33,99.2s-3,12.17-24,6.5c0,0-18.83-7.5-14.5-20.67Z" transform="translate(-119.5 -29.2)"/><path class="acf8ee5f-bad2-410d-b920-5e6cb932fad6" d="M417.17,112.37l8.33-4.83s-4-18.67-23.33-20.83c0,0-20.33-2.67-23.83,21,0,0-2.33,19.33,21.67,24.5l5.67-7.67s-11.17-2-14-8.83c0,0-4.33-11.83,9.33-16.33C401,99.37,412.67,96.7,417.17,112.37Z" transform="translate(-119.5 -29.2)"/><polygon class="acf8ee5f-bad2-410d-b920-5e6cb932fad6" points="314.33 82.67 280 109.5 288.5 120 302.67 109.83 293 127.5 301 141.17 314.33 117.5 337.17 119 329.83 105 311.33 103.83 323.17 94 314.33 82.67"/><path class="acf8ee5f-bad2-410d-b920-5e6cb932fad6" d="M469.77,191.64s4.83-19-10.69-28.8c0,0-17.2-6.05-19.27,12.27,0,0,3.22,15.14-4,12.56,0,0-7.25-4.15-2-19.58l-10.17-.15s-4.68,15.66,4.11,26.82c0,0,7.82,12.42,19.13,5.34,0,0,7.5-4.08,5.79-15.21,0,0-1.6-14.83,5.47-9.75,0,0,6.29,5.4,2.31,16.16C460.47,191.31,468,192.86,469.77,191.64Z" transform="translate(-119.5 -29.2)"/><path class="acf8ee5f-bad2-410d-b920-5e6cb932fad6" d="M222.27,320.29l8.15-5.14s-4.69-18.51-24.09-19.95c0,0-20.42-1.91-23,21.87,0,0-1.61,19.41,22.57,23.67l5.38-7.87s-11.23-1.58-14.32-8.3c0,0-4.77-11.66,8.72-16.67C205.63,307.91,217.19,304.81,222.27,320.29Z" transform="translate(-119.5 -29.2)"/><path class="acf8ee5f-bad2-410d-b920-5e6cb932fad6" d="M243.25,321.2s27.25,5.25,18.25,33.25c0,0-15.25,24.5-39.25,4.75,0,0-14.75-18.25,2.75-33.25C225,326,231.25,319.45,243.25,321.2Z" transform="translate(-119.5 -29.2)"/><path class="acf8ee5f-bad2-410d-b920-5e6cb932fad6" d="M273.25,335.2s23,6,30,5.25l-.5,11.25L284,348.45l-1.75,7.25L298,359.2l-1,9.5L280,366l-3.25,14.5L262.5,377.2Z" transform="translate(-119.5 -29.2)"/><polygon class="acf8ee5f-bad2-410d-b920-5e6cb932fad6" points="189.75 310.75 191.5 354 206.25 353.75 205.5 338.75 222 336.25 220.5 326 203.75 328.25 203.5 320 222.75 317.75 220 306.75 189.75 310.75"/><polygon class="acf8ee5f-bad2-410d-b920-5e6cb932fad6" points="225.5 305.25 241 345.25 273.75 331 268.75 322.75 251.25 330 248.25 323 263 316 258.75 308.25 244.25 315.25 241 308.5 258 300 253 292 225.5 305.25"/><polygon class="acf8ee5f-bad2-410d-b920-5e6cb932fad6" points="258.08 289.72 285 323.11 311.87 299.58 304.6 293.24 290.13 305.47 285.14 299.71 297.07 288.56 290.67 282.47 278.98 293.54 273.83 288.1 287.44 274.84 280.25 268.73 258.08 289.72"/><path class="acf8ee5f-bad2-410d-b920-5e6cb932fad6" d="M291.33,317.37l2.67,5.17,29,.17s2.5-4.33,3-6.83l-34.67,1.5" transform="translate(-119.5 -29.2)"/><path class="593301b6-277f-4ce2-8ef3-9d1224c59235" d="M216.25,263.7" transform="translate(-119.5 -29.2)"/><path class="dc72625a-7749-48ba-8c37-ce9f986dd524" d="M299.38,211.2h16.5s-2.5,6.25-8,6.63C307.88,217.83,302.75,218.2,299.38,211.2Z" transform="translate(-119.5 -29.2)"/><path class="dc72625a-7749-48ba-8c37-ce9f986dd524" d="M303.88,206.58h7.5s2.63-2.87-3.12-3.12C308.25,203.45,301.13,204,303.88,206.58Z" transform="translate(-119.5 -29.2)"/><path class="93301e03-bf8f-4944-b117-9ea5283f4359" d="M243,331.45s11.25,2.5,6,17c0,0-7.5,12.25-16.5,5a13.24,13.24,0,0,1-.5-15.25S236,330.7,243,331.45Z" transform="translate(-119.5 -29.2)"/><polygon class="93301e03-bf8f-4944-b117-9ea5283f4359" points="87.5 72.25 93 85 100 80.25 87.5 72.25"/><path class="93301e03-bf8f-4944-b117-9ea5283f4359" d="M250.25,75l3.75,8.5,8-3.5s3-7.5-3.75-8.5Z" transform="translate(-119.5 -29.2)"/><path class="93301e03-bf8f-4944-b117-9ea5283f4359" d="M304.25,62.2v7.5l5.75.5s7.75-3.75,1.25-8Z" transform="translate(-119.5 -29.2)"/><path class="93301e03-bf8f-4944-b117-9ea5283f4359" d="M304.75,78.7,305,87h7.5s7-3.75.75-8.5Z" transform="translate(-119.5 -29.2)"/><polygon class="dc72625a-7749-48ba-8c37-ce9f986dd524" points="188.84 122.17 178.17 129.67 179.34 131.34 197.34 131.34 198.5 129.84 188.84 122.17"/></svg>