<?xml version="1.0" standalone="no"?><!DOCTYPE svg PUBLIC "-//W3C//DTD SVG 1.1//EN" "http://www.w3.org/Graphics/SVG/1.1/DTD/svg11.dtd"><svg t="1528169137500" class="icon" style="" viewBox="0 0 1024 1024" version="1.1" xmlns="http://www.w3.org/2000/svg" p-id="7970" xmlns:xlink="http://www.w3.org/1999/xlink" width="200" height="200"><defs><style type="text/css"></style></defs><path d="M476.919 315.079c-0.145 0.009-0.29 0.01-0.435 0.019 0.031 0.207 0.048 0.414 0.077 0.621l0.358-0.64z" fill="#FFFFFF" p-id="7971"></path><path d="M851.649 380.598c1.694-30.177-3.83-54.825-19.694-42.072-20.882 16.787-117.372 22.532-137.168 34.745-2.404 1.483-5.059 3.861-3.218 5.103 30.517-16.547 116.348-13.057 136.761-29.466 15.508-12.466 18.23 7.131 16.574 36.629-1.809 32.226-31.394 75.96-58.923 98.085 18.006 36.172 32.46 82.335 31.718 124.398-2.744 155.509-147.067 279.067-322.356 275.974-175.288-3.093-332.671-119.62-329.928-275.129 1.755-99.485 68.622-190.819 162.466-242.909-7.758-69.167 104.12-163.16 107.444-146.12 5.942 30.457 30.898 57.62 39.121 86.307-5.011-32.771-28.693-67.411-35.246-100.999-3.401-17.431-124.404 84.665-116.467 155.423-96.003 53.288-164.408 146.723-166.204 248.497-2.807 159.086 158.197 278.294 337.518 281.458 179.321 3.164 326.965-123.237 329.772-282.323 0.759-43.031-9.175-84.038-27.594-121.042 28.161-22.634 53.573-73.591 55.424-106.559z" fill="#FFFFFF" p-id="7972"></path><path d="M341.973 513.683m-27.364 0a27.364 27.364 0 1 0 54.728 0 27.364 27.364 0 1 0-54.728 0Z" fill="#FFFFFF" p-id="7973"></path><path d="M493.901 175.776c-0.208 26.359 25.084 61.991 52.503 77.385 44.737 25.117 108.92 31.462 128.273 17.902 4.813 22.675 18.686 36.555 35.622 49.284 23.517 17.675 81.401 15.338 96.003-24.372 18.608-50.602-45.126-101.582-85.264-91.864-33.701-59.676-82.584-113.983-154.474-108.725-38.278 2.8-72.29 32.991-72.663 80.39z" fill="#FFFFFF" p-id="7974"></path><path d="M597.208 634.342l0.303 0.002h0.001c9.195 0 16.808-7.482 16.971-16.678a16.861 16.861 0 0 0-4.766-12.085 16.863 16.863 0 0 0-11.91-5.189l-0.304-0.002c-9.195 0-16.807 7.482-16.97 16.678a16.86 16.86 0 0 0 4.765 12.085 16.87 16.87 0 0 0 11.91 5.189zM344.675 533.603l0.303 0.002h0.001c9.165 0 16.753-7.457 16.915-16.624 0.164-9.329-7.292-17.054-16.621-17.218l-0.302-0.002c-9.166 0-16.754 7.457-16.916 16.624a16.803 16.803 0 0 0 4.75 12.046 16.797 16.797 0 0 0 11.87 5.172z" fill="#4D83E7" p-id="7975"></path><path d="M701.667 839.667c31.333-22 68.667-54 92.655-97.473 23.347-42.312 37.722-86.536 38.557-133.834 0.731-41.424-8.028-81.718-26.037-119.8 27.061-25.492 52.159-76.469 54.052-110.167 1.115-19.837-2.243-43.377-15.018-49.947-2.064-1.061-4.256-1.6-6.517-1.6-3.871 0-7.799 1.579-11.674 4.693-9.582 7.704-37.975 12.382-65.453 16.909-25.533 4.206-49.682 8.184-66.234 14.961-0.585-0.384-1.178-0.756-1.766-1.136 6.16-8.41 12.215-18.49 17.759-28.749l-0.006-0.003c9.515 4.763 21.427 7.541 34.011 7.763 40.109 0.708 62.505-21.083 70.09-41.711 7.657-20.822 4.133-43.596-9.924-64.127-16.996-24.823-47.237-42.485-73.541-42.951a59.027 59.027 0 0 0-6.125 0.205c-41.551-70.72-91.291-107.071-147.921-108.07-4.201-0.074-8.498 0.047-12.772 0.359-47.317 3.461-81.94 41.607-82.327 90.704-0.203 25.755 20.394 59.62 46.929 79.416l-0.006-0.004c-5.369 17.928-10.111 36.646-13.179 50.699-4.27-0.22-8.554-0.369-12.851-0.445a269.006 269.006 0 0 0-4.754-0.041c-5.039 0-10.419 0.134-16.387 0.409-2.464-18.173-10.395-36.047-18.775-54.931-6.989-15.749-14.214-32.034-17.651-48.029-0.759-3.535-3.113-6.141-6.461-7.15-0.963-0.29-2.031-0.437-3.171-0.437-12.52 0-36.015 18.62-53.828 36.045-33.981 33.242-69.942 83.14-69.823 124.196-19.682 11.279-38.245 24.245-55.189 38.554-69.072 58.325-109.48 136.663-110.862 214.93-1.103 62.53 29.804 133.615 66.654 171.314 27.951 28.595 93.799 95.745 228.993 114.864 148.532 21.005 239.991-42.384 258.552-55.416zM493.901 175.776c0.374-47.399 34.385-77.59 72.664-80.39a130.45 130.45 0 0 1 11.827-0.333c65.472 1.155 110.828 52.714 142.647 109.058 3.633-0.88 7.457-1.262 11.399-1.192 39.6 0.7 90.788 47.035 73.865 93.056-9.251 25.158-35.872 35.314-60.122 34.886-14.027-0.248-27.263-4.038-35.881-10.515-16.936-12.729-30.809-26.609-35.622-49.284-7.038 4.931-20.003 7.23-35.806 6.951-27.655-0.488-63.999-8.87-92.468-24.853-27.419-15.394-52.711-51.026-52.503-77.384z m45.584 85.367c0.608 0.36 1.204 0.764 1.815 1.108 27.754 15.582 65.07 25.616 97.387 26.186 8.782 0.155 19.742-0.402 29.332-3.129 7.347 19.304 20.956 31.94 35.032 42.621-5.584 10.435-11.648 20.655-17.635 28.807-47.222-28.599-101.109-45.737-157.69-50.232 2.822-12.698 7.01-29.217 11.759-45.361zM158.779 609.105c0.835-47.353 16.558-95.195 45.468-138.354 27.269-40.708 65.423-76.255 110.486-102.965a49.81 49.81 0 0 0 0.866 3.68c0.664 2.397 2.864 4.102 5.449 4.146a5.667 5.667 0 0 0 5.453-7.169c-13.123-47.335 51.162-122.682 90.836-151.563 10.962-7.978 16.529-9.87 18.723-10.312 3.779 16.644 11.03 32.988 18.055 48.818 9.739 21.947 18.939 42.677 18.588 62.507a5.619 5.619 0 0 0 1.587 4.028c1.049 1.087 2.459 1.7 4.069 1.728 3.064 0 5.601-2.493 5.655-5.556 0.006-0.364 0.008-0.728 0.006-1.092 5.635-0.25 10.718-0.372 15.478-0.372 1.556 0 3.113 0.013 4.674 0.041 65.094 1.148 127.418 19.376 180.486 52.751-3.515 2.47-6.05 5.109-7.701 8.011a5.66 5.66 0 0 0 4.916 8.457 5.669 5.669 0 0 0 4.917-2.86c6.716-11.794 45.842-18.24 77.291-23.422 30.235-4.981 58.792-9.685 70.695-19.253 2.255-1.814 3.761-2.195 4.627-2.195 0.624 0 0.999 0.191 1.301 0.346 4.352 2.238 10.189 16.261 8.896 39.252-1.732 30.827-28.401 86.773-57.055 108.118a5.62 5.62 0 0 0-2.22 3.718 5.625 5.625 0 0 0 1.062 4.198c1.055 1.415 2.671 2.245 4.536 2.278 0.653 0 1.291-0.111 1.893-0.324 16.446 35.779 24.436 73.587 23.75 112.415-1.327 75.28-35.328 145.761-95.736 198.46-60.401 52.693-140.379 81.712-225.201 81.712-2.177 0-4.357-0.021-6.543-0.059-87.042-1.536-172.946-31.337-235.687-81.763-65.557-52.689-100.936-122.795-99.62-197.405z" fill="#4D83E7" p-id="7976"></path></svg>