<?xml version="1.0" standalone="no"?><!DOCTYPE svg PUBLIC "-//W3C//DTD SVG 1.1//EN" "http://www.w3.org/Graphics/SVG/1.1/DTD/svg11.dtd"><svg t="1528169143704" class="icon" style="" viewBox="0 0 1024 1024" version="1.1" xmlns="http://www.w3.org/2000/svg" p-id="8104" xmlns:xlink="http://www.w3.org/1999/xlink" width="200" height="200"><defs><style type="text/css"></style></defs><path d="M875.071 350.701c-19.847-46.922-48.258-89.062-84.444-125.248-36.187-36.186-78.326-64.597-125.249-84.443-48.581-20.549-100.186-30.968-153.378-30.968s-104.797 10.419-153.379 30.968c-46.923 19.846-89.062 48.257-125.248 84.443-36.186 36.186-64.597 78.326-84.444 125.248-20.549 48.582-30.967 100.187-30.967 153.379 0 53.193 10.419 104.797 30.967 153.38 19.847 46.922 48.257 89.062 84.444 125.247 36.186 36.186 78.325 64.597 125.248 84.444C407.203 887.7 458.807 898.118 512 898.118c53.192 0 104.797-10.419 153.379-30.967 46.923-19.847 89.062-48.258 125.249-84.444 36.186-36.186 64.597-78.326 84.444-125.247 20.549-48.582 30.967-100.187 30.967-153.38 0-53.192-10.419-104.797-30.968-153.379z m-213.84 506.642c-47.263 19.99-97.472 30.126-149.231 30.126-51.76 0-101.968-10.136-149.231-30.126-45.654-19.31-86.655-46.954-121.867-82.166a387.64 387.64 0 0 1-29.653-33.284c5.332 3.255 12.959 6.623 22.737 10.828 4.572 1.966 9.299 3.999 13.681 6.044l2.289 1.073c9.104 4.275 22.722 10.668 38.358 14.756 34.907 44.742 136.75 65.134 217.301 65.134 32.827 0 62.101-3.217 84.656-9.302 33.824-9.126 55.485-17.231 71.3-23.15 15.451-5.781 24.776-9.271 33.72-9.271 12.772 0 28.58-3.962 43.867-7.793 8.575-2.149 16.674-4.179 23.589-5.331 6.648-1.108 13.081-4.061 18.347-7.747-34.762 34.271-75.067 61.262-119.863 80.209zM248.038 712.434c-4.309-5.63-8.279-12.714-10.106-16.513-4.128-8.585-9.186-31.213-8.962-43.598 79.362 37.96 165.378 57.554 249.743 57.554 32.501 0 64.761-2.907 96.292-8.788 102.505-19.12 183.924-68.083 218.855-131.365 5.575 3.088 11.185 8.108 15.15 12.537 9.096 10.161 15.187 22.379 16.712 33.523 2.905 21.238-1.36 41.313-13.83 65.092-13.329 25.418-37.596 48.246-64.913 61.063a10.65 10.65 0 0 0 3.499 20.24c9.517 0.919 21.284 1.565 29.697 1.806-3.848 4.022-11.017 9.031-19.177 10.391-7.34 1.223-15.64 3.304-24.43 5.507-14.66 3.674-29.819 7.473-41.276 7.473-10.871 0-20.876 3.744-37.452 9.946-15.616 5.844-37.004 13.847-70.342 22.842-21.664 5.845-49.978 8.935-81.882 8.935-41.594 0-86.429-5.622-123.011-15.426-41.614-11.152-71.316-26.924-85.895-45.61a10.646 10.646 0 0 0-5.702-3.752c-14.689-3.84-27.829-10.01-36.533-14.096l-2.304-1.08c-4.526-2.112-9.326-4.176-13.978-6.176-7.671-3.299-14.411-6.242-19.198-8.862-2.073-1.135-3.48-2.048-4.43-2.748 3.643-0.879 10.478-1.105 14.941-1.253 3.63-0.12 7.383-0.245 10.999-0.559a10.649 10.649 0 0 0 7.533-17.083z m-7.056-136.398c-5.28-4.012-8.188-6.222-5.299-15.611 0.522-1.697 0.837-2.721 5.648-2.72 2.799 0 6.059 0.458 9.211 0.901 2.327 0.327 4.732 0.665 7.009 0.822a10.657 10.657 0 0 0 8.767-3.633c8.765-10.072 18.815-18.816 29.869-25.989a10.625 10.625 0 0 0 2.522-2.283 10.642 10.642 0 0 0 3.181-1.223c0.355-0.207 0.708-0.415 1.061-0.623 0.887-0.522 1.724-1.015 2.541-1.459 16.125-8.764 37.923-13.207 64.788-13.207h0.015c72.709 0.005 159.803 31.297 209.957 60.369 5.255 3.046 9.78 4.464 14.242 4.464 8.726 0 15.216-5.324 24.2-12.693a580.927 580.927 0 0 1 4.665-3.797 10.619 10.619 0 0 0 1.488-1.455c0.618-0.31 1.208-0.682 1.76-1.111 5.684-4.422 11.04-8.164 16.853-11.778a10.627 10.627 0 0 0 2.254-1.876 10.653 10.653 0 0 0 2.713-1.11 204.873 204.873 0 0 1 6.541-3.645c12.802-6.828 25.621-10.29 38.101-10.29 17.29 0 34.403 6.678 50.865 19.848 15.545 12.436 23.445 16.91 39.458 18.674-34.018 59.536-112.048 105.675-210.342 124.009-112.396 20.965-234.224 3.349-343.041-49.603a5.355 5.355 0 0 0-0.904-0.333c0.291-3.849 0.797-7.841 1.552-11.947 0.103-0.563 0.161-1.129 0.173-1.693 0.215-0.545 0.387-1.114 0.512-1.703 2.358-11.136 6.356-22.797 11.563-33.72 0.266-0.559 0.554-1.134 0.842-1.71l0.33-0.663a10.645 10.645 0 0 0-3.095-13.212z m624.282 77.275c-17.686 41.813-42.384 79.709-73.463 112.844 1.366-2.365 2.067-4.642 1.904-6.617-0.233-2.813-2.291-6.098-7.324-6.098-7.127 0-22.567-0.672-34.879-1.861 28.934-13.576 55.339-38.142 69.821-65.758 13.563-25.864 18.173-47.909 14.949-71.48-2.86-20.907-18.02-41.263-33.243-51.446 2.189-1.994 3.571-4.858 3.571-8.053 0-6.021-4.881-10.903-10.903-10.903-6.021 0-10.903 4.881-10.903 10.903 0 0.414 0.028 0.821 0.073 1.222-13.069-1.378-19.276-4.441-34.279-16.443-18.398-14.718-37.749-22.181-57.518-22.181-14.247 0-28.752 3.883-43.113 11.542a214.572 214.572 0 0 0-6.88 3.834l-25.096 0.291 19.858 2.858c-7.101 4.414-12.891 8.622-17.769 12.416l-26.103-0.64 22.725 3.308a580.232 580.232 0 0 0-4.752 3.867c-7.813 6.409-12.53 10.278-17.446 10.278-2.509 0-5.338-0.962-8.902-3.029-51.346-29.764-140.62-61.8-215.296-61.805h-0.015c-28.661 0-52.169 4.878-69.873 14.5-1.33 0.723-2.592 1.488-3.878 2.237l-30.782 0.503 24.644 3.27c-12.914 8.379-23.498 18.039-32.106 27.931-4.833-0.334-11.113-1.748-16.954-1.748-6.958 0-13.293 2.006-15.826 10.237-4.854 15.777 2.375 22.161 9.035 27.221-0.42 0.846-0.854 1.703-1.246 2.526-5.702 11.962-9.865 24.272-12.368 36.096l-25.333 0.414 24.593 3.263c-2.396 13.038-2.699 25.361-0.69 35.806 0.278 1.443 0.562 3.067 0.872 4.834 1.043 5.94 2.393 13.638 4.71 21.647l-0.369-0.002c-1.273 0-2.211 0.058-2.954 0.182l-14.46 2.41 13.474 5.775c1.771 0.759 5.603 2.414 7.69 3.316 2.28 4.443 6.404 11.957 11.124 18.124-3.33 0.29-6.912 0.409-10.428 0.525-10.56 0.35-19.679 0.652-24.227 5.2-1.605 1.605-2.514 3.491-2.659 5.454a381.595 381.595 0 0 1-43.531-76.775c-19.991-47.263-30.127-97.472-30.127-149.231s10.136-101.968 30.127-149.231c19.31-45.653 46.954-86.655 82.165-121.866 35.212-35.212 76.213-62.856 121.867-82.166 47.263-19.991 97.471-30.127 149.231-30.127 51.759 0 101.968 10.136 149.231 30.127 45.653 19.31 86.656 46.954 121.867 82.166 35.211 35.211 62.856 76.213 82.166 121.866 19.99 47.263 30.126 97.472 30.126 149.231-0.002 51.765-10.138 101.974-30.128 149.236z" fill="#4D83E7" p-id="8105"></path><path d="M741.147 574.997m-8.519 0a8.519 8.519 0 1 0 17.038 0 8.519 8.519 0 1 0-17.038 0Z" fill="#4D83E7" p-id="8106"></path></svg>