<?xml version="1.0" standalone="no"?><!DOCTYPE svg PUBLIC "-//W3C//DTD SVG 1.1//EN" "http://www.w3.org/Graphics/SVG/1.1/DTD/svg11.dtd"><svg t="1528169148367" class="icon" style="" viewBox="0 0 1024 1024" version="1.1" xmlns="http://www.w3.org/2000/svg" p-id="8234" xmlns:xlink="http://www.w3.org/1999/xlink" width="200" height="200"><defs><style type="text/css"></style></defs><path d="M551.868 509.196a17.296 29.13 0 1 0 34.592 0 17.296 29.13 0 1 0-34.592 0Z" fill="#4D83E7" p-id="8235"></path><path d="M654.46 506.977a16.802 28.297 0 1 0 33.604 0 16.802 28.297 0 1 0-33.604 0Z" fill="#4D83E7" p-id="8236"></path><path d="M793.149 250.225c-31.784-36.036-68.813-64.337-110.057-84.116-28.322-13.582-57.819-22.7-88.115-27.328-33.467-7.822-115.484-8.927-133.09-7.642-101.358 7.398-173.306 42.719-237.09 116.036-63.472 72.957-98.427 167.955-98.427 273.205 0 102.404 32.02 194.587 92.598 266.581 55.693 66.19 131.7 110.022 214.019 123.423 33.263 5.416 60.462 9.021 85.089 9.021h0.004c6.54 0 12.711-0.249 18.856-0.757 3.706 0.131 7.417 0.221 11.142 0.221 46.831 0 92.256-10.396 135.013-30.902 41.244-19.778 78.273-48.079 110.057-84.116 65.243-73.974 101.175-172.28 101.175-276.813 0-104.532-35.931-202.839-101.174-276.813zM434.77 899.432c-79.701-12.976-153.326-55.456-207.311-119.616-58.873-69.968-89.992-159.68-89.992-259.436 0-102.573 33.988-194.984 95.703-265.922 61.644-70.857 140.676-107.043 234-113.026 0.858-0.055 9.092-0.158 20.995-0.397-25.738 5.074-50.849 13.444-75.1 25.074-41.244 19.779-78.273 48.08-110.056 84.116-65.244 73.973-101.175 172.281-101.175 276.814 0 104.532 35.931 202.839 101.175 276.813 28.764 32.613 61.836 58.866 98.428 78.224h-0.182c13.853 7.343 28.127 13.642 42.751 18.836-3.025-0.477-6.103-0.971-9.236-1.48z m350.056-102.921c-63.28 71.747-147.359 111.261-236.747 111.261-4.479 0-8.941-0.127-13.391-0.324-1.521-0.068-3.042-0.133-4.56-0.224-0.763-0.045-1.522-0.107-2.284-0.158a298.331 298.331 0 0 1-26.068-2.904l-0.532-0.082a299.2 299.2 0 0 1-6.921-1.179c-23.257-4.25-45.905-11.244-67.634-20.825h-0.098c-42.691-18.839-81.872-47.71-115.259-85.564-63.454-71.945-98.4-167.645-98.4-269.473s34.946-197.528 98.4-269.473c63.281-71.747 147.359-111.261 236.747-111.261 89.389 0 173.467 39.514 236.747 111.261 63.455 71.945 98.4 167.645 98.4 269.473s-34.946 197.528-98.4 269.472z" fill="#4D83E7" p-id="8237"></path><path d="M733.392 420.32c-33.464-23.487-78.608-39.314-125.757-39.116-62.895 0.265-111.381 15.128-150.094 36.899-42.264 23.768-59.176 62.77-58.909 97.794 0.185 24.151 8.976 46.935 28.4 65.891 35.032 34.188 96.682 55.078 164.443 55.076 1.835 0 3.685-0.015 5.526-0.047l-0.004-0.261c3.776 0.168 7.571 0.262 11.387 0.262 47.149 0 91.544-12.935 125.008-36.421 34.063-23.906 52.822-55.882 52.822-90.04 0-34.155-18.759-66.131-52.822-90.037zM434.783 573.846c-17.504-17.083-24.89-36.608-25.053-58.034-0.238-31.19 14.823-60.769 48.12-83.288 10.855-7.341 36.59-20.987 48.241-23.298-10.911 4.531-19.278 8.68-22.717 11.093-34.062 23.906-49.676 55.882-49.676 90.039 0 34.157 15.613 66.133 49.676 90.04 6.798 4.771 21.005 12.287 28.637 16.167-30.796-7.49-59.775-25.687-77.228-42.719z m173.601 51.875c-91.937 0-163.588-51.751-163.588-115.362s71.65-115.362 163.588-115.362c91.937 0 166.733 51.751 166.733 115.362-0.001 63.611-74.797 115.362-166.733 115.362z" fill="#4D83E7" p-id="8238"></path></svg>