<?xml version="1.0" standalone="no"?><!DOCTYPE svg PUBLIC "-//W3C//DTD SVG 1.1//EN" "http://www.w3.org/Graphics/SVG/1.1/DTD/svg11.dtd"><svg t="1528169152874" class="icon" style="" viewBox="0 0 1024 1024" version="1.1" xmlns="http://www.w3.org/2000/svg" p-id="8366" xmlns:xlink="http://www.w3.org/1999/xlink" width="200" height="200"><defs><style type="text/css"></style></defs><path d="M895.655 350.179c-20.98-48.45-51.012-91.958-89.26-129.317-38.238-37.349-82.765-66.671-132.342-87.153-51.322-21.202-105.836-31.953-162.024-31.953-56.189 0-110.701 10.751-162.023 31.953-49.577 20.482-94.104 49.804-132.342 87.153-38.249 37.359-68.281 80.868-89.261 129.317-21.728 50.174-32.744 103.471-32.744 158.409 0 2.976 0.041 6.137 0.125 9.663l6.361 7.202 404.439 385.871 6.117 5.082 5.796-5.111L921.891 521.33l6.461-8.531c0.025-1.402 0.048-2.804 0.048-4.212 0-54.937-11.017-108.234-32.745-158.408z m-98.09-120.277c37.068 36.206 66.169 78.363 86.494 125.299 20.514 47.373 31.167 97.625 31.684 149.425-28.295-12.05-58.39-18.151-89.603-18.151-41.771 0-82.139 11.16-117.467 32.359 11.672-49.792 7.876-105.359-11.343-165.38-21.187-66.164-55.448-120.382-80.459-154.215-28.223-38.178-57.723-68.177-81.728-84.209 46.362 2.535 91.367 12.711 134.085 30.359 48.079 19.862 91.257 48.297 128.337 84.513z m-293.467-115.05c17.723 1.081 59.312 33.33 102.61 91.9 34.556 46.745 62.464 100.213 78.585 150.556 18.336 57.263 22.141 110.112 11.38 157.312-44.96-45.907-106.909-71.961-172.342-71.961-65.484 0-127.697 26.221-172.691 72.343-12.809-47.773-13.18-99.946-1.071-155.24 13.413-61.251 39.046-111.931 58.187-143.66 16.897-28.009 35.597-52.802 54.078-71.697 16.218-16.582 31.188-27.285 41.264-29.553z m188.454 413.777c-15.721 32.904-149.406 298.109-179.99 358.76L356.236 528.51c42.916-46.601 103.838-73.214 168.095-73.214 64.435 0 125.299 26.64 168.221 73.333z m-348.724 5.198l1.377 1.004 152.843 350.883-384.525-366.872c31.492-17.141 66.998-26.166 103.284-26.166 46.199 0 90.122 14.229 127.021 41.151z m358.119 4.379l4.037-2.71c35.466-23.802 77.015-36.384 120.156-36.384 29.024 0 57.014 5.593 83.365 16.614L528.307 884.234c36.2-71.792 151.337-300.256 173.64-346.028zM140 355.201c20.325-46.936 49.426-89.093 86.494-125.299 37.079-36.216 80.258-64.651 128.337-84.513 38.681-15.98 79.238-25.836 120.979-29.439-24.122 18.185-52.99 52.374-77.875 93.624-19.633 32.545-45.93 84.55-59.712 147.485-12.272 56.04-12.137 109.098 0.355 157.939-36.286-22.915-78.069-34.959-121.772-34.959-38.085 0-75.371 9.393-108.509 27.253 0.173-52.743 10.836-103.906 31.703-152.091z" fill="#4D83E7" p-id="8367"></path></svg>