<?xml version="1.0" standalone="no"?><!DOCTYPE svg PUBLIC "-//W3C//DTD SVG 1.1//EN" "http://www.w3.org/Graphics/SVG/1.1/DTD/svg11.dtd"><svg t="1528169171538" class="icon" style="" viewBox="0 0 1024 1024" version="1.1" xmlns="http://www.w3.org/2000/svg" p-id="8753" xmlns:xlink="http://www.w3.org/1999/xlink" width="200" height="200"><defs><style type="text/css"></style></defs><path d="M585.811 467.699a32.16 32.16 0 0 0 2.017 0.064c20.522 0 26.054-19.606 27.079-36.053 0.994-15.932-4.72-35.54-13.588-46.623-3.969-4.962-11.911-8.427-19.312-8.427-7.442 0-13.628 3.302-17.418 9.297-5.634 8.912-6.631 25.125-7.512 39.43l-0.115 1.864c-1.659 26.593 13.293 39.477 28.849 40.448z m-18.74-39.819l0.116-1.872c0.725-11.784 1.717-27.924 5.964-34.639 1.921-3.039 4.901-4.58 8.856-4.58 4.822 0 9.584 2.352 11.403 4.625 7.211 9.014 12.213 26.437 11.388 39.665-0.453 7.263-1.657 26.555-16.97 26.555-0.454 0-0.915-0.015-1.386-0.044-12.843-0.802-20.447-12.464-19.371-29.71z" fill="#4D83E7" p-id="8754"></path><path d="M890.896 236.896c-4.499-12.419-15.784-26.764-30.19-38.375-15.012-12.1-30.534-19.04-42.585-19.04-5.112 0-9.607 1.215-13.358 3.612-6.86 4.383-46.515 48.711-89.539 100.012-2.646-2.021-5.447-3.752-8.393-5.138-8.733-4.109-17.653-6.193-26.509-6.193-16.946 0-32.072 7.663-42.961 21.671-13.515-13.874-32.683-24.131-55.701-29.769-13.981-3.424-27.517-5.16-40.231-5.16-22.192 0-40.734 5.246-54.01 15.225-5.553-19.031-25.109-37.509-43.689-40.296a43.5 43.5 0 0 0-6.434-0.466c-31.99 0-74.155 32.744-77.761 70.959-1.753 18.585 3.873 36.063 15.842 49.214 10.695 11.752 25.241 18.574 40.016 18.797-14.382 27.388-52.802 109.046-65.799 140.137-9.694 23.191-15.957 46.643-18.721 69.434-59.609-88.248-114.932-202.188-125.52-259.665-2.151-11.675-14.141-18.37-32.897-18.37-25.418 0-46.901 11.041-56.105 21.3-5.922 6.6-8.604 14.213-7.757 22.016 6.144 56.543 42.192 142.321 96.43 229.457 55.04 88.426 118.971 163.221 175.919 205.919-5.342 16.238-10.287 37.013-12.401 49.287l-0.444 2.575 1.842 1.855c12.725 12.808 96.02 32.631 137.117 32.631 11.131 0 18.724-1.425 23.213-4.356l1.208-0.789 0.61-1.307c0.901-1.927 2.533-6.504 6.141-16.672 5.87-16.547 16.213-45.703 30.613-82.272 12.647-0.774 31.537-5.362 43.542-12.403 12.219-7.169 21.77-16.994 26.891-27.666 8.663-18.044 6.869-31.876 3.838-40.302-2.53-7.029-6.912-13.048-12.534-17.301 15.407-15.815 19.251-44.744 10.239-77.453a44.05 44.05 0 0 0 5.387 0.336c20.647 0 34.455-14.614 42.402-26.873 16.294-25.14 18.768-46.763 7.029-61.017 59.628-100.302 123.363-179.094 189.613-234.333 8.038-6.703 10.044-17.08 5.647-29.221zM528.68 842.014c-2.332 6.576-4.149 11.697-5.16 14.296-2.138 0.898-6.795 2.086-16.465 2.086-39.925 0-112.913-18.516-128.002-28.156 2.456-13.063 7.449-33.315 12.65-48.27l1.23-3.535-3.018-2.213C333.226 734.66 268.97 659.826 213.623 570.906c-53.472-85.908-88.971-170.095-94.959-225.199-0.536-4.932 1.222-9.695 5.226-14.157 9.324-10.393 29.75-17.936 48.566-17.936 15.542 0 22.038 5.205 22.935 10.076 5.444 29.551 22.244 74.052 47.306 125.303 25.122 51.374 55.904 104.005 86.808 148.449-1.046 21.083 1.02 41.39 6.284 60.149 11.816 42.102 38.456 73.828 75.013 89.331 26.052 11.045 66.418 18.466 100.447 18.466 13.985 0 32.814-1.26 48.455-6.701-14.614 37.07-25.093 66.609-31.024 83.327z m151.828-285.795c-6.653 10.262-18.164 22.526-34.958 22.11-12.759-0.312-40.27-7.924-45.619-11.354 0 0-8.779-3.836-13.833-8.869 9.106 14.909 26.613 24.088 44.707 29.103 9.773 31.235 5.054 63.287-11.206 75.031l-6.692 4.834 7.497 3.457c6.136 2.833 11.103 8.48 13.628 15.494 2.408 6.69 3.762 17.82-3.457 32.859-7.258 15.122-28.107 31.715-57.417 34.102 0.332-0.876 0.65-1.755 0.921-2.593l0.721-2.236 5.579-13.87-14.446 8.767c-11.494 6.973-30.403 10.658-54.683 10.658-32.614 0-71.148-7.049-95.889-17.541-33.226-14.089-56.467-43.419-68.329-81.736-10.625-34.322-11.132-71.8 11.468-138.629 13.319-39.387 64.002-138.82 69.491-146.627l6.807-9.682-11.636 2.163a38.588 38.588 0 0 1-7.031 0.644c-12.311 0-24.563-5.704-33.615-15.648-10.117-11.117-14.865-25.966-13.371-41.814 3.161-33.506 40.118-62.215 68.154-62.215 1.729 0 3.412 0.121 5.002 0.359 17.077 2.562 36.443 23.618 37.004 40.233l0.385 11.37 7.906-8.18c11.54-11.936 30.156-18.245 53.836-18.245 11.944 0 24.707 1.643 37.934 4.883 23.544 5.766 42.483 16.555 54.768 31.201l4.226 5.031 3.536-5.534c9.205-14.395 22.853-22.323 38.429-22.323 7.427 0 15.209 1.293 22.4 5.274 14.029 7.767 18.587 17.39 21.494 29 4.3 17.178 5.462 36.006-1.37 50.473-7.149 15.139-15.534 21.89-27.192 21.89-6.16 0-13.37-1.775-22.042-5.426 0 0-6.493-2.579-10.029-4.225 10.627 35.072-3.554 98.379-15.456 101.671-0.646 0.135-75.221-14.24-93.706-14.508l-0.161-0.001c-4.159 0-6.336 2.356-6.336 4.683 0 1.448 0.813 2.767 2.174 3.528 0.913 0.511 2.053 0.77 3.386 0.77 17.826 0 59.509 7.598 66.788 9.326 4.179 0.992 10.129 2.532 17.979 4.811s14.318 7.748 21.271 16.207c5.444 6.623 18.317 12.784 22.284 12.408 3.967-0.376 8.226-5.318 8.863-6.331 4.585 11.497 0.73 28.436-10.164 45.247z m198.253-297.881c-69.452 57.909-136.067 141.17-198.06 247.509-3.768-0.532-24.42-9.289-20.672-25.007 3.798-6.837 18.739-39.503 16.142-84.737 7.181 2.441 13.59 3.634 19.485 3.634 16.545 0 28.539-9.082 37.749-28.581 8.106-17.168 8.796-39.931 1.8-59.405-3.036-8.451-7.326-15.792-12.571-21.717 50.596-60.364 83.331-95.566 87.583-98.405 2.096-1.339 4.755-2.018 7.903-2.018 20.55 0 54.836 27.501 63.251 50.735 2.92 8.06 2.042 14.113-2.61 17.992z" fill="#4D83E7" p-id="8755"></path><path d="M612.533 395.64c3.644 3.032 22.076 8.668 31.305 8.37 6.642-0.214 16.972-7.698 12.356-7.443-8.35 0.463-44.275-5.351-48.051-8.329-1.843-1.452-0.26 3.533 4.39 7.402zM554.825 385.85c-3.87 2.977-40.505 9.767-49.121 9.229-4.763-0.298 4.459 7.145 11.313 7.145 9.526 0 29.61-5.898 33.343-8.931 4.763-3.871 6.353-8.895 4.465-7.443z" fill="#4D83E7" p-id="8756"></path></svg>