<?xml version="1.0" standalone="no"?><!DOCTYPE svg PUBLIC "-//W3C//DTD SVG 1.1//EN" "http://www.w3.org/Graphics/SVG/1.1/DTD/svg11.dtd"><svg t="1528169156954" class="icon" style="" viewBox="0 0 1024 1024" version="1.1" xmlns="http://www.w3.org/2000/svg" p-id="8495" xmlns:xlink="http://www.w3.org/1999/xlink" width="200" height="200"><defs><style type="text/css"></style></defs><path d="M688.264 679.5c-28.289-35.412-73.428-214.088-103.959-358.411 5.261-2.892 9.179-6.828 10.597-12.173 2.518-9.493 10.109-36.511 18.146-65.114 15.151-53.922 25.145-89.613 25.984-94.231 1.245-6.85-6.01-19.067-49.12-66.84l-2.571-2.852-0.016-0.017-0.061-0.063c-11.723-12.773-74.968-22.375-110.402-22.375-33.274 0-39.465 7.283-41.5 9.676-14.206 16.712-43.557 76.871-40.693 91.188 1.129 5.648 11.81 36.362 25.346 69.03a6.015 6.015 0 0 0 1.545 3.709c14.414 34.382 31.693 69.952 44.12 80.05a33.59 33.59 0 0 0 1.887 1.414c-9.916 57.292-50.954 295.72-58.516 360.8-4.093 35.225 6.104 96.976 26.612 161.155 21.172 66.258 47.415 116.944 70.2 135.586a5.999 5.999 0 0 0 9.768-5.254c-8.303-81.372 65.932-150.614 120.136-201.174 18.718-17.459 34.884-32.537 45.124-45.635 4.662-5.959 18.848-24.105 7.373-38.469zM583.303 305.839c-0.557 2.099-3.056 4.261-7.531 6.104a5.845 5.845 0 0 0-0.519 0.173c-7.631 3.013-19.552 4.672-33.566 4.672-1.285 0-2.575-0.017-3.866-0.043-0.36-0.008-0.72-0.014-1.081-0.023-0.336-0.009-0.673-0.021-1.01-0.031-0.583-0.019-1.166-0.038-1.748-0.062a71.657 71.657 0 0 1-0.463-0.02c-8.97-0.392-17.931-1.406-26.19-2.887 22.92-27.041 61.885-56.235 91.41-63.349-6.977 24.833-13.188 46.993-15.436 55.466zM444.504 74.873c0.474-0.558 5.41-5.448 32.357-5.448 31.881 0 69.005 6.44 88.533 12.537-4.302 1.791-9.109 4.147-14.429 7.089-14.319 7.918-30.855 19.326-46.563 32.12-21.043 17.141-57.212 50.328-77.822 90.306-10.835-26.928-19.142-50.526-20.139-55.507-1.153-8.173 22.407-62.678 38.063-81.097z m-11.76 151.606c18.243-42.168 57.277-78.117 79.236-96.004 31.617-25.753 58.849-39.57 68.198-40.618l0.825 0.915c35.833 39.708 44.964 53.101 46.104 57.223-1.534 6.833-14.153 51.781-24.732 89.432-32.014 4.982-80.047 37.531-108.172 73.39-5.682-1.534-10.689-3.302-14.684-5.23-0.127-0.062-0.249-0.125-0.374-0.187-0.304-0.15-0.603-0.3-0.894-0.452-0.313-0.164-0.617-0.33-0.917-0.496-1.573-0.87-2.953-1.767-4.085-2.687-10.421-8.466-26.643-42.26-40.505-75.286z m65.762 97.763c0.142 0.031 0.291 0.057 0.434 0.088a184.564 184.564 0 0 0 10.071 1.874 210.951 210.951 0 0 0 26.233 2.471c0.499 0.016 0.999 0.036 1.497 0.048 1.385 0.034 2.769 0.052 4.151 0.057 0.265 0.001 0.534 0.011 0.798 0.011a174 174 0 0 0 10.28-0.3c0.29-0.017 0.577-0.032 0.868-0.051l0.224-0.016c6.52-0.432 13.511-1.314 19.899-2.985a4837.423 4837.423 0 0 0 16.619 75.08c-17.667 3.576-49.122 23.05-74.55 43.15-34.812 27.517-56.489 53.074-69.9 73.255 13.122-79.686 27.622-163.986 33.602-198.573 6.629 2.681 13.819 4.596 19.774 5.891z m-77.535 350.435c2.727-23.465 9.846-69.687 18.287-121.815 0.105-0.194 0.213-0.387 0.298-0.596 17.622-43.203 59.513-80.686 82.915-99.184 31.917-25.229 59.344-39.139 69.785-40.977 6.554 28.22 14.173 59.835 22.294 91.229a2537.312 2537.312 0 0 0 10.991 41.132c-21.911 4.972-73.765 46.317-100.233 69.385-23.738 20.69-77.31 70.046-102.303 114.436-2.878-21.251-3.653-39.68-2.034-53.61z m206.61 80.155C575.018 803.861 504.234 869.89 502.999 949.93c-18.427-22.727-39.003-66.239-55.905-119.135-9.161-28.669-16.218-56.735-20.813-81.98 0.096-0.18 0.196-0.357 0.275-0.549 12.947-31.742 51.462-77.128 105.668-124.521 21.654-18.933 43.969-36.449 62.834-49.322 20.618-14.07 30.723-18.14 33.701-18.455 19.887 70.236 36.705 114.219 50.13 131.023 9.148 11.451-20.218 38.842-51.308 67.841z" fill="#4D83E7" p-id="8496"></path></svg>