<?xml version="1.0" standalone="no"?><!DOCTYPE svg PUBLIC "-//W3C//DTD SVG 1.1//EN" "http://www.w3.org/Graphics/SVG/1.1/DTD/svg11.dtd"><svg t="1528169165570" class="icon" style="" viewBox="0 0 1024 1024" version="1.1" xmlns="http://www.w3.org/2000/svg" p-id="8624" xmlns:xlink="http://www.w3.org/1999/xlink" width="200" height="200"><defs><style type="text/css"></style></defs><path d="M771.616 503.798c2.176 2.021 4.392 3.535 6.839 3.837l12.339 1.522-7.739-9.506c-1.422-2.823-2.318-16.482-3.041-27.477-0.941-14.344-2.009-30.602-4.636-42.272-6.038-26.828-16.197-49.977-29.378-66.946-7.159-9.217-15.027-16.305-23.379-21.151-7.762-10.119-26.715-25.858-31.931-26.946-5.083-1.06-15.044 2.573-19.978 5.958-7.348-6.753-15.332-13.002-19.488-12.54-4.588 0.51-11.2 4.658-15.054 8.533-31.478-78.994-53.626-108.336-104.876-133.431a21.45 21.45 0 0 0 7.311-3.173c7.309-4.952 11.752-11.386 13.206-19.125 2.026-10.785-1.849-23.363-11.519-37.383-8.242-11.95-19.426-18.531-31.49-18.531-7.104 0-14.073 2.313-20.154 6.69-2.517 1.812-4.809 4.129-6.891 6.98a33.615 33.615 0 0 0-1.948-4.29c-2.594-4.792-8.06-10.503-19.366-10.503-8.579 0-19.537 3.366-32.567 10.006-15.55 7.923-24.961 19.081-25.822 30.612-0.587 7.872 2.973 14.98 10.025 20.017 0.292 0.208 0.587 0.416 0.885 0.621-7.735 2.512-16.689 6.918-21.82 14.516-4.031 5.97-5.104 12.858-3.187 20.473 5.035 20.01 25.733 36.915 45.197 36.915 0.874 0 1.749-0.035 2.601-0.104 8.585-0.694 13.815-3.873 17.376-8.387 1.095 2.526 2.528 4.813 4.286 6.804 4.815 5.453 11.681 8.336 19.855 8.336 7.579 0 16.051-2.464 25.181-7.324 26.65-14.184 32.266-28.321 32.285-37.682a23.562 23.562 0 0 0-0.174-2.875c49.204 29.338 83.479 83.419 103.896 170.933 2.541 1.42 5.744 0.746 8.362-0.978-1.567 4.68-2.875 9.922-4.023 15.639-20.258-13.446-11.28-34.159-14.207-36.702-3.19-2.771-11.404 12.466-6.231 32.871 2.001 7.893 10.442 21.877 16.614 27.736-0.596 4.434-1.181 9.018-1.782 13.735-2.397 18.828-4.877 38.297-9.299 57.27-5.848 25.085-29.132 44.79-53.784 65.652-26.023 22.023-52.809 44.689-59.785 75.444-19.43-32.724-48.546-74.604-86.527-109.439-45.233-41.487-91.783-62.523-138.356-62.523-6.658 0-13.396 0.441-20.03 1.311-36.631 4.805-65.279 20.393-85.149 46.332-17.364 22.667-27.69 52.722-30.69 89.33-2.631 32.094 10.039 70.793 37.656 115.022 20.375 32.63 41.172 55.654 42.048 56.619l8.121 8.945 1.254-26.339c12.57 12.844 37.936 38.725 61.842 62.887 44.155 44.629 185.458 110.35 191.452 113.126l5.334 2.471 0.286-1.023-0.033 14.779 7.7-4.888c13.792-8.754 135.143-86.155 149.068-107.991 9.204-14.432 33.555-81.619 57.104-146.595 12.493-34.469 24.293-67.026 32.819-88.871 1.464-3.752 2.72-6.691 3.828-9.284 3.223-7.544 5.109-11.96 6.08-22.297 3.559 3.624 4.997 4.574 6.718 4.932l8.461 1.758-2.693-8.212c-1.881-5.731-0.621-22.085 0.299-34.026 0.297-3.861 0.533-7.084 0.699-9.798z m-273.86-276.096c-7.669 4.081-14.56 6.151-20.483 6.151-5.298 0-9.456-1.667-12.359-4.955-3.578-4.053-5.037-10.388-4.107-17.838a5 5 0 0 0-9.729-2.128c-4.378 13.83-6.534 17.424-16.129 18.199-0.585 0.047-1.189 0.071-1.795 0.071-13.297 0-31.146-12.056-35.5-29.355-1.209-4.806-0.628-8.874 1.777-12.436 5.129-7.597 17.684-11.776 27.722-13.155a5 5 0 0 0 1.522-9.443c-4.358-2.138-7.785-4.132-10.785-6.274-4.218-3.013-6.191-6.759-5.865-11.135 0.585-7.848 8.208-16.239 20.39-22.446 11.611-5.917 21.041-8.916 28.027-8.916 6.922 0 9.349 3.004 10.572 5.264 2.699 4.985 3.496 10.802 2.367 17.291a5 5 0 0 0 9.681 2.402c3.04-9.356 6.884-15.758 11.427-19.028 4.369-3.145 9.318-4.807 14.312-4.807 8.678 0 16.938 5.046 23.257 14.209 7.986 11.579 11.418 21.904 9.923 29.859-0.957 5.092-3.896 9.244-8.987 12.692-2.017 1.367-4.274 2.031-6.899 2.031h-0.001c-3.697 0-7.459-1.334-10.205-2.309-1.108-0.393-2.065-0.732-2.959-0.977a4.996 4.996 0 0 0-5.961 2.97 5 5 0 0 0 2.277 6.258c7.077 3.802 15.51 10.172 15.493 18.928-0.018 9.371-9.6 19.626-26.983 28.877z m190.636 100.023c1.403 0.758 3.818 3.512 6.111 6.399a54.611 54.611 0 0 0-9.431 0.93c-1.88-1.939-5.179-5.393-9.065-9.201 3.74-0.25 8.172-0.405 12.385 1.872z m-37.545 27.467c-4.272-11.528-8.319-22.208-12.215-32.146 3.412-1.127 7.833-2.991 12.821-0.296 2.765 1.494 12.275 14.878 15.07 18.867a84.21 84.21 0 0 0-5.477 3.112c-4.018 2.489-7.239 6.244-9.891 11.053-0.09-0.2-0.192-0.396-0.308-0.59z m117.447 131.892l-15.424-6.89 8.901 13.731c0.435 2.538-0.262 11.582-0.825 18.901-0.697 9.05-1.243 16.894-1.303 23.346-1.62-1.737-2.291-2.414-2.92-2.87l-7.653-5.55-0.28 9.449c-0.522 17.645-1.886 20.836-5.934 30.31-1.137 2.661-2.426 5.678-3.948 9.576-8.57 21.959-20.391 54.572-32.904 89.101-22.276 61.462-47.524 131.124-56.135 144.625-10.091 15.824-96.974 73.499-138.295 100.01l0.158-70.079-16.909 60.519c-26.589-12.614-145.036-69.984-183.221-108.579-33.31-33.668-69.46-70.678-69.821-71.047l-8.025-8.217-1.169 24.543c-20.741-25.362-73.81-96.461-69.047-154.564 4.252-51.882 26.298-115.955 107.173-126.562a144.664 144.664 0 0 1 18.729-1.226c43.991 0 88.267 20.151 131.597 59.892 42.345 38.839 73.5 86.785 92.179 120.169l9.363 16.734V633.23c0-34.394 29.48-59.342 57.989-83.468 24.81-20.996 50.464-42.706 57.062-71.017 4.539-19.471 7.164-40.087 9.48-58.276 3.935-30.9 7.651-60.086 19.198-67.24 9.766-6.049 19.432-9.116 28.729-9.116 30.847 0 58.551 34.536 70.581 87.984 2.455 10.908 3.495 26.752 4.413 40.731 0.434 6.591 0.81 11.932 1.213 16.272-1.009-0.901-1.948-1.567-2.952-2.016z" fill="#4D83E7" p-id="8625"></path></svg>