<svg version="1" id="图层_1" xmlns="http://www.w3.org/2000/svg" viewBox="0 0 300 300"><path class="st0" d="M169 15c3 15 22 20 32 9 14-15 39-1 33 18-5 15 9 29 24 24 19-6 33 19 18 33-11 10-6 29 9 32 20 5 20 33 0 38-15 3-20 22-9 32 15 14 1 39-18 33-15-5-29 9-24 24 6 19-19 33-33 18-10-11-29-6-32 9-5 20-33 20-38 0-3-15-22-20-32-9-14 15-39 1-33-18 5-15-9-29-24-24-19 6-33-19-18-33 11-10 6-29-9-32-20-5-20-33 0-38 15-3 20-22 9-32-15-14-1-39 18-33 15 5 29-9 24-24-6-19 19-33 33-18 10 11 29 6 32-9 5-20 33-20 38 0z"/></svg>