<svg version="1" id="图层_1" xmlns="http://www.w3.org/2000/svg" viewBox="0 0 300 59"><path class="st0" d="M290 21c-7-6-10-11-18-15-2-1-4-6-7-6s-8 5-8 7c0 5 10 8 13 10 3 4 8 5 11 10l3 2c1 8-7 10-11 14-3 3-9 5-11 11 2 1 3 5 6 5 3 1 6-4 9-6l15-13 7-6c4-6-6-11-9-13zm-8 23l-12 12-4-3 11-10c4-3 10-6 11-12s-4-7-7-10l-2-2-9-5-10-7 4-4 7 6 8 5c3 3 5 7 9 9l8 7c-2 7-9 10-14 14zm-8-9v-7c-5-3-10-1-15-1l-9-2h-1c1 3 0 5-1 8 5 4 20 4 26 2zm-21-7l18 1v4c-7 0-14 1-19-1l1-4zm-40-1v8l14 1c5 0 10 1 13-2l-1-7h-26zm3 6v-4l15 1c2 0 6-2 6 2-6 2-14 1-21 1zm-36-6l-1 8c8 3 16-1 24 1 3-1 2-6 2-8-7-2-18-1-25-1zm22 6h-19v-4l19 1v3zm-33-4c-6-3-20-2-26-1v7c2 2 7 2 11 2 7 0 12 0 15-2v-6zm-3 4l-20 1v-4c8 1 14-1 20 1v2zm-56-4c-1 2-3 3-2 7l1 2 24-2c1-2 2-6 1-9l-24 2zm21 4l-20 2v-3c7-2 13-1 20-1v2zM27 28L0 29c0 4-2 10 4 11l23-2c1-2 2-8 0-10zm-2 7c-7 2-16 1-22 1-1-1 0-4 1-5h21v4zm14-3v7h24c4-2 3-8 1-11-9 2-20 0-25 4zm23 5H42c-2-4 2-4 5-4 6-1 12-2 16-1l-1 5zm16-8l-4 2v7c3 3 11 0 19 0h7c2-2 2-6 1-9-7-1-17 2-23 0zm20 6l-21 1-1-3 23-1-1 3z"/></svg>