<?xml version="1.0" standalone="no"?><!DOCTYPE svg PUBLIC "-//W3C//DTD SVG 1.1//EN" "http://www.w3.org/Graphics/SVG/1.1/DTD/svg11.dtd"><svg t="1528165295513" class="icon" style="" viewBox="0 0 1024 1024" version="1.1" xmlns="http://www.w3.org/2000/svg" p-id="6842" xmlns:xlink="http://www.w3.org/1999/xlink" width="200" height="200"><defs><style type="text/css"></style></defs><path d="M708.85376 609.01376c0 2.0992-0.65536 4.1984-1.9968 5.96992-2.68288 3.56352-7.424 4.89472-11.5712 3.24608L571.52512 569.344l0 286.52544c0 5.4784-4.44416 9.92256-9.9328 9.92256l-99.18464 0c-5.46816 0-9.91232-4.44416-9.91232-9.92256L452.49536 569.344l-123.78112 48.88576c-4.13696 1.6384-8.87808 0.3072-11.56096-3.24608-2.69312-3.56352-2.68288-8.47872 0.06144-12.02176L504.13568 359.8336c1.88416-2.44736 4.78208-3.87072 7.86432-3.87072s5.9904 1.42336 7.86432 3.87072l186.9312 243.12832C708.15744 604.74368 708.85376 606.88384 708.85376 609.01376zM512 158.208c-46.32576 0-83.88608 37.56032-83.88608 83.87584 0 46.336 37.56032 83.89632 83.88608 83.89632s83.89632-37.56032 83.89632-83.89632C595.89632 195.76832 558.32576 158.208 512 158.208z" p-id="6843"></path></svg>