<svg version="1" id="图层_1" xmlns="http://www.w3.org/2000/svg" viewBox="0 0 300 131"><path class="st0" d="M300 61c-2 6-9 7-13 9-13 5-27 13-40 19-8 4-17 7-23 13-15 5-27 15-41 22-4 2-8 6-13 7-3-6 2-10 4-14 8-11 18-21 25-33-27 7-56 7-86 12l-19 2-5 2c-13 3-26 3-38 5l-34 8c-6 1-11 5-17 3 0-5 6-8 8-12l17-23 7-12c1-2 3-3 3-5a991 991 0 0 0-24-42c-2-4-6-9-6-14 7-1 16 0 23 2l59 11 28 5 18 3c23 3 45 11 68 14-6-15-18-27-25-42l1-1c37 14 66 34 100 51l14 7c3 1 7 1 9 3zM29 24l1-3c-1-1-2-2-4-1 0 2 1 3 3 4zm3 5l5-8c-3 0-7 6-5 8zm172-3l2-3c-2-1-4-3-5-2 2 1 1 4 3 5zM35 36c3-5 7-8 9-14l-4-1c-1 5-10 10-5 15zm14-13c-4 6-16 12-10 19l13-19h-3zm7 2c-5 6-12 11-15 21l2 1 13-18c1-1 4-2 3-4h-3zm8 1c-1 3-4 4-6 6l-7 11-2 2-1 3c-3 4-5 4-2 8 8-9 15-20 22-30h-4zm143 5c1-2 3-2 3-5-2 1-5 3-3 5zM73 27c-10 9-17 21-25 33 2 1 2 3 5 3 7-13 18-23 27-34l-7-2zm135 7c0 3 2 3 2 5 4-1 6-4 8-7-3-5-8-1-10 2zM85 30c-2 1-3 4-6 3L62 54c-3 3-4 8-6 11l-8 8-20 25c5-1 7-5 10-9 4-3 6-8 9-11l5-4 8-11c10-11 20-22 28-33h-3zm8 1L37 97l8-1c17-23 38-42 55-64l-7-1zm11 2c-1 4-5 5-7 7L84 57C74 70 60 80 52 93h5l17-22 22-25c3-4 8-7 10-13h-2zm-6 14l-6 10-14 16-8 8-2 6c-1 2-5 3-5 6 7-2 12-9 17-15l11-15 12-13 13-15c-4 1-5-1-7-1 1 4-8 9-11 13zm115-4c-1 2 1 3 2 4l10-10c-3-6-12 5-12 6zm-97-3L74 91l3-1 46-53-4-1c2 3-1 4-3 4zm11-1c-5 3-8 8-13 12-8 15-22 23-30 38 6 0 7-6 10-8l8-7c7-8 12-18 21-24 1-5 6-7 8-11h-4zm73 33l6-1 20-26c1-2 4-3 4-6-13 8-20 22-30 33zm-63-32c-7 4-11 9-15 15L95 87h4c10-15 24-25 33-41 2-1 6-4 5-6zm5 2l-11 11c-5 5-8 12-12 17l-6 5-8 11h5l2-4c11-8 18-22 27-32 2-3 6-4 7-8h-4zm92 0c-6 5-10 12-15 17l-1 4c-1 2-7 6-4 8 8-7 16-17 23-26 0-2-1-2-3-3zm-83 2l-16 16c-3 4-5 9-9 13-3 4-8 7-10 12 9 0 10-7 14-12l18-21 5-8h-2zm0 8c-7 12-18 21-23 33 10-5 13-18 23-24 3-6 9-10 12-15-7-2-8 4-12 6zm91-5c-6 4-8 11-13 16-3 4-9 6-10 12-11 8-19 21-27 33 16-15 28-33 43-49 2-5 8-7 8-12h-1zm-74 0c-12 10-23 25-32 37l5-1c9-13 20-23 29-36h-2zm8 1c-11 10-20 22-30 34 5 0 7-6 10-9l21-25h-1zm-22 33l4-1c4-7 9-12 15-17 2-6 10-9 11-14-13 8-19 22-30 32zm94-30c-17 15-29 35-45 52 8-2 10-9 14-13 11-13 23-26 32-39h-1zm-84 28c4-1 7-5 10-8l13-15c1-1 4-3 3-5-11 8-19 17-26 28zm31-26c-8 7-17 16-22 25l6-1 20-24h-4zm2 6c-3 6-10 12-13 18l8-2c6-7 13-13 18-21-7-1-8 4-13 5zm52 0c-5 4-9 9-12 15-3 2-6 6-7 9l25-28c-2-2-4 1-6 4zm10-1c-10 8-17 19-26 28 13-6 19-19 28-28h-2zm-8 18l3-1c2-6 10-9 11-14-5 4-10 9-14 15zm15-9c1 1 5-1 5-3l-1-1-4 4zm-45 26c3-2 7-6 7-9l-7 9z"/></svg>