<svg version="1" id="图层_1" xmlns="http://www.w3.org/2000/svg" viewBox="0 0 294 300"><path class="st0" d="M219 166c-8 8-12 21-26 24-1-17 6-39 2-60-33-4-81-5-110-4-3 55-4 120 3 173-9 3-23-1-36-2-14-2-29-2-40-5-1-78-7-164-12-238 59 0 131 2 199 5-3-18-3-41-7-57l3-2 1 1c14 5 23 19 34 30l44 43c4 5 20 17 20 22 0 2-7 10-10 13l-13 11c-9 9-19 14-27 21-9 8-15 19-25 25zm-6-95c-7 3-15 1-22 0h-23c-50-2-104-7-153-3 11 35 5 74 6 114l2 34c1 22-1 44 3 65 14 1 32 3 44 1 2-12-1-24-1-37-2-46 9-91 2-129 47-5 100-2 141 1 3 16-5 29-6 47 22-21 44-47 68-68-12-9-22-21-33-33l-17-16c-5-7-10-15-17-19 4 13 1 32 6 43z"/></svg>