<svg version="1" id="图层_1" xmlns="http://www.w3.org/2000/svg" viewBox="0 0 192 300"><path class="st0" d="M27 93v0zm43 10h-2c1 6-1 17-1 22 5-6 2-13 3-22zm-32 91l-1 13 2 1c1-5 3-12-1-14zm155 33c-3 1-2-3-4-3l-3 3c1-2 2-4 0-6-2 0-4 2-5 3l-4-6h-4l-30-28-19-18c-3-2-5-7-5-12l-4-1-1 5c-3-2-5-4-9-5-2 6 6 8 8 13 3 9-3 17-2 28H89c0-1 3-1 3-3-2-2-4 0-6 0-1-7-2-17 0-23-2-6-2-16-2-22l2-35c0-1-2 0-2-2-1-20 2-38 2-56 0-11-4-21-1-32 4 1 5-1 7-3-2-2-4-4-7-4 3 0 2-1 2-2-3 0-2-7-1-9-2 0-2-2-3-3-2 1-1 4-2 5-2-1-3 0-4 1 1-2 0-3-2-2l-1 8c-3-1 0-7-3-7l-4 8-45-2c1-3-2-3-1-6h-3l-2-6c-3 1-1 4-3 5-3-2 2-10-4-9-1 2-2 8-1 14-2-1-6-2-6 1 2 2 4 1 5 2l-3 1c1 3-1 3-2 6l6 1c-1 5 3 12-1 15 1-3 0-9-3-10 0 3 2 7 1 11l-2 8 2 7v31c-1 5-4 16 2 17 2-5-1-19 2-28 4 22 1 54 3 76h-1c1 9 2 22 1 32 0 3 2-3 1 1l-2 6c2 1 2 8 0 9l2 1c-3 3-1 10 0 16 1 16-3 32 2 44-3 0-3 3-5 4-2 0-10-1-10 4 4 0 11-3 15-1 2 8 0 13 2 19 5-2-1-13 5-16l1 7c6-1 0-9 7-8 1 3 0 7 2 7 4-1 3-4 2-8 21-3 36 2 59 1l1 2 15-1c0 8 3 20-1 24l1 3c2 2 5-1 7 1 2-3 2-6 6-7 1 0 0 3 2 3 3-1 2-3 2-6 11-16 29-25 42-39 1-4 5-6 8-8 1 1 2 3 5 3 1-3 0-4-1-7l3-3c2 2 5 5 8 4-1-3-4-3-4-8 2-2 5-2 6-5zM9 56l1 20c-2-7-2-12-1-20zm114 125c-1 7 2 15 0 20 0-8-2-15-3-22l3 2zm-6 25c-1 1-6 1-6-1l6 1zM79 37v5-5zm-1 148h1l-1 11h-3v-8c1-1 3-1 3-3zm-1-65l1 50c-4-17-3-31-1-50zm-2-43c2 8 1 19 0 27-2-9 0-19 0-27zm-1-33c1 5 1 12-1 17-1-5 0-12 1-17zm-2 38c2 2 0 6 1 11-2-2-2-8-1-11zm-4-13c1-1 1 4 1 5-1 1 0-4-1-5zm0 6c2 0 2 6 0 6v-6zM19 217c5 5 0 17 2 24-3-6 0-16-2-24zm1 30c3-1 3 5 1 5s0-4-1-5zm2 15l-1-4h2l-1 4zm7-11l-3 1c0-3-1-7 4-6l-1 5zm5 8l9 1c-1 2-8 2-9-1zm84 28l-1-16 4-2c0 4-1 13-3 18zm-1-27v-3c-1-1-4 0-4-2-4 1-2 4-3 8-16 1-39 3-56 0h27l-5-1c5-2 20-1 29-2 0-2-2-1-2-3-16-1-39 1-59-1 2-2-1-2 0-4-4 0-6 1-10-1 1-5-5-7-5-11h-4c3-7 0-16 3-24 4 5 1 16 1 21 5 0 3-8 6-10 0-9-1-19 1-26l-3-4c1-8 1-19-3-25-4 4-3 10-3 16 0 10 1 21-1 29l-2-39c0-11 5-24 0-30-4 2-1 6-1 9l-2 60c-5-8-2-38-3-53l-1-30-1-18a648 648 0 0 1 0-89c0 27 3 57 2 82l3-1 2 5c3 1 1-2 4-1V97l-1 9c-2-3-2-7-2-11 2-22-7-44-3-70l5-1c2 0 0 1 1 2l4 1c0 3-5 1-5 4 7 2 17 1 27 4 2-2 1-4 2-6l-9-2c6-1 17-2 23 1 1 4-2 5-3 7 1 5 3 10 3 17 0 1-2 1-2 3-2 17 1 35 1 47 3-2-1-15 1-19 2 10 1 25 5 36 0 2-2 0-3 2-2 21 1 45-3 68l3 1v7c-4 1-8 0-10 2 0 3 5 1 2 4l10 2-1 12c1 0 2-2 2 0 2-2 2-6 2-10 3 1 3 4 6 5l5-5 9 1h4-4c-3 0-7 0-6 3 8 1 23 5 32 2 0-2-4-1-6-1 0-2 2-2 5-2l2-5c2-1 1 2 4 1 3-4-1-14 2-20-1-2-1 0-2 1v-4l27 26c-7-3-11-10-18-12l-3 1 18 18c5 5 12 8 13 16-9 9-20 14-26 26-6 2-15 3-21 2zm-87-83c2 4 2 7 2 14-1-5-5-9-2-14zm98 100c8-8 16-17 25-23-6 8-15 17-25 23zm27-25l15-15 1 2c-5 5-10 10-16 13z"/></svg>