<svg version="1" id="图层_1" xmlns="http://www.w3.org/2000/svg" viewBox="0 0 300 205"><path class="st0" d="M211 115c-2-2 0-6 1-8l6-24c-11-3-25-2-38-3-29-2-64 0-88 0-11 0-23-1-33 4-1 9 1 18 1 28l1 31c1 20 10 40 10 57-5 3-12 0-18 0l-17 1-17 1c-6 1-12 3-19 3-1-23 1-46 2-70 1-15 4-29 4-44 1-21-3-42-4-63l49 1 43 2 42 2c29-1 57-1 84-3l-5-29 1-1h1l63 42 11 7c2 2 9 6 9 8 0 3-7 7-10 9l-11 7-57 35c-3 3-6 6-11 7zm21-78c1-4 0-10 2-13-1-1-1-2-3-2l1 15zm6-7c0-2 2-1 2-2-1 0-1-2-3-1l1 3zm1 46c1-16 5-29 8-42l-6-4c0 16-4 31-2 46zm10-32c0 5 3-5 2-6l-2 6zM42 60c-9-7-18-13-25-21h-5c7 10 21 15 30 21zM22 40c5 2 8 8 12 9-4-2-7-10-12-9zm38 32c-8-11-15-22-25-29v-3l-5-1 30 33zm-6-17l-8-14h-2c2 5 5 12 10 14zm2-6l-2-8h-3l5 8zm199 3c0-4 2-9 1-11 0 4-2 8-1 11zM61 48c0-2 0-5-2-6l2 6zm16 13l-2-19h-4c2 6 2 15 6 19zm6 0c1-6-2-14-1-19h-3c1 7 1 15 4 19zm130-9l1-9-1-1v10zM87 46v0l1-3h-2l1 3zm8 2v-5h-1l1 5zm110-4c1 1 0 12 1 7l2-8c-2-1-2 0-3 1zM105 64c0-6-2-13-1-21h-4l5 21zm127 1c1-7 3-15 2-22-2 7-3 15-2 22zm-119-4l-2-17h-5c5 3 4 12 7 17zm7-1c-1-7-1-12-3-16 1 7 0 12 3 16zm74-16c4 2 1 12 3 17l2-18c-1 2-4 0-5 1zm-62 16V44h-5c3 5 2 12 5 16zm54 4l2-20h-1c-2 5-2 14-1 20zm-45-8l-1-12h-2l3 12zm15-10l1 10 1 2c0 1 0 1 0 0V45h-2v1zm18 2v-4l-2 1 2 3zm5 5l2-9h-3l1 9zm-33-3c0 6 2-5 0-5-2 1 0 3 0 5zm23 10c0-7 1-11-1-15-3 4-2 11 1 15zm91 0l2-14-1-1c0 6-2 10-1 15zM22 59l19 9-27-21v6c4 2 6 3 8 6zm139 10c1-5 4-17 0-22v22zm-70 0h5l-5-21v21zm116 4h3c-2-9 1-19-1-25-1 8-3 16-2 25zm-25-4l-2 2h4c-2-8-1-14-2-23-1 7-2 14 0 21zm84-7c0-4 2-10 1-12 0 5-2 8-1 12zm-140-8v-4 4zm122 18c-1 5 0 9-4 10l-2-2c3-8 4-19 3-27l-5 34 9-6c0-11 3-21 3-31-2 7-4 15-4 22zm-114-3h6l-4-18c-1 7 0 14-2 18zm-66 2l4-1-7-18 3 19zm41-3h2c-1-4-1-10-4-14l2 14zm163-11c2 1 1-4 0-2v2zm-57 16c2-3 2-12 0-18 1 6-3 14 0 18zm13-6V55c-1 4-2 9 0 12zm-128 1h2c-1-3-1-9-3-11l1 11zm45-7l-1-4c0 2 0 5 1 4zm49 11c1-4 0-11-1-15 0 4-4 13 1 15zm59 6c2 0 2-2 3-3V57c0 7-3 13-3 21zM128 68h4l-5-10 1 10zm24 2c-1-5 0-8-2-12 1 4 0 9 2 12zM16 64c6 2 13 7 21 7-8-4-14-9-22-12l1 5zm159 7h3c-2-4-1-9-3-12v12zm93-3c4 1 1-5 1-8l-1 8zm-101 3c1-4-1-7-2-10 0 4-2 9 2 10zm-86-6l-2-2c1 1 0 2 2 2zm64 5l2-1c-1-1 0-5-2-6v7zm-28-2l2 1-2-5v4zm81 4c3-1 2-6 1-8l-1 8zm-74-4l-1-4 1 4zm137 6c2-1 2-5 0-6v6zM15 74c7 3 16 4 24 4l-24-9v5zm218 18c6-2 1-13 3-21l-1-1c0 8-3 15-2 22zm-7 4l3-1c0-6 2-15 1-21l-4 22zM50 79c-3-2-7-4-10-3 3 0 8 4 10 3zm-35 3l19 4c-6-3-14-4-19-6v2zm35 4c0-4-6-3-9-3-4-1-9-3-12-2l21 5zm-23 6c3 0 7 2 9 1-8-1-14-4-21-6-1 5 7 4 12 5zm3-4c-3 0 0 1 1 1l18 3c-5-2-13-4-19-4zM15 99h20l-20-5v5zm28-2h1c1 0 5 2 5 0h-6zm1 6h0zm-29 0l-1 5c8-2 19-1 29-2-9-2-20-2-28-3zm12 7h15c2 0 6 2 6 0-5-1-16-2-21 0zm-12 1l-1 1c10 3 22 3 33 2-12 0-21-2-32-3zm20 7c3 0 10 2 14 0H35zm-20 1v1c7 1 16 3 24 1-9 0-18-3-24-2zm17 6l10 1c2 0 6 1 7-1H32zm-17 2c7 0 12 2 21 1-8-1-15-1-21-4v3zm12 4c6 1 15 2 22 1-6-2-16 0-22-1zm-12 2c6 1 16 3 24 1l-25-2 1 1zm34 5l-21-1c6 2 15 3 21 1zm-34 2c10 2 19 2 27 2 5-1 0-1-1-1l-26-2v1zm29 5c2 0 5 2 6 0h-6zm-30 3c13 0 21 2 32 0-10-2-21-1-32-3v3zm22 4c1 0 8 0 7-1H27l9 1zm-22 1c0 2 4 1 5 0h-5zm17 1c3 0 10 2 13 0H31zm21 4h-3 3zm1 6c0-3-3-2-4-1-6-1-15-2-22-1 7 1 18 3 26 2zm-40 4c12 0 23 1 34-1-10 0-22-2-33-4l-1 5zm23 3c6 1 13 2 19 0H36zm-23 1v3c7 1 18 0 25-1l-25-2zm30 6H29c9 0 20 2 27 0-2-3-8 0-13 0zm-31 1v4c8 1 19 0 26-1-10 0-18-3-26-3zm9 7c11-1 27 1 35-3-9 1-24 1-35 3zm-9 2c2 2 10 0 11 0H12zm37 2l10 1c0-4-7-1-10-1z"/></svg>