<svg version="1" id="图层_1" xmlns="http://www.w3.org/2000/svg" viewBox="0 0 300 142"><path class="st0" d="M299 123c-2 1-4 1-5 3-3-1-5-2-6-4-25-8-54-22-82-32-6-2-24-5-24-12-1-4 9-7 13-9 6-4 12-8 16-13a58 58 0 0 0-52-9l-16 6-8 2c-11 5-20 15-29 24-3 4-8 8-10 12-8 14-13 29-21 41 0 6-1 9-5 10-4 0-9-11-11-16-4-10-5-21-9-26-16-2-37 4-50 3 1-18 14-30 25-41 10-10 18-19 30-28 7-6 14-10 23-13 16-7 36-12 55-14 15-2 38 3 54 7 15 4 28 11 38 17 6-9 7-23 14-31 8-1 8 5 12 7l44 91c3 8 7 16 4 25zm-67-80c-7 9-12-2-17-6-17-13-39-17-65-18l-20-2c-13 0-27 5-38 8-33 12-56 39-75 68l20-3c6-1 16-3 21-1 3 2 5 11 7 15 2 5 3 10 6 13 7-17 15-33 25-46 10-8 21-18 34-25 19-12 50-16 76-6 6 3 12 7 16 13-3 11-18 16-27 24l39 11c17 4 33 12 47 13-9-30-24-57-40-83l-9 25z"/></svg>