<svg version="1" id="图层_1" xmlns="http://www.w3.org/2000/svg" viewBox="0 0 300 93"><path class="st0" d="M250 28l-9-7c-2-2-7-5-6-9s11-3 16-4c8 0 18-3 27-4 8-2 16-4 22-4 1 12-3 23-5 35l-3 14c0 5 1 12-3 16-7-2-7-11-13-13-9 6-16 14-26 20l-29 16c-16 7-46 6-63-1l-10-4-10-4-20-7a82 82 0 0 0-69 10c-3 3-9 10-13 9-2 0-4-4-6-7l-8-14L9 48c-2-2-9-11-9-14 0-4 9-11 12-13 9-8 18-13 31-16 7-2 14-5 23-5 16 1 29 3 41 8l5 3 18 10 12 8 5 2 15 8c12 6 23 10 38 9 14 0 22-3 32-10 6-4 13-5 18-10zm0-7c2 1 7 4 7 7 0 4-7 8-10 10l-12 8c-3 0-5 2-8 3a89 89 0 0 1-81-12l-19-10-18-11c-7-3-14-7-21-8-11-2-21-1-30 0-10 3-20 5-29 10l-10 8c-2 1-9 6-9 9l3 6 18 29 8 11 3-2 2-2c9-5 19-10 29-12l10-4c11-2 23 1 32 4 23 7 42 19 70 20h23c7 0 13-4 19-7 13-7 24-13 34-22 5-4 9-10 14-13 5 3 7 7 11 11 2-16 8-30 8-47-16 4-36 4-52 6l8 8z"/><path class="st0" d="M262 32c-2-5-8-8-10-12 1-2 7-3 11-3 7-1 15-2 22-1 0 8 1 21-2 29-4-1-7-5-11-7-4 2-7 6-11 10-3 4-8 6-10 10l-9 7c-10 5-20 10-33 13-2 1 1 2-1 3-2 0-1-2-3-2-9 2-19 3-29 1l-10-3-12-2c-3-1-6-4-10-4-5-5-16-10-27-13-25-7-58-3-73 11v3c-4 0-6-5-7-7L21 36c14-11 32-20 55-21 17-1 32 10 44 17l12 6 8 6 10 4c15 7 27 13 48 12 26-1 51-12 64-28zm17-8l2 2c1-2 1-6-1-7l-1 5zM60 23l7 4c1-3 4-4 3-7-3 0-9 0-10 3zm17-1l1-1-3-1c0 2 1 2 2 2zm190 1c2 0 2 2 3 2l1-5c-3 0-4 0-4 3zm10-1v-2h-1l1 2zM79 24l5 3 1-4c-1-2-6-2-6 1zm180-2c2 1 3 4 5 4v-2c-1-1-3-4-5-2zM93 26l1-3-5-1c0 2 3 2 4 4zm-24 2c0 1 1 2 3 2l4-6c-3-4-6 1-7 4zm203-2l4 3 1-4c-1-1-2-3-4-3l-1 4zM48 30l4 2 5-8c-4 0-8 2-9 6zm38-2l4 3 2-4-5-3-1 4zm-32 5l6 2c3-1 4-4 6-7-3 0-5-2-8-3l-4 8zm40-6l7 5 2-4c-3-1-7-5-9-1zm-21 5l5 2 4-6-5-3-4 7zm192 6c3-1 4-6 5-10l-3-2-2 12zm13-8l2 2 1-4-2-1-1 3zM45 28l2-1-2 1zm46 4l5 5 4-4-7-4c0 1-2 1-2 3zm-54 2l4 2 4-6c-4-3-7 2-8 4zm66-1l4 3 3-5c-3-2-6-2-7 2zm-40 3l3 1 4-5-3-2-4 6zm21-6l-4 5c1 2 2 3 5 4 0-3 3-4 3-7l-4-2zm187 3c2-1 3 1 4 2l1-3-4-2c0 1-2 2-1 3zM43 37l5 2 3-6c-4-3-7 1-8 4zm65 1l5 3c4-3 2-5-2-8 0 2-3 3-3 5zm-36-5l-4 6 5 2c1-2 3-3 3-5l-4-3zm14 7l6 4 3-6-5-4-4 6zm-37 0c2 0 5 3 8 2l2-6-7-2-3 6zm-21-2c1 0 1 3 3 3l3-6c-3-1-5 1-6 3zm252 1c0-3-1-4-2-5-1 3 0 4 2 5zM99 38l4 2 2-3-4-2c0 1-2 1-2 3zm-67 5c2 0 2 2 4 1l4-6-4-2-4 7zm87-6c1 2 3 2 5 3 1-2-3-3-4-4l-1 1zm144 1v-2c-1 1-2 2 0 2zM78 37l-3 5 6 1 2-2-5-4zm-20 6l4 2 3-6c-4-3-6 1-7 4zm-20 2l5 2 3-7c-4-3-6 1-8 5zm76-2l6 4 2-5-5-3-3 4zm148 0c1-2 0-4-2-4l-3 5c-1 1-3 2-2 3l7-4zM93 45l5 4 4-7-5-3-4 6zm18-2l-5-4c-3 3 4 9 5 4zm-47 3l5 1 3-4-5-3-3 6zm62-5c0 2 2 4 4 5 0-1 2-1 2-3-3 0-4-3-6-2zm-81 6l6 2 3-5-6-3-3 6zm37-3l5 3c2 0 3-1 3-2-2-2-6-5-8-1zm-11 5l4 1 4-5-6-1-2 5zm29 1h5c2 0 3-1 3-3-1-1-3-3-5-3l-3 6zm21-2l4 4 4-4c-2-2-3-4-5-4-1 1-3 2-3 4zm-68 2l5 1 2-5-4-1-3 5zm58-3l5 4 2-2-5-4-2 2zm20 1l5 4 2-4c-2-2-5-4-7 0zm-96 0v-2h-2l2 2zm44 1l5-1-3-2c-1 1-3 2-2 3zm12-1c0 1 2 2 4 1l-4-3v2zm155 5l2 1c1-2 4-3 4-7l-1-1-5 7zM35 51c1 1 2 2 5 2 0-2 2-2 2-5-4-1-7-1-7 3zm25 1c3 2 7 0 7-3-3-2-6-1-7 3zm48-1l7 2-5-4-2 2zm-67 3l5 2 3-5-6-2-2 5zm97-1l4 5 3-5c-2 0-1-2-1-3-3-2-5 0-6 3zm-11 1l5 4 3-4c-2-2-3-4-5-4l-3 4zm-9-1l4 3 2-2c-2-1-5-5-6-1zm-67-1l-3 4c4 2 8 0 11-2-4 0-5-3-8-2zm187 4c-1 3 1 3 2 4l3-7-5 3zm-86 0l1-1-4-2c0 2 2 2 3 3zm91 3l4-3-2-2c-1 2-3 4-2 5zm-109-1c1 3 3 3 5 4 0-1 2-1 2-3l-5-4-2 3zm10 1l4 4 3-5c-3-2-6-4-7 1zM41 62c2-1 3-3 3-5l-4-1c-2 2 1 4 1 6zm84-5l4 1-3-2-1 1zm29 1l5 4 2-4c-3 0-7-4-7 0zM45 61l4-3h-2c-1 1-2 1-2 3zm182-1c0 2 2 3 3 5l4-7-7 2zm6 6l5-5c-1 0-1-2-3-2 0 2-3 5-2 7zm-69-7l-4 5 5 4 3-4-4-5zm-15 5c3 0 4 4 5 4 2 0 2-2 3-4l-5-4-3 4zm-8 0l5 2v-1c0-3-4-5-5-1zm77-1l2 4c1-2 3-3 3-5l-5 1zm-42 4l2-3-6-2c0 2 2 5 4 5zm46 2c2 0 5 0 7-2-1-2-2-4-4-4-1 2-3 3-3 6zm-13-4l3 3c1-2 3-2 3-4l-6 1zm-31 3l2 5c2-1 3-3 3-5s-1-2-2-3l-3 3zm8-3h-2 2zm-16 0l-4 5c2 2 3 4 6 5l2-6-4-4zm35 11c4 0 4-4 6-6-2-1-2-4-5-5-4 2-7 8-1 11zm-19-8l4 5 4-7c-4-1-6-1-8 2zm27 2c2 4 6 1 6-1-1-1-1-3-3-3 0 2-2 3-3 4zm-63-3c-1 0-2-2-3 0h3zm50 2l2-3h-4c0 2 1 3 2 3zm-43 1l6 2c0-3-2-4-4-6l-2 4zm34 5c2 6 8-2 8-3l-4-4-4 7zm-9-1c0 4 6 5 6 0l-3-4-3 4zm-8 1l5 1c-1-2-1-4-3-5l-2 4zm37-1l2-1-1-1-1 2zm-13 2h4l-2-3-2 3z"/></svg>