<svg version="1" id="图层_1" xmlns="http://www.w3.org/2000/svg" viewBox="0 0 300 147"><path class="st0" d="M173 3c1-1 0-3 2-3l2 3c18 3 33 12 45 25h4l-1 2 17 17h3c1 1-1 2-1 3h4l-1 3c6 5 12 12 16 18h2v3l8 10c4-3 7-11 11-16 2-3 5-6 8-5 9 21 8 44 7 66l1 2c-3 4-1 8 0 14-3-1-1 1-2 1-3 1-4 0-5-2-23-9-40-26-57-44 4-6 14-2 22-5-5-7-10-15-17-20l-17-13-3-3c-9-7-19-13-30-16l-2 1c-8-6-24 2-28 7-10 14 3 44 0 62-3 16-18 27-38 22-2 0 0 2-2 2l-2-3c-14-2-27-6-38-11h-3c-4-6-12-7-18-13-1 1-2 2-3 1-2-5-8-7-12-11-1 2-4 3-6 2 0-3 2-3 2-4L27 85h-2l-1-3c-5-3-7-10-13-12 0-5-6-6-7-11 0-2-2-2-2-3-1-6-3-11-1-16 9-12 33-13 42-4 3 4 5 12 10 15 1 1-1 2-1 3 7 15 17 23 25 36h3v3c4 5 10 9 15 13h2c1 5 5 6 8 6v2c10 4 29 8 36-3l-2-4h4c1-8 0-18-3-28l-4-7c-2-4-1-9-2-13l-5-15c-3-21 7-36 34-40 0-2 6 0 10-1zM24 45h-1L9 48c0-1-2 0-2-2 5-5 16-6 21-12-11 1-28 5-21 19 7-1 11-5 17-8zm-8-1c9-1 13-4 21-6-5-6-15 4-21 6zm148-23c-2-3-1-4-2-7h-2l4 7zm-16-3l7 8c-2-2-2-7-3-10l-4 2zm19 20c-4-9-7-17-13-22 2 10 6 16 13 22zm6 0c1-9-4-16-7-24h-1c-1 9 6 17 8 24zm-1-22v-4l-3 1 3 3zm8 15c1-6 3-11 3-17l-6-1 3 18zM18 52c8-3 18-4 25-8l-3-4c-9 3-15 7-22 12zm124-27c3 2 7 7 11 7l-8-11c-2 0-3 2-3 4zm44 2l3-12h-3v12zm-12 0c0-4-1-8-4-9 1 4 1 6 4 9zm-20 3c3 4 7 10 10 10l-3-5c-4-3-8-10-12-11l5 6zm36 7c2-2 3-6 4-9l2-11h-4l-2 20zm-31 4c-4-6-11-10-17-14 5 6 12 9 17 14zm36-3c4-5 6-11 8-18l-5-1-3 19zM9 56l2 4 21-10c-8 2-15 5-23 6zm9 4l28-8-2-4-26 12zm118-25l6 4-6-6v2zm18 10c-4-4-10-10-15-12 5 4 9 10 15 12zm50-6l6-14-3-3c-2 5-4 12-3 17zm-67 1l6 6c3 2 7 3 7 7-6-1-8-7-15-6 3 7 10 9 16 12 0-4 2-6 3-10-6-3-11-9-18-11l1 2zM45 55l-19 9c0 1-2 0-1 1l23-7c0-2-1-3-3-3zm138-21v-4 4zM14 64l1 2 14-6c-4 2-12 1-15 4zm172-27c2-1 2-5 1-6 0 2-2 4-1 6zm24 4l7-13-4-2c-1 5-4 10-3 15zm-71 3l-4-3c-1 3 2 4 4 3zm59-4l2 1c0-3 3-7 1-9 0 3-2 5-3 8zM19 69c0 2 2 4 4 5 3-6 15-7 21-12l-25 7zm12 3c7-3 15-3 22-7-2 0-2-3-3-3L31 72zm183-27l6-13s0-2-1-1c-2 4-5 9-5 14zm-58 2c1-1 3-2 1-2 0 2-2 0-3 0l2 2zm49-4c2-1 2-5 2-6 0 2-3 4-2 6zm14 5c2-4 6-7 7-11l-2-2c-2 4-5 9-5 13zM26 78c6-1 11-4 16-7l-17 5c1-1 0 0-1-1 0 2 1 2 2 3zm12 1l18-6-1-3c-7 2-12 6-17 9zm185-28l8-10-2-1-6 11zm-73 12c-4-2-7-5-12-6 3 4 8 6 12 6zm65-14l2-5c-1 2-4 4-2 5zM32 83l5 5 19-13-24 8zm27-6L43 87c7-1 12-4 19-7l-3-3zm172-25l4-6c-1 0-1-2-2-1 0 2-3 5-2 7zm-7 4c2-1 3-4 3-5 0 2-3 2-3 5zm9 3l6-7-2-3-4 10zm-87 12l-5-3c0 4 3 3 5 3zM56 86l-1-1c-4 3-10 4-14 6 1 1 2 3 4 3l11-8zm7-2l-8 5c-3 2-7 5-8 8l20-9c-1-2-2-4-4-4zm165-26l1 1 1-3-2 2zm-74 21c-2-5-7-6-12-6 3 4 7 5 12 6zM65 94l5-2c-1-2-4 1-5 2zm79-13h8c-4-1-7-4-9-3l1 3zm98-16l5-4c0-2-1-2-2-3l-3 7zM50 98l1 2c3-2 6-3 7-6l-8 4zm187-34l2 2c0-2 2-4 1-6l-3 4zM55 102c1 2 3 2 5 3 3-4 9-7 12-10-5 1-13 4-17 7zm192-32l5-4-2-3c-1 2-5 5-3 7zM66 104l9-6-1-1c-2 2-8 4-8 7zm176-35c2 0 2-1 2-2l-2 2zM69 108c5-1 7-4 11-5-3-6-8 3-11 5zm183-34l5-4c-3-4-5 1-5 4zm-96 17v-2h-4l4 2zm91-18l1 1v-2l-1 1zM65 108c1 1 2-1 2-2l-2 2zm5 3l5 4c0-3 5-7 3-8-1 2-5 3-8 4zm10 0l5-4c-2-4-4 2-5 4zm76-14l-1-4-7 1c2 2 5 3 8 3zm101-21l3-2c-2-1-3 1-3 2zm3 5c1-1 3-1 3-3l-3 3zM78 117c3 0 4-3 6-5-2 1-5 2-6 5zm177-36l1 1c0-1 2-2 0-2l-1 1zm31-3c1-1 4-2 3-3l-3 3zM84 120l7 2c-1-4 2-6 3-9l-2-1c-2 3-7 4-8 8zm73-16l-1-4-4 1c0 2 3 2 5 3zm126-24l3-2c-2 0-2 2-3 2zm-20 7l4-3-1-2-3 5zM95 119l3-3-2-2c0 1-2 4-1 5zm194-40l-12 10c-3 2-6 4-6 6l11-7c3-2 8-4 8-9h-1zm-133 31c0-2-1-2-3-2l3 2zm112-21s3-2 1-2c1 1-2 2-1 2zM99 125c3-1 4-3 5-6-3-1-4 4-5 6zm-6-2l3 1 2-4-5 3zm197-38l-17 15c7-3 11-9 19-12-1-1 0-3-2-3zm-136 31l1-4h-7c1 2 4 2 6 4zm-51 11h2v-3l-2 3zm11 1l2-4-3-1c1 2-1 4 1 5zm-5 0h2l-1-3c0 1-2 2-1 3zm169-25l14-8v-4c-5 4-11 8-14 12zm-31 0c3-2 9-3 14-3-2-3-5 0-7 0-4 1-7-1-10 1 1 1 1 2 3 2zm25-6v-1l-19 14 2 1 17-14zm-156 33h3v-4c-1-1-2 2-3 4zm7 1h3c1-3-1-5-3-5v5zm26-6v-2c-1 0-3-2-5-1 2 1 3 3 5 3zm-20 6h4c-1-2-2-5-4-6v6zm12-2l3-1c-1-2-2-2-4-2l1 3zm132-14c7-4 12-9 19-12l-1-5-18 17zm-11 0l-1-3c5-2 9-6 13-10l-17 12 7 5 13-12 4-3-19 11zm15 4l12-7c2-1 1 2 3 1s1-4 0-7l-15 13zm-10 2l2 2 11-10-13 8zm26-5c-3 1-8 4-10 7 3-1 6-6 8-2l-5 5c3 0 5-3 8-3l-1-7zm-13 5l-8 4 2 2 6-6zm-3 8c2 1 3-1 4-2l-4 2zm5 3l2 1c-1-1 2-2 0-3l-2 2zm4 2c0 2 3 1 4 1-1-2 1-2 1-4-2 1-3 3-5 3z"/></svg>