<svg version="1" id="图层_1" xmlns="http://www.w3.org/2000/svg" viewBox="0 0 300 105"><path class="st0" d="M61 102l16-24 4-8c3-4 7-9 9-14-9-13-17-28-25-43l-3-6c-1-2-4-3-4-6 9-3 22 3 34 0 2 1 2 4 3 5l8 11 1 3 4 4 6 14c3 6 8 11 10 18-2 6-6 12-10 18l-11 18c-1 3-5 10-8 11H73c-5 0-9 1-12-1zm4-97c9 18 20 34 30 50-4 5-5 10-8 15-5 11-15 19-20 30h25l5-5 5-8 6-9c4-7 9-14 12-23-3-4-8-8-10-14l-4-11-8-13-8-13H66l-1 1zM212 101h-21c-5 0-8 2-11-1 7-9 14-23 21-35 4-5 9-9 6-15-3-5-7-8-9-13L175 7V2c-1 0 0 0 0 0h1l14 1c9-1 19-3 24 3l2 4 2 3 1 3 8 15 9 14c1 3 5 6 5 8l-2 5c-9 14-17 30-27 43zM180 7h1c4 2 4 6 7 9 5 8 12 16 16 24l5 7 6 8c0 2-3 5-5 7l-23 36 23-1c3-6 7-11 9-17 7-7 12-17 18-26-10-15-17-33-28-47-11 1-20-2-29 0z"/><path class="st0" d="M66 53c-1 6-6 12-10 18L42 94c-3 5-5 8-9 11-3-2-9-1-14 0-5 0-11-2-16-1l-3-2c1-5 6-7 7-12 4-2 5-7 7-10l2-2 3-6 3-4 7-12c-5-12-13-22-18-35l-2-2v-3c0-1-3 0-3-2 1-3-4-6-4-11 9-2 19-2 29-1 1-1 1-2 2-1 12 16 21 36 33 52zM25 6l3 1 1-2c-2 1-3-1-4 1zM10 6c0 2 3 1 3 0h-3zm5 0c1 2 3 1 4 0h-4zM9 9L7 8l2 1zm10 0l3 1 2-1c-1-1-5-3-5 0zm-2 1c1 0 3 2 4 1-2 0-4-3-4-1zm7 1c2 0 2 1 3 2l3-2c-1-3-5-2-6 0zm-13 1l1-2-2-1 1 3zm1 1l4 2 2-2c-2-2-4-2-6 0zm13 0l-3-1c0 1 3 3 3 1zm5 0l3 2s2 0 2-2c-2-2-4 0-5 0zm-12 2c0 2 3 2 4 1-1-3-3-2-4-1zm-6 2l2-2c-2 1-1-1-3-1l1 3zm19 0c-1-2-2-2-4-2l4 2zm3 0c1 0 2-1 1-2l-1 2zm-19 0l3 1c-1-1-2-2-3-1zm7 1l3 2 3-2c-2-1-5-3-6 0zm5 3c2 0 3 0 4-2l-4 2zm8-1l3 1c0-1-2-3-3-1zm-5 3l4 1c5-2-3-5-4-1zm-14-1l4 2 2-1c-2-1-5-4-6-1zm20 3c1 0 3 2 4 0-1-1-4-2-4 0zm-12 2l5 1 1-2c-2 0-5-2-6 1zm13 0h-2 2zm5 2l-1-2 1 2h-2 2zm-12 0l3 1 2-1c-2-1-4-2-5 0zm-3 0l-5-1c1 1 5 3 5 1zm4 3l-3-2c0 2 2 1 3 2zm4 0c1 1 3 1 4-1-1-1-4-1-4 1zm-12 1l1-1-3-2c0 2 1 3 2 3zm16 1c1 1 3 0 3-1s-3-1-3 1zm-7-1c1 0 2 2 3 1-1 0-2-3-3-1zm-8 1c1 1 3 0 3-1l-3 1zm4 2l4 1 2-1-4-2-2 2zm15 0l4 1c-1-2-3-3-4-1zm-10 2l2 1c-1-2 1-1 1-2-1-1-3 0-3 1zm11 0l-3-2c0 2 2 2 3 2zm3 0h2s-1-2-2 0zm-22 1l3 1 2-2c-2 0-5-2-5 1zm11 0l3 2 2-2c-2-1-4-2-5 0zm9 0c0 1 2 2 3 1l-3-1zm-15 2l3-1-2-1-1 2zm1 2c2 2 4 1 6-1-2-2-5-2-6 1zm9-2c2 1 3 2 5 1-1-1-3-2-5-1zm10 1l2 1c0-1-2-3-2-1zm-15 3c3 1 5 1 6-1-2-2-5-1-6 1zm10-1l3 2 1-1c0-2-3-2-4-1zm-15 1c0 2 1 1 2 0h-2zm11 2l2 2 3-2c-2-2-4-2-5 0zm8 0l3 1 1-2c-1 0-3-1-4 1zm-17 0c1 0 2 2 4 1-1-1-3-2-4-1zm13 3c1 1 4 0 4-1-1-2-3-1-4 1zm-8-1c1 1 4 3 4 1-1 0-2-2-4-1zm18 0l3 1c-1 0-2-2-3-1zm-19 4l3-1-3-2v3zm13-1c2 1 6 2 7-1-3-1-6-1-7 1zm-7 0h2c0-1-2-2-2 0zm13 2l2 2 4-1c-2-3-5-3-6-1zm-17 0c1 1 4 2 4 0-1-2-2-1-4 0zm8 0c1 0 3 3 4 1-1 0-3-3-4-1zm-4 3c2 1 5 2 6-1l-4-1-2 2zm-8 1c1 1 2-1 4-1-1-2-4-1-4 1zm17-2c-1 1 1 2 3 3l1-2c-1 0-3-2-4-1zm-4 3c1 2 4 3 5 1-1-2-3-3-5-1zm-9 1c1 2 4 0 4-1-1-1-4 0-4 1zm18 1l2 1 1-2c-1-1-3 0-3 1zm-15 1l4 2 3-1c-1-2-6-3-7-1zm-8 1l3 1 2-2c-2-1-4-1-5 1zm20-1l1 1h2l-2-2-1 1zm-16 3l3 2c2 0 2-1 3-2-2-1-5-3-6 0zm10 0c0 3 3 1 4-1-2-1-2 2-4 1zm-18 0c0 1 3 3 4 0h-4zm21 3c1 1 3-1 4-2-1-1-4 1-4 2zm-17 0c1 1 3 2 5 0-1 0-4-3-5 0zm10 1l3-1c-1-2-3-1-3 1zm-17 2l4-3c-2-2-4 1-4 3zm2 1c2 1 4 0 6-1-1-3-5-2-6 1zm18-2c1 1 3 1 3-1l-3 1zm-7 1h2c0-2-2-1-2 0zm3 2c1 1 3 0 3-1-2-1-3-1-3 1zm-9 1c2 1 4 0 5-1 0-2-4 0-5 1zm-9 0l2 1 1-1h-3zm21 1c1 1 3 0 3-1-1-1-3 0-3 1zm-8 1c1 1 2-1 4-1-1-2-3 0-4 1zm-9 1l2 1 2-2c-2-1-3 0-4 1zm-6 1l2-2h-1l-1 2zm18-1c1 2 4 0 4-1-1-1-3 0-4 1zm-8 2l4-2c-2-1-4 1-4 2zm-8 1l3-2-3 2zm11 1h1c2 1 2-1 3-1 0-3-3 0-4 1zm-9 0c2 1 4 0 5-1-1-1-4 0-5 1zm12 1l3 2 2-3c-2-2-3 1-5 1zm-15-1h-2 2zm8 2c1 1 3 1 4-1-2-1-4 0-4 1zm-8 0l2 1 1-2-3 1zm-4 1l1-1-1-1v2zm15 1l3 1 2-1c-1-1-4-2-5 0zm-13 1l2-2c-1-1-4 0-2 2zm6-1l2 2 2-2h-4zm-3 2l2 1 1-1c-1 0-3-2-3 0zm6 1c2 1 3 0 4-1-1-1-3-1-4 1zm-14 0l3-1-2-1-1 2zm3 3l2 1 2-2c-1-2-3-1-4 1zm11 0c0-2-1-2-2-2 0 1 0 2 2 2zm4 0l3 1v-2c0-2-2-1-3 1zm-11 2h1c1 0 2 0 3-2-2-1-3 0-4 2zm-7-1l2 2 2-2h-4zm15 0l4 1c-1-1-3-3-4-1zm-4 3c1 1 4 1 5-1-2-1-4-1-5 1zm-15-1c0 1 3 3 4 1-1 0-2-2-4-1zm7 1h4c0-2-4-2-4 0zm12 2l2 2 1-3c-1-1-2 0-3 1zm-7 0h3c0-1-3-2-3 0zm-12 1l1-1-3-1 2 2zm4-1c1 1 3 1 3-1h-2l-1 1zm-3 2c1 1 2 0 2-1l-2 1zm7 0h3-3zm8-1c0 2 1 2 3 2l-3-2zm-21 3l3-2-1-1-2 3zm17 0l2-1h-1l-1 1zm-7 0h3c0-1-2-2-3 0zM147 2l14 17 16 26c2 3 5 5 5 8 1 3-3 6-1 9-4 0-7 5-6 7-3 0-5 5-4 8l-2-1-12 19v2c-3 0-4 3-6 5l-27 1c-3 1-6 1-7-1l7-10 1-1 2-5c3-3 6-4 7-9l9-9v-2l5-5c3-4 5-7 1-11-2 0-1 2-2 1v-2L115 4c3-2 6-1 10-1l22-1zm-2 4c-1 1 1 2 2 2h1c-1-1-2-3-3-2zm-3 1l-2-1 2 1zm-17 2l-4-2c0 1 3 4 4 2zm6-2l2 1c1-2-2-2-2-1zm14 2l-2-2 2 2zm-11 1c1 0 2 2 3 0-1 0-2-2-3 0zm6 0l3 1c1 0-3-3-3-1zm-15 2c2 0 3 0 3-2-1-1-4 0-3 2zm13 0c0 1 0 2 2 2l1-2h-3zm-4 1l-2-1 2 1zm-6 2h4c-1-3-4-4-4 0zm19-1l-3-1c1 1 2 2 3 1zm4-1c-1 1 1 1 1 1l-1-1zm-16 2h3l-3-2v2zm6 0c2 0 3 3 4 0-1-1-3-3-4 0zm7 0l3 2c-1-2-2-3-3-2zm-13 2l-2-1c-1 1 1 1 2 1zm3-1c1 1 3 3 4 2 0-1-2-3-4-2zm8 2l2 1 1-2c-1 0-3-1-3 1zm-11 1l2 2c1 0 3 0 3-2l-4-2-1 2zm17 0c1 0 3 2 3 0-1-1-2-2-3 0zm-8 2l2-1c-2-3-5 0-2 1zm9 0c0-1-2-1-1-2h-3c1 2 2 3 4 2zm-20-1v2l3 1 1-1c-1-1-3-3-4-2zm22 1c1 0 1 2 3 1 0-1-2-1-1-2l-2 1zm-15 1h3c0-2-2-2-3 0zm5 0l2 2 3-2h-5zm11 1l-2-2c-1 2 1 3 2 2zm-19 2l3-1c-1-1-3-1-3 1zm9 0c-1 0-1-2-3-2 0 2 3 2 3 2zm3 0c2 1 3 1 4-1-1-1-4 0-4 1zm8-1l2 1-2-1zm-17 2c2 1 4 3 4 0-1 0-3-2-4 0zm22 2l-1-2c-1 1 1 2 1 2zm-9-1l2 2c0-1 2 0 2-2h-4zm-8 2c1 1 2 1 2-1-1-1-2 0-2 1zm-7-1v1h4c0-1-3-2-4-1zm18 2c2 0 2 2 3 2l2-2-3-2-2 2zm-4 1c-1-1-4-3-5 0 1 1 5 2 5 0zm-10 1l2-2c-1 0-2 0-2 2zm2 2c2 0 4 2 5 0-1-2-5-3-5 0zm14-1l-2-1 2 1zm-6 1h3l-2-2-1 2zm9-1h4-4zm0 2l-2-1 2 1zm6 1l-2-2c-1 1 1 3 2 2zm-18 0l1 1 3-1c-1-1-3-2-4 0zm-4 1v-1l-2-1 2 2zm13 0l-2-2 2 2zm6 0c1-1-1-1-2-1l2 1zm-12 1c0 2 4 2 5 0h-5zm-7 1c2 0 3 1 4-1l-3-1c1 1-1 1-1 2zm25 1l-4-1c1 1 3 2 4 1zm-14 0c0 3 3 1 4 0-2-2-2 0-4 0zm-7 0l2 2 1-1c0-1-2-2-3-1zm10 3l3 3c1-1 3-1 3-3-2-1-4-2-6 0zm-10 0l-1-1c0 1 0 2 1 1zm3 1l3-1c-1-1-3-1-3 1zm-2 1h2-2zm13 2c2 0 2 2 3 1l3-2c-2-2-4-1-6 1zm-8-2l4 3 1-2c-1-1-2-2-5-1zm-2 3c1 1 3 3 4 0l-4-2v2zm7 1c1 1 4 2 4 0-1-1-3-2-4 0zm7 1c1 1 4 0 5-2-2-1-4 1-5 2zm-10 0c1 1 3 3 4 1-1-1-3-2-4-1zm14 2l2 1 3-1c-1-3-4-2-5 0zm-6 0h2c0-1-2-2-2 0zm-9 2l1-1-3-1 2 2zm5-1h4-4zm10 1l-4-1c1 1 3 3 4 1zm4 1l2 2 2-4-4 2zm-19 2c2 1 4-1 5-2-2-2-4 0-5 2zm8-1l3 1 1-1c0-1-3-3-4 0zm-5 2l3 2 2-2c-1-2-4-2-5 0zm16 1c0-2-2-3-3-2l3 2zm-7 0c1 0 3 2 4 0 0-2-3-2-4 0zm-14-1l1 1h1l-2-1zm2 1c1 2 3 4 4 2l-4-2zm7 2l3 2 2-1c0-3-3-3-5-1zm10 0l1 1 1-2-2 1zm-17 2l-2-2 2 2zm5 0l2 2c0-1 2 0 1-2h-3zm-10 1l1 1 2-1c-1-1-2-2-3 0zm17 0l2 2 3-2c-2-1-4-2-5 0zm-7 2l-3-2c0 2 2 3 3 2zm3 0c1 1 3 2 5 1-1-2-4-3-5-1zm-16 1h1l-1-2v2zm6-1c0 2 3 3 4 1-1-1-3-2-4-1zm7 1l3 3 1-1-3-2h-1zm-11 3l2 1 2-1c-1-2-3-3-4 0zm8-1c0 1 2 4 4 2 0-2-2-2-3-3l-1 1zm-11 3h3l-2-2-1 2zm7 0c0 1 4 3 5 0l-3-1-2 1zm11 0l2 1 1-2-3 1zm-2 2l2-1-1-1-1 2zm-20-1c-1 1 0 2 1 2l2-1-3-1zm7 1l4 2 1-1c0-2-4-3-5-1zm9 2l3-1-1-1-2 2zm-14 0c1 1 3 1 3 3l3-2c-2-1-3-3-6-1zm-4 2l2-1-2-1v2zm15 0c2 0 3-1 1-2l-1 2zm5-1l2 1c1-1 2 0 1-1h-3zm-19 2c1 2 3 2 5 1-1-2-4-4-5-1zm16 0l4 2c1-2-3-4-4-2zm-7 2c2 0 2-1 3-2-1-1-3 0-3 2zm-13 1c1 2 4 2 5 0-2-1-4-3-5 0zm15 0c1 1 4 1 5-1-2-2-4 0-5 1zm-6 1l3-2-3 2zm-13 4v-1c1-2 3 0 4-1l-2-2c-1 1-5 4-2 4zm15-3c1 2 4 1 4 0h-4zm-7 2l4-2c-2-1-3 1-4 2zm7 0c0-2-4 0-5 1 1 3 5 1 5-1zm4 0c0 2 1 2 2 3 0-1 2-1 2-3h-4zm-15 2c1 0 3 0 3-2l-3 2zm10 2c1 2 3 1 6 0-1-3-4-2-6 0zm-7 0c1 0 2 0 1 1 2 0 2-1 3-2-1-1-3-2-4 1zm-6-1h2-2zm-2 2h0zm5 0c0 2 2 2 3 0h-3zm7 1l2 1h1c0-2-2-2-3-1zm-10 0c0 2 2 2 3 2-1-2-2-2-3-2zm-6 1h3c0-2-3-1-3 0zm13 1c1 1 3 2 3 0h-3zm6 0c1 0 0 2 2 1l1-1h-3zm-17 1l2 2 2-2c-1-2-2-1-4 0zm-3 0l-1-1 1 1zm14 2c1-2-1-2-3-2l3 2zm3-1l3 2c3-2-2-5-3-2zm-16 0c0 2 2 2 3 1-1 0-2-2-3-1zm6 2c1 2 3 1 5 0-1-2-3-1-5 0zm12 0h-3c1 0 2 2 3 0zm-19 0h-2 2zm-6 3h4c0-3-3-1-4 0zM300 52c-2 6-6 9-9 14v2h-2l-22 35-27-1c0-1-2-1-2-3 11-13 19-30 28-44-2-4-4-10-8-12 0-3-2-6-4-7l-6-9-6-9-6-6c-1-2-3-5-2-8 7 0 20 1 27-1l5 2 30 44 4 3zm-36-42c0-1-1-3-3-3 0 2 2 3 3 3zm-20 2c0-3-3-4-5-4 2 2 2 4 5 4zm5-2l3 1 1-2c-1-1-4-2-4 1zm9-2l1 1-1-1zm4 3l-2-1c1 1 1 2 2 1zm-8 1l2 1 1-2-2-1c0 1-2 1-1 2zm-9 1l3 2 2-2-3-2-2 2zm19-1l4 2c-1-2-2-2-4-2zm-7 2l2 1 1-2c-1-1-3-1-3 1zm-6 2v1c2 0 2-1 3-3l-2-1c0 2-2 2-1 3zm10 1h3v-1l-2-1-1 2zm-15 0c0-2-1-1-2-2 0 1 1 3 2 2zm8 1l1 1 2-3c-2-1-3 0-3 2zm14 2l1-2-3-1c-2 1-1 3 2 3zm-20-2h3-3zm12 3l2-2-3-1c-1 1-1 3 1 3zm-11 0c1-1-2-2-2-1l2 1zm12 1c2 0 2 2 3 2l2-3c-2-1-4-1-5 1zm9-1l1 1h2c1 0 0 2 2 2-1-2-4-6-5-3zm-20 3l2-2-2-1v3zm8-1c-1-1-1-2-2-1l2 1zm8 2l3 1 1-2-3-1-1 2zm-13 0l2 1 2-2c-2-1-4-1-4 1zm9 0s-2-2-3-1c1 0 3 3 3 1zm-3 4l1-2c-2-3-5 1-1 2zm12-3v1l2-1h-2zm-4 2c0-1-2-2-3-1l3 1zm7 1l3 1 1-1c-1-1-3-2-4 0zm-13 1l3 1 1-2c-1-1-4-1-4 1zm7-1h2-2zm-14 1c1 1 3 3 4 0l-4-1v1zm18 2l2 1 1-2c-1 0-3-1-3 1zm-7 1h2l1-2c-1 0-3 0-3 2zm-3 0l-3-1c-1 2 3 3 3 1zm7 2c1 0 3 1 4-1-2 0-2-1-3-2l-1 3zm6-1c1 1 2 0 2-1-1-1-2 0-2 1zm-18 1c1 1 2 3 3 0-1 0-2-2-3 0zm6 0v1l2-1h-2zm16 1c1 1 2-1 1-1s-2 0-1 1zm-6 1l2-2-2 2zm-3 0l-4-1c1 2 3 3 4 1zm-9 0l1 1c1-1-1-2-1-1zm20 0c1 0 2 2 3 1-1 0-2-2-3-1zm-5 1l1 1 1-1h-2zm-6 2l2-2-2 2zm-6 0l2 1 1-1c-1-1-3-2-3 0zm15 0l1 1 2-1-2-1-1 1zm-6 0c0 2 2 2 2 1l-2-1zm10 3l3 1 1-2c-2-1-3-2-4 1zm-7 0c1 0 1 2 3 1 0-2-2-2-2-2l-1 1zm-12 1c1-1-1-3-1-2l1 2zm6 0l2 1 1-2-3-1v2zm17 2l3 1v-1l-2-2-1 2zm-7 0l3 1 1-1c-1-1-4-3-4 0zm-7 0l2 1 1-2c-1 0-3-1-3 1zm-6 1l2 1 1-2c-2-1-3 0-3 1zm10 1l3 2 1-2-3-1c1 1 0 0-1 1zm7 0c1 0 2 2 3 1 0-1-2-3-3-1zm-14 2l2 1 2-2c-1-1-4-2-4 1zm11 1l3 1 1-2c-1 0-3-1-4 1zm-7 1l2 1 2-2-2-1-2 2zm15-1l2 2 1-2h-3zm-19 2l1-1-3-2 2 3zm8 1l2 1 2-1-3-2-1 2zm8 0h3l-2-2-1 2zm8 1l1-2c-3-1-3 1-1 2zm-22 0l3-1c-1-1-3-1-3 1zm18 0c0 2 2 2 2 1-1 0-1-2-2-1zm-15 2l3 1 1-2c-1 0-4-2-4 1zm7 0l1 1 3-2c-1-1-3 0-4 1zm-13 3l1-2-1-1v3zm16-1l2 1 2-2c-1-1-3-1-4 1zm-10 1l-2-2 2 2zm5 0h2l-1-2-1 2zm-9 1l1 1 2-1c-1-2-3-2-3 0zm14 2l1-1-3-2c-1 1 1 3 2 3zm-8-2l2 1-2-1zm-3 3c1 1 3 0 3-1-1-1-3 0-3 1zm-4 1v-2c-2-1-3 1 0 2zm13 0l-3-2 3 2zm-6 1l2 2 2-2c-1-1-4-3-4 0zm-9 0c-1-1-2-2-4-1 1 1 3 3 4 1zm4 1h2l-1-2c-1 1-2 1-1 2zm2 1c1 1 3 4 4 1l-3-2-1 1zm-5 1c1 1 2 0 3-1h-2l-1 1zm-6 1l2-1-2-1v2zm19-1l1 1 1-1-1-1-1 1zm-10 2c1 0 2 2 4 0l-4-2v2zm-6 1h1l2-1c-1-1-3-1-3 1zm13 0l2-1-2 1zm-11 2l3 2 1-2c-1-2-3-2-4 0zm-6 1c1 1 3 0 3-2h-1l-2 2zm14-2l1 1 1-1h-2zm3 3l1-2c-1 0-2 1-1 2zm-15 1c3 1 4 2 5-1-1-1-3-1-5 1zm8 0c2 0 2-1 3-2l-3 2zm3 2h2c1-3-2-2-2 0zm-5 1l2-2c-1-1-3 1-2 2zm-5 0c0-2-2-1-1-2h-2l3 2zm6 1l2 1 2-2-2-1-2 2zm-9 2l1-2-3-1c-2 1 1 2 2 3zm4-2l2 1v-1h-2zm-6 3l-3-2c-2 2 2 4 3 2zm9-1c1 0 1 2 2 1l-2-2v1zm-3 1l-1-1c-2 1-1 3 1 1zm0 2l1 1 2-2c-1-1-2-1-3 1zm-12 0c2 2 3-1 1-1l-1 1zm6 1l1 1 2-2c-1-1-2 0-3 1zm3 2l1 1c1-1 2-1 2-3l-3 2zm-9 1l-2-2 2 2zm6-1l-2-1c-1 2 1 2 2 1zm6 3l2 1 1-3c-1-1-2 0-3 2zm-5-1l2 1c0-2-1-2-2-1zm-6 1c1 0 2 1 2-1l-1-1-1 2zm9 2h3c0-1-3-3-3 0zm-11-1c0 1 1 2 2 0h-2zm5 1c1 1 2 2 2 0s-2-2-2 0zm3 2c2 0 2 2 3 2l2-2-4-2-1 2zm-12 0l1 1 2-2c-1-2-3 0-3 1zm6 0h3c-1-1-3-2-3 0zm-3 2h4l-3-2-1 2zm7 1h3c0-2-2-2-2-3l-1 3zm-15 0h5c0-3-3-1-4-2l-1 2z"/></svg>