<svg version="1" id="图层_1" xmlns="http://www.w3.org/2000/svg" viewBox="0 0 198 300"><path class="st0" d="M70 299c-1-16 1-40 3-57-1-1-2 2-3 2-16-6-41-2-60-4l-7-1c-1-12 2-22 1-34l-3-18c-1-15 1-31 1-47 2-28-5-58 0-83 26-2 53 0 78 2 3-21 2-38 0-58 6-5 14 9 19 14 14 18 25 39 38 57 19 27 38 50 54 71l6 2c-1 3 2 4 1 5-15 19-29 38-45 55-3 8-9 13-15 20l-9 13c-8 8-17 16-25 26l-11 13-10 16c-6-1-4 10-13 6zM90 67c-27 6-55-4-80 0 4 57 2 105 3 164 20-3 47 3 67 0 6 11 3 33 1 47 6-2 8-9 11-14 18-17 30-38 46-57 15-19 31-37 45-57l-22-26-11-17c-4-5-9-10-12-16-14-23-27-50-46-66 0 13 3 33-2 42z"/><path class="st0" d="M95 246c-6-7-4-13-4-25-15 2-29 2-45 2-9-1-18 1-25-2 0-48-1-97 1-146 22-4 57 0 79 1 1-7-5-14 0-17 6 0 12 9 16 16 9 14 15 28 24 43l3 4 4 3 1 4 16 22c1 9-10 19-17 26l-18 23-26 36c-2 3-3 10-9 10zm9-163h-7l-13 17-17 16-7 11-5 2-10 11-10 10c-2 2-9 10-9 12v7c6-3 7-10 13-11 1-5 4-7 8-8 20-26 44-47 64-73l-4-5c0 5-1 9-3 11zm-78-4l-1 10c4-3 8-6 10-10h-9zm0 16c0 2-2 5 0 8l22-24c-12 0-14 11-22 16zm28-16v2c-8 11-22 17-29 29v11l38-42h-9zm16 1l-26 27c-7 7-19 17-20 29 19-17 37-36 53-56h-7zm14 1c-6 4-10 11-16 17l-22 23c-9 9-24 18-21 34 6-3 8-8 12-13 5-6 12-10 18-16l13-16c8-9 18-17 24-28l-8-1zm30 2l-1 2-68 70c-9 9-21 19-19 35l34-35 15-15c15-16 31-31 45-48-2-3-3-7-6-9zm-57 91c18-17 37-36 52-53 5-5 25-18 13-23l-36 38c-15 11-25 27-40 38-4 8-11 13-17 21h-3v8c11-7 20-19 31-29zm18-12c-12 14-25 25-38 38-4 4-11 8-10 16 5-1 5 1 10 1 32-35 67-66 96-103-2-1-1-5-4-5-18 18-35 36-54 53zm62-41h-2c-29 33-62 63-91 96h9c18-15 33-33 51-48 0-4 4-6 6-9l7-10c7-8 16-15 22-25l-2-4zm6 11c-24 19-39 47-63 65-4 9-15 12-17 20l9-1c11-14 26-24 38-37 7-7 12-14 20-19 5-9 12-15 19-22-3-2-3-5-6-6zm8 11l-41 43c-11 8-23 19-30 30 2-2 6-1 9-1 20-20 41-39 63-57l6-2c-1-6-3-10-7-13zm-35 52c-5 8-13 12-19 19l-1 8c9-4 14-12 24-16 8-13 20-26 28-37-12 7-18 20-32 26zm-19 41c2-5 10-10 8-14-3 4-11 6-8 14z"/></svg>