<svg version="1" id="图层_1" xmlns="http://www.w3.org/2000/svg" viewBox="0 0 243 300"><path class="st0" d="M208 152c1-3 3-5 3-8l-3 1c2 2-2 4 0 7zm25-5c3-4 13-8 8-15-4 0-3 5-6 5 0-4 4-3 2-6-8 0-8 7-13 9-15-12-28-27-39-43-21-20-35-46-60-62-7-8-13-18-22-25 0-4 2-5 1-9-3-2-6-1-8 2-1-3-5-4-8-2 2 6 4 9 8 12-3 2-3 0-7 3 0 12 3 22 2 34-15 1-32-1-47 1 0-8-2-14-7-16-3 3 0 12-3 16l-3 1c0-7 2-15 0-19l-3-1c-2 2-1 6-1 9-3-2-3 2-5 2 0-3-1-5-3-5-5 2 2 9-1 13-3 2-5-2-7 0-2 1 0 3-2 4H0c3 8 15 4 21 6-2 2-8 0-11 5 3 2 8 1 11 2 3 46 8 82 4 129-5-11 3-28-4-35-4 3-2 7-2 10v61c-2 0-3 1-3 3-1 2 3 0 3 2v6c-5 0-13-1-10 5h10v10c8 1 4-8 7-11 2 3 6 4 9 6v5h7v-12c25-1 45 0 67-6 0 14 1 32-1 43-3 1-4 6-7 9 2 1 1 4 4 4 1-4 3-3 7-3 2-2 1-6 4-7 1 4-1 10 1 13 2 0 2-4 5-1l4-24c15-25 39-41 55-65 20-12 28-36 44-52 7 3 9 11 18 12-2-6-3-17-10-23zM24 233c-4-11 0-29-3-41 2 0 1 3 2 2-2 9 3 21 4 30 0 3 2 9-3 9zm5-133c-1 4-1-2-1-4l-2-28 2 2c-2 10 2 20 1 30zm8 106c-5-51-3-91-5-140h2c2 15 4 37 3 59 0 26 2 55 0 81zM178 94l-31-35-1-1c12 11 23 23 32 36zm-18-10c-4-5-9-8-12-14 5 4 9 8 12 14zm-12-15c-2 2-3-1-5-1 1-4 3 1 5 1zm-52-8c3 0-1 8 2 9-1 2-3 1-3 3-1-3-3-10 1-12zm-8-4c1 3-5 0-6 2-2-2 5-1 6-2zm-15 2c-8 3-21 3-28 2 7-3 19-1 28-2zM58 240c5-2 11-1 19-1-5 2-12 0-19 1zm55 37v-5c2 0 3 5 0 5zm7-36c0 4 3 10 1 14-4-2-1-11-1-14zm1 24c-2-1 0-4-2-6 2-2 4 5 2 6zm42-37c2-5 6-7 9-11-1 3-6 8-9 11zm21-23c7-11 16-20 23-30-4 10-13 23-23 30zm9-27c5-10 10-15 15-26-7-1-6 5-10 6-17 21-34 41-52 60l1 4c-3 2-4 6-7 7-1 9-10 10-12 18 8 0 14-9 16-15 14-8 20-23 31-34-13 20-30 43-49 60l-1-41c-6 1-2 7-4 10-4 0-6-3-8-6-3 4-20 8-21-1-9 3-24 1-33 0-2-4-1-7 1-10 0-22-3-45-4-66-1-8 1-16-2-22-5 2-2 18-2 24-1 1-3 1-3 3 1 22 4 38 2 60-1 3 3 1 3 3 0 5-2 8-5 10l5 7c2-2 4-6 8-4-6 4-10 7-18 6 0-12-2-25 0-39l2-20-2-26 1-81c15 1 29-4 46-3 1 8-1 14 3 19 3 0 2-5 3-8 1 1 1 5 4 4 2-2 0-4 0-7 6-1 4-9 6-12 3-1 6-2 8-5-3-2-5-4-9-3l-2-25c9 7 11 20 21 25 4 9 15 18 21 28 1 3 1 7 5 8 3-1 0-3 0-5 9 7 17 16 23 25 7 9 12 20 21 27 3-11-17-23-22-34 17 15 32 31 45 50l-25 29zm26-22c-2-1 1-2 1-4 3 2 0 3-1 4z"/></svg>