<svg version="1" id="图层_1" xmlns="http://www.w3.org/2000/svg" viewBox="0 0 141 300"><path class="st0" d="M51 250c-9-2-18-1-27-1-9-1-17 1-24-1-1-5 1-10 1-15 2-26 0-59 1-83l1-35c0-23-3-46-2-68 16-5 38-1 57-2l1-30c0-5 0-11 2-15 5-1 4 5 6 7l14 25c21 33 33 72 55 103 1 5 6 8 4 14-1 4-5 8-8 13l-21 40c-9 18-17 40-27 55l-10 13-9 14-5 9c-1 2-4 8-6 7-3-1-4-23-4-28 0-8 2-17 1-22zm23 11l8-14c15-25 28-52 40-76l8-16c2-4 6-7 4-11-5-10-9-19-15-27l-7-16c-12-26-27-52-41-75-3-6-4-11-8-16 1 12-1 22-1 32 0 3 2 4 1 7 0 2-3 1-3 3l-4-2-51 1c-1 23 3 45 2 68 0 41-2 84 1 124 15 2 34 0 47 1l1 47c7-9 11-20 18-30z"/><path class="st0" d="M111 179c-1 3 3 3 2 5-6-8-9 14-14 17v4c-7 6-10 16-16 24v3l-3 3c-1 2 2 2 1 4h-3c-7 7-8 20-16 25-3-8 2-17-1-27-10 0-19 0-28-2-2 4-3 3-5 0-5 0-10 2-14 1-1-34 1-78-1-110-1-12 2-24-1-33 4-9 0-23-1-34 2 0 3-1 3-2 19 0 34 2 53 1V42c4-3 4 2 7 4 1 5 5 8 6 14 5 6 7 13 10 21l36 64c-3 14-9 24-15 34zm10-33l-5-6c-3 1-5 3-6 5l7 8c1-3 4-3 4-7zm-7 17c-5 0-6 4-3 6 3-2 5-7 6-12-2 1-4 3-3 6zm-4-38l-2 2c1 4 4 6 7 8-1-3-2-7-5-10zm-1 22c-1 3-3 3-4 5 3 2 3 6 7 7 1-2 3-3 3-5l-6-7zm5-10c-3-2-5-6-8-7l-5 5 8 8c1-2 4-3 5-6zm-8 31l-3 4c3 0 2 4 5 5l2-5c-1-2-2-4-4-4zm-3-14l-2 3 6 8c5-4 0-9-4-11zm-3-47c-3 1-3 3-5 4 0 3 3 3 4 5 2 0 3-2 5 0l-3 2c2 3 3 6 6 8 4-7-6-12-7-19zm-1 29l-2 4 7 10c7-4-1-10-5-14zm3 37l-4 5c1 3 3 5 6 7 4-3 2-9-2-12zm-2-52c-3 1-4 4-6 6l6 6 5-6c-2-2-2-5-5-6zm-4 41l5 7c8-2-2-15-5-7zm-1-19l-3 4 7 8c7-2-1-9-4-12zm7 45c-1-4-4-5-6-8-2 1-3 3-5 3 2 4 4 6 7 8 1-2 2-3 4-3zm-5-12c1 0 4-4 3-6 0-2-6-4-5-6-3 1-4 3-5 5 2 2 4 8 7 7zm1-59c-2-1-2-4-5-4l-5 7 5 5c1-3 5-4 5-8zm-3 22l3-5c0-2-5-4-6-5l-2 4c3 1 3 6 5 6zm-1 61c3 0 3-3 4-5-2 0-5 3-4 5zm4-96c-3-2-4-6-8-7-6 5-1 9 4 12l4-5zm-9 45c1 2-2 1-2 3l7 9 4-4c-3-2-5-6-9-8zm3 48l4-5c0-2-6-5-7-6l-3 4c3 1 4 7 6 7zm1-103c-2 2 1 3 2 5l-2-5zm-5 77l-4 4c2 2 3 6 6 7 2-1 4-2 5-5-3-1-5-4-7-6zm4 30c-2 0-2 3-4 3 1 2 1 4 3 4 1-3 6-6 1-7zm-4-66l-3 4 5 6c5-3 2-8-2-10zm-2 19l-5 4 8 9 4-5-7-8zm3-67l-2 1c1 3 1 5 4 5h1c-1-3-1-5-3-6zm3 24l-8-8-5 7 8 8 5-7zm-5 11c-2 0-3 2-4 3l5 6c4-3 2-7-1-9zm-2 69c-9 3-2 10 2 12l4-4c-3-2-4-6-6-8zm0-100l-4 5c3 5 6 3 8-1-2-1-2-4-4-4zm2 116c-2 0-3 1-3 3l4 4c2-3 1-5-1-7zm-3-67l-3 3c1 3 3 6 5 7 5-3-1-6-2-10zm-3 37l-1 3 4 8c7-3 2-9-3-11zm4-100c-2 0-3 2-4 3 0 3 3 4 3 7 6-2 2-6 1-10zm-3 50c-2 0-2 3-4 4 2 2 3 4 6 5 5-1 0-9-2-9zm-3 34l-4 6 7 7c7-3 2-11-3-13zm4 50l-4 4c1 1 3 3 3 5 3-1 4-3 4-4-2-1-2-3-3-5zm-6-99l-2 4 7 7c6-4-1-9-5-11zm1 86c-1 1-2 1-2 3l7 7c4-4-3-8-5-10zm1-52l-5 5 5 6c7-2 5-9 0-11zm1-78c-1 1-2 1-1 3l4 4c1-2-2-5-3-7zm0 14c-3 1-4 3-5 6 2 2 2 5 5 6 4-4 4-8 0-12zm0 15l-5 6 3 5c4-3 8-8 2-11zm-2 85c-3 1-5 3-6 6l6 6c7-3 3-8 0-12zm-2-49l-2 3 5 6c1-2 3-2 3-4-2-1-3-4-6-5zm1-62l-2 2c0 3 2 4 4 5 0-2 3-1 2-3l-4-4zm-4 98l-2 2 7 7c5-3-2-7-5-9zm1 33l-2 5c2 1 3 4 6 5 6-3-2-7-4-10zm3 14c-1 1-3 2-3 4l4 4c4-1 2-6-1-8zm-4-98l-3 4c3 1 3 6 7 7 5-4 0-8-4-11zm2-59c0 2-2 1-2 3l3 6c5-1 1-7-1-9zm2 169c-1 1 0 3-2 3l3 3c0-2 3-5-1-6zm-3-127s4-4 4-6c0-3-4-4-5-6l-4 6c2 1 2 6 5 6zm-2 52l-5 5 7 7 4-7c-3-1-3-4-6-5zm1-77c-5 3-4 7 1 10 3-4 5-8-1-10zm0 61l-5 6c1 3 3 5 5 6 5-3 5-8 0-12zm0-32l-4 5 4 4c4-2 5-7 0-9zm-3 85c-1 1-2 1-2 3 2 2 4 5 7 6 4-4-2-7-5-9zm6-10l-6-7c-3 1-5 4-6 7 3 1 4 5 7 6 2-2 4-3 5-6zm-4 42c-1 0-2 1-2 3l3 4c4-1 2-5-1-7zm2 11c-5 1-5 5-1 7l3-4-2-3zM72 64c-2 0-3 1-3 3l3 5c6-1 2-6 0-8zm-1 145c-7 2-2 6 1 9 6-2 2-6-1-9zm-3-86c-6 4 1 9 5 11 4-4-2-8-5-11zm3-72v8c5-1 3-6 0-8zm-5 144l-2 3 7 7c4-4-2-8-5-10zm2-126l-5 4 5 6 4-5-4-5zm0 13c-6 1-4 8 0 11 5-3 4-7 0-11zm-2 78c-1-1-1 1-3 2l7 7c5-3-2-6-4-9zm1-63l-4 5c2 2 3 5 5 5 4-3 4-8-1-10zm0 15l-2 4c2 2 5 5 7 0-2-1-2-4-5-4zm0 115c0 2-2 2-3 3 2 2 2 4 4 4 4-1 4-6-1-7zm4-91l-7-7-4 5c2 3 4 6 7 7l4-5zm0 14l-5-5-5 7 5 4 5-6zm-4 89l-2 4c1 1 3 2 3 4 5-2 3-7-1-8zm-2-25l-2 2c1 3 3 5 6 7 3-3-1-7-4-9zm0-152c-1 1 1 2 2 3 1-1 2-1 2-3h-4zm2 129c4-1-1-9-5-10 0 1-2 1-2 3 3 1 4 7 7 7zm-6 9l-3 3 7 8c7-3 0-9-4-11zm7-30c-2-2-4-5-7-6l-4 6 6 8c1-3 5-4 5-8zm-3 77v7c2-1 4-6 0-7zm-2-130l-3 3 4 5c1-2 3-2 3-4l-4-4zm-1-42l-4 5 4 5c5-2 5-7 0-10zm0 13l-5 7c2 2 4 3 4 5 6-2 6-9 1-12zm-1 16c0 2-2 2-3 4l5 5c5-2 2-7-2-9zm-1 115c-1 2-3 2-3 4 2 2 3 4 6 5 6-2 1-7-3-9zm0-157c-1 2-3 2-3 4 1 3 4 3 4 5 6-2 4-7-1-9zm-2 74c-2 0-2 4-5 5 2 3 4 7 8 8l4-6c-3-1-4-8-7-7zm1 49c-2 0-2 2-4 3l6 8c7-2 0-8-2-11zm0-32l-1 3 3 5c2-1 3-2 3-4-2-1-2-3-5-4zm-3 52l-2 3 7 7c6-2-2-8-5-10zm3-83l-5 6 4 4 5-5-4-5zm-2-12l-2 4 4 5c5-3 1-7-2-9zm0-29c-2 1-3 4-5 7 2 2 2 4 5 5 4-4 4-8 0-12zm-2 91c-4 4 2 8 4 10 4-3-1-8-4-10zm1-104c-2 0-3 2-4 3 2 3 3 6 6 7 4-4 1-7-2-10zm1 28c-6 3-4 7 0 10 5-3 2-6 0-10zm0 61c-3 1-4 4-6 6 2 2 2 5 5 5 3-4 6-7 1-11zm-2 68l-3 4c2 1 3 4 5 4 6-1 1-6-2-8zm-2-35l-3 4 6 7c8-1-1-11-3-11zm-1 20c0 2-1 3-3 4l7 8 4-5-8-7zm-1-67l-2 3 8 8c3-5-3-8-6-11zm3-29c-3 1-3 5-6 7 1 2 4 3 4 5 6-3 6-7 2-12zm1-52v2c2 0 2-1 2-2h-2zm-4 115c-1 1-1 3-3 3l5 7 4-4c-2-1-3-5-6-6zm1-47l-4 5c2 2 2 4 4 4l5-5c-2-1-2-4-5-4zm-1-56c-1 3-4 3-4 6 2 2 2 5 5 6l4-7-5-5zm2 38c5-1 1-8-2-10-1 2-3 2-3 4 3 2 3 6 5 6zm-3-23c0 2-2 3-3 5 2 2 2 4 5 5l3-5c-2-1-2-4-5-5zm5 66l-7-7-4 6c2 2 3 6 7 8 0-3 3-4 4-7zm-6 41l-3 3 7 7c4-3-1-8-4-10zM48 62c-4 2 0 7 3 8l3-4c-2-2-3-4-6-4zm2 103c-1 1-3 2-3 4l5 5c4-3 0-7-2-9zm-3 52c0 1-2 1-2 3l5 7 4-4c-3-1-4-5-7-6zm0-34c-2 1-3 2-3 4 2 1 3 4 6 5l2-4c-2-1-2-4-5-5zm5-70c-5-5-6-7-10-1 2 3 3 6 6 7l4-6zm-2 118l-1 2c1 0 3 1 3-1l-2-1zm-3-108c-1 2-4 3-4 6 1 1 2 5 5 4 4-3 4-7-1-10zm4 85c0-2-7-7-7-7-2 0-2 3-3 5l7 7c1-2 4-2 3-5zm-5-71l-2 3c2 2 5 7 6 1l-4-4zm-1 34l-2 3 3 5c7-1 3-7-1-8zm1-75c-2 0-3 1-3 3 1 2 2 5 5 5 4-3 0-5-2-8zm-1-15c-2 2-4 3-4 6l5 6c5-4 2-9-1-12zm-1-15c-2 1-3 3-3 5l4 6c6-1 3-9-1-11zm-1 156l-2 3 5 6c6-2-1-7-3-9zm-1-66l-3 4c3 2 4 6 7 7 5-4-1-8-4-11zm1 32l-3 4 5 5c6-3 0-5-2-9zm-1-46l-3 5c0 3 2 4 4 5 4-3 6-8-1-10zm0-28c-3 2-4 4-5 7 2 2 2 5 5 6 5-4 3-8 0-13zm-3 93l-2 3 6 8c7-3-1-8-4-11zm2-106c-1 1-3 3-3 5l3 5c6-2 4-7 0-10zm0 29c-5 3 0 5 1 8 6-1 2-6-1-8zm0 46c-1 1-3 1-3 3l5 6c4-3 1-7-2-9zm-2-88c0 1-3 1-2 4 1 2 2 4 5 6l3-4-6-6zm-1 74c-1 1-3 1-3 3 2 3 4 6 7 7 5-3-1-8-4-10zm1 66c-1 1-3 1-2 4 1 1 6 2 7 0-2-1-3-4-5-4zM38 72l-4 5 6 8c5-4 3-10-2-13zm0 122c-1 2-3 2-3 4l5 6c1-2 3-3 3-5-2-1-2-5-5-5zm1-133c-2 0-3 2-4 3 2 1 2 5 5 4 2-2 4-6-1-7zm-4 152l-3 4 7 7c7-3-1-8-4-11zm2-78l-4 6 5 5c5-3 4-8-1-11zm-1 45c-5 3-1 7 2 11l4-5-6-6zm3-22l2-5c-4-8-10 2-2 5zm-5-65l-3 5 5 6c6-2 3-9-2-11zm3 14c-3 1-4 4-6 6 1 3 3 4 5 6 3-4 5-8 1-12zm-2 15c0 2-3 2-3 5 2 1 3 4 6 5l2-4-5-6zm-2 45c-1 1-3 2-3 4l7 7c5-4-1-9-4-11zm-1-87l-2 4 5 6c1-2 3-2 3-4-3-2-3-5-6-6zm1 121c-1 1-2 1-2 3l5 5c4-3-1-7-3-8zm-3 17l-3 4 8 7c6-3-2-8-5-11zm3-152l-4 6 4 4c3-3 6-7 0-10zm-1 89l-3 3 5 5c4-2 2-6-2-8zm-1 31c-1 2-4 2-4 5 2 2 4 5 7 6 5-3 1-9-3-11zm-1-58c0 2-3 2-3 5 2 2 4 3 4 5 7-2 4-8-1-10zm2 14c-3 1-4 3-4 5l4 4c6-1 2-6 0-9zm-4 30l-3 3c3 2 4 6 7 7 7-2 0-7-4-10zm2-72c-3 0-3 4-5 5l4 7c6-3 6-9 1-12zm-1 15l-3 5 4 5 4-4c-2-2-2-5-5-6zm1 90l-5 4c3 2 3 5 6 6 5-4 1-6-1-10zM28 86c-2 0-2 2-3 3l4 7c6-2 3-9-1-10zm1-25c-3-1-3 2-6 3 0 3 3 3 3 5 5-1 8-8 3-8zm-1 100c-2 0-2 2-3 3l4 5c0-2 2-2 3-4-1-1-2-4-4-4zm-3 63l-1 3c3 2 3 6 8 5-1-4-4-6-7-8zm1-76l-2 4 4 5c5-2 2-7-2-9zm-1 45c0 1-2 1-2 3 2 2 3 5 6 5 5-3-2-6-4-8zm2-120l-4 4c3 1 3 4 6 4 3-3 0-5-2-8zm-2 61c0 2-2 3-3 5l4 6c6-3 3-8-1-11zm-1 43l-4 6c2 2 3 5 6 6l4-5-6-7zm0-56l-3 5 5 5c5-3 1-8-2-10zm0 90l-3 5 5 5c5-4 3-8-2-10zM23 92l-4 6 4 6c6-2 7-9 0-12zm0 16c-1 2-3 2-3 4l5 6 3-5-5-5zm0 59c-2 2-1 5 1 7 2 0 3-2 3-4-2 0-1-3-4-3zm-2 30l-2 5c3 1 3 5 6 6 5-4-1-8-4-11zm1-119l-3 5c1 1 3 2 4 5l4-5c-2-1-2-4-5-5zm0 76c-3 3 0 7 2 9 4-3 2-7-2-9zm-1 74l-2 4c2 0 5 1 7-1-2 0-2-3-5-3zm1-161c-2 0-3 2-4 4 2 1 2 3 4 3l3-3-3-4zm-1 74l-3 5 5 5c4-4 1-7-2-10zm-2-14c0 2-2 2-2 5l4 5c4-3 3-8-2-10zm0 58c-3 4 1 6 2 9l3-3-5-6zm2-124c0 2 3 1 3-1l-3 1zm-3 142c-1 5-1 8 2 11l4-5c-3-1-4-4-6-6zm2 15c-1 1-2 1-2 3l4 4c3-2 1-7-2-7zm-1-104l-2 1c-1 4 1 6 3 9 5-3 2-6-1-10zm-1 45c0 3-1 9 3 9l2-3-5-6zm2 13c-1 3-4 4-3 8 5 0 8-6 3-8zm-2-87v11c4-3 5-9 0-11zm-1 15l1 10c6-2 3-7-1-10zm1 49v7c4-1 3-8 0-7zm-1 75l1 4c1 1 3 0 3-2-2 0-2-3-4-2zm0-151c1 3-1 6 1 7 3-2 3-6-1-7zm-1-12l1 7c1-1 3-2 3-4-2-1-1-4-4-3zm2 76v5l2-3-2-2zm0 56v5c3 0 2-5 0-5zm-1-70v3c1 1 2 0 2-1l-2-2zm0 91v4c2-1 2-3 0-4z"/></svg>