<svg version="1" id="图层_1" xmlns="http://www.w3.org/2000/svg" viewBox="0 0 300 103"><path class="st0" d="M244 0c22 14 41 32 56 52a633 633 0 0 1-60 51c-3-3-2-9-3-14l-3-15c-14-7-32-10-50-12-37-2-71 1-106 5l-27 1-25 4c-7 3-14 6-21 7-2-6-2-12-2-19-1-9-5-19-2-28 24 3 52 7 73 7 14 0 30 3 47 3 22 1 46-2 68-4 14-1 28-5 42-7 5-9 5-25 13-31zm-4 37c-22 10-48 10-75 12-21 2-40 2-58 0-31-2-57-3-83-6l-8-1c-3 0-6 1-9-1l4 28c32-8 71-10 108-12l38-2 18-1c9-1 23 2 33 3 8 1 28 2 32 7l1 11c1 6 3 11 2 16 3 0 5-2 7-4l19-17c8-6 17-10 23-19-13-15-28-29-45-40l-7 26z"/><path class="st0" d="M282 52l-3 6c-6 2-9 9-15 11v3l-7 5c-2 1-5 5-8 4-4-1-3-8-3-12 0-14 0-32 2-43 4-3 11 3 15 7l4 4c5 5 12 10 15 15zm-30-18l1-2-2-3 1 5zm5-1l-1-1c0 1 0 2 1 1zm-6 5c1 2 4-1 4-3-1-2-3 1-4 3zm7-1l2-2-1-1c-1 1-2 2-1 3zm1 2c1 1 1 2 2 1v-3l-2 2zm-4 3c0-2 4-4 1-5-1 2-4 4-1 5zm1 3h1l2-3-1-2c-1 2-4 2-2 5zm7-1l1-3c-3 0-3 2-1 3zm5 0l1-1-2-1 1 2zm-17-1v3c1-1 2-1 2-3h-2zm6 3l2 3 3-4c-2-3-3 0-5 1zm9 1c1-1 0-3-1-3s-1 3 1 3zm3-1l1 2 1-2h-2zm-15 3l1-3-2-1c0 1-2 3 1 4zm6 1l1 2 3-3-1-3c-1 2-3 2-3 4zm6-1l2 1c1-1 1-3-1-3l-1 2zm6-1c-2 4 4 2 0 0zm-17 4c2 0 2-1 3-2l-2-2c-2 2-2 2-1 4zm7 1l2 2c0-2 2-2 3-4l-2-1-3 3zm-12-1l2-2-1-1-1 3zm19 1c2 0 3-3 0-2v2zm4-1l3 3 2-2-4-2-1 1zm-16 2l1 1 2-2-1-2-2 3zm-5 1c2 0 3-2 1-3-1 0-2 2-1 3zm13 2l1 1 3-4-2-1c0 1-2 1-2 4zm7 1c-2 0-1-2-2-2-3 2-4 4-2 6 3-1 4-4 6-6l-2-2c-2 1 2 2 0 4zm-13-1l1 1c1-1 2-1 2-3l-1-1-2 3zm-5 0l1 2c1-1 2-1 2-3-1-2-3-1-3 1zm-4 1l1-2-1-1v3zm11 2l2 1c3-2-1-5-2-1zm-5 2c2-1 3-2 3-4h-1c-1 1-3 2-2 4zm-5 0c2 1 1-1 3-2l-2-2c-1 1-2 3-1 4zm7 2l2 1 2-2-2-2c-1 1-2 1-2 3zm7 1l2-2-2-2v4zm-11 1c0-2 1-2 2-3l-2-2c-1 2-3 3 0 5zm1 1l2 2c1-2 3-4 0-5 0 2-2 2-2 3zm6 1l3-2c-1-3-4 0-3 2zm-12 2l3-3-1-2-2 5zm8 1c1 1 3-1 4-3h-1l-3 3zm-6 0l3 4c1-2 2-1 2-3-2 0-1-3-3-4l-2 3zm-1 7l2-3-2-3v6zM63 58l-13 2-1 1c-10-2-20 3-31 3-4-4-4-11-4-19h3c6 3 17 3 25 5 9 2 20 0 21 8zm-41-9l-3-1c0 2 3 3 3 1zm0 3l1 1 2-1-1-2-2 2zm8 1v-3c-3-1-3 3 0 3zm7-1c-1 0-3-2-4-1 1 2 3 3 4 1zm6 0h-2c0 2 2 2 2 0zm-25 0v-1 1zm19 3l2 1c0-1 2 0 1-1l-2-3c0 2-2 1-1 3zm6 0c1 0 1 2 2 1l2-1c0-2-4-2-4 0zm7 1l5-2h-5v2zm-19-1l1 1 2-2c-1-1-3-1-3 1zm-7 0l3 1 1-2c-1-1-3-1-4 1zm-4 1l2-2-1-1c-1 0-2 2-1 3zm13 2l3 1 2-2c-2-1-4-2-5 1zm7 0c0 1 3 1 3-1l-2-1-1 2zm-18-1c0 1 3 2 3 0-1-1-3-2-3 0zm6-1c0 2 1 2 2 2h1c0-2-2-2-3-2zm-8 5l2-2-2-1v3zm5-1h3l-1-2-2 2z"/></svg>