<svg version="1" id="图层_1" xmlns="http://www.w3.org/2000/svg" viewBox="0 0 300 197"><path class="st0" d="M279 4c-8 15-14 38-24 53-1 6-4 12-9 10-5-1-3-16-6-23-17 9-32 21-47 33-9 8-20 15-27 25 26 22 55 41 85 61 3-7-2-24 7-27 8 6 11 16 17 24 6 5 10 12 14 18s12 11 11 19c-16 0-37-4-54-5-6 0-13 2-17-3 4-6 12-8 17-12-24-21-56-32-85-46-26-7-71-16-107-15l-9 1c-7-1-39 1-43-5-3-3-3-14 0-18 35 1 78-1 118-3h15c11-2 22-9 32-14 22-11 43-30 63-43-5-5-18-3-19-12 1-4 4-2 7-2 14-4 35-10 47-15 3-1 6-2 8-5 4 0 5 1 6 4z"/></svg>