<svg version="1" id="图层_1" xmlns="http://www.w3.org/2000/svg" viewBox="0 0 300 71"><path class="st0" d="M300 32c1 5-3 7-6 9l-16 6-35 13-32 11c0-2-2-1-3-2 0-6 6-9 9-12 4-4 8-8 10-13-15 0-28-2-45 0h-12c-18 2-35 5-56 3-4 2-9 1-14 1l-28 2c-11 0-22-1-33 1L6 54c-4-2-6-12-6-18s2-13 7-14 14 2 19 3c28 3 58 2 87 3l60 1h41c5-1 7-3 12-2-2-5-5-8-9-12-3-3-14-11-7-15l10 1c26 5 57 26 80 31zm-78-21c0-2-2-3-3-3 0 2 2 2 3 3zm3 4l5 4c0-2 2-3 1-4h-4v-2l-2 2zm15 13l5-10h-1c0 4-5 6-4 10zm10 1c1-2 5-6 3-7 0 3-3 5-3 7zm5-1l3-4c-2 0-3 4-3 4zm0 9c4-3 6-7 8-11h-1l-7 11zM12 31l-2 6c3-1 4-4 6-6h-4zm5 7l5-7h-3c1 3-1 5-2 7zm255 0l4-7h-1l-3 7zM33 38c3-1 4-4 6-6-4 0-4 3-6 6zm9-6v3c2 0 2-2 3-3h-3zm13 3l2-2-2-1v3zm6 2l2-4c-2 0-2 3-2 4zm75-1l4-2h-4v2zm14 1l3-3h-2c0 1-2 2-1 3zm5 1l6-4h-5c1 2 0 2-1 4zm-63 0l4-3-3-1-1 4zm12 0c3-1 4-2 5-4-3 0-3 2-5 4zm16-1c2 0 2-2 3-3h-2c1 2 0 2-1 3zm8-1l2-2c-1 0-3 1-2 2zm43 1l3-2c-2 0-4-2-3 2zm58-2h7c-1-2-6-1-7 0zm-100 4h4c0-1 1-3-1-3 0 2-3 2-3 3zm-88 2c2 0 3-5 2-4l-2 4zm39-1h1l1-3-2 3zm199-1l3-1c-1 0-3-1-3 1zM10 42l1 1 2-4-3 3zm44-1c2 0 2-2 2-3l-2 3zm205 5l4-2c-2 1 0-2-1-2l-3 4zm-25-1c1-1 1 1 2 1l1-2c-2-1-2-1-3 1zm-1 10l5-2 4-7c-5 1-6 6-9 9zm-11 5c4-1 7-7 6-9-1 4-5 5-6 9z"/></svg>