<svg version="1" id="图层_1" xmlns="http://www.w3.org/2000/svg" viewBox="0 0 300 126"><path class="st0" d="M247 0c4 2 10 8 14 12l26 22c3 2 13 6 13 10 0 3-2 3-4 5-3 2-5 3-5 6l-2-1c-6 6-13 10-17 17-6 3-10 7-14 13-2 2-5 3-5 6l-5 4-3 4c-3-2-2-5-2-9V74c-4-1-9-2-10 0l-7-2h-11c-10-1-20 1-30 2l-61 1h-19c-19-1-36-2-53 1l-2 48c-15-1-29 0-44 2-3-5-1-10-1-16L3 91 1 63c0-6 1-14-1-19 3-5-1-15 1-22 4-2 15-3 23-3 11-1 25 2 38 2l9-1 77 1c5 0 9 1 14-1 29 2 54 0 82 3 1-7 2-14 0-19 0-2 2-3 3-4zm6 13c0-3-1-6-4-6 0 3 2 5 4 6zm5 3c0-2-1-4-3-5 1 3 0 5 3 5zm-6 2c-2-1-1-4-3-5 0 3 3 6 3 5zm10 3c0-3 0-5-2-6 0 3 0 5 2 6zm-9 5c0-4-2-5-3-6 0 3 2 4 3 6zm16 2c-1-4-1-7-4-8-1 4 1 6 4 8zm-13 4c-5 3-14-2-19 1-3-3-11-3-14-1-3-2-10-2-14-1-11-2-23 0-37-1-1 0 2 2 0 2-2-1-6-2-8 0-2 0-2-2-3-1-4 2-12-3-18 0-6-2-16-2-22 0-5-2-11 0-16 0-7 0-15-2-21-1h-2l-62-2s1 2-1 1l-9 1c-1 3 0 6 1 8-2 11 0 23 0 33l1 2c-1 3-1 12 1 15-2 4-1 13 1 17-2 3 0 8 1 11l17-1c1 0 0-2 2-2 2 1 2 3 5 2l2-47c9-4 25-3 36-4 1 0 0-3 1-2 2-1 2 1 3 2 4-2 8 0 11-2 31 4 61 1 92 2l1-2 4 2c3-2 10 0 16-1 1 0-1-2 1-1l3 1 42-1c3 2 1 9 2 13l29-29c-4-2-6-7-10-7-4-8-10-13-16-18v11zM40 26c-2-2-2-4-6-3 0 2 4 4 6 3zm6 0c-1-2-3-3-5-3 0 2 2 3 5 3zm-17 0l4-1-5-2 1 3zm20 1l4-1c-2-1-3-4-6-2 1 0 2 1 2 3zm5-3c1 1 3 3 5 2-1-2-2-3-5-2zm6 0c2 2 3 4 6 3-1-2-3-5-6-3zm-39 0c0 2 3 2 5 2 0-3-3-3-5-2zm49 3l3-1c-2 0-2-3-6-2l3 3zm11-3l1 3h6l-4-4-3 1zm21 4c-1-3-3-5-7-4 1 2 3 4 7 4zm57-4c1 3 3 5 7 4-2-2-2-5-7-4zm10 4h5c-2-3-3-5-8-4 1 2 3 2 3 4zm11 0l-4-4h-2c1 2 3 3 6 4zm5 0c1-1-2-3-3-4h-3c2 1 3 4 6 4zm9 0c0-3-4-2-4-4h-4c1 2 4 4 8 4zm5 0c-2-2-2-4-5-4 0 1 2 4 5 4zM79 27c0-2-3-4-6-3 2 2 3 3 6 3zm12 1h4c-1-2-4-5-7-4l3 4zm12-4c0 3 5 4 8 4-1-3-4-5-8-4zm43 0c0 3 4 5 7 3-2-1-4-4-7-3zm59 4c0-2-4-5-6-4 1 2 2 5 6 4zm7 0c-1-2-4-4-6-4 1 2 2 5 6 4zm-99 0h4c-1-3-2-4-5-4l1 4zm6-1h5c-1-2-2-3-6-3l1 3zm19-2c2 2 3 3 7 3-1-2-4-5-7-3zm17 3h4c0-2-3-2-3-4h-3l2 4zM19 26c0-1-2-2-3-1 1 1 2 2 3 1zm109 2l4-1c-2-1-3-3-6-2 1 1 2 1 2 3zm6 0h3c0-2-1-4-4-3l1 3zm84 0c-1-3-3-3-5-3 1 2 2 4 5 3zM8 27h4l-5-2c0 1 2 1 1 2zm5 0l2-1-2-1v2zm262 6c-1-3-1-7-4-8 0 4 1 7 4 8zm-54-5h4c0-2-2-3-5-3l1 3zm7 0h4c0-2-4-1-5-2l1 2zm21-1c0 2 1 3 3 2l-2-3-1 1zM7 30v-2l-2-1c-1 1 0 3 2 3zm230-2l-2-1c0 2 2 1 2 1zm10 1c0-1-2-3-3-2 1 1 1 3 3 2zm-4-1l-3-1c0 1 2 2 3 1zm38 11c-2-3-1-8-5-9 0 4 2 8 5 9zM7 41l-1-8H5c0 3 0 6 2 8zm279 7l-2 1v3l4-4c1-6-1-12-6-14 0 7 4 9 4 14zm5-2c0-1 2-1 2-3-2 0-2-2-3-2 0 2-1 5 1 5zM7 47v-3l-2-1 2 4zm0 5l-1-2c0 1 0 3 1 2zm272 6c2-2 5-4 2-7-1 2-3 3-2 7zM7 61c0-2 1-5-1-5l1 5zm269-1c2 0 1-3 1-3-2 0-1 2-1 3zm-4 5l2-2-1-3c-1 1-3 3-1 5zM8 67l-1-2s-1 2 1 2zm261 1v-3h-1c-1 1 0 3 1 3zm-88 1l-2-4h-3c1 3 3 5 5 4zm8-3c1 2 3 5 6 3l-3-4-3 1zm12 3l-3-4h-3c1 3 2 4 6 4zm21 0l3-1-2-3h-2l1 4zm21-1h4l-1-3h-3v3zM81 66l2 4 5 1-2-5h-5zm15 5l-2-5h-5c0 3 3 6 7 5zm1-5c0 3 2 3 2 5h4c-1-2-3-3-3-5h-3zm73 0c1 2 3 6 6 4 0-2-2-3-3-4h-3zm19 4l-3-4h-4c1 3 3 5 7 4zm20-1c0-4-5-3-7-3 1 3 3 3 7 3zm5-1c-1-2-1-3-4-2 1 1 1 3 4 2zm6 1l-1-3h-3c0 2 1 4 4 3zm8-1v-2h-1l1 2zm3 0h3l-1-2h-3l1 2zm6 0h3v-2h-4l1 2zm-83 3h3l-2-5h-5l4 5zm15 0c0-3-2-3-2-5h-3c0 2 2 5 5 5zm-93-4l1 3h3l-2-3h-2zm32 4l-2-5h-3c1 3 2 5 5 5zm6 0l-3-5h-2c1 3 2 6 5 5zm37 0l-4-5h-2c1 3 2 6 6 5zm9 0l4-1-3-3h-3l2 4zm-99-1h6l-2-3h-5l1 3zm8-3l1 4h4c0-4-2-5-5-4zm75 4l-1-4h-3c0 2 1 4 4 4zm-91-3l2 3 3-1c0-3-2-3-5-2zm68 3c0-2-2-2-3-4h-3c1 2 2 5 6 4zm1-3l2 3h4l-2-4-4 1zm11 3c-1-2-1-4-4-4 0 3 1 5 4 4zm3 0h3l-2-4h-3l2 4zm127 2l4-4-2-2c-1 2-4 3-2 6zM48 69c0 2 2 1 4 2l-2-3-2 1zM8 77l-1-6 1 6zm251 0c0-1 2-1 2-3l-1-1c-1 1-2 3-1 4zm-9 3l-2-5c0 2 0 4 2 5zM47 80c0-2-1-2-2-3 0 2 0 2 2 3zm208 1c1 0 2-3 1-4l-1 4zm-3 5c0-2 3-4 0-5-1 2-2-1-3 0 1 1 1 4 3 5zM46 85c1-2 0-3-1-3l1 3zm203 4c1-1 0-3-1-4l1 4zM9 96c0-4 1-6-1-8 1 2-1 6 1 8zm37 0c0-3 1-7-2-8 1 3 0 7 2 8zm0 9c0-3 0-6-2-7 0 4 0 6 2 7zm-36-4l-1-2 1 2zm0 8l-1-4 1 4zm37 4c0-4-1-5-3-6 0 3 1 4 3 6zm-37 4c0-2 1-4-1-5l1 5zm34 2l3 1c1-3-1-4-3-5 1 1-2 2 0 4zm-11-1l1 1h3c-1-2-2-1-4-1zm-2 1h-5 5zm7 0h0z"/></svg>