<svg version="1" id="图层_1" xmlns="http://www.w3.org/2000/svg" viewBox="0 0 300 179"><path class="st0" d="M300 91l-18 18c-11 7-20 16-30 26l-24 26c-6 7-10 14-19 18-7-12 0-33-3-48-5-1-11 1-14 3v-2h-42c-2 0-1 3-4 3v-3c-9 1-19-1-26 2-3-1-12-1-16 1-9-5-17 0-30-3-2 0-2 3-4 3-3-2-6-4-12-3-2 0 1 3-2 3-2 0-2-2-2-3-3 0-10-2-11 2-3-3-9-1-13-2l-2 2c-6-4-15-2-22-3-7-2-4-14-4-23 1-16-3-36-2-50l2-13c8-7 27 2 37-2 1 0 1 2 3 1 36-3 70-2 111 1 1 1 1-1 2-1 3 3 12 3 14 0 11 4 21-1 33 0 4-15 2-28 2-43l1-1c6-1 9 6 13 8 17 20 38 36 56 55l13 13c5 4 10 9 13 15zm-90-73c2 0 2-2 3-2l-2-1-1 3zm2 4l2 4 5-5c-2 0-2-3-5-2 0 1-2 1-2 3zm4 6c1 3 3 6 5 7l4-3c-1-3-2-6-4-7l-5 3zm-6 3c1-1 2-1 2-3l-2-3v6zm1 3l5 6 3-3c-3-1-3-5-5-6 0 2-3 1-3 3zm22 6l2-2-6-6 4 8zm-9-3c1 2 5 5 7 5-2-2-2-6-5-8 0 2-1 3-2 3zm-14 7c1 0 2 0 3-2l-4-4 1 6zm24 1c2 2 4 6 7 5-1-3-2-6-5-9l-2 4zm-16-3c0 2 1 3 3 3l-1-4-2 1zm25 5l1-2c-1 0-2-3-3-2l2 4zm-30 0c2 2 4 9 7 5l-5-7-2 2zm31 4c3 3 3 8 7 10 1-5-3-9-4-14-1 3-3 2-3 4zm-18 17c-21 4-40-1-59-3h-25l-27 1-27-2-20 2-13-2-34 1c3 15-5 29 0 44 20-1 45 3 65 0l16-2 11 2 26 1 30 1c22-1 43-4 60-3v23c6-9 10-17 17-24l21-20c-3-5-7-7-11-10-7-5-12-13-18-19-4-3-8-4-10-7 1 5 0 14-2 17zm-17-18l-3 4 5 5 4-4c-2-1-3-5-6-5zm-15 0c0 2 1 4 3 5l3-2c0-3-3-4-6-3zm61 6c1-1-1-3-2-2 1 0 0 2 2 2zm-72-3l6 8 5-4c-2-3-7-11-11-4zm-12-3c1 3 3 4 4 5 2 0 3-1 4-3l-2-2h-6zm-14 6c2-2 4-2 5-5-2-2-6-1-9-1l4 6zm-15-6c-1 1 1 4 2 4 2-1 4-2 4-4h-6zm30 9c0-3-3-6-5-8-1 3 3 8 5 8zm83 1c1 2 1 4 3 4 0-1 2-1 2-3-1-1-1-3-3-3l-2 2zM108 49c1 2 4 5 6 5 1-1 2-1 2-3-2-2-5-2-8-2zm13 3c3 2 4 6 9 7l2-4-3-6c-4 0-8-1-8 3zm14 0l2-1-4-1 2 2zm-38-3c1 0 1 2 3 2 0-1 2-1 1-3l-4 1zm103 10c1 1 6 4 9 2-4-2-7-9-9-2zM88 52l2-3-6-1c0 2 3 3 4 4zm89 6c2 2 4 3 8 3l-5-7c0 2-2 2-3 4zM75 49c1 0 1 2 3 1-1-1 1 0 1-2l-4 1zm72 9c2 0 5 3 8 1-1-5-7-8-8-1zM67 48c1 4 3 7 6 8l1-3c-1-2-3-2-4-5h-3zm92 10c2 2 5 3 8 1l-4-5-4 4zM55 48c0 3 1 4 3 6 1-2 3-2 3-5-1-2-4-1-6-1zm35 6c2 1 2 3 4 3l3-3-4-4-3 4zm11-1c1 4 5 6 11 6-3-4-7-11-11-6zm112 9h7l-4-4c-1 2-3 2-3 4zM43 48l4 5c0-2 3-2 3-5h-7zm94 7c3 1 2 4 4 5l1-3c-2-1-1-3-4-3l-1 1zm131 14l1-1-5-6c0 3 2 6 4 7zM32 50l1-2-3-1c0 2 1 3 2 3zm47 4l3 4c1-2 3-2 3-4-2-1-2-3-4-3-1 1-2 1-2 3zm-68-7c0 2 2 3 3 4l2-4h-5zm11 1c1 3 5 5 4 8 2 0 3-2 4-3-2-2-3-6-8-5zm11 6c2 3 9 6 11 2-2-3-3-6-7-8l-4 6zm83 3c1 2 4 2 6 2-1-4-6-8-6-2zm80 5c0-2 2 1 2-1-1-1-3-1-2 1zM48 56c2 1 6 2 8 1-1-3-2-5-4-6-1 2-4 3-4 5zm12 1c2-1 6 3 10 2l-6-7c-2 2-4 3-4 5zm199 11c-1 3 3 3 3 7l3-3c-1-4-6-10-6-4zM16 54l9 3c-1-4-4-6-6-7-1 1-3 2-3 4zm-8 4c4-3 5-7-1-9-1 3-1 8 1 9zm89 1h4c0-3-4-3-4 0zm-11-1l3 1c0-3-3-3-3-1zm-10 1h3l-3-3v3zm193 13l3 6c2-1 3-2 3-4-1-2-4-7-6-2zM9 61l4 7c5 0 2-8 3-10-2-4-5 0-7 3zm261 19c0-3-2-4-3-5-3 2 0 5 3 5zm4 1c1 1 3 1 3 3-2 2 1 5 2 8l4-5-6-10-3 4zm11 3c2-3-2-6-4-6 2 1 2 4 4 6zM7 76c3-1 4-4 6-5-2-3-3-7-7-8l1 13zm281 15c2 0 3-1 3-2l-3-4c-2 2-1 4 0 6zm-19 4c1 2 2 5 4 6 4-3 6-9 1-13l-5 7zM9 80c1 1 1 3 3 3 0-2 2-3 4-3 0-2 1-6-1-7l-6 7zm274 17c0-2 3-2 3-5l-1-1c0 3-6 4-2 6zm-17 13c2-1 3-3 4-6-2-2-2-6-4-7-5 3-3 10 0 13zm9-6c2-2 5-2 5-5l-5 5zM13 86l2 3v-5l-2 2zm-4 15c3-2 4-4 5-7-1-2-1-4-4-5-3 3 0 7-1 12zm248 12c1 3 2 5 4 6l4-4c-2-2-2-6-5-8l-3 6zm-6 6c0-2 3-5 1-6-1 2-5 4-1 6zM11 103c0 2 1 3 3 4 1-2 0-6-1-7l-2 3zm202 12l5 7 4-7h-9zm45 6c-1-1-1-4-3-4-5 7 0 11 3 4zm-69-6c0 2 2 4 4 5 0-2 2-2 2-5h-6zm11 1c0 2 2 1 2 3 2 0 3-3 2-4l-4 1zm20 8l3 4c2-2 1-8 1-11l-4 7zm-15-2c2 3 7 3 6 11l5-8-7-8-4 5zm36 2c1 1 1 4 3 4l4-5-3-4-4 5zm-62-5l1-3h-4l3 3zm2 4l8 1c-1-4-3-6-5-8-1 3-3 3-3 7zm-33-7l3 6c6-1 1-10-3-6zm11 2l5 5c1-1 2-1 2-3-2-2-5-6-7-2zm-26-3l5 7 3-7h-8zm61 9h6l1-1-4-4-3 5zm-23-5l1 4h4c0-3-2-4-4-5l-1 1zm-49 1c0 1 1 3 3 3 0-3 3-5 2-8h-1l-4 5zm-2-2l1-3h-4l3 3zm-110-3l3-4c-2 0-1-3-4-3l1 7zm130 10h9l-5-8c-2 2-4 4-4 8zm-42-4c1 2 1 5 4 6 0-3 2-5 3-8l-1-3c-4 0-5 2-6 5zm12-2l5 5 3-4c-2-2-6-6-8-1zm137 15c1-3 4-4 5-6l-2-2c0 3-7 5-3 8zm-120-7c2 1 7 1 8-2 0-3-3-4-5-6-1 3-3 4-3 8zm-43-10c1 4 5 6 7 9l3-5c-2-3-4-6-10-4zm70 7h7c-1-2-2-3-5-3l-2 3zm85 11c4-1 1-7-1-8-2 3 0 5 1 8zM72 117c0 3 2 5 4 6 0-3 4-4 3-6h-7zm-10 3l2-4h-5l3 4zm-16-3l2 3 2-4-4 1zm18 6c0 2 2 3 3 5h7c-1-4-4-8-7-11l-3 6zm-48 4l3-6c-2-1-3-4-5-7-4 4-1 10 2 13zm34-4l5 5c2-1 4-3 5-6-2-5-9-7-10 1zm164 13l2 2 5-7c-1-1-2-3-4-3-1 2-3 4-3 8zM37 121l6 7 3-5c-2-5-7-9-9-2zm40 5c3 2 7 2 11 2l-7-8-4 6zm27 3l8-1c0-3-2-5-4-6-2 1-3 4-4 7zm-82-11l1-2h-3c0 2 1 2 2 2zm1 4l4 6 5-7c-1-5-8-5-9 1zm93 6c2 1 5 0 6-1 0-5-5-3-6 1zm-23 0l6 1-4-5-2 4zm140 15c2-3 6-7 1-9-1 2-5 7-1 9zm-15-1c2 2 3 6 6 7l2-7c-5 0 0-7-3-8l-5 8zm23-4c2 0 3-1 4-3-2 0-3 2-4 3zM32 128h5c0-2-2-3-3-4l-2 4zm28 0h3c0-2-1-2-2-3 0 1-2 2-1 3zm-14 0h4l-2-3-2 3zm-27-1l3 1c0-2 0-3-2-3l-1 2zm193 19l2-4c-1-1-1-3-3-3l1 7zm14 8c4-1 7-7 3-10-1 3-3 6-3 10zm-15-5c5 2 4 8 8 11 0-3 2-4 3-7l-6-8c0 3-3 4-5 4zm2 19c3 0 3-3 4-6-2-1-3-6-5-6l1 12z"/></svg>