<svg version="1" id="图层_1" xmlns="http://www.w3.org/2000/svg" viewBox="0 0 300 135"><path class="st0" d="M6 73c1-1-2-1-2-1 0 2 1 1 2 1zm291-13c0-3-5-3-6-5 2-4 6-5 9-9-3 1-3 0-5-1-2 2-3 2-6 1l-5 5s-2-1-1-2c-24-14-55-25-76-38V3l-4-1-1 7c-3-1-2-4-4-5-5 3-14-9-17-2 0 1 3 0 1 2 5 0 7 2 9 5-1 1-3 2-2 4 9 0 13 6 12 15h-14c-3 2-9 2-15 2-3 0-8-2-10 1 2 4 6 2 9 1h30l2 4a989 989 0 0 0-88 1c-12 0-21 0-32-3h-6c-17-2-32 1-49-4-2-2-1-6-3-7-2 0-2 4-4 4-1-1 0-4-3-4-2 1-1 3-2 4-3 0-5-2-6 0-1 3 3 2 4 4l-6-1c-1 3-4 3-3 6 3 2 6 0 8-1 3 6-6 2-7 5 0 4 8-1 8 3-3 1-7-1-8 2l-1 2 9 1c-1 8 0 17-2 27-3 2-9-1-12 2 0 4 7 0 9 3-2 1-8-1-8 2 2 3 7-1 10 0 3 3-1 10 0 11 3 0 3-4 5-6l2-6c43-11 93-8 146-6l12 2c-12 2-21 3-32 1 20 10 38-7 57 5-2 8 2 22-2 30-2 5-7 4-10 8 0 2 1 3 2 3 2 0 2-3 3-4 0 2 2 3 3 5 0 4-2 8 2 10 2-4 2-8 2-13 1-1 3-1 3-3 4-1 5-4 7-6 7-7 16-10 24-16 15-10 27-24 42-33 1 0 4-1 3-2h-1c4-4 14-2 18-2zm-66-30c10 4 20 9 29 15-10-4-20-10-29-15-2 0 0-2 0 0zm-2-2c-5-1-12-5-18-8 8 0 12 6 18 8zm-20 5c-2-1-2-2-1-4l1 4zm-2-9c0 1 2 2 0 4v-4zM21 71c-2-6 1-14 1-21l2-1c1 0 1 2-1 1 2 7 1 12-2 21zm31-33l3-1c16-2 37 4 54 4l-54 1-24-1v-5l21 2zm132 36c-17-2-37-4-54-4 23-3 48 1 70 2l2 1c-5 4-12 1-18 1zm24 33c1-8 0-18 2-26 3 0 11 4 13 1-3-3-6-5-12-5l-1-3c4 0 9 3 11 0-2-5-14-1-15-6-2-1-2 1-4 1-63-6-119-1-176 4 2-8 2-21 6-27 29 1 57-2 87-1l50 1c13 0 26-3 37 0 3 3 0 10 3 12 2-2 0-10 3-15 5 1 9 2 11-1-2-5-9-1-12-4v-6c0-3 1 1 2 0 1-3-2-3-3-4 0-2 2-3 1-6 20 9 36 21 57 30-7 9-19 12-26 21-5 1-11 7-17 12-3 2-12 5-12 8 2 5 7-1 10-2 2-3 5-5 9-6 10-9 21-16 33-24 3-2 6-8 10-4-22 18-43 36-67 50zm-92-30c-1-1-3-4-5-2-17-2-34 2-50 2-11 0-22-1-30 4 2 1 5 1 7 3 8-3 19-4 30-4 14-1 29-2 41-1l10 2c0-2 3 0 2-2 0-2-3-2-5-2z"/></svg>