<svg version="1" id="图层_1" xmlns="http://www.w3.org/2000/svg" viewBox="0 0 300 111"><path class="st0" d="M299 52c3 6-3 6-5 8-9 5-19 11-29 15-7 3-12 7-18 11-5 3-11 3-12 9-11 0-17 13-29 16-4-8 4-19 2-30-1 0-3 0-3-2-3-1-3 1-5 2l-5-2h-56c-2 0-1 3-4 3-2 2-1-2-2-3l-29 2c-2-1-1 2-3 1-3-2-11-2-13 1-4-3-9-1-16-1-14 1-33-2-41 3-2 1-2-2-4-1-3-1-1 2-3 1-4-2-16 2-21 2-2-2 0-8-3-10 7-12-2-34 0-48 29-2 73 5 107 3 31 2 65 2 98 1-1-12-7-20-6-32l2-1c29 16 60 31 87 48l11 4zm-91-33c4-1 3 2 5 3l3-6c-2-3-5-5-9-6-1 4 1 6 1 9zm20 3l-3-2c1 0 0 3 3 2zm-9 9c2-1 4-3 5-6-4-8-11 1-5 6zm11-5l5 7c2 0 2-3 3-4-1-3-6-7-8-3zm-16 13c1-2 3-3 3-5-2-1-1-5-4-5 0 4-2 7 1 10zm15 2l3-4-5-8c-6 6-5 9 2 12zm21-7l-4-3c0 2 2 4 4 3zM7 35c1 3 3 5 5 6l3-6c-2-1-5-2-8 0zm231 2c0 2 2 4 4 5 6-4 0-12-4-5zM27 42c0-3 3-3 3-6-2-2-5-1-8-2-3 3 2 6 5 8zm10-5c0 3 2 3 3 5l4-6c-2 0-5-1-7 1zm214 1c2 3 3 6 6 8 1-2 3-2 3-5-2-3-5-7-9-3zM68 37c-1 2 2 4 4 5 1-2 3-2 3-5-3 1-5-2-7 0zm-12 5l4-5h-7c0 3 3 2 3 5zm30 0c0-2 2-2 2-3-1-2-3-2-6-2 0 3 2 4 4 5zm12 0c0-2 4-3 2-4h-6c1 2 2 4 4 4zm17 1c0-2 2-3 3-5h-7c0 3 2 4 4 5zm13 1l4-6h-7l3 6zm16 1c2-1 4-3 5-6l-9-1c0 3 3 4 4 7zm24-2c2 2 3 5 6 6l4-7c-3-4-7-4-10 1zm48 2l4 6 5-7c-2-2-3-5-6-6 0 3-3 4-3 7zm-33-1c3 0 2 3 5 3 0-3 3-3 4-6-3-5-7 0-9 3zM15 45l5 6 4-6-6-6c0 3-3 4-3 6zm33-6c-1 3-4 4-4 7 5 6 8 7 11-1-3-1-4-5-7-6zm107 2c1 2 2 4 5 5l2-4c-1-2-4-3-7-1zm-95 4c2 2 2 5 5 6 1-3 4-3 4-6-2-1-2-4-5-5l-4 5zm41 2l6 6 5-7c-2-2-4-5-7-6-1 3-4 4-4 7zm97-4l5 7c3-1 5-4 6-6-1-4-10-6-11-1zM30 46c2 1 2 3 5 4 1-2 3-3 3-5-2-1-2-4-5-4-1 2-3 2-3 5zm45 1c1 1 2 4 4 4l4-5-4-5c-1 2-4 3-4 6zm156-2l4 5c5-3 4-7-1-9-1 1-3 2-3 4zm-114 2c2 2 3 5 6 6 0-3 2-4 3-6l-5-6-4 6zm-29-1c2 1 2 4 4 4l3-3c-1-3-2-4-4-5 0 2-3 2-3 4zm47-4l-4 5c0 2 7 7 7 8l4-7c-2-1-3-6-7-6zm109 5c3 1 3 5 7 6 0-3 2-2 2-5-3-1-2-5-6-6 0 2-3 2-3 5zm27 0l1-1c0-2-4-4-5-3 2 1 2 4 4 4zm-124 1l6 6c1-2 3-2 3-5-2-4-6-7-9-1zm15 2c3 2 3 5 6 6 0-2 2-2 3-4l-6-6c-1 2-3 2-3 4zm28 1l6 8 5-6c-3-1-3-6-7-7l-4 5zm69-1l4 5c5-2 5-7 0-9-1 1-4 2-4 4zm-83 3l4 5c4-4 7-9 0-11l-4 6zm31 1c0 3 2 5 4 7l6-7c-1-3-3-4-5-6l-5 6zm67-3c2 0 1 4 3 5l4-6c-2-3-7-2-7 1zM23 54l5 5 3-5-4-6-4 6zm199 2l4 4c2-2 5-4 6-7-3-7-8-2-10 3zM9 52c1 3 4 3 5 5 2 0 2-2 3-3l-5-5c0 2-1 2-3 3zm36 8l3-4-7-7c-6 4 0 8 4 11zm37-6c1 2 2 5 4 5l4-5c-1-2-2-5-5-5 0 2-2 4-3 5zm156 0l4 6 5-4-6-7c0 2-3 2-3 5zM53 56c2 1 2 3 5 4l4-6c-1-2-2-3-5-4l-4 6zm15-1l4 5c2-1 3-4 4-6-1-1-2-3-5-4 0 2-3 2-3 5zm27-1c3 1 4 4 7 6l2-4c-2-2-3-5-7-6l-2 4zm15 3l5 6 5-7c-3-1-3-5-6-6l-4 7zm15-1l6 7c2-1 4-3 4-5-2-2-3-6-7-7 0 2-2 3-3 5zm16 3c1 2 2 4 5 5 1-2 4-4 4-7-2-1-3-4-6-4l-3 6zm15-1l6 7c1-2 3-3 3-6-2-1-3-5-6-6-1 1-3 3-3 5zm97-2c1 3 2 5 5 6 0-2 2-1 2-3-2-2-2-5-5-6l-2 3zm28 2l5-4c-2-1-4 3-5 4zm-15 2l4 3c8-5-3-13-4-3zm-83 2c3 0 3 4 6 4 1-2 3-2 4-5-2-2-3-5-6-6l-4 7zm-12-2c1 2 1 4 4 4 0-2 2-1 2-4-1-1-2-3-5-4l-1 4zM39 69c0-2 3-3 3-6l-7-6c-6 4-2 9 4 12zm49-6l6 6 5-6c-3-2-4-5-7-6l-4 6zm141 0l5 7 6-7-5-6-6 6zM61 64l4 5c3 0 3-4 5-6l-5-6-4 7zm-51 0c0-2 2-1 2-3-1-1-3-4-4-2 2 1 0 4 2 5zm8-4l4 7 3-4c-1-2-2-4-5-5l-2 2zm181 3l5 6 4-4c-1-7-7-8-9-2zM81 68c0-3 2-3 2-5-1-2-2-4-4-4-4 3-3 7 2 9zm133-3c2 1 2 4 5 5l4-6c-1-2-2-5-5-5l-4 6zM48 64l3 3c1-1 3-2 3-4l-4-4-2 5zm62 5c4-4 0-6-3-9-4 3 0 8 3 9zm8-3c3 2 3 6 7 7l4-7c-3-7-9-7-11 0zm136-1c-2-1-2-5-5-5-7 4 3 14 5 5zm-105 2c2 1 4 3 4 7h2l4-6c-2-3-3-6-6-7-1 3-4 3-4 6zm-14-1l5 5c1-2 3-2 3-4l-5-5c0 2-2 2-3 4zm125 0c1 2 4 3 5 0-1-1-1-3-3-3 0 1-2 1-2 3zm-95 3c3-1 3 2 4 2 1-2 3-2 3-4l-4-4c0 3-4 3-3 6zM13 69c3 0 3 4 5 5l2-4c-2-2-2-5-5-6 0 2-2 2-2 5zm165 0c1 1 3 3 5 3 1-1 3-1 3-3-2-1-3-4-6-5l-2 5zM32 75l3-2c-1-3-4-5-7-7-4 5 1 6 4 9zm160-3h9l-5-6c-1 2-4 3-4 6zM55 71c3 1 3 5 6 5l2-4c-3-1-3-5-6-5l-2 4zm28 1c2 2 3 4 8 3 1-4-3-6-6-8l-2 5zm14 2c3 2 6 1 10 1-1-4-3-6-6-8l-4 7zm-54-1c1-2 1 2 3 2 2-2 2-7-1-7 0 2-4 3-2 5zm27 0l1 3h4c0-2 1-3 3-3-1-3-2-4-5-5-1 2-3 3-3 5zm152 1c1 2 2 5 5 5l4-5-5-6c-1 3-4 3-4 6zm15 0c1 3 3 4 5 6 0-4 4-4 4-7-1-8-7-4-9 1zm-29-2h6c-1-2-2-4-4-4 1 2-2 2-2 4zm45 2l4-4-1-1c-1 2-3 2-3 5zm-140-1l6 1c0-3-3-3-4-5l-2 4zm17 1h5c0-3-1-3-3-3-1 1-2 1-2 3zm14 0h5l-3-3c-1 1-2 1-2 3zM10 80l5-2c-1-4-3-5-6-6l1 8zm11-2h6c-1-3-1-5-4-4l-2 4zm195 3c0 3 2 4 3 6 3 0 2-3 4-3l-5-6-2 3zm13 3c3 4 8 2 9-2-2 0-2-3-4-4l-5 6zm-5 7c2 0 5-2 2-3-1 1-3 1-2 3zm-8 2c0-2 1-4-1-4 0 1-1 4 1 4z"/></svg>