<svg version="1" id="图层_1" xmlns="http://www.w3.org/2000/svg" viewBox="0 0 300 288"><path class="st0" d="M125 3c-2 3-2 10-1 12 14-1 29-2 42 1 2-3 2-11 0-14-9 1-36-6-41 1zm68 5c-3-2-9 4-8 8l2 4c15 3 23 13 35 18 3-2 6-4 6-9-5-5-18-13-27-17l-8-4zm-93 1c-6-1-11 1-16 3-9 5-20 10-25 18 2 4 5 8 10 9 4-4 9-8 15-11l18-8c1-4-1-8-2-11zm159 74c4-2 8-4 10-7-1-6-5-10-8-15-5-9-16-28-24-10 8 8 16 17 20 30l2 2zM27 86c5-14 14-23 23-33 1-5-7-10-11-10-6 1-11 12-15 17-5 7-9 15-10 20 3 4 7 7 13 6zm273 25c-5-2-12 1-16 2-3-6-3-19-8-25-19-1-6 19-5 28-3 4-20 2-21 6-1 1 2 2 2 6 5 3 8 8 12 12 3 6 8 11 12 16 3 4 3 9 9 10 4-2 1-12 6-14 0-14 10-27 9-41zM15 143c-1-17 3-28 6-41-2 0-2-1-2-2-4-1-9-1-12 2-2 13-10 28-6 41 5 1 10 2 14 0zm0 27c-4-2-9 0-12 1-2 11 4 26 8 36 3 3 3 10 8 10 3 0 5-4 8-5 2-7-4-11-6-17-3-8-3-19-6-25zm28 59c-5 0-7 6-9 11l16 13 10 8c3 2 10 6 13 5 4-1 5-7 5-11-7-3-18-8-25-15-3-3-6-10-10-11zm82 44l-11-2c-7-1-12-4-15-2l-1 11c3 3 9 4 14 6 11 2 25 3 34 1-1-5 1-7 1-11-5-3-13-2-22-3z"/></svg>