<svg version="1" id="图层_1" xmlns="http://www.w3.org/2000/svg" viewBox="0 0 300 300"><path class="st0" d="M150 300c-13 0-25-9-28-22l-20-71c-2-4-5-7-9-9l-71-20a29 29 0 0 1 0-57l71-19c4-2 7-5 9-9l20-71a29 29 0 0 1 57 0l19 71c2 4 5 7 9 9l71 20a29 29 0 0 1 0 57l-71 19c-4 2-7 5-9 9l-20 71c-3 13-15 22-28 22zm0-283c-5 0-10 2-12 9l-20 72c-3 9-11 17-21 20l-71 20c-7 2-9 8-9 12 0 5 2 10 9 12l71 20c10 3 18 11 21 21l20 71c2 7 7 9 12 9s10-2 12-9l20-71c3-10 11-18 21-21l71-20c7-2 9-7 9-12s-2-10-9-12l-71-20c-10-3-18-11-21-20l-20-72c-2-7-7-9-12-9z"/></svg>