<svg version="1" id="图层_1" xmlns="http://www.w3.org/2000/svg" viewBox="0 0 300 288"><path class="st0" d="M224 288c-5 0-10-1-14-3-38-20-82-20-120 0-10 5-23 4-32-2-9-7-14-19-12-30 7-42-7-84-37-114-8-8-11-20-8-31 4-11 13-19 25-20 42-7 78-33 97-71 5-11 16-17 27-17 12 0 22 6 27 17 19 38 55 64 97 70a30 30 0 0 1 17 52c-31 29-44 72-37 114 2 11-3 23-12 29-5 4-12 6-18 6zM150 16c-5 0-10 3-12 8-22 43-63 73-110 80-5 0-9 4-11 9s0 10 3 14c35 34 50 82 42 129-1 5 1 10 6 13 4 4 10 4 14 1 43-22 93-22 136 0 4 3 10 2 14-1s7-8 6-13c-8-47 7-95 41-129 4-4 6-9 4-14s-6-9-11-9c-48-7-88-37-110-80-2-5-7-8-12-8z"/></svg>