<svg version="1" id="图层_1" xmlns="http://www.w3.org/2000/svg" viewBox="0 0 269 300"><path class="st0" d="M135 300c-14 0-27-8-32-21l-13-30c-4-7-11-11-19-10l-32 3c-14 2-27-5-34-17s-6-27 2-38l19-26c5-7 5-15 0-22L7 113c-8-11-9-26-2-38s20-19 34-17l32 3c8 1 15-3 19-10l13-30c5-13 18-21 32-21s26 8 31 21l14 30c3 7 10 11 18 10l33-3c13-2 26 5 33 17 8 12 7 27-2 38l-19 27c-5 6-5 14 0 21l19 26c9 11 9 26 2 38-6 12-19 19-33 17l-33-3c-8-1-15 3-18 10l-14 30c-5 13-17 21-31 21zm-62-78c14 0 26 8 32 20l13 30c3 7 9 11 17 11 7 0 13-4 16-11l13-30c6-14 21-22 36-20l32 3c7 1 14-2 18-9 3-6 3-13-1-19l-20-27c-9-12-9-28 0-41l20-26c4-6 4-13 1-20-4-6-10-9-18-8l-32 3c-16 2-30-7-36-21l-13-30c-3-6-9-10-16-10-8 0-14 4-17 11l-13 30c-6 14-20 22-35 20l-33-3c-7-1-14 2-17 9-4 6-4 13 1 19l19 27c9 12 9 28 0 41l-19 26c-5 6-5 13-1 20 3 6 10 9 17 8l33-3h3z"/></svg>