<svg version="1" id="图层_1" xmlns="http://www.w3.org/2000/svg" viewBox="0 0 300 300"><path class="st0" d="M150 300c-16 0-30-10-35-25-2-6-6-10-12-13-5-2-11-2-16 1-15 7-32 5-43-7a36 36 0 0 1-7-43 20 20 0 0 0-12-28c-15-5-25-19-25-35s10-30 25-35c6-2 10-6 13-12 2-5 2-11-1-16-7-15-5-32 7-43 11-12 28-14 43-7a20 20 0 0 0 28-12c5-15 19-25 35-25s30 10 35 25c2 6 6 10 12 13 5 2 11 2 16-1 15-7 32-5 43 7 12 11 14 28 7 43a20 20 0 0 0 12 28c15 5 25 19 25 35s-10 30-25 35c-6 2-10 6-13 12-2 5-2 11 1 16 7 15 5 32-7 43a36 36 0 0 1-43 7 20 20 0 0 0-28 12c-5 15-19 25-35 25zm-54-56a37 37 0 0 1 35 25c3 10 12 14 19 14s16-4 19-14a37 37 0 0 1 52-21c10 4 18 1 23-4s9-14 4-23a37 37 0 0 1 21-52c10-3 14-12 14-19s-4-16-14-19a37 37 0 0 1-21-52c4-9 1-18-4-23s-14-9-23-4a37 37 0 0 1-52-21c-3-10-12-14-19-14s-16 4-19 14a37 37 0 0 1-52 21c-9-4-18-1-23 4s-9 14-4 23a37 37 0 0 1-21 52c-10 3-14 12-14 19s4 16 14 19a37 37 0 0 1 21 52c-4 10-1 18 4 23s14 9 23 4c5-3 11-4 17-4z"/></svg>