<svg version="1" id="图层_1" xmlns="http://www.w3.org/2000/svg" viewBox="0 0 300 300"><path class="st0" d="M150 300c-13 0-23-8-26-21-1-3-3-6-7-7-3-1-7 0-9 3-9 9-22 11-33 5s-16-19-12-31c1-3 0-7-3-10-2-2-6-3-9-2-12 4-25-1-31-12s-4-24 5-33c2-2 3-6 3-9-1-4-4-6-8-7-12-3-20-13-20-26s8-23 21-26c3-1 6-3 7-7 1-3 0-7-3-9-9-9-11-22-5-33s19-16 31-12c3 1 7 0 10-3 2-2 3-6 2-9-4-12 1-25 12-31s24-4 33 5c2 3 6 4 9 3 4-1 6-4 7-7 3-13 13-21 26-21s23 8 26 21c1 3 3 6 7 7 3 1 7 0 9-3 9-9 22-11 33-5s16 19 12 31c-1 3 0 7 3 10 2 2 6 3 9 2 12-4 25 1 31 12s4 24-5 33c-2 2-3 6-3 9 1 4 4 6 8 7 12 3 20 13 20 26s-8 23-21 26c-3 1-6 3-7 7-1 3 0 7 3 9 9 9 11 22 5 33s-19 16-31 12c-3-1-7 0-10 3-2 2-3 6-2 9 4 12-1 25-12 31s-24 4-33-5c-2-2-6-4-9-3-4 1-6 4-7 8-3 12-13 20-26 20zm-35-45l7 1c9 2 16 10 19 20 1 5 5 7 9 7s8-2 9-7a27 27 0 0 1 46-13c4 5 8 4 12 2 3-2 6-5 4-11a26 26 0 0 1 33-33c5 2 9-1 11-4 2-4 3-8-2-12-7-7-10-17-7-26 2-10 10-17 20-19 5-2 7-6 7-10s-2-8-7-9a27 27 0 0 1-13-46c4-3 4-8 2-11-2-4-6-6-11-5a26 26 0 0 1-33-33c2-5-1-9-4-11-4-2-8-2-12 2-7 7-17 10-27 7-9-2-16-10-19-19-1-6-5-8-9-8s-8 2-9 8a27 27 0 0 1-46 12c-3-4-8-4-11-2-4 2-6 6-5 11a26 26 0 0 1-33 33c-5-1-9 1-11 5-2 3-2 8 2 11 7 7 10 17 7 27-2 9-10 17-19 19-6 1-8 5-8 9s2 8 8 10a27 27 0 0 1 12 45c-4 4-4 8-2 12 2 3 6 6 11 4a26 26 0 0 1 33 33c-1 6 1 9 5 11 3 2 8 3 11-2 5-5 13-8 20-8z"/></svg>